G04 #@! TF.GenerationSoftware,KiCad,Pcbnew,(5.0.0)*
G04 #@! TF.CreationDate,2020-05-01T19:32:20+02:00*
G04 #@! TF.ProjectId,PGPExT_v1-1,5047504578545F76312D312E6B696361,1.1*
G04 #@! TF.SameCoordinates,Original*
G04 #@! TF.FileFunction,Soldermask,Top*
G04 #@! TF.FilePolarity,Negative*
%FSLAX46Y46*%
G04 Gerber Fmt 4.6, Leading zero omitted, Abs format (unit mm)*
G04 Created by KiCad (PCBNEW (5.0.0)) date 05/01/20 19:32:20*
%MOMM*%
%LPD*%
G01*
G04 APERTURE LIST*
%ADD10C,0.100000*%
%ADD11C,0.150000*%
%ADD12C,0.300000*%
%ADD13C,0.400000*%
%ADD14C,0.800000*%
%ADD15R,0.500000X0.750000*%
%ADD16C,1.200000*%
%ADD17C,1.075000*%
%ADD18C,0.975000*%
%ADD19C,1.600000*%
%ADD20R,2.700000X1.700000*%
%ADD21R,1.000000X0.900000*%
%ADD22R,1.160000X0.750000*%
G04 APERTURE END LIST*
D10*
D11*
X177002200Y-166007200D02*
X177002200Y-198007200D01*
X285002200Y-198007200D01*
X285002200Y-166007200D01*
X177002200Y-166007200D01*
D10*
D11*
X10000000Y-10000000D02*
X10000000Y-200007200D01*
X287002200Y-200007200D01*
X287002200Y-10000000D01*
X10000000Y-10000000D01*
D10*
D11*
X12000000Y-12000000D02*
X12000000Y-198007200D01*
X285002200Y-198007200D01*
X285002200Y-12000000D01*
X12000000Y-12000000D01*
D10*
D11*
X60000000Y-12000000D02*
X60000000Y-10000000D01*
D10*
D11*
X110000000Y-12000000D02*
X110000000Y-10000000D01*
D10*
D11*
X160000000Y-12000000D02*
X160000000Y-10000000D01*
D10*
D11*
X210000000Y-12000000D02*
X210000000Y-10000000D01*
D10*
D11*
X260000000Y-12000000D02*
X260000000Y-10000000D01*
D10*
D11*
X36065476Y-11588095D02*
X35322619Y-11588095D01*
X35694047Y-11588095D02*
X35694047Y-10288095D01*
X35570238Y-10473809D01*
X35446428Y-10597619D01*
X35322619Y-10659523D01*
D10*
D11*
X85322619Y-10411904D02*
X85384523Y-10350000D01*
X85508333Y-10288095D01*
X85817857Y-10288095D01*
X85941666Y-10350000D01*
X86003571Y-10411904D01*
X86065476Y-10535714D01*
X86065476Y-10659523D01*
X86003571Y-10845238D01*
X85260714Y-11588095D01*
X86065476Y-11588095D01*
D10*
D11*
X135260714Y-10288095D02*
X136065476Y-10288095D01*
X135632142Y-10783333D01*
X135817857Y-10783333D01*
X135941666Y-10845238D01*
X136003571Y-10907142D01*
X136065476Y-11030952D01*
X136065476Y-11340476D01*
X136003571Y-11464285D01*
X135941666Y-11526190D01*
X135817857Y-11588095D01*
X135446428Y-11588095D01*
X135322619Y-11526190D01*
X135260714Y-11464285D01*
D10*
D11*
X185941666Y-10721428D02*
X185941666Y-11588095D01*
X185632142Y-10226190D02*
X185322619Y-11154761D01*
X186127380Y-11154761D01*
D10*
D11*
X236003571Y-10288095D02*
X235384523Y-10288095D01*
X235322619Y-10907142D01*
X235384523Y-10845238D01*
X235508333Y-10783333D01*
X235817857Y-10783333D01*
X235941666Y-10845238D01*
X236003571Y-10907142D01*
X236065476Y-11030952D01*
X236065476Y-11340476D01*
X236003571Y-11464285D01*
X235941666Y-11526190D01*
X235817857Y-11588095D01*
X235508333Y-11588095D01*
X235384523Y-11526190D01*
X235322619Y-11464285D01*
D10*
D11*
X285941666Y-10288095D02*
X285694047Y-10288095D01*
X285570238Y-10350000D01*
X285508333Y-10411904D01*
X285384523Y-10597619D01*
X285322619Y-10845238D01*
X285322619Y-11340476D01*
X285384523Y-11464285D01*
X285446428Y-11526190D01*
X285570238Y-11588095D01*
X285817857Y-11588095D01*
X285941666Y-11526190D01*
X286003571Y-11464285D01*
X286065476Y-11340476D01*
X286065476Y-11030952D01*
X286003571Y-10907142D01*
X285941666Y-10845238D01*
X285817857Y-10783333D01*
X285570238Y-10783333D01*
X285446428Y-10845238D01*
X285384523Y-10907142D01*
X285322619Y-11030952D01*
D10*
D11*
X60000000Y-198007200D02*
X60000000Y-200007200D01*
D10*
D11*
X110000000Y-198007200D02*
X110000000Y-200007200D01*
D10*
D11*
X160000000Y-198007200D02*
X160000000Y-200007200D01*
D10*
D11*
X210000000Y-198007200D02*
X210000000Y-200007200D01*
D10*
D11*
X260000000Y-198007200D02*
X260000000Y-200007200D01*
D10*
D11*
X36065476Y-199595295D02*
X35322619Y-199595295D01*
X35694047Y-199595295D02*
X35694047Y-198295295D01*
X35570238Y-198481009D01*
X35446428Y-198604819D01*
X35322619Y-198666723D01*
D10*
D11*
X85322619Y-198419104D02*
X85384523Y-198357200D01*
X85508333Y-198295295D01*
X85817857Y-198295295D01*
X85941666Y-198357200D01*
X86003571Y-198419104D01*
X86065476Y-198542914D01*
X86065476Y-198666723D01*
X86003571Y-198852438D01*
X85260714Y-199595295D01*
X86065476Y-199595295D01*
D10*
D11*
X135260714Y-198295295D02*
X136065476Y-198295295D01*
X135632142Y-198790533D01*
X135817857Y-198790533D01*
X135941666Y-198852438D01*
X136003571Y-198914342D01*
X136065476Y-199038152D01*
X136065476Y-199347676D01*
X136003571Y-199471485D01*
X135941666Y-199533390D01*
X135817857Y-199595295D01*
X135446428Y-199595295D01*
X135322619Y-199533390D01*
X135260714Y-199471485D01*
D10*
D11*
X185941666Y-198728628D02*
X185941666Y-199595295D01*
X185632142Y-198233390D02*
X185322619Y-199161961D01*
X186127380Y-199161961D01*
D10*
D11*
X236003571Y-198295295D02*
X235384523Y-198295295D01*
X235322619Y-198914342D01*
X235384523Y-198852438D01*
X235508333Y-198790533D01*
X235817857Y-198790533D01*
X235941666Y-198852438D01*
X236003571Y-198914342D01*
X236065476Y-199038152D01*
X236065476Y-199347676D01*
X236003571Y-199471485D01*
X235941666Y-199533390D01*
X235817857Y-199595295D01*
X235508333Y-199595295D01*
X235384523Y-199533390D01*
X235322619Y-199471485D01*
D10*
D11*
X285941666Y-198295295D02*
X285694047Y-198295295D01*
X285570238Y-198357200D01*
X285508333Y-198419104D01*
X285384523Y-198604819D01*
X285322619Y-198852438D01*
X285322619Y-199347676D01*
X285384523Y-199471485D01*
X285446428Y-199533390D01*
X285570238Y-199595295D01*
X285817857Y-199595295D01*
X285941666Y-199533390D01*
X286003571Y-199471485D01*
X286065476Y-199347676D01*
X286065476Y-199038152D01*
X286003571Y-198914342D01*
X285941666Y-198852438D01*
X285817857Y-198790533D01*
X285570238Y-198790533D01*
X285446428Y-198852438D01*
X285384523Y-198914342D01*
X285322619Y-199038152D01*
D10*
D11*
X10000000Y-60000000D02*
X12000000Y-60000000D01*
D10*
D11*
X10000000Y-110000000D02*
X12000000Y-110000000D01*
D10*
D11*
X10000000Y-160000000D02*
X12000000Y-160000000D01*
D10*
D11*
X10690476Y-35216666D02*
X11309523Y-35216666D01*
X10566666Y-35588095D02*
X11000000Y-34288095D01*
X11433333Y-35588095D01*
D10*
D11*
X11092857Y-84907142D02*
X11278571Y-84969047D01*
X11340476Y-85030952D01*
X11402380Y-85154761D01*
X11402380Y-85340476D01*
X11340476Y-85464285D01*
X11278571Y-85526190D01*
X11154761Y-85588095D01*
X10659523Y-85588095D01*
X10659523Y-84288095D01*
X11092857Y-84288095D01*
X11216666Y-84350000D01*
X11278571Y-84411904D01*
X11340476Y-84535714D01*
X11340476Y-84659523D01*
X11278571Y-84783333D01*
X11216666Y-84845238D01*
X11092857Y-84907142D01*
X10659523Y-84907142D01*
D10*
D11*
X11402380Y-135464285D02*
X11340476Y-135526190D01*
X11154761Y-135588095D01*
X11030952Y-135588095D01*
X10845238Y-135526190D01*
X10721428Y-135402380D01*
X10659523Y-135278571D01*
X10597619Y-135030952D01*
X10597619Y-134845238D01*
X10659523Y-134597619D01*
X10721428Y-134473809D01*
X10845238Y-134350000D01*
X11030952Y-134288095D01*
X11154761Y-134288095D01*
X11340476Y-134350000D01*
X11402380Y-134411904D01*
D10*
D11*
X10659523Y-185588095D02*
X10659523Y-184288095D01*
X10969047Y-184288095D01*
X11154761Y-184350000D01*
X11278571Y-184473809D01*
X11340476Y-184597619D01*
X11402380Y-184845238D01*
X11402380Y-185030952D01*
X11340476Y-185278571D01*
X11278571Y-185402380D01*
X11154761Y-185526190D01*
X10969047Y-185588095D01*
X10659523Y-185588095D01*
D10*
D11*
X287002200Y-60000000D02*
X285002200Y-60000000D01*
D10*
D11*
X287002200Y-110000000D02*
X285002200Y-110000000D01*
D10*
D11*
X287002200Y-160000000D02*
X285002200Y-160000000D01*
D10*
D11*
X285692676Y-35216666D02*
X286311723Y-35216666D01*
X285568866Y-35588095D02*
X286002200Y-34288095D01*
X286435533Y-35588095D01*
D10*
D11*
X286095057Y-84907142D02*
X286280771Y-84969047D01*
X286342676Y-85030952D01*
X286404580Y-85154761D01*
X286404580Y-85340476D01*
X286342676Y-85464285D01*
X286280771Y-85526190D01*
X286156961Y-85588095D01*
X285661723Y-85588095D01*
X285661723Y-84288095D01*
X286095057Y-84288095D01*
X286218866Y-84350000D01*
X286280771Y-84411904D01*
X286342676Y-84535714D01*
X286342676Y-84659523D01*
X286280771Y-84783333D01*
X286218866Y-84845238D01*
X286095057Y-84907142D01*
X285661723Y-84907142D01*
D10*
D11*
X286404580Y-135464285D02*
X286342676Y-135526190D01*
X286156961Y-135588095D01*
X286033152Y-135588095D01*
X285847438Y-135526190D01*
X285723628Y-135402380D01*
X285661723Y-135278571D01*
X285599819Y-135030952D01*
X285599819Y-134845238D01*
X285661723Y-134597619D01*
X285723628Y-134473809D01*
X285847438Y-134350000D01*
X286033152Y-134288095D01*
X286156961Y-134288095D01*
X286342676Y-134350000D01*
X286404580Y-134411904D01*
D10*
D11*
X285661723Y-185588095D02*
X285661723Y-184288095D01*
X285971247Y-184288095D01*
X286156961Y-184350000D01*
X286280771Y-184473809D01*
X286342676Y-184597619D01*
X286404580Y-184845238D01*
X286404580Y-185030952D01*
X286342676Y-185278571D01*
X286280771Y-185402380D01*
X286156961Y-185526190D01*
X285971247Y-185588095D01*
X285661723Y-185588095D01*
D10*
D11*
X200434342Y-193785771D02*
X200434342Y-192285771D01*
X200791485Y-192285771D01*
X201005771Y-192357200D01*
X201148628Y-192500057D01*
X201220057Y-192642914D01*
X201291485Y-192928628D01*
X201291485Y-193142914D01*
X201220057Y-193428628D01*
X201148628Y-193571485D01*
X201005771Y-193714342D01*
X200791485Y-193785771D01*
X200434342Y-193785771D01*
X202577200Y-193785771D02*
X202577200Y-193000057D01*
X202505771Y-192857200D01*
X202362914Y-192785771D01*
X202077200Y-192785771D01*
X201934342Y-192857200D01*
X202577200Y-193714342D02*
X202434342Y-193785771D01*
X202077200Y-193785771D01*
X201934342Y-193714342D01*
X201862914Y-193571485D01*
X201862914Y-193428628D01*
X201934342Y-193285771D01*
X202077200Y-193214342D01*
X202434342Y-193214342D01*
X202577200Y-193142914D01*
X203077200Y-192785771D02*
X203648628Y-192785771D01*
X203291485Y-192285771D02*
X203291485Y-193571485D01*
X203362914Y-193714342D01*
X203505771Y-193785771D01*
X203648628Y-193785771D01*
X204720057Y-193714342D02*
X204577200Y-193785771D01*
X204291485Y-193785771D01*
X204148628Y-193714342D01*
X204077200Y-193571485D01*
X204077200Y-193000057D01*
X204148628Y-192857200D01*
X204291485Y-192785771D01*
X204577200Y-192785771D01*
X204720057Y-192857200D01*
X204791485Y-193000057D01*
X204791485Y-193142914D01*
X204077200Y-193285771D01*
X205434342Y-193642914D02*
X205505771Y-193714342D01*
X205434342Y-193785771D01*
X205362914Y-193714342D01*
X205434342Y-193642914D01*
X205434342Y-193785771D01*
X205434342Y-192857200D02*
X205505771Y-192928628D01*
X205434342Y-193000057D01*
X205362914Y-192928628D01*
X205434342Y-192857200D01*
X205434342Y-193000057D01*
X207220057Y-192428628D02*
X207291485Y-192357200D01*
X207434342Y-192285771D01*
X207791485Y-192285771D01*
X207934342Y-192357200D01*
X208005771Y-192428628D01*
X208077200Y-192571485D01*
X208077200Y-192714342D01*
X208005771Y-192928628D01*
X207148628Y-193785771D01*
X208077200Y-193785771D01*
X209005771Y-192285771D02*
X209148628Y-192285771D01*
X209291485Y-192357200D01*
X209362914Y-192428628D01*
X209434342Y-192571485D01*
X209505771Y-192857200D01*
X209505771Y-193214342D01*
X209434342Y-193500057D01*
X209362914Y-193642914D01*
X209291485Y-193714342D01*
X209148628Y-193785771D01*
X209005771Y-193785771D01*
X208862914Y-193714342D01*
X208791485Y-193642914D01*
X208720057Y-193500057D01*
X208648628Y-193214342D01*
X208648628Y-192857200D01*
X208720057Y-192571485D01*
X208791485Y-192428628D01*
X208862914Y-192357200D01*
X209005771Y-192285771D01*
X210934342Y-193785771D02*
X210077200Y-193785771D01*
X210505771Y-193785771D02*
X210505771Y-192285771D01*
X210362914Y-192500057D01*
X210220057Y-192642914D01*
X210077200Y-192714342D01*
X211648628Y-193785771D02*
X211934342Y-193785771D01*
X212077200Y-193714342D01*
X212148628Y-193642914D01*
X212291485Y-193428628D01*
X212362914Y-193142914D01*
X212362914Y-192571485D01*
X212291485Y-192428628D01*
X212220057Y-192357200D01*
X212077200Y-192285771D01*
X211791485Y-192285771D01*
X211648628Y-192357200D01*
X211577200Y-192428628D01*
X211505771Y-192571485D01*
X211505771Y-192928628D01*
X211577200Y-193071485D01*
X211648628Y-193142914D01*
X211791485Y-193214342D01*
X212077200Y-193214342D01*
X212220057Y-193142914D01*
X212291485Y-193071485D01*
X212362914Y-192928628D01*
X213005771Y-193214342D02*
X214148628Y-193214342D01*
X215148628Y-192285771D02*
X215291485Y-192285771D01*
X215434342Y-192357200D01*
X215505771Y-192428628D01*
X215577200Y-192571485D01*
X215648628Y-192857200D01*
X215648628Y-193214342D01*
X215577200Y-193500057D01*
X215505771Y-193642914D01*
X215434342Y-193714342D01*
X215291485Y-193785771D01*
X215148628Y-193785771D01*
X215005771Y-193714342D01*
X214934342Y-193642914D01*
X214862914Y-193500057D01*
X214791485Y-193214342D01*
X214791485Y-192857200D01*
X214862914Y-192571485D01*
X214934342Y-192428628D01*
X215005771Y-192357200D01*
X215148628Y-192285771D01*
X216362914Y-193785771D02*
X216648628Y-193785771D01*
X216791485Y-193714342D01*
X216862914Y-193642914D01*
X217005771Y-193428628D01*
X217077200Y-193142914D01*
X217077200Y-192571485D01*
X217005771Y-192428628D01*
X216934342Y-192357200D01*
X216791485Y-192285771D01*
X216505771Y-192285771D01*
X216362914Y-192357200D01*
X216291485Y-192428628D01*
X216220057Y-192571485D01*
X216220057Y-192928628D01*
X216291485Y-193071485D01*
X216362914Y-193142914D01*
X216505771Y-193214342D01*
X216791485Y-193214342D01*
X216934342Y-193142914D01*
X217005771Y-193071485D01*
X217077200Y-192928628D01*
X217720057Y-193214342D02*
X218862914Y-193214342D01*
X220362914Y-193785771D02*
X219505771Y-193785771D01*
X219934342Y-193785771D02*
X219934342Y-192285771D01*
X219791485Y-192500057D01*
X219648628Y-192642914D01*
X219505771Y-192714342D01*
X221791485Y-193785771D02*
X220934342Y-193785771D01*
X221362914Y-193785771D02*
X221362914Y-192285771D01*
X221220057Y-192500057D01*
X221077200Y-192642914D01*
X220934342Y-192714342D01*
D10*
D11*
X177002200Y-194507200D02*
X285002200Y-194507200D01*
D10*
D11*
X178434342Y-196585771D02*
X178434342Y-195085771D01*
X179291485Y-196585771D02*
X178648628Y-195728628D01*
X179291485Y-195085771D02*
X178434342Y-195942914D01*
X179934342Y-196585771D02*
X179934342Y-195585771D01*
X179934342Y-195085771D02*
X179862914Y-195157200D01*
X179934342Y-195228628D01*
X180005771Y-195157200D01*
X179934342Y-195085771D01*
X179934342Y-195228628D01*
X181505771Y-196442914D02*
X181434342Y-196514342D01*
X181220057Y-196585771D01*
X181077200Y-196585771D01*
X180862914Y-196514342D01*
X180720057Y-196371485D01*
X180648628Y-196228628D01*
X180577200Y-195942914D01*
X180577200Y-195728628D01*
X180648628Y-195442914D01*
X180720057Y-195300057D01*
X180862914Y-195157200D01*
X181077200Y-195085771D01*
X181220057Y-195085771D01*
X181434342Y-195157200D01*
X181505771Y-195228628D01*
X182791485Y-196585771D02*
X182791485Y-195800057D01*
X182720057Y-195657200D01*
X182577200Y-195585771D01*
X182291485Y-195585771D01*
X182148628Y-195657200D01*
X182791485Y-196514342D02*
X182648628Y-196585771D01*
X182291485Y-196585771D01*
X182148628Y-196514342D01*
X182077200Y-196371485D01*
X182077200Y-196228628D01*
X182148628Y-196085771D01*
X182291485Y-196014342D01*
X182648628Y-196014342D01*
X182791485Y-195942914D01*
X184148628Y-196585771D02*
X184148628Y-195085771D01*
X184148628Y-196514342D02*
X184005771Y-196585771D01*
X183720057Y-196585771D01*
X183577200Y-196514342D01*
X183505771Y-196442914D01*
X183434342Y-196300057D01*
X183434342Y-195871485D01*
X183505771Y-195728628D01*
X183577200Y-195657200D01*
X183720057Y-195585771D01*
X184005771Y-195585771D01*
X184148628Y-195657200D01*
X186005771Y-195800057D02*
X186505771Y-195800057D01*
X186720057Y-196585771D02*
X186005771Y-196585771D01*
X186005771Y-195085771D01*
X186720057Y-195085771D01*
X187362914Y-196442914D02*
X187434342Y-196514342D01*
X187362914Y-196585771D01*
X187291485Y-196514342D01*
X187362914Y-196442914D01*
X187362914Y-196585771D01*
X188077200Y-196585771D02*
X188077200Y-195085771D01*
X188434342Y-195085771D01*
X188648628Y-195157200D01*
X188791485Y-195300057D01*
X188862914Y-195442914D01*
X188934342Y-195728628D01*
X188934342Y-195942914D01*
X188862914Y-196228628D01*
X188791485Y-196371485D01*
X188648628Y-196514342D01*
X188434342Y-196585771D01*
X188077200Y-196585771D01*
X189577200Y-196442914D02*
X189648628Y-196514342D01*
X189577200Y-196585771D01*
X189505771Y-196514342D01*
X189577200Y-196442914D01*
X189577200Y-196585771D01*
X190220057Y-196157200D02*
X190934342Y-196157200D01*
X190077200Y-196585771D02*
X190577200Y-195085771D01*
X191077200Y-196585771D01*
X191577200Y-196442914D02*
X191648628Y-196514342D01*
X191577200Y-196585771D01*
X191505771Y-196514342D01*
X191577200Y-196442914D01*
X191577200Y-196585771D01*
X194577200Y-196585771D02*
X194577200Y-195085771D01*
X194720057Y-196014342D02*
X195148628Y-196585771D01*
X195148628Y-195585771D02*
X194577200Y-196157200D01*
X195791485Y-196585771D02*
X195791485Y-195585771D01*
X195791485Y-195085771D02*
X195720057Y-195157200D01*
X195791485Y-195228628D01*
X195862914Y-195157200D01*
X195791485Y-195085771D01*
X195791485Y-195228628D01*
X197148628Y-196514342D02*
X197005771Y-196585771D01*
X196720057Y-196585771D01*
X196577200Y-196514342D01*
X196505771Y-196442914D01*
X196434342Y-196300057D01*
X196434342Y-195871485D01*
X196505771Y-195728628D01*
X196577200Y-195657200D01*
X196720057Y-195585771D01*
X197005771Y-195585771D01*
X197148628Y-195657200D01*
X198434342Y-196585771D02*
X198434342Y-195800057D01*
X198362914Y-195657200D01*
X198220057Y-195585771D01*
X197934342Y-195585771D01*
X197791485Y-195657200D01*
X198434342Y-196514342D02*
X198291485Y-196585771D01*
X197934342Y-196585771D01*
X197791485Y-196514342D01*
X197720057Y-196371485D01*
X197720057Y-196228628D01*
X197791485Y-196085771D01*
X197934342Y-196014342D01*
X198291485Y-196014342D01*
X198434342Y-195942914D01*
X199791485Y-196585771D02*
X199791485Y-195085771D01*
X199791485Y-196514342D02*
X199648628Y-196585771D01*
X199362914Y-196585771D01*
X199220057Y-196514342D01*
X199148628Y-196442914D01*
X199077200Y-196300057D01*
X199077200Y-195871485D01*
X199148628Y-195728628D01*
X199220057Y-195657200D01*
X199362914Y-195585771D01*
X199648628Y-195585771D01*
X199791485Y-195657200D01*
X202077200Y-197157200D02*
X202005771Y-197085771D01*
X201862914Y-196871485D01*
X201791485Y-196728628D01*
X201720057Y-196514342D01*
X201648628Y-196157200D01*
X201648628Y-195871485D01*
X201720057Y-195514342D01*
X201791485Y-195300057D01*
X201862914Y-195157200D01*
X202005771Y-194942914D01*
X202077200Y-194871485D01*
X203362914Y-195085771D02*
X202648628Y-195085771D01*
X202577200Y-195800057D01*
X202648628Y-195728628D01*
X202791485Y-195657200D01*
X203148628Y-195657200D01*
X203291485Y-195728628D01*
X203362914Y-195800057D01*
X203434342Y-195942914D01*
X203434342Y-196300057D01*
X203362914Y-196442914D01*
X203291485Y-196514342D01*
X203148628Y-196585771D01*
X202791485Y-196585771D01*
X202648628Y-196514342D01*
X202577200Y-196442914D01*
X204077200Y-196442914D02*
X204148628Y-196514342D01*
X204077200Y-196585771D01*
X204005771Y-196514342D01*
X204077200Y-196442914D01*
X204077200Y-196585771D01*
X205077200Y-195085771D02*
X205220057Y-195085771D01*
X205362914Y-195157200D01*
X205434342Y-195228628D01*
X205505771Y-195371485D01*
X205577200Y-195657200D01*
X205577200Y-196014342D01*
X205505771Y-196300057D01*
X205434342Y-196442914D01*
X205362914Y-196514342D01*
X205220057Y-196585771D01*
X205077200Y-196585771D01*
X204934342Y-196514342D01*
X204862914Y-196442914D01*
X204791485Y-196300057D01*
X204720057Y-196014342D01*
X204720057Y-195657200D01*
X204791485Y-195371485D01*
X204862914Y-195228628D01*
X204934342Y-195157200D01*
X205077200Y-195085771D01*
X206220057Y-196442914D02*
X206291485Y-196514342D01*
X206220057Y-196585771D01*
X206148628Y-196514342D01*
X206220057Y-196442914D01*
X206220057Y-196585771D01*
X207220057Y-195085771D02*
X207362914Y-195085771D01*
X207505771Y-195157200D01*
X207577200Y-195228628D01*
X207648628Y-195371485D01*
X207720057Y-195657200D01*
X207720057Y-196014342D01*
X207648628Y-196300057D01*
X207577200Y-196442914D01*
X207505771Y-196514342D01*
X207362914Y-196585771D01*
X207220057Y-196585771D01*
X207077200Y-196514342D01*
X207005771Y-196442914D01*
X206934342Y-196300057D01*
X206862914Y-196014342D01*
X206862914Y-195657200D01*
X206934342Y-195371485D01*
X207005771Y-195228628D01*
X207077200Y-195157200D01*
X207220057Y-195085771D01*
X208220057Y-197157200D02*
X208291485Y-197085771D01*
X208434342Y-196871485D01*
X208505771Y-196728628D01*
X208577200Y-196514342D01*
X208648628Y-196157200D01*
X208648628Y-195871485D01*
X208577200Y-195514342D01*
X208505771Y-195300057D01*
X208434342Y-195157200D01*
X208291485Y-194942914D01*
X208220057Y-194871485D01*
D10*
D11*
X177002200Y-191507200D02*
X285002200Y-191507200D01*
D10*
D12*
X264411485Y-193785771D02*
X263911485Y-193071485D01*
X263554342Y-193785771D02*
X263554342Y-192285771D01*
X264125771Y-192285771D01*
X264268628Y-192357200D01*
X264340057Y-192428628D01*
X264411485Y-192571485D01*
X264411485Y-192785771D01*
X264340057Y-192928628D01*
X264268628Y-193000057D01*
X264125771Y-193071485D01*
X263554342Y-193071485D01*
X265625771Y-193714342D02*
X265482914Y-193785771D01*
X265197200Y-193785771D01*
X265054342Y-193714342D01*
X264982914Y-193571485D01*
X264982914Y-193000057D01*
X265054342Y-192857200D01*
X265197200Y-192785771D01*
X265482914Y-192785771D01*
X265625771Y-192857200D01*
X265697200Y-193000057D01*
X265697200Y-193142914D01*
X264982914Y-193285771D01*
X266197200Y-192785771D02*
X266554342Y-193785771D01*
X266911485Y-192785771D01*
X267482914Y-193642914D02*
X267554342Y-193714342D01*
X267482914Y-193785771D01*
X267411485Y-193714342D01*
X267482914Y-193642914D01*
X267482914Y-193785771D01*
X267482914Y-192857200D02*
X267554342Y-192928628D01*
X267482914Y-193000057D01*
X267411485Y-192928628D01*
X267482914Y-192857200D01*
X267482914Y-193000057D01*
X270125771Y-193785771D02*
X269268628Y-193785771D01*
X269697200Y-193785771D02*
X269697200Y-192285771D01*
X269554342Y-192500057D01*
X269411485Y-192642914D01*
X269268628Y-192714342D01*
X270768628Y-193642914D02*
X270840057Y-193714342D01*
X270768628Y-193785771D01*
X270697200Y-193714342D01*
X270768628Y-193642914D01*
X270768628Y-193785771D01*
X272268628Y-193785771D02*
X271411485Y-193785771D01*
X271840057Y-193785771D02*
X271840057Y-192285771D01*
X271697200Y-192500057D01*
X271554342Y-192642914D01*
X271411485Y-192714342D01*
D10*
D11*
X178362914Y-193714342D02*
X178577200Y-193785771D01*
X178934342Y-193785771D01*
X179077200Y-193714342D01*
X179148628Y-193642914D01*
X179220057Y-193500057D01*
X179220057Y-193357200D01*
X179148628Y-193214342D01*
X179077200Y-193142914D01*
X178934342Y-193071485D01*
X178648628Y-193000057D01*
X178505771Y-192928628D01*
X178434342Y-192857200D01*
X178362914Y-192714342D01*
X178362914Y-192571485D01*
X178434342Y-192428628D01*
X178505771Y-192357200D01*
X178648628Y-192285771D01*
X179005771Y-192285771D01*
X179220057Y-192357200D01*
X179862914Y-193785771D02*
X179862914Y-192785771D01*
X179862914Y-192285771D02*
X179791485Y-192357200D01*
X179862914Y-192428628D01*
X179934342Y-192357200D01*
X179862914Y-192285771D01*
X179862914Y-192428628D01*
X180434342Y-192785771D02*
X181220057Y-192785771D01*
X180434342Y-193785771D01*
X181220057Y-193785771D01*
X182362914Y-193714342D02*
X182220057Y-193785771D01*
X181934342Y-193785771D01*
X181791485Y-193714342D01*
X181720057Y-193571485D01*
X181720057Y-193000057D01*
X181791485Y-192857200D01*
X181934342Y-192785771D01*
X182220057Y-192785771D01*
X182362914Y-192857200D01*
X182434342Y-193000057D01*
X182434342Y-193142914D01*
X181720057Y-193285771D01*
X183077200Y-193642914D02*
X183148628Y-193714342D01*
X183077200Y-193785771D01*
X183005771Y-193714342D01*
X183077200Y-193642914D01*
X183077200Y-193785771D01*
X183077200Y-192857200D02*
X183148628Y-192928628D01*
X183077200Y-193000057D01*
X183005771Y-192928628D01*
X183077200Y-192857200D01*
X183077200Y-193000057D01*
X184862914Y-193357200D02*
X185577200Y-193357200D01*
X184720057Y-193785771D02*
X185220057Y-192285771D01*
X185720057Y-193785771D01*
X186862914Y-192785771D02*
X186862914Y-193785771D01*
X186505771Y-192214342D02*
X186148628Y-193285771D01*
X187077200Y-193285771D01*
D10*
D11*
X263434342Y-196585771D02*
X263434342Y-195085771D01*
X264791485Y-196585771D02*
X264791485Y-195085771D01*
X264791485Y-196514342D02*
X264648628Y-196585771D01*
X264362914Y-196585771D01*
X264220057Y-196514342D01*
X264148628Y-196442914D01*
X264077200Y-196300057D01*
X264077200Y-195871485D01*
X264148628Y-195728628D01*
X264220057Y-195657200D01*
X264362914Y-195585771D01*
X264648628Y-195585771D01*
X264791485Y-195657200D01*
X265505771Y-196442914D02*
X265577200Y-196514342D01*
X265505771Y-196585771D01*
X265434342Y-196514342D01*
X265505771Y-196442914D01*
X265505771Y-196585771D01*
X265505771Y-195657200D02*
X265577200Y-195728628D01*
X265505771Y-195800057D01*
X265434342Y-195728628D01*
X265505771Y-195657200D01*
X265505771Y-195800057D01*
X268148628Y-196585771D02*
X267291485Y-196585771D01*
X267720057Y-196585771D02*
X267720057Y-195085771D01*
X267577200Y-195300057D01*
X267434342Y-195442914D01*
X267291485Y-195514342D01*
X269862914Y-195014342D02*
X268577200Y-196942914D01*
X271148628Y-196585771D02*
X270291485Y-196585771D01*
X270720057Y-196585771D02*
X270720057Y-195085771D01*
X270577200Y-195300057D01*
X270434342Y-195442914D01*
X270291485Y-195514342D01*
D10*
D11*
X177002200Y-187507200D02*
X285002200Y-187507200D01*
D10*
D13*
X178714580Y-188211961D02*
X179857438Y-188211961D01*
X179036009Y-190211961D02*
X179286009Y-188211961D01*
X180274104Y-190211961D02*
X180440771Y-188878628D01*
X180524104Y-188211961D02*
X180416961Y-188307200D01*
X180500295Y-188402438D01*
X180607438Y-188307200D01*
X180524104Y-188211961D01*
X180500295Y-188402438D01*
X181107438Y-188878628D02*
X181869342Y-188878628D01*
X181476485Y-188211961D02*
X181262200Y-189926247D01*
X181333628Y-190116723D01*
X181512200Y-190211961D01*
X181702676Y-190211961D01*
X182655057Y-190211961D02*
X182476485Y-190116723D01*
X182405057Y-189926247D01*
X182619342Y-188211961D01*
X184190771Y-190116723D02*
X183988390Y-190211961D01*
X183607438Y-190211961D01*
X183428866Y-190116723D01*
X183357438Y-189926247D01*
X183452676Y-189164342D01*
X183571723Y-188973866D01*
X183774104Y-188878628D01*
X184155057Y-188878628D01*
X184333628Y-188973866D01*
X184405057Y-189164342D01*
X184381247Y-189354819D01*
X183405057Y-189545295D01*
X185155057Y-190021485D02*
X185238390Y-190116723D01*
X185131247Y-190211961D01*
X185047914Y-190116723D01*
X185155057Y-190021485D01*
X185131247Y-190211961D01*
X185286009Y-188973866D02*
X185369342Y-189069104D01*
X185262200Y-189164342D01*
X185178866Y-189069104D01*
X185286009Y-188973866D01*
X185262200Y-189164342D01*
X187607438Y-190211961D02*
X187857438Y-188211961D01*
X188619342Y-188211961D01*
X188797914Y-188307200D01*
X188881247Y-188402438D01*
X188952676Y-188592914D01*
X188916961Y-188878628D01*
X188797914Y-189069104D01*
X188690771Y-189164342D01*
X188488390Y-189259580D01*
X187726485Y-189259580D01*
X189893152Y-190211961D02*
X189714580Y-190116723D01*
X189631247Y-190021485D01*
X189559819Y-189831009D01*
X189631247Y-189259580D01*
X189750295Y-189069104D01*
X189857438Y-188973866D01*
X190059819Y-188878628D01*
X190345533Y-188878628D01*
X190524104Y-188973866D01*
X190607438Y-189069104D01*
X190678866Y-189259580D01*
X190607438Y-189831009D01*
X190488390Y-190021485D01*
X190381247Y-190116723D01*
X190178866Y-190211961D01*
X189893152Y-190211961D01*
X192702676Y-188307200D02*
X192524104Y-188211961D01*
X192238390Y-188211961D01*
X191940771Y-188307200D01*
X191726485Y-188497676D01*
X191607438Y-188688152D01*
X191464580Y-189069104D01*
X191428866Y-189354819D01*
X191476485Y-189735771D01*
X191547914Y-189926247D01*
X191714580Y-190116723D01*
X191988390Y-190211961D01*
X192178866Y-190211961D01*
X192476485Y-190116723D01*
X192583628Y-190021485D01*
X192666961Y-189354819D01*
X192286009Y-189354819D01*
X193702676Y-190211961D02*
X193524104Y-190116723D01*
X193440771Y-190021485D01*
X193369342Y-189831009D01*
X193440771Y-189259580D01*
X193559819Y-189069104D01*
X193666961Y-188973866D01*
X193869342Y-188878628D01*
X194155057Y-188878628D01*
X194333628Y-188973866D01*
X194416961Y-189069104D01*
X194488390Y-189259580D01*
X194416961Y-189831009D01*
X194297914Y-190021485D01*
X194190771Y-190116723D01*
X193988390Y-190211961D01*
X193702676Y-190211961D01*
X195321723Y-189450057D02*
X196845533Y-189450057D01*
X195988390Y-190211961D02*
X196178866Y-188688152D01*
X197833628Y-189164342D02*
X198500295Y-189164342D01*
X198655057Y-190211961D02*
X197702676Y-190211961D01*
X197952676Y-188211961D01*
X198905057Y-188211961D01*
X199321723Y-190211961D02*
X200536009Y-188878628D01*
X199488390Y-188878628D02*
X200369342Y-190211961D01*
X201012200Y-188878628D02*
X201774104Y-188878628D01*
X201381247Y-188211961D02*
X201166961Y-189926247D01*
X201238390Y-190116723D01*
X201416961Y-190211961D01*
X201607438Y-190211961D01*
X203047914Y-190116723D02*
X202845533Y-190211961D01*
X202464580Y-190211961D01*
X202286009Y-190116723D01*
X202214580Y-189926247D01*
X202309819Y-189164342D01*
X202428866Y-188973866D01*
X202631247Y-188878628D01*
X203012200Y-188878628D01*
X203190771Y-188973866D01*
X203262200Y-189164342D01*
X203238390Y-189354819D01*
X202262200Y-189545295D01*
X204155057Y-188878628D02*
X203988390Y-190211961D01*
X204131247Y-189069104D02*
X204238390Y-188973866D01*
X204440771Y-188878628D01*
X204726485Y-188878628D01*
X204905057Y-188973866D01*
X204976485Y-189164342D01*
X204845533Y-190211961D01*
X206655057Y-190211961D02*
X206905057Y-188211961D01*
X206666961Y-190116723D02*
X206464580Y-190211961D01*
X206083628Y-190211961D01*
X205905057Y-190116723D01*
X205821723Y-190021485D01*
X205750295Y-189831009D01*
X205821723Y-189259580D01*
X205940771Y-189069104D01*
X206047914Y-188973866D01*
X206250295Y-188878628D01*
X206631247Y-188878628D01*
X206809819Y-188973866D01*
X208381247Y-190116723D02*
X208178866Y-190211961D01*
X207797914Y-190211961D01*
X207619342Y-190116723D01*
X207547914Y-189926247D01*
X207643152Y-189164342D01*
X207762200Y-188973866D01*
X207964580Y-188878628D01*
X208345533Y-188878628D01*
X208524104Y-188973866D01*
X208595533Y-189164342D01*
X208571723Y-189354819D01*
X207595533Y-189545295D01*
X209321723Y-190211961D02*
X209488390Y-188878628D01*
X209440771Y-189259580D02*
X209559819Y-189069104D01*
X209666961Y-188973866D01*
X209869342Y-188878628D01*
X210059819Y-188878628D01*
D10*
D11*
X178934342Y-185600057D02*
X178434342Y-185600057D01*
X178434342Y-186385771D02*
X178434342Y-184885771D01*
X179148628Y-184885771D01*
X179720057Y-186385771D02*
X179720057Y-185385771D01*
X179720057Y-184885771D02*
X179648628Y-184957200D01*
X179720057Y-185028628D01*
X179791485Y-184957200D01*
X179720057Y-184885771D01*
X179720057Y-185028628D01*
X180648628Y-186385771D02*
X180505771Y-186314342D01*
X180434342Y-186171485D01*
X180434342Y-184885771D01*
X181791485Y-186314342D02*
X181648628Y-186385771D01*
X181362914Y-186385771D01*
X181220057Y-186314342D01*
X181148628Y-186171485D01*
X181148628Y-185600057D01*
X181220057Y-185457200D01*
X181362914Y-185385771D01*
X181648628Y-185385771D01*
X181791485Y-185457200D01*
X181862914Y-185600057D01*
X181862914Y-185742914D01*
X181148628Y-185885771D01*
X182505771Y-186242914D02*
X182577200Y-186314342D01*
X182505771Y-186385771D01*
X182434342Y-186314342D01*
X182505771Y-186242914D01*
X182505771Y-186385771D01*
X182505771Y-185457200D02*
X182577200Y-185528628D01*
X182505771Y-185600057D01*
X182434342Y-185528628D01*
X182505771Y-185457200D01*
X182505771Y-185600057D01*
X184362914Y-186385771D02*
X184362914Y-184885771D01*
X184934342Y-184885771D01*
X185077200Y-184957200D01*
X185148628Y-185028628D01*
X185220057Y-185171485D01*
X185220057Y-185385771D01*
X185148628Y-185528628D01*
X185077200Y-185600057D01*
X184934342Y-185671485D01*
X184362914Y-185671485D01*
X186648628Y-184957200D02*
X186505771Y-184885771D01*
X186291485Y-184885771D01*
X186077200Y-184957200D01*
X185934342Y-185100057D01*
X185862914Y-185242914D01*
X185791485Y-185528628D01*
X185791485Y-185742914D01*
X185862914Y-186028628D01*
X185934342Y-186171485D01*
X186077200Y-186314342D01*
X186291485Y-186385771D01*
X186434342Y-186385771D01*
X186648628Y-186314342D01*
X186720057Y-186242914D01*
X186720057Y-185742914D01*
X186434342Y-185742914D01*
X187362914Y-186385771D02*
X187362914Y-184885771D01*
X187934342Y-184885771D01*
X188077200Y-184957200D01*
X188148628Y-185028628D01*
X188220057Y-185171485D01*
X188220057Y-185385771D01*
X188148628Y-185528628D01*
X188077200Y-185600057D01*
X187934342Y-185671485D01*
X187362914Y-185671485D01*
X188862914Y-185600057D02*
X189362914Y-185600057D01*
X189577200Y-186385771D02*
X188862914Y-186385771D01*
X188862914Y-184885771D01*
X189577200Y-184885771D01*
X190077200Y-186385771D02*
X190862914Y-185385771D01*
X190077200Y-185385771D02*
X190862914Y-186385771D01*
X191220057Y-184885771D02*
X192077200Y-184885771D01*
X191648628Y-186385771D02*
X191648628Y-184885771D01*
X192220057Y-186528628D02*
X193362914Y-186528628D01*
X193577200Y-185385771D02*
X193934342Y-186385771D01*
X194291485Y-185385771D01*
X195648628Y-186385771D02*
X194791485Y-186385771D01*
X195220057Y-186385771D02*
X195220057Y-184885771D01*
X195077200Y-185100057D01*
X194934342Y-185242914D01*
X194791485Y-185314342D01*
X196291485Y-185814342D02*
X197434342Y-185814342D01*
X198934342Y-186385771D02*
X198077200Y-186385771D01*
X198505771Y-186385771D02*
X198505771Y-184885771D01*
X198362914Y-185100057D01*
X198220057Y-185242914D01*
X198077200Y-185314342D01*
X199577200Y-186242914D02*
X199648628Y-186314342D01*
X199577200Y-186385771D01*
X199505771Y-186314342D01*
X199577200Y-186242914D01*
X199577200Y-186385771D01*
X200291485Y-186385771D02*
X200291485Y-184885771D01*
X200434342Y-185814342D02*
X200862914Y-186385771D01*
X200862914Y-185385771D02*
X200291485Y-185957200D01*
X201505771Y-186385771D02*
X201505771Y-185385771D01*
X201505771Y-184885771D02*
X201434342Y-184957200D01*
X201505771Y-185028628D01*
X201577200Y-184957200D01*
X201505771Y-184885771D01*
X201505771Y-185028628D01*
X202862914Y-186314342D02*
X202720057Y-186385771D01*
X202434342Y-186385771D01*
X202291485Y-186314342D01*
X202220057Y-186242914D01*
X202148628Y-186100057D01*
X202148628Y-185671485D01*
X202220057Y-185528628D01*
X202291485Y-185457200D01*
X202434342Y-185385771D01*
X202720057Y-185385771D01*
X202862914Y-185457200D01*
X204148628Y-186385771D02*
X204148628Y-185600057D01*
X204077200Y-185457200D01*
X203934342Y-185385771D01*
X203648628Y-185385771D01*
X203505771Y-185457200D01*
X204148628Y-186314342D02*
X204005771Y-186385771D01*
X203648628Y-186385771D01*
X203505771Y-186314342D01*
X203434342Y-186171485D01*
X203434342Y-186028628D01*
X203505771Y-185885771D01*
X203648628Y-185814342D01*
X204005771Y-185814342D01*
X204148628Y-185742914D01*
X205505771Y-186385771D02*
X205505771Y-184885771D01*
X205505771Y-186314342D02*
X205362914Y-186385771D01*
X205077200Y-186385771D01*
X204934342Y-186314342D01*
X204862914Y-186242914D01*
X204791485Y-186100057D01*
X204791485Y-185671485D01*
X204862914Y-185528628D01*
X204934342Y-185457200D01*
X205077200Y-185385771D01*
X205362914Y-185385771D01*
X205505771Y-185457200D01*
X205862914Y-186528628D02*
X207005771Y-186528628D01*
X207362914Y-185385771D02*
X207362914Y-186885771D01*
X207362914Y-185457200D02*
X207505771Y-185385771D01*
X207791485Y-185385771D01*
X207934342Y-185457200D01*
X208005771Y-185528628D01*
X208077200Y-185671485D01*
X208077200Y-186100057D01*
X208005771Y-186242914D01*
X207934342Y-186314342D01*
X207791485Y-186385771D01*
X207505771Y-186385771D01*
X207362914Y-186314342D01*
X209362914Y-186314342D02*
X209220057Y-186385771D01*
X208934342Y-186385771D01*
X208791485Y-186314342D01*
X208720057Y-186242914D01*
X208648628Y-186100057D01*
X208648628Y-185671485D01*
X208720057Y-185528628D01*
X208791485Y-185457200D01*
X208934342Y-185385771D01*
X209220057Y-185385771D01*
X209362914Y-185457200D01*
X210005771Y-186385771D02*
X210005771Y-184885771D01*
X210005771Y-185457200D02*
X210148628Y-185385771D01*
X210434342Y-185385771D01*
X210577200Y-185457200D01*
X210648628Y-185528628D01*
X210720057Y-185671485D01*
X210720057Y-186100057D01*
X210648628Y-186242914D01*
X210577200Y-186314342D01*
X210434342Y-186385771D01*
X210148628Y-186385771D01*
X210005771Y-186314342D01*
D10*
D11*
X177002200Y-181507200D02*
X285002200Y-181507200D01*
D10*
D11*
X178362914Y-183614342D02*
X178577200Y-183685771D01*
X178934342Y-183685771D01*
X179077200Y-183614342D01*
X179148628Y-183542914D01*
X179220057Y-183400057D01*
X179220057Y-183257200D01*
X179148628Y-183114342D01*
X179077200Y-183042914D01*
X178934342Y-182971485D01*
X178648628Y-182900057D01*
X178505771Y-182828628D01*
X178434342Y-182757200D01*
X178362914Y-182614342D01*
X178362914Y-182471485D01*
X178434342Y-182328628D01*
X178505771Y-182257200D01*
X178648628Y-182185771D01*
X179005771Y-182185771D01*
X179220057Y-182257200D01*
X179862914Y-183685771D02*
X179862914Y-182185771D01*
X180505771Y-183685771D02*
X180505771Y-182900057D01*
X180434342Y-182757200D01*
X180291485Y-182685771D01*
X180077200Y-182685771D01*
X179934342Y-182757200D01*
X179862914Y-182828628D01*
X181791485Y-183614342D02*
X181648628Y-183685771D01*
X181362914Y-183685771D01*
X181220057Y-183614342D01*
X181148628Y-183471485D01*
X181148628Y-182900057D01*
X181220057Y-182757200D01*
X181362914Y-182685771D01*
X181648628Y-182685771D01*
X181791485Y-182757200D01*
X181862914Y-182900057D01*
X181862914Y-183042914D01*
X181148628Y-183185771D01*
X183077200Y-183614342D02*
X182934342Y-183685771D01*
X182648628Y-183685771D01*
X182505771Y-183614342D01*
X182434342Y-183471485D01*
X182434342Y-182900057D01*
X182505771Y-182757200D01*
X182648628Y-182685771D01*
X182934342Y-182685771D01*
X183077200Y-182757200D01*
X183148628Y-182900057D01*
X183148628Y-183042914D01*
X182434342Y-183185771D01*
X183577200Y-182685771D02*
X184148628Y-182685771D01*
X183791485Y-182185771D02*
X183791485Y-183471485D01*
X183862914Y-183614342D01*
X184005771Y-183685771D01*
X184148628Y-183685771D01*
X184648628Y-183542914D02*
X184720057Y-183614342D01*
X184648628Y-183685771D01*
X184577200Y-183614342D01*
X184648628Y-183542914D01*
X184648628Y-183685771D01*
X184648628Y-182757200D02*
X184720057Y-182828628D01*
X184648628Y-182900057D01*
X184577200Y-182828628D01*
X184648628Y-182757200D01*
X184648628Y-182900057D01*
D10*
D12*
X178411485Y-179185771D02*
X178768628Y-180685771D01*
X179054342Y-179614342D01*
X179340057Y-180685771D01*
X179697200Y-179185771D01*
X180268628Y-180685771D02*
X180268628Y-179185771D01*
X180911485Y-180685771D02*
X180911485Y-179900057D01*
X180840057Y-179757200D01*
X180697200Y-179685771D01*
X180482914Y-179685771D01*
X180340057Y-179757200D01*
X180268628Y-179828628D01*
X181840057Y-180685771D02*
X181697200Y-180614342D01*
X181625771Y-180542914D01*
X181554342Y-180400057D01*
X181554342Y-179971485D01*
X181625771Y-179828628D01*
X181697200Y-179757200D01*
X181840057Y-179685771D01*
X182054342Y-179685771D01*
X182197200Y-179757200D01*
X182268628Y-179828628D01*
X182340057Y-179971485D01*
X182340057Y-180400057D01*
X182268628Y-180542914D01*
X182197200Y-180614342D01*
X182054342Y-180685771D01*
X181840057Y-180685771D01*
X182768628Y-179185771D02*
X183625771Y-179185771D01*
X183197200Y-180685771D02*
X183197200Y-179185771D01*
X184125771Y-180685771D02*
X184125771Y-179185771D01*
X184768628Y-180685771D02*
X184768628Y-179900057D01*
X184697200Y-179757200D01*
X184554342Y-179685771D01*
X184340057Y-179685771D01*
X184197200Y-179757200D01*
X184125771Y-179828628D01*
X186054342Y-180614342D02*
X185911485Y-180685771D01*
X185625771Y-180685771D01*
X185482914Y-180614342D01*
X185411485Y-180471485D01*
X185411485Y-179900057D01*
X185482914Y-179757200D01*
X185625771Y-179685771D01*
X185911485Y-179685771D01*
X186054342Y-179757200D01*
X186125771Y-179900057D01*
X186125771Y-180042914D01*
X185411485Y-180185771D01*
X186768628Y-180685771D02*
X186768628Y-179185771D01*
X186768628Y-179900057D02*
X187625771Y-179900057D01*
X187625771Y-180685771D02*
X187625771Y-179185771D01*
X188911485Y-180614342D02*
X188768628Y-180685771D01*
X188482914Y-180685771D01*
X188340057Y-180614342D01*
X188268628Y-180471485D01*
X188268628Y-179900057D01*
X188340057Y-179757200D01*
X188482914Y-179685771D01*
X188768628Y-179685771D01*
X188911485Y-179757200D01*
X188982914Y-179900057D01*
X188982914Y-180042914D01*
X188268628Y-180185771D01*
X190268628Y-180614342D02*
X190125771Y-180685771D01*
X189840057Y-180685771D01*
X189697200Y-180614342D01*
X189625771Y-180542914D01*
X189554342Y-180400057D01*
X189554342Y-179971485D01*
X189625771Y-179828628D01*
X189697200Y-179757200D01*
X189840057Y-179685771D01*
X190125771Y-179685771D01*
X190268628Y-179757200D01*
X190911485Y-180685771D02*
X190911485Y-179185771D01*
X191054342Y-180114342D02*
X191482914Y-180685771D01*
X191482914Y-179685771D02*
X190911485Y-180257200D01*
D10*
D11*
X197002200Y-191507200D02*
X197002200Y-194507200D01*
D10*
D11*
X261002200Y-191507200D02*
X261002200Y-198007200D01*
D14*
X122000000Y-64400000D02*
X122000000Y-61900000D01*
X103500000Y-64400000D02*
X103500000Y-61900000D01*
X122000000Y-64400000D02*
X125500000Y-64400000D01*
X103500000Y-61900000D02*
X122000000Y-61900000D01*
X103989634Y-39250000D02*
X121500000Y-39250000D01*
X125500269Y-48509479D02*
G75*
G03X121500000Y-39250000I-12750269J-14521D01*
G01*
X103989634Y-39250000D02*
G75*
G03X100000000Y-48513827I8760366J-9263827D01*
G01*
X125500000Y-64400000D02*
X125500000Y-48513827D01*
X100000000Y-64400000D02*
X100000000Y-48513827D01*
X100000000Y-64400000D02*
X103500000Y-64400000D01*
D15*
G04 #@! TO.C,D2*
X120730000Y-50457827D03*
X122030000Y-50457827D03*
X122030000Y-48557827D03*
X120730000Y-48557827D03*
G04 #@! TD*
D16*
G04 #@! TO.C,SW1*
X114750000Y-41850000D03*
X112750000Y-41850000D03*
X110750000Y-41850000D03*
G04 #@! TD*
D10*
G04 #@! TO.C,D3*
G36*
X124457592Y-62451294D02*
X124483681Y-62455164D01*
X124509264Y-62461572D01*
X124534096Y-62470457D01*
X124557938Y-62481734D01*
X124580560Y-62495293D01*
X124601743Y-62511003D01*
X124621285Y-62528715D01*
X124638997Y-62548257D01*
X124654707Y-62569440D01*
X124668266Y-62592062D01*
X124679543Y-62615904D01*
X124688428Y-62640736D01*
X124694836Y-62666319D01*
X124698706Y-62692408D01*
X124700000Y-62718750D01*
X124700000Y-63256250D01*
X124698706Y-63282592D01*
X124694836Y-63308681D01*
X124688428Y-63334264D01*
X124679543Y-63359096D01*
X124668266Y-63382938D01*
X124654707Y-63405560D01*
X124638997Y-63426743D01*
X124621285Y-63446285D01*
X124601743Y-63463997D01*
X124580560Y-63479707D01*
X124557938Y-63493266D01*
X124534096Y-63504543D01*
X124509264Y-63513428D01*
X124483681Y-63519836D01*
X124457592Y-63523706D01*
X124431250Y-63525000D01*
X123468750Y-63525000D01*
X123442408Y-63523706D01*
X123416319Y-63519836D01*
X123390736Y-63513428D01*
X123365904Y-63504543D01*
X123342062Y-63493266D01*
X123319440Y-63479707D01*
X123298257Y-63463997D01*
X123278715Y-63446285D01*
X123261003Y-63426743D01*
X123245293Y-63405560D01*
X123231734Y-63382938D01*
X123220457Y-63359096D01*
X123211572Y-63334264D01*
X123205164Y-63308681D01*
X123201294Y-63282592D01*
X123200000Y-63256250D01*
X123200000Y-62718750D01*
X123201294Y-62692408D01*
X123205164Y-62666319D01*
X123211572Y-62640736D01*
X123220457Y-62615904D01*
X123231734Y-62592062D01*
X123245293Y-62569440D01*
X123261003Y-62548257D01*
X123278715Y-62528715D01*
X123298257Y-62511003D01*
X123319440Y-62495293D01*
X123342062Y-62481734D01*
X123365904Y-62470457D01*
X123390736Y-62461572D01*
X123416319Y-62455164D01*
X123442408Y-62451294D01*
X123468750Y-62450000D01*
X124431250Y-62450000D01*
X124457592Y-62451294D01*
X124457592Y-62451294D01*
G37*
D17*
X123950000Y-62987500D03*
D10*
G36*
X124457592Y-60576294D02*
X124483681Y-60580164D01*
X124509264Y-60586572D01*
X124534096Y-60595457D01*
X124557938Y-60606734D01*
X124580560Y-60620293D01*
X124601743Y-60636003D01*
X124621285Y-60653715D01*
X124638997Y-60673257D01*
X124654707Y-60694440D01*
X124668266Y-60717062D01*
X124679543Y-60740904D01*
X124688428Y-60765736D01*
X124694836Y-60791319D01*
X124698706Y-60817408D01*
X124700000Y-60843750D01*
X124700000Y-61381250D01*
X124698706Y-61407592D01*
X124694836Y-61433681D01*
X124688428Y-61459264D01*
X124679543Y-61484096D01*
X124668266Y-61507938D01*
X124654707Y-61530560D01*
X124638997Y-61551743D01*
X124621285Y-61571285D01*
X124601743Y-61588997D01*
X124580560Y-61604707D01*
X124557938Y-61618266D01*
X124534096Y-61629543D01*
X124509264Y-61638428D01*
X124483681Y-61644836D01*
X124457592Y-61648706D01*
X124431250Y-61650000D01*
X123468750Y-61650000D01*
X123442408Y-61648706D01*
X123416319Y-61644836D01*
X123390736Y-61638428D01*
X123365904Y-61629543D01*
X123342062Y-61618266D01*
X123319440Y-61604707D01*
X123298257Y-61588997D01*
X123278715Y-61571285D01*
X123261003Y-61551743D01*
X123245293Y-61530560D01*
X123231734Y-61507938D01*
X123220457Y-61484096D01*
X123211572Y-61459264D01*
X123205164Y-61433681D01*
X123201294Y-61407592D01*
X123200000Y-61381250D01*
X123200000Y-60843750D01*
X123201294Y-60817408D01*
X123205164Y-60791319D01*
X123211572Y-60765736D01*
X123220457Y-60740904D01*
X123231734Y-60717062D01*
X123245293Y-60694440D01*
X123261003Y-60673257D01*
X123278715Y-60653715D01*
X123298257Y-60636003D01*
X123319440Y-60620293D01*
X123342062Y-60606734D01*
X123365904Y-60595457D01*
X123390736Y-60586572D01*
X123416319Y-60580164D01*
X123442408Y-60576294D01*
X123468750Y-60575000D01*
X124431250Y-60575000D01*
X124457592Y-60576294D01*
X124457592Y-60576294D01*
G37*
D17*
X123950000Y-61112500D03*
G04 #@! TD*
D10*
G04 #@! TO.C,R10*
G36*
X123805142Y-55126174D02*
X123828803Y-55129684D01*
X123852007Y-55135496D01*
X123874529Y-55143554D01*
X123896153Y-55153782D01*
X123916670Y-55166079D01*
X123935883Y-55180329D01*
X123953607Y-55196393D01*
X123969671Y-55214117D01*
X123983921Y-55233330D01*
X123996218Y-55253847D01*
X124006446Y-55275471D01*
X124014504Y-55297993D01*
X124020316Y-55321197D01*
X124023826Y-55344858D01*
X124025000Y-55368750D01*
X124025000Y-55856250D01*
X124023826Y-55880142D01*
X124020316Y-55903803D01*
X124014504Y-55927007D01*
X124006446Y-55949529D01*
X123996218Y-55971153D01*
X123983921Y-55991670D01*
X123969671Y-56010883D01*
X123953607Y-56028607D01*
X123935883Y-56044671D01*
X123916670Y-56058921D01*
X123896153Y-56071218D01*
X123874529Y-56081446D01*
X123852007Y-56089504D01*
X123828803Y-56095316D01*
X123805142Y-56098826D01*
X123781250Y-56100000D01*
X123218750Y-56100000D01*
X123194858Y-56098826D01*
X123171197Y-56095316D01*
X123147993Y-56089504D01*
X123125471Y-56081446D01*
X123103847Y-56071218D01*
X123083330Y-56058921D01*
X123064117Y-56044671D01*
X123046393Y-56028607D01*
X123030329Y-56010883D01*
X123016079Y-55991670D01*
X123003782Y-55971153D01*
X122993554Y-55949529D01*
X122985496Y-55927007D01*
X122979684Y-55903803D01*
X122976174Y-55880142D01*
X122975000Y-55856250D01*
X122975000Y-55368750D01*
X122976174Y-55344858D01*
X122979684Y-55321197D01*
X122985496Y-55297993D01*
X122993554Y-55275471D01*
X123003782Y-55253847D01*
X123016079Y-55233330D01*
X123030329Y-55214117D01*
X123046393Y-55196393D01*
X123064117Y-55180329D01*
X123083330Y-55166079D01*
X123103847Y-55153782D01*
X123125471Y-55143554D01*
X123147993Y-55135496D01*
X123171197Y-55129684D01*
X123194858Y-55126174D01*
X123218750Y-55125000D01*
X123781250Y-55125000D01*
X123805142Y-55126174D01*
X123805142Y-55126174D01*
G37*
D18*
X123500000Y-55612500D03*
D10*
G36*
X123805142Y-56701174D02*
X123828803Y-56704684D01*
X123852007Y-56710496D01*
X123874529Y-56718554D01*
X123896153Y-56728782D01*
X123916670Y-56741079D01*
X123935883Y-56755329D01*
X123953607Y-56771393D01*
X123969671Y-56789117D01*
X123983921Y-56808330D01*
X123996218Y-56828847D01*
X124006446Y-56850471D01*
X124014504Y-56872993D01*
X124020316Y-56896197D01*
X124023826Y-56919858D01*
X124025000Y-56943750D01*
X124025000Y-57431250D01*
X124023826Y-57455142D01*
X124020316Y-57478803D01*
X124014504Y-57502007D01*
X124006446Y-57524529D01*
X123996218Y-57546153D01*
X123983921Y-57566670D01*
X123969671Y-57585883D01*
X123953607Y-57603607D01*
X123935883Y-57619671D01*
X123916670Y-57633921D01*
X123896153Y-57646218D01*
X123874529Y-57656446D01*
X123852007Y-57664504D01*
X123828803Y-57670316D01*
X123805142Y-57673826D01*
X123781250Y-57675000D01*
X123218750Y-57675000D01*
X123194858Y-57673826D01*
X123171197Y-57670316D01*
X123147993Y-57664504D01*
X123125471Y-57656446D01*
X123103847Y-57646218D01*
X123083330Y-57633921D01*
X123064117Y-57619671D01*
X123046393Y-57603607D01*
X123030329Y-57585883D01*
X123016079Y-57566670D01*
X123003782Y-57546153D01*
X122993554Y-57524529D01*
X122985496Y-57502007D01*
X122979684Y-57478803D01*
X122976174Y-57455142D01*
X122975000Y-57431250D01*
X122975000Y-56943750D01*
X122976174Y-56919858D01*
X122979684Y-56896197D01*
X122985496Y-56872993D01*
X122993554Y-56850471D01*
X123003782Y-56828847D01*
X123016079Y-56808330D01*
X123030329Y-56789117D01*
X123046393Y-56771393D01*
X123064117Y-56755329D01*
X123083330Y-56741079D01*
X123103847Y-56728782D01*
X123125471Y-56718554D01*
X123147993Y-56710496D01*
X123171197Y-56704684D01*
X123194858Y-56701174D01*
X123218750Y-56700000D01*
X123781250Y-56700000D01*
X123805142Y-56701174D01*
X123805142Y-56701174D01*
G37*
D18*
X123500000Y-57187500D03*
G04 #@! TD*
D19*
G04 #@! TO.C,W1*
X107000000Y-60400000D03*
G04 #@! TD*
G04 #@! TO.C,W2*
X118500000Y-60400000D03*
G04 #@! TD*
G04 #@! TO.C,W5*
X102200000Y-58100000D03*
G04 #@! TD*
G04 #@! TO.C,W6*
X104100000Y-55900000D03*
G04 #@! TD*
G04 #@! TO.C,W7*
X105700000Y-53500000D03*
G04 #@! TD*
G04 #@! TO.C,W8*
X111100000Y-53500000D03*
G04 #@! TD*
G04 #@! TO.C,W9*
X108400000Y-53500000D03*
G04 #@! TD*
G04 #@! TO.C,W10*
X121000000Y-56900000D03*
G04 #@! TD*
G04 #@! TO.C,W16*
X118500000Y-56400000D03*
G04 #@! TD*
G04 #@! TO.C,W18*
X121900000Y-59400000D03*
G04 #@! TD*
D10*
G04 #@! TO.C,D5*
G36*
X102057592Y-62451294D02*
X102083681Y-62455164D01*
X102109264Y-62461572D01*
X102134096Y-62470457D01*
X102157938Y-62481734D01*
X102180560Y-62495293D01*
X102201743Y-62511003D01*
X102221285Y-62528715D01*
X102238997Y-62548257D01*
X102254707Y-62569440D01*
X102268266Y-62592062D01*
X102279543Y-62615904D01*
X102288428Y-62640736D01*
X102294836Y-62666319D01*
X102298706Y-62692408D01*
X102300000Y-62718750D01*
X102300000Y-63256250D01*
X102298706Y-63282592D01*
X102294836Y-63308681D01*
X102288428Y-63334264D01*
X102279543Y-63359096D01*
X102268266Y-63382938D01*
X102254707Y-63405560D01*
X102238997Y-63426743D01*
X102221285Y-63446285D01*
X102201743Y-63463997D01*
X102180560Y-63479707D01*
X102157938Y-63493266D01*
X102134096Y-63504543D01*
X102109264Y-63513428D01*
X102083681Y-63519836D01*
X102057592Y-63523706D01*
X102031250Y-63525000D01*
X101068750Y-63525000D01*
X101042408Y-63523706D01*
X101016319Y-63519836D01*
X100990736Y-63513428D01*
X100965904Y-63504543D01*
X100942062Y-63493266D01*
X100919440Y-63479707D01*
X100898257Y-63463997D01*
X100878715Y-63446285D01*
X100861003Y-63426743D01*
X100845293Y-63405560D01*
X100831734Y-63382938D01*
X100820457Y-63359096D01*
X100811572Y-63334264D01*
X100805164Y-63308681D01*
X100801294Y-63282592D01*
X100800000Y-63256250D01*
X100800000Y-62718750D01*
X100801294Y-62692408D01*
X100805164Y-62666319D01*
X100811572Y-62640736D01*
X100820457Y-62615904D01*
X100831734Y-62592062D01*
X100845293Y-62569440D01*
X100861003Y-62548257D01*
X100878715Y-62528715D01*
X100898257Y-62511003D01*
X100919440Y-62495293D01*
X100942062Y-62481734D01*
X100965904Y-62470457D01*
X100990736Y-62461572D01*
X101016319Y-62455164D01*
X101042408Y-62451294D01*
X101068750Y-62450000D01*
X102031250Y-62450000D01*
X102057592Y-62451294D01*
X102057592Y-62451294D01*
G37*
D17*
X101550000Y-62987500D03*
D10*
G36*
X102057592Y-60576294D02*
X102083681Y-60580164D01*
X102109264Y-60586572D01*
X102134096Y-60595457D01*
X102157938Y-60606734D01*
X102180560Y-60620293D01*
X102201743Y-60636003D01*
X102221285Y-60653715D01*
X102238997Y-60673257D01*
X102254707Y-60694440D01*
X102268266Y-60717062D01*
X102279543Y-60740904D01*
X102288428Y-60765736D01*
X102294836Y-60791319D01*
X102298706Y-60817408D01*
X102300000Y-60843750D01*
X102300000Y-61381250D01*
X102298706Y-61407592D01*
X102294836Y-61433681D01*
X102288428Y-61459264D01*
X102279543Y-61484096D01*
X102268266Y-61507938D01*
X102254707Y-61530560D01*
X102238997Y-61551743D01*
X102221285Y-61571285D01*
X102201743Y-61588997D01*
X102180560Y-61604707D01*
X102157938Y-61618266D01*
X102134096Y-61629543D01*
X102109264Y-61638428D01*
X102083681Y-61644836D01*
X102057592Y-61648706D01*
X102031250Y-61650000D01*
X101068750Y-61650000D01*
X101042408Y-61648706D01*
X101016319Y-61644836D01*
X100990736Y-61638428D01*
X100965904Y-61629543D01*
X100942062Y-61618266D01*
X100919440Y-61604707D01*
X100898257Y-61588997D01*
X100878715Y-61571285D01*
X100861003Y-61551743D01*
X100845293Y-61530560D01*
X100831734Y-61507938D01*
X100820457Y-61484096D01*
X100811572Y-61459264D01*
X100805164Y-61433681D01*
X100801294Y-61407592D01*
X100800000Y-61381250D01*
X100800000Y-60843750D01*
X100801294Y-60817408D01*
X100805164Y-60791319D01*
X100811572Y-60765736D01*
X100820457Y-60740904D01*
X100831734Y-60717062D01*
X100845293Y-60694440D01*
X100861003Y-60673257D01*
X100878715Y-60653715D01*
X100898257Y-60636003D01*
X100919440Y-60620293D01*
X100942062Y-60606734D01*
X100965904Y-60595457D01*
X100990736Y-60586572D01*
X101016319Y-60580164D01*
X101042408Y-60576294D01*
X101068750Y-60575000D01*
X102031250Y-60575000D01*
X102057592Y-60576294D01*
X102057592Y-60576294D01*
G37*
D17*
X101550000Y-61112500D03*
G04 #@! TD*
D10*
G04 #@! TO.C,R14*
G36*
X102305142Y-54201174D02*
X102328803Y-54204684D01*
X102352007Y-54210496D01*
X102374529Y-54218554D01*
X102396153Y-54228782D01*
X102416670Y-54241079D01*
X102435883Y-54255329D01*
X102453607Y-54271393D01*
X102469671Y-54289117D01*
X102483921Y-54308330D01*
X102496218Y-54328847D01*
X102506446Y-54350471D01*
X102514504Y-54372993D01*
X102520316Y-54396197D01*
X102523826Y-54419858D01*
X102525000Y-54443750D01*
X102525000Y-54931250D01*
X102523826Y-54955142D01*
X102520316Y-54978803D01*
X102514504Y-55002007D01*
X102506446Y-55024529D01*
X102496218Y-55046153D01*
X102483921Y-55066670D01*
X102469671Y-55085883D01*
X102453607Y-55103607D01*
X102435883Y-55119671D01*
X102416670Y-55133921D01*
X102396153Y-55146218D01*
X102374529Y-55156446D01*
X102352007Y-55164504D01*
X102328803Y-55170316D01*
X102305142Y-55173826D01*
X102281250Y-55175000D01*
X101718750Y-55175000D01*
X101694858Y-55173826D01*
X101671197Y-55170316D01*
X101647993Y-55164504D01*
X101625471Y-55156446D01*
X101603847Y-55146218D01*
X101583330Y-55133921D01*
X101564117Y-55119671D01*
X101546393Y-55103607D01*
X101530329Y-55085883D01*
X101516079Y-55066670D01*
X101503782Y-55046153D01*
X101493554Y-55024529D01*
X101485496Y-55002007D01*
X101479684Y-54978803D01*
X101476174Y-54955142D01*
X101475000Y-54931250D01*
X101475000Y-54443750D01*
X101476174Y-54419858D01*
X101479684Y-54396197D01*
X101485496Y-54372993D01*
X101493554Y-54350471D01*
X101503782Y-54328847D01*
X101516079Y-54308330D01*
X101530329Y-54289117D01*
X101546393Y-54271393D01*
X101564117Y-54255329D01*
X101583330Y-54241079D01*
X101603847Y-54228782D01*
X101625471Y-54218554D01*
X101647993Y-54210496D01*
X101671197Y-54204684D01*
X101694858Y-54201174D01*
X101718750Y-54200000D01*
X102281250Y-54200000D01*
X102305142Y-54201174D01*
X102305142Y-54201174D01*
G37*
D18*
X102000000Y-54687500D03*
D10*
G36*
X102305142Y-52626174D02*
X102328803Y-52629684D01*
X102352007Y-52635496D01*
X102374529Y-52643554D01*
X102396153Y-52653782D01*
X102416670Y-52666079D01*
X102435883Y-52680329D01*
X102453607Y-52696393D01*
X102469671Y-52714117D01*
X102483921Y-52733330D01*
X102496218Y-52753847D01*
X102506446Y-52775471D01*
X102514504Y-52797993D01*
X102520316Y-52821197D01*
X102523826Y-52844858D01*
X102525000Y-52868750D01*
X102525000Y-53356250D01*
X102523826Y-53380142D01*
X102520316Y-53403803D01*
X102514504Y-53427007D01*
X102506446Y-53449529D01*
X102496218Y-53471153D01*
X102483921Y-53491670D01*
X102469671Y-53510883D01*
X102453607Y-53528607D01*
X102435883Y-53544671D01*
X102416670Y-53558921D01*
X102396153Y-53571218D01*
X102374529Y-53581446D01*
X102352007Y-53589504D01*
X102328803Y-53595316D01*
X102305142Y-53598826D01*
X102281250Y-53600000D01*
X101718750Y-53600000D01*
X101694858Y-53598826D01*
X101671197Y-53595316D01*
X101647993Y-53589504D01*
X101625471Y-53581446D01*
X101603847Y-53571218D01*
X101583330Y-53558921D01*
X101564117Y-53544671D01*
X101546393Y-53528607D01*
X101530329Y-53510883D01*
X101516079Y-53491670D01*
X101503782Y-53471153D01*
X101493554Y-53449529D01*
X101485496Y-53427007D01*
X101479684Y-53403803D01*
X101476174Y-53380142D01*
X101475000Y-53356250D01*
X101475000Y-52868750D01*
X101476174Y-52844858D01*
X101479684Y-52821197D01*
X101485496Y-52797993D01*
X101493554Y-52775471D01*
X101503782Y-52753847D01*
X101516079Y-52733330D01*
X101530329Y-52714117D01*
X101546393Y-52696393D01*
X101564117Y-52680329D01*
X101583330Y-52666079D01*
X101603847Y-52653782D01*
X101625471Y-52643554D01*
X101647993Y-52635496D01*
X101671197Y-52629684D01*
X101694858Y-52626174D01*
X101718750Y-52625000D01*
X102281250Y-52625000D01*
X102305142Y-52626174D01*
X102305142Y-52626174D01*
G37*
D18*
X102000000Y-53112500D03*
G04 #@! TD*
D20*
G04 #@! TO.C,C3*
X111700000Y-46900000D03*
X115300000Y-46900000D03*
G04 #@! TD*
D10*
G04 #@! TO.C,C4*
G36*
X119855592Y-51590121D02*
X119881681Y-51593991D01*
X119907264Y-51600399D01*
X119932096Y-51609284D01*
X119955938Y-51620561D01*
X119978560Y-51634120D01*
X119999743Y-51649830D01*
X120019285Y-51667542D01*
X120036997Y-51687084D01*
X120052707Y-51708267D01*
X120066266Y-51730889D01*
X120077543Y-51754731D01*
X120086428Y-51779563D01*
X120092836Y-51805146D01*
X120096706Y-51831235D01*
X120098000Y-51857577D01*
X120098000Y-52395077D01*
X120096706Y-52421419D01*
X120092836Y-52447508D01*
X120086428Y-52473091D01*
X120077543Y-52497923D01*
X120066266Y-52521765D01*
X120052707Y-52544387D01*
X120036997Y-52565570D01*
X120019285Y-52585112D01*
X119999743Y-52602824D01*
X119978560Y-52618534D01*
X119955938Y-52632093D01*
X119932096Y-52643370D01*
X119907264Y-52652255D01*
X119881681Y-52658663D01*
X119855592Y-52662533D01*
X119829250Y-52663827D01*
X118866750Y-52663827D01*
X118840408Y-52662533D01*
X118814319Y-52658663D01*
X118788736Y-52652255D01*
X118763904Y-52643370D01*
X118740062Y-52632093D01*
X118717440Y-52618534D01*
X118696257Y-52602824D01*
X118676715Y-52585112D01*
X118659003Y-52565570D01*
X118643293Y-52544387D01*
X118629734Y-52521765D01*
X118618457Y-52497923D01*
X118609572Y-52473091D01*
X118603164Y-52447508D01*
X118599294Y-52421419D01*
X118598000Y-52395077D01*
X118598000Y-51857577D01*
X118599294Y-51831235D01*
X118603164Y-51805146D01*
X118609572Y-51779563D01*
X118618457Y-51754731D01*
X118629734Y-51730889D01*
X118643293Y-51708267D01*
X118659003Y-51687084D01*
X118676715Y-51667542D01*
X118696257Y-51649830D01*
X118717440Y-51634120D01*
X118740062Y-51620561D01*
X118763904Y-51609284D01*
X118788736Y-51600399D01*
X118814319Y-51593991D01*
X118840408Y-51590121D01*
X118866750Y-51588827D01*
X119829250Y-51588827D01*
X119855592Y-51590121D01*
X119855592Y-51590121D01*
G37*
D17*
X119348000Y-52126327D03*
D10*
G36*
X119855592Y-53465121D02*
X119881681Y-53468991D01*
X119907264Y-53475399D01*
X119932096Y-53484284D01*
X119955938Y-53495561D01*
X119978560Y-53509120D01*
X119999743Y-53524830D01*
X120019285Y-53542542D01*
X120036997Y-53562084D01*
X120052707Y-53583267D01*
X120066266Y-53605889D01*
X120077543Y-53629731D01*
X120086428Y-53654563D01*
X120092836Y-53680146D01*
X120096706Y-53706235D01*
X120098000Y-53732577D01*
X120098000Y-54270077D01*
X120096706Y-54296419D01*
X120092836Y-54322508D01*
X120086428Y-54348091D01*
X120077543Y-54372923D01*
X120066266Y-54396765D01*
X120052707Y-54419387D01*
X120036997Y-54440570D01*
X120019285Y-54460112D01*
X119999743Y-54477824D01*
X119978560Y-54493534D01*
X119955938Y-54507093D01*
X119932096Y-54518370D01*
X119907264Y-54527255D01*
X119881681Y-54533663D01*
X119855592Y-54537533D01*
X119829250Y-54538827D01*
X118866750Y-54538827D01*
X118840408Y-54537533D01*
X118814319Y-54533663D01*
X118788736Y-54527255D01*
X118763904Y-54518370D01*
X118740062Y-54507093D01*
X118717440Y-54493534D01*
X118696257Y-54477824D01*
X118676715Y-54460112D01*
X118659003Y-54440570D01*
X118643293Y-54419387D01*
X118629734Y-54396765D01*
X118618457Y-54372923D01*
X118609572Y-54348091D01*
X118603164Y-54322508D01*
X118599294Y-54296419D01*
X118598000Y-54270077D01*
X118598000Y-53732577D01*
X118599294Y-53706235D01*
X118603164Y-53680146D01*
X118609572Y-53654563D01*
X118618457Y-53629731D01*
X118629734Y-53605889D01*
X118643293Y-53583267D01*
X118659003Y-53562084D01*
X118676715Y-53542542D01*
X118696257Y-53524830D01*
X118717440Y-53509120D01*
X118740062Y-53495561D01*
X118763904Y-53484284D01*
X118788736Y-53475399D01*
X118814319Y-53468991D01*
X118840408Y-53465121D01*
X118866750Y-53463827D01*
X119829250Y-53463827D01*
X119855592Y-53465121D01*
X119855592Y-53465121D01*
G37*
D17*
X119348000Y-54001327D03*
G04 #@! TD*
D10*
G04 #@! TO.C,C6*
G36*
X123919592Y-44478121D02*
X123945681Y-44481991D01*
X123971264Y-44488399D01*
X123996096Y-44497284D01*
X124019938Y-44508561D01*
X124042560Y-44522120D01*
X124063743Y-44537830D01*
X124083285Y-44555542D01*
X124100997Y-44575084D01*
X124116707Y-44596267D01*
X124130266Y-44618889D01*
X124141543Y-44642731D01*
X124150428Y-44667563D01*
X124156836Y-44693146D01*
X124160706Y-44719235D01*
X124162000Y-44745577D01*
X124162000Y-45283077D01*
X124160706Y-45309419D01*
X124156836Y-45335508D01*
X124150428Y-45361091D01*
X124141543Y-45385923D01*
X124130266Y-45409765D01*
X124116707Y-45432387D01*
X124100997Y-45453570D01*
X124083285Y-45473112D01*
X124063743Y-45490824D01*
X124042560Y-45506534D01*
X124019938Y-45520093D01*
X123996096Y-45531370D01*
X123971264Y-45540255D01*
X123945681Y-45546663D01*
X123919592Y-45550533D01*
X123893250Y-45551827D01*
X122930750Y-45551827D01*
X122904408Y-45550533D01*
X122878319Y-45546663D01*
X122852736Y-45540255D01*
X122827904Y-45531370D01*
X122804062Y-45520093D01*
X122781440Y-45506534D01*
X122760257Y-45490824D01*
X122740715Y-45473112D01*
X122723003Y-45453570D01*
X122707293Y-45432387D01*
X122693734Y-45409765D01*
X122682457Y-45385923D01*
X122673572Y-45361091D01*
X122667164Y-45335508D01*
X122663294Y-45309419D01*
X122662000Y-45283077D01*
X122662000Y-44745577D01*
X122663294Y-44719235D01*
X122667164Y-44693146D01*
X122673572Y-44667563D01*
X122682457Y-44642731D01*
X122693734Y-44618889D01*
X122707293Y-44596267D01*
X122723003Y-44575084D01*
X122740715Y-44555542D01*
X122760257Y-44537830D01*
X122781440Y-44522120D01*
X122804062Y-44508561D01*
X122827904Y-44497284D01*
X122852736Y-44488399D01*
X122878319Y-44481991D01*
X122904408Y-44478121D01*
X122930750Y-44476827D01*
X123893250Y-44476827D01*
X123919592Y-44478121D01*
X123919592Y-44478121D01*
G37*
D17*
X123412000Y-45014327D03*
D10*
G36*
X123919592Y-46353121D02*
X123945681Y-46356991D01*
X123971264Y-46363399D01*
X123996096Y-46372284D01*
X124019938Y-46383561D01*
X124042560Y-46397120D01*
X124063743Y-46412830D01*
X124083285Y-46430542D01*
X124100997Y-46450084D01*
X124116707Y-46471267D01*
X124130266Y-46493889D01*
X124141543Y-46517731D01*
X124150428Y-46542563D01*
X124156836Y-46568146D01*
X124160706Y-46594235D01*
X124162000Y-46620577D01*
X124162000Y-47158077D01*
X124160706Y-47184419D01*
X124156836Y-47210508D01*
X124150428Y-47236091D01*
X124141543Y-47260923D01*
X124130266Y-47284765D01*
X124116707Y-47307387D01*
X124100997Y-47328570D01*
X124083285Y-47348112D01*
X124063743Y-47365824D01*
X124042560Y-47381534D01*
X124019938Y-47395093D01*
X123996096Y-47406370D01*
X123971264Y-47415255D01*
X123945681Y-47421663D01*
X123919592Y-47425533D01*
X123893250Y-47426827D01*
X122930750Y-47426827D01*
X122904408Y-47425533D01*
X122878319Y-47421663D01*
X122852736Y-47415255D01*
X122827904Y-47406370D01*
X122804062Y-47395093D01*
X122781440Y-47381534D01*
X122760257Y-47365824D01*
X122740715Y-47348112D01*
X122723003Y-47328570D01*
X122707293Y-47307387D01*
X122693734Y-47284765D01*
X122682457Y-47260923D01*
X122673572Y-47236091D01*
X122667164Y-47210508D01*
X122663294Y-47184419D01*
X122662000Y-47158077D01*
X122662000Y-46620577D01*
X122663294Y-46594235D01*
X122667164Y-46568146D01*
X122673572Y-46542563D01*
X122682457Y-46517731D01*
X122693734Y-46493889D01*
X122707293Y-46471267D01*
X122723003Y-46450084D01*
X122740715Y-46430542D01*
X122760257Y-46412830D01*
X122781440Y-46397120D01*
X122804062Y-46383561D01*
X122827904Y-46372284D01*
X122852736Y-46363399D01*
X122878319Y-46356991D01*
X122904408Y-46353121D01*
X122930750Y-46351827D01*
X123893250Y-46351827D01*
X123919592Y-46353121D01*
X123919592Y-46353121D01*
G37*
D17*
X123412000Y-46889327D03*
G04 #@! TD*
D21*
G04 #@! TO.C,D1*
X115800000Y-55550000D03*
X115800000Y-53650000D03*
X113800000Y-54600000D03*
G04 #@! TD*
D10*
G04 #@! TO.C,R1*
G36*
X115805142Y-57626174D02*
X115828803Y-57629684D01*
X115852007Y-57635496D01*
X115874529Y-57643554D01*
X115896153Y-57653782D01*
X115916670Y-57666079D01*
X115935883Y-57680329D01*
X115953607Y-57696393D01*
X115969671Y-57714117D01*
X115983921Y-57733330D01*
X115996218Y-57753847D01*
X116006446Y-57775471D01*
X116014504Y-57797993D01*
X116020316Y-57821197D01*
X116023826Y-57844858D01*
X116025000Y-57868750D01*
X116025000Y-58356250D01*
X116023826Y-58380142D01*
X116020316Y-58403803D01*
X116014504Y-58427007D01*
X116006446Y-58449529D01*
X115996218Y-58471153D01*
X115983921Y-58491670D01*
X115969671Y-58510883D01*
X115953607Y-58528607D01*
X115935883Y-58544671D01*
X115916670Y-58558921D01*
X115896153Y-58571218D01*
X115874529Y-58581446D01*
X115852007Y-58589504D01*
X115828803Y-58595316D01*
X115805142Y-58598826D01*
X115781250Y-58600000D01*
X115218750Y-58600000D01*
X115194858Y-58598826D01*
X115171197Y-58595316D01*
X115147993Y-58589504D01*
X115125471Y-58581446D01*
X115103847Y-58571218D01*
X115083330Y-58558921D01*
X115064117Y-58544671D01*
X115046393Y-58528607D01*
X115030329Y-58510883D01*
X115016079Y-58491670D01*
X115003782Y-58471153D01*
X114993554Y-58449529D01*
X114985496Y-58427007D01*
X114979684Y-58403803D01*
X114976174Y-58380142D01*
X114975000Y-58356250D01*
X114975000Y-57868750D01*
X114976174Y-57844858D01*
X114979684Y-57821197D01*
X114985496Y-57797993D01*
X114993554Y-57775471D01*
X115003782Y-57753847D01*
X115016079Y-57733330D01*
X115030329Y-57714117D01*
X115046393Y-57696393D01*
X115064117Y-57680329D01*
X115083330Y-57666079D01*
X115103847Y-57653782D01*
X115125471Y-57643554D01*
X115147993Y-57635496D01*
X115171197Y-57629684D01*
X115194858Y-57626174D01*
X115218750Y-57625000D01*
X115781250Y-57625000D01*
X115805142Y-57626174D01*
X115805142Y-57626174D01*
G37*
D18*
X115500000Y-58112500D03*
D10*
G36*
X115805142Y-59201174D02*
X115828803Y-59204684D01*
X115852007Y-59210496D01*
X115874529Y-59218554D01*
X115896153Y-59228782D01*
X115916670Y-59241079D01*
X115935883Y-59255329D01*
X115953607Y-59271393D01*
X115969671Y-59289117D01*
X115983921Y-59308330D01*
X115996218Y-59328847D01*
X116006446Y-59350471D01*
X116014504Y-59372993D01*
X116020316Y-59396197D01*
X116023826Y-59419858D01*
X116025000Y-59443750D01*
X116025000Y-59931250D01*
X116023826Y-59955142D01*
X116020316Y-59978803D01*
X116014504Y-60002007D01*
X116006446Y-60024529D01*
X115996218Y-60046153D01*
X115983921Y-60066670D01*
X115969671Y-60085883D01*
X115953607Y-60103607D01*
X115935883Y-60119671D01*
X115916670Y-60133921D01*
X115896153Y-60146218D01*
X115874529Y-60156446D01*
X115852007Y-60164504D01*
X115828803Y-60170316D01*
X115805142Y-60173826D01*
X115781250Y-60175000D01*
X115218750Y-60175000D01*
X115194858Y-60173826D01*
X115171197Y-60170316D01*
X115147993Y-60164504D01*
X115125471Y-60156446D01*
X115103847Y-60146218D01*
X115083330Y-60133921D01*
X115064117Y-60119671D01*
X115046393Y-60103607D01*
X115030329Y-60085883D01*
X115016079Y-60066670D01*
X115003782Y-60046153D01*
X114993554Y-60024529D01*
X114985496Y-60002007D01*
X114979684Y-59978803D01*
X114976174Y-59955142D01*
X114975000Y-59931250D01*
X114975000Y-59443750D01*
X114976174Y-59419858D01*
X114979684Y-59396197D01*
X114985496Y-59372993D01*
X114993554Y-59350471D01*
X115003782Y-59328847D01*
X115016079Y-59308330D01*
X115030329Y-59289117D01*
X115046393Y-59271393D01*
X115064117Y-59255329D01*
X115083330Y-59241079D01*
X115103847Y-59228782D01*
X115125471Y-59218554D01*
X115147993Y-59210496D01*
X115171197Y-59204684D01*
X115194858Y-59201174D01*
X115218750Y-59200000D01*
X115781250Y-59200000D01*
X115805142Y-59201174D01*
X115805142Y-59201174D01*
G37*
D18*
X115500000Y-59687500D03*
G04 #@! TD*
D10*
G04 #@! TO.C,R4*
G36*
X124225142Y-49809001D02*
X124248803Y-49812511D01*
X124272007Y-49818323D01*
X124294529Y-49826381D01*
X124316153Y-49836609D01*
X124336670Y-49848906D01*
X124355883Y-49863156D01*
X124373607Y-49879220D01*
X124389671Y-49896944D01*
X124403921Y-49916157D01*
X124416218Y-49936674D01*
X124426446Y-49958298D01*
X124434504Y-49980820D01*
X124440316Y-50004024D01*
X124443826Y-50027685D01*
X124445000Y-50051577D01*
X124445000Y-50539077D01*
X124443826Y-50562969D01*
X124440316Y-50586630D01*
X124434504Y-50609834D01*
X124426446Y-50632356D01*
X124416218Y-50653980D01*
X124403921Y-50674497D01*
X124389671Y-50693710D01*
X124373607Y-50711434D01*
X124355883Y-50727498D01*
X124336670Y-50741748D01*
X124316153Y-50754045D01*
X124294529Y-50764273D01*
X124272007Y-50772331D01*
X124248803Y-50778143D01*
X124225142Y-50781653D01*
X124201250Y-50782827D01*
X123638750Y-50782827D01*
X123614858Y-50781653D01*
X123591197Y-50778143D01*
X123567993Y-50772331D01*
X123545471Y-50764273D01*
X123523847Y-50754045D01*
X123503330Y-50741748D01*
X123484117Y-50727498D01*
X123466393Y-50711434D01*
X123450329Y-50693710D01*
X123436079Y-50674497D01*
X123423782Y-50653980D01*
X123413554Y-50632356D01*
X123405496Y-50609834D01*
X123399684Y-50586630D01*
X123396174Y-50562969D01*
X123395000Y-50539077D01*
X123395000Y-50051577D01*
X123396174Y-50027685D01*
X123399684Y-50004024D01*
X123405496Y-49980820D01*
X123413554Y-49958298D01*
X123423782Y-49936674D01*
X123436079Y-49916157D01*
X123450329Y-49896944D01*
X123466393Y-49879220D01*
X123484117Y-49863156D01*
X123503330Y-49848906D01*
X123523847Y-49836609D01*
X123545471Y-49826381D01*
X123567993Y-49818323D01*
X123591197Y-49812511D01*
X123614858Y-49809001D01*
X123638750Y-49807827D01*
X124201250Y-49807827D01*
X124225142Y-49809001D01*
X124225142Y-49809001D01*
G37*
D18*
X123920000Y-50295327D03*
D10*
G36*
X124225142Y-48234001D02*
X124248803Y-48237511D01*
X124272007Y-48243323D01*
X124294529Y-48251381D01*
X124316153Y-48261609D01*
X124336670Y-48273906D01*
X124355883Y-48288156D01*
X124373607Y-48304220D01*
X124389671Y-48321944D01*
X124403921Y-48341157D01*
X124416218Y-48361674D01*
X124426446Y-48383298D01*
X124434504Y-48405820D01*
X124440316Y-48429024D01*
X124443826Y-48452685D01*
X124445000Y-48476577D01*
X124445000Y-48964077D01*
X124443826Y-48987969D01*
X124440316Y-49011630D01*
X124434504Y-49034834D01*
X124426446Y-49057356D01*
X124416218Y-49078980D01*
X124403921Y-49099497D01*
X124389671Y-49118710D01*
X124373607Y-49136434D01*
X124355883Y-49152498D01*
X124336670Y-49166748D01*
X124316153Y-49179045D01*
X124294529Y-49189273D01*
X124272007Y-49197331D01*
X124248803Y-49203143D01*
X124225142Y-49206653D01*
X124201250Y-49207827D01*
X123638750Y-49207827D01*
X123614858Y-49206653D01*
X123591197Y-49203143D01*
X123567993Y-49197331D01*
X123545471Y-49189273D01*
X123523847Y-49179045D01*
X123503330Y-49166748D01*
X123484117Y-49152498D01*
X123466393Y-49136434D01*
X123450329Y-49118710D01*
X123436079Y-49099497D01*
X123423782Y-49078980D01*
X123413554Y-49057356D01*
X123405496Y-49034834D01*
X123399684Y-49011630D01*
X123396174Y-48987969D01*
X123395000Y-48964077D01*
X123395000Y-48476577D01*
X123396174Y-48452685D01*
X123399684Y-48429024D01*
X123405496Y-48405820D01*
X123413554Y-48383298D01*
X123423782Y-48361674D01*
X123436079Y-48341157D01*
X123450329Y-48321944D01*
X123466393Y-48304220D01*
X123484117Y-48288156D01*
X123503330Y-48273906D01*
X123523847Y-48261609D01*
X123545471Y-48251381D01*
X123567993Y-48243323D01*
X123591197Y-48237511D01*
X123614858Y-48234001D01*
X123638750Y-48232827D01*
X124201250Y-48232827D01*
X124225142Y-48234001D01*
X124225142Y-48234001D01*
G37*
D18*
X123920000Y-48720327D03*
G04 #@! TD*
D10*
G04 #@! TO.C,R5*
G36*
X121705142Y-51766174D02*
X121728803Y-51769684D01*
X121752007Y-51775496D01*
X121774529Y-51783554D01*
X121796153Y-51793782D01*
X121816670Y-51806079D01*
X121835883Y-51820329D01*
X121853607Y-51836393D01*
X121869671Y-51854117D01*
X121883921Y-51873330D01*
X121896218Y-51893847D01*
X121906446Y-51915471D01*
X121914504Y-51937993D01*
X121920316Y-51961197D01*
X121923826Y-51984858D01*
X121925000Y-52008750D01*
X121925000Y-52496250D01*
X121923826Y-52520142D01*
X121920316Y-52543803D01*
X121914504Y-52567007D01*
X121906446Y-52589529D01*
X121896218Y-52611153D01*
X121883921Y-52631670D01*
X121869671Y-52650883D01*
X121853607Y-52668607D01*
X121835883Y-52684671D01*
X121816670Y-52698921D01*
X121796153Y-52711218D01*
X121774529Y-52721446D01*
X121752007Y-52729504D01*
X121728803Y-52735316D01*
X121705142Y-52738826D01*
X121681250Y-52740000D01*
X121118750Y-52740000D01*
X121094858Y-52738826D01*
X121071197Y-52735316D01*
X121047993Y-52729504D01*
X121025471Y-52721446D01*
X121003847Y-52711218D01*
X120983330Y-52698921D01*
X120964117Y-52684671D01*
X120946393Y-52668607D01*
X120930329Y-52650883D01*
X120916079Y-52631670D01*
X120903782Y-52611153D01*
X120893554Y-52589529D01*
X120885496Y-52567007D01*
X120879684Y-52543803D01*
X120876174Y-52520142D01*
X120875000Y-52496250D01*
X120875000Y-52008750D01*
X120876174Y-51984858D01*
X120879684Y-51961197D01*
X120885496Y-51937993D01*
X120893554Y-51915471D01*
X120903782Y-51893847D01*
X120916079Y-51873330D01*
X120930329Y-51854117D01*
X120946393Y-51836393D01*
X120964117Y-51820329D01*
X120983330Y-51806079D01*
X121003847Y-51793782D01*
X121025471Y-51783554D01*
X121047993Y-51775496D01*
X121071197Y-51769684D01*
X121094858Y-51766174D01*
X121118750Y-51765000D01*
X121681250Y-51765000D01*
X121705142Y-51766174D01*
X121705142Y-51766174D01*
G37*
D18*
X121400000Y-52252500D03*
D10*
G36*
X121705142Y-53341174D02*
X121728803Y-53344684D01*
X121752007Y-53350496D01*
X121774529Y-53358554D01*
X121796153Y-53368782D01*
X121816670Y-53381079D01*
X121835883Y-53395329D01*
X121853607Y-53411393D01*
X121869671Y-53429117D01*
X121883921Y-53448330D01*
X121896218Y-53468847D01*
X121906446Y-53490471D01*
X121914504Y-53512993D01*
X121920316Y-53536197D01*
X121923826Y-53559858D01*
X121925000Y-53583750D01*
X121925000Y-54071250D01*
X121923826Y-54095142D01*
X121920316Y-54118803D01*
X121914504Y-54142007D01*
X121906446Y-54164529D01*
X121896218Y-54186153D01*
X121883921Y-54206670D01*
X121869671Y-54225883D01*
X121853607Y-54243607D01*
X121835883Y-54259671D01*
X121816670Y-54273921D01*
X121796153Y-54286218D01*
X121774529Y-54296446D01*
X121752007Y-54304504D01*
X121728803Y-54310316D01*
X121705142Y-54313826D01*
X121681250Y-54315000D01*
X121118750Y-54315000D01*
X121094858Y-54313826D01*
X121071197Y-54310316D01*
X121047993Y-54304504D01*
X121025471Y-54296446D01*
X121003847Y-54286218D01*
X120983330Y-54273921D01*
X120964117Y-54259671D01*
X120946393Y-54243607D01*
X120930329Y-54225883D01*
X120916079Y-54206670D01*
X120903782Y-54186153D01*
X120893554Y-54164529D01*
X120885496Y-54142007D01*
X120879684Y-54118803D01*
X120876174Y-54095142D01*
X120875000Y-54071250D01*
X120875000Y-53583750D01*
X120876174Y-53559858D01*
X120879684Y-53536197D01*
X120885496Y-53512993D01*
X120893554Y-53490471D01*
X120903782Y-53468847D01*
X120916079Y-53448330D01*
X120930329Y-53429117D01*
X120946393Y-53411393D01*
X120964117Y-53395329D01*
X120983330Y-53381079D01*
X121003847Y-53368782D01*
X121025471Y-53358554D01*
X121047993Y-53350496D01*
X121071197Y-53344684D01*
X121094858Y-53341174D01*
X121118750Y-53340000D01*
X121681250Y-53340000D01*
X121705142Y-53341174D01*
X121705142Y-53341174D01*
G37*
D18*
X121400000Y-53827500D03*
G04 #@! TD*
D10*
G04 #@! TO.C,R6*
G36*
X123717142Y-51790001D02*
X123740803Y-51793511D01*
X123764007Y-51799323D01*
X123786529Y-51807381D01*
X123808153Y-51817609D01*
X123828670Y-51829906D01*
X123847883Y-51844156D01*
X123865607Y-51860220D01*
X123881671Y-51877944D01*
X123895921Y-51897157D01*
X123908218Y-51917674D01*
X123918446Y-51939298D01*
X123926504Y-51961820D01*
X123932316Y-51985024D01*
X123935826Y-52008685D01*
X123937000Y-52032577D01*
X123937000Y-52520077D01*
X123935826Y-52543969D01*
X123932316Y-52567630D01*
X123926504Y-52590834D01*
X123918446Y-52613356D01*
X123908218Y-52634980D01*
X123895921Y-52655497D01*
X123881671Y-52674710D01*
X123865607Y-52692434D01*
X123847883Y-52708498D01*
X123828670Y-52722748D01*
X123808153Y-52735045D01*
X123786529Y-52745273D01*
X123764007Y-52753331D01*
X123740803Y-52759143D01*
X123717142Y-52762653D01*
X123693250Y-52763827D01*
X123130750Y-52763827D01*
X123106858Y-52762653D01*
X123083197Y-52759143D01*
X123059993Y-52753331D01*
X123037471Y-52745273D01*
X123015847Y-52735045D01*
X122995330Y-52722748D01*
X122976117Y-52708498D01*
X122958393Y-52692434D01*
X122942329Y-52674710D01*
X122928079Y-52655497D01*
X122915782Y-52634980D01*
X122905554Y-52613356D01*
X122897496Y-52590834D01*
X122891684Y-52567630D01*
X122888174Y-52543969D01*
X122887000Y-52520077D01*
X122887000Y-52032577D01*
X122888174Y-52008685D01*
X122891684Y-51985024D01*
X122897496Y-51961820D01*
X122905554Y-51939298D01*
X122915782Y-51917674D01*
X122928079Y-51897157D01*
X122942329Y-51877944D01*
X122958393Y-51860220D01*
X122976117Y-51844156D01*
X122995330Y-51829906D01*
X123015847Y-51817609D01*
X123037471Y-51807381D01*
X123059993Y-51799323D01*
X123083197Y-51793511D01*
X123106858Y-51790001D01*
X123130750Y-51788827D01*
X123693250Y-51788827D01*
X123717142Y-51790001D01*
X123717142Y-51790001D01*
G37*
D18*
X123412000Y-52276327D03*
D10*
G36*
X123717142Y-53365001D02*
X123740803Y-53368511D01*
X123764007Y-53374323D01*
X123786529Y-53382381D01*
X123808153Y-53392609D01*
X123828670Y-53404906D01*
X123847883Y-53419156D01*
X123865607Y-53435220D01*
X123881671Y-53452944D01*
X123895921Y-53472157D01*
X123908218Y-53492674D01*
X123918446Y-53514298D01*
X123926504Y-53536820D01*
X123932316Y-53560024D01*
X123935826Y-53583685D01*
X123937000Y-53607577D01*
X123937000Y-54095077D01*
X123935826Y-54118969D01*
X123932316Y-54142630D01*
X123926504Y-54165834D01*
X123918446Y-54188356D01*
X123908218Y-54209980D01*
X123895921Y-54230497D01*
X123881671Y-54249710D01*
X123865607Y-54267434D01*
X123847883Y-54283498D01*
X123828670Y-54297748D01*
X123808153Y-54310045D01*
X123786529Y-54320273D01*
X123764007Y-54328331D01*
X123740803Y-54334143D01*
X123717142Y-54337653D01*
X123693250Y-54338827D01*
X123130750Y-54338827D01*
X123106858Y-54337653D01*
X123083197Y-54334143D01*
X123059993Y-54328331D01*
X123037471Y-54320273D01*
X123015847Y-54310045D01*
X122995330Y-54297748D01*
X122976117Y-54283498D01*
X122958393Y-54267434D01*
X122942329Y-54249710D01*
X122928079Y-54230497D01*
X122915782Y-54209980D01*
X122905554Y-54188356D01*
X122897496Y-54165834D01*
X122891684Y-54142630D01*
X122888174Y-54118969D01*
X122887000Y-54095077D01*
X122887000Y-53607577D01*
X122888174Y-53583685D01*
X122891684Y-53560024D01*
X122897496Y-53536820D01*
X122905554Y-53514298D01*
X122915782Y-53492674D01*
X122928079Y-53472157D01*
X122942329Y-53452944D01*
X122958393Y-53435220D01*
X122976117Y-53419156D01*
X122995330Y-53404906D01*
X123015847Y-53392609D01*
X123037471Y-53382381D01*
X123059993Y-53374323D01*
X123083197Y-53368511D01*
X123106858Y-53365001D01*
X123130750Y-53363827D01*
X123693250Y-53363827D01*
X123717142Y-53365001D01*
X123717142Y-53365001D01*
G37*
D18*
X123412000Y-53851327D03*
G04 #@! TD*
D10*
G04 #@! TO.C,R7*
G36*
X119145142Y-48234001D02*
X119168803Y-48237511D01*
X119192007Y-48243323D01*
X119214529Y-48251381D01*
X119236153Y-48261609D01*
X119256670Y-48273906D01*
X119275883Y-48288156D01*
X119293607Y-48304220D01*
X119309671Y-48321944D01*
X119323921Y-48341157D01*
X119336218Y-48361674D01*
X119346446Y-48383298D01*
X119354504Y-48405820D01*
X119360316Y-48429024D01*
X119363826Y-48452685D01*
X119365000Y-48476577D01*
X119365000Y-48964077D01*
X119363826Y-48987969D01*
X119360316Y-49011630D01*
X119354504Y-49034834D01*
X119346446Y-49057356D01*
X119336218Y-49078980D01*
X119323921Y-49099497D01*
X119309671Y-49118710D01*
X119293607Y-49136434D01*
X119275883Y-49152498D01*
X119256670Y-49166748D01*
X119236153Y-49179045D01*
X119214529Y-49189273D01*
X119192007Y-49197331D01*
X119168803Y-49203143D01*
X119145142Y-49206653D01*
X119121250Y-49207827D01*
X118558750Y-49207827D01*
X118534858Y-49206653D01*
X118511197Y-49203143D01*
X118487993Y-49197331D01*
X118465471Y-49189273D01*
X118443847Y-49179045D01*
X118423330Y-49166748D01*
X118404117Y-49152498D01*
X118386393Y-49136434D01*
X118370329Y-49118710D01*
X118356079Y-49099497D01*
X118343782Y-49078980D01*
X118333554Y-49057356D01*
X118325496Y-49034834D01*
X118319684Y-49011630D01*
X118316174Y-48987969D01*
X118315000Y-48964077D01*
X118315000Y-48476577D01*
X118316174Y-48452685D01*
X118319684Y-48429024D01*
X118325496Y-48405820D01*
X118333554Y-48383298D01*
X118343782Y-48361674D01*
X118356079Y-48341157D01*
X118370329Y-48321944D01*
X118386393Y-48304220D01*
X118404117Y-48288156D01*
X118423330Y-48273906D01*
X118443847Y-48261609D01*
X118465471Y-48251381D01*
X118487993Y-48243323D01*
X118511197Y-48237511D01*
X118534858Y-48234001D01*
X118558750Y-48232827D01*
X119121250Y-48232827D01*
X119145142Y-48234001D01*
X119145142Y-48234001D01*
G37*
D18*
X118840000Y-48720327D03*
D10*
G36*
X119145142Y-49809001D02*
X119168803Y-49812511D01*
X119192007Y-49818323D01*
X119214529Y-49826381D01*
X119236153Y-49836609D01*
X119256670Y-49848906D01*
X119275883Y-49863156D01*
X119293607Y-49879220D01*
X119309671Y-49896944D01*
X119323921Y-49916157D01*
X119336218Y-49936674D01*
X119346446Y-49958298D01*
X119354504Y-49980820D01*
X119360316Y-50004024D01*
X119363826Y-50027685D01*
X119365000Y-50051577D01*
X119365000Y-50539077D01*
X119363826Y-50562969D01*
X119360316Y-50586630D01*
X119354504Y-50609834D01*
X119346446Y-50632356D01*
X119336218Y-50653980D01*
X119323921Y-50674497D01*
X119309671Y-50693710D01*
X119293607Y-50711434D01*
X119275883Y-50727498D01*
X119256670Y-50741748D01*
X119236153Y-50754045D01*
X119214529Y-50764273D01*
X119192007Y-50772331D01*
X119168803Y-50778143D01*
X119145142Y-50781653D01*
X119121250Y-50782827D01*
X118558750Y-50782827D01*
X118534858Y-50781653D01*
X118511197Y-50778143D01*
X118487993Y-50772331D01*
X118465471Y-50764273D01*
X118443847Y-50754045D01*
X118423330Y-50741748D01*
X118404117Y-50727498D01*
X118386393Y-50711434D01*
X118370329Y-50693710D01*
X118356079Y-50674497D01*
X118343782Y-50653980D01*
X118333554Y-50632356D01*
X118325496Y-50609834D01*
X118319684Y-50586630D01*
X118316174Y-50562969D01*
X118315000Y-50539077D01*
X118315000Y-50051577D01*
X118316174Y-50027685D01*
X118319684Y-50004024D01*
X118325496Y-49980820D01*
X118333554Y-49958298D01*
X118343782Y-49936674D01*
X118356079Y-49916157D01*
X118370329Y-49896944D01*
X118386393Y-49879220D01*
X118404117Y-49863156D01*
X118423330Y-49848906D01*
X118443847Y-49836609D01*
X118465471Y-49826381D01*
X118487993Y-49818323D01*
X118511197Y-49812511D01*
X118534858Y-49809001D01*
X118558750Y-49807827D01*
X119121250Y-49807827D01*
X119145142Y-49809001D01*
X119145142Y-49809001D01*
G37*
D18*
X118840000Y-50295327D03*
G04 #@! TD*
D10*
G04 #@! TO.C,R8*
G36*
X121685142Y-44678001D02*
X121708803Y-44681511D01*
X121732007Y-44687323D01*
X121754529Y-44695381D01*
X121776153Y-44705609D01*
X121796670Y-44717906D01*
X121815883Y-44732156D01*
X121833607Y-44748220D01*
X121849671Y-44765944D01*
X121863921Y-44785157D01*
X121876218Y-44805674D01*
X121886446Y-44827298D01*
X121894504Y-44849820D01*
X121900316Y-44873024D01*
X121903826Y-44896685D01*
X121905000Y-44920577D01*
X121905000Y-45408077D01*
X121903826Y-45431969D01*
X121900316Y-45455630D01*
X121894504Y-45478834D01*
X121886446Y-45501356D01*
X121876218Y-45522980D01*
X121863921Y-45543497D01*
X121849671Y-45562710D01*
X121833607Y-45580434D01*
X121815883Y-45596498D01*
X121796670Y-45610748D01*
X121776153Y-45623045D01*
X121754529Y-45633273D01*
X121732007Y-45641331D01*
X121708803Y-45647143D01*
X121685142Y-45650653D01*
X121661250Y-45651827D01*
X121098750Y-45651827D01*
X121074858Y-45650653D01*
X121051197Y-45647143D01*
X121027993Y-45641331D01*
X121005471Y-45633273D01*
X120983847Y-45623045D01*
X120963330Y-45610748D01*
X120944117Y-45596498D01*
X120926393Y-45580434D01*
X120910329Y-45562710D01*
X120896079Y-45543497D01*
X120883782Y-45522980D01*
X120873554Y-45501356D01*
X120865496Y-45478834D01*
X120859684Y-45455630D01*
X120856174Y-45431969D01*
X120855000Y-45408077D01*
X120855000Y-44920577D01*
X120856174Y-44896685D01*
X120859684Y-44873024D01*
X120865496Y-44849820D01*
X120873554Y-44827298D01*
X120883782Y-44805674D01*
X120896079Y-44785157D01*
X120910329Y-44765944D01*
X120926393Y-44748220D01*
X120944117Y-44732156D01*
X120963330Y-44717906D01*
X120983847Y-44705609D01*
X121005471Y-44695381D01*
X121027993Y-44687323D01*
X121051197Y-44681511D01*
X121074858Y-44678001D01*
X121098750Y-44676827D01*
X121661250Y-44676827D01*
X121685142Y-44678001D01*
X121685142Y-44678001D01*
G37*
D18*
X121380000Y-45164327D03*
D10*
G36*
X121685142Y-46253001D02*
X121708803Y-46256511D01*
X121732007Y-46262323D01*
X121754529Y-46270381D01*
X121776153Y-46280609D01*
X121796670Y-46292906D01*
X121815883Y-46307156D01*
X121833607Y-46323220D01*
X121849671Y-46340944D01*
X121863921Y-46360157D01*
X121876218Y-46380674D01*
X121886446Y-46402298D01*
X121894504Y-46424820D01*
X121900316Y-46448024D01*
X121903826Y-46471685D01*
X121905000Y-46495577D01*
X121905000Y-46983077D01*
X121903826Y-47006969D01*
X121900316Y-47030630D01*
X121894504Y-47053834D01*
X121886446Y-47076356D01*
X121876218Y-47097980D01*
X121863921Y-47118497D01*
X121849671Y-47137710D01*
X121833607Y-47155434D01*
X121815883Y-47171498D01*
X121796670Y-47185748D01*
X121776153Y-47198045D01*
X121754529Y-47208273D01*
X121732007Y-47216331D01*
X121708803Y-47222143D01*
X121685142Y-47225653D01*
X121661250Y-47226827D01*
X121098750Y-47226827D01*
X121074858Y-47225653D01*
X121051197Y-47222143D01*
X121027993Y-47216331D01*
X121005471Y-47208273D01*
X120983847Y-47198045D01*
X120963330Y-47185748D01*
X120944117Y-47171498D01*
X120926393Y-47155434D01*
X120910329Y-47137710D01*
X120896079Y-47118497D01*
X120883782Y-47097980D01*
X120873554Y-47076356D01*
X120865496Y-47053834D01*
X120859684Y-47030630D01*
X120856174Y-47006969D01*
X120855000Y-46983077D01*
X120855000Y-46495577D01*
X120856174Y-46471685D01*
X120859684Y-46448024D01*
X120865496Y-46424820D01*
X120873554Y-46402298D01*
X120883782Y-46380674D01*
X120896079Y-46360157D01*
X120910329Y-46340944D01*
X120926393Y-46323220D01*
X120944117Y-46307156D01*
X120963330Y-46292906D01*
X120983847Y-46280609D01*
X121005471Y-46270381D01*
X121027993Y-46262323D01*
X121051197Y-46256511D01*
X121074858Y-46253001D01*
X121098750Y-46251827D01*
X121661250Y-46251827D01*
X121685142Y-46253001D01*
X121685142Y-46253001D01*
G37*
D18*
X121380000Y-46739327D03*
G04 #@! TD*
D10*
G04 #@! TO.C,R9*
G36*
X119653142Y-44678001D02*
X119676803Y-44681511D01*
X119700007Y-44687323D01*
X119722529Y-44695381D01*
X119744153Y-44705609D01*
X119764670Y-44717906D01*
X119783883Y-44732156D01*
X119801607Y-44748220D01*
X119817671Y-44765944D01*
X119831921Y-44785157D01*
X119844218Y-44805674D01*
X119854446Y-44827298D01*
X119862504Y-44849820D01*
X119868316Y-44873024D01*
X119871826Y-44896685D01*
X119873000Y-44920577D01*
X119873000Y-45408077D01*
X119871826Y-45431969D01*
X119868316Y-45455630D01*
X119862504Y-45478834D01*
X119854446Y-45501356D01*
X119844218Y-45522980D01*
X119831921Y-45543497D01*
X119817671Y-45562710D01*
X119801607Y-45580434D01*
X119783883Y-45596498D01*
X119764670Y-45610748D01*
X119744153Y-45623045D01*
X119722529Y-45633273D01*
X119700007Y-45641331D01*
X119676803Y-45647143D01*
X119653142Y-45650653D01*
X119629250Y-45651827D01*
X119066750Y-45651827D01*
X119042858Y-45650653D01*
X119019197Y-45647143D01*
X118995993Y-45641331D01*
X118973471Y-45633273D01*
X118951847Y-45623045D01*
X118931330Y-45610748D01*
X118912117Y-45596498D01*
X118894393Y-45580434D01*
X118878329Y-45562710D01*
X118864079Y-45543497D01*
X118851782Y-45522980D01*
X118841554Y-45501356D01*
X118833496Y-45478834D01*
X118827684Y-45455630D01*
X118824174Y-45431969D01*
X118823000Y-45408077D01*
X118823000Y-44920577D01*
X118824174Y-44896685D01*
X118827684Y-44873024D01*
X118833496Y-44849820D01*
X118841554Y-44827298D01*
X118851782Y-44805674D01*
X118864079Y-44785157D01*
X118878329Y-44765944D01*
X118894393Y-44748220D01*
X118912117Y-44732156D01*
X118931330Y-44717906D01*
X118951847Y-44705609D01*
X118973471Y-44695381D01*
X118995993Y-44687323D01*
X119019197Y-44681511D01*
X119042858Y-44678001D01*
X119066750Y-44676827D01*
X119629250Y-44676827D01*
X119653142Y-44678001D01*
X119653142Y-44678001D01*
G37*
D18*
X119348000Y-45164327D03*
D10*
G36*
X119653142Y-46253001D02*
X119676803Y-46256511D01*
X119700007Y-46262323D01*
X119722529Y-46270381D01*
X119744153Y-46280609D01*
X119764670Y-46292906D01*
X119783883Y-46307156D01*
X119801607Y-46323220D01*
X119817671Y-46340944D01*
X119831921Y-46360157D01*
X119844218Y-46380674D01*
X119854446Y-46402298D01*
X119862504Y-46424820D01*
X119868316Y-46448024D01*
X119871826Y-46471685D01*
X119873000Y-46495577D01*
X119873000Y-46983077D01*
X119871826Y-47006969D01*
X119868316Y-47030630D01*
X119862504Y-47053834D01*
X119854446Y-47076356D01*
X119844218Y-47097980D01*
X119831921Y-47118497D01*
X119817671Y-47137710D01*
X119801607Y-47155434D01*
X119783883Y-47171498D01*
X119764670Y-47185748D01*
X119744153Y-47198045D01*
X119722529Y-47208273D01*
X119700007Y-47216331D01*
X119676803Y-47222143D01*
X119653142Y-47225653D01*
X119629250Y-47226827D01*
X119066750Y-47226827D01*
X119042858Y-47225653D01*
X119019197Y-47222143D01*
X118995993Y-47216331D01*
X118973471Y-47208273D01*
X118951847Y-47198045D01*
X118931330Y-47185748D01*
X118912117Y-47171498D01*
X118894393Y-47155434D01*
X118878329Y-47137710D01*
X118864079Y-47118497D01*
X118851782Y-47097980D01*
X118841554Y-47076356D01*
X118833496Y-47053834D01*
X118827684Y-47030630D01*
X118824174Y-47006969D01*
X118823000Y-46983077D01*
X118823000Y-46495577D01*
X118824174Y-46471685D01*
X118827684Y-46448024D01*
X118833496Y-46424820D01*
X118841554Y-46402298D01*
X118851782Y-46380674D01*
X118864079Y-46360157D01*
X118878329Y-46340944D01*
X118894393Y-46323220D01*
X118912117Y-46307156D01*
X118931330Y-46292906D01*
X118951847Y-46280609D01*
X118973471Y-46270381D01*
X118995993Y-46262323D01*
X119019197Y-46256511D01*
X119042858Y-46253001D01*
X119066750Y-46251827D01*
X119629250Y-46251827D01*
X119653142Y-46253001D01*
X119653142Y-46253001D01*
G37*
D18*
X119348000Y-46739327D03*
G04 #@! TD*
D22*
G04 #@! TO.C,U1*
X111400000Y-57950000D03*
X111400000Y-58900000D03*
X111400000Y-59850000D03*
X113600000Y-59850000D03*
X113600000Y-57950000D03*
G04 #@! TD*
G04 #@! TO.C,U2*
X104000000Y-45400000D03*
X104000000Y-47300000D03*
X101800000Y-47300000D03*
X101800000Y-46350000D03*
X101800000Y-45400000D03*
G04 #@! TD*
G04 #@! TO.C,U3*
X106000000Y-47300000D03*
X106000000Y-45400000D03*
X108200000Y-45400000D03*
X108200000Y-46350000D03*
X108200000Y-47300000D03*
G04 #@! TD*
G04 #@! TO.C,U4*
X104000000Y-51300000D03*
X104000000Y-50350000D03*
X104000000Y-49400000D03*
X101800000Y-49400000D03*
X101800000Y-51300000D03*
X101800000Y-50350000D03*
G04 #@! TD*
G04 #@! TO.C,U6*
X106000000Y-49400000D03*
X106000000Y-50350000D03*
X106000000Y-51300000D03*
X108200000Y-51300000D03*
X108200000Y-49400000D03*
G04 #@! TD*
M02*
