M48
METRIC,TZ
T1C0.300
T2C0.700
%
G90
G05
T1
X100850Y-52700
X100921Y-55438
X101700Y-48400
X102550Y-62050
X102700Y-44000
X102900Y-51300
X103500Y-44000
X104029Y-48413
X104300Y-44000
X104800Y-57900
X104980Y-51500
X105000Y-48400
X105000Y-49300
X105200Y-44000
X106100Y-58300
X106400Y-54600
X106599Y-56929
X107200Y-41600
X107850Y-55950
X107850Y-56600
X108200Y-44400
X108200Y-48600
X108597Y-60425
X108692Y-48075
X110077Y-60425
X110950Y-57225
X111700Y-44300
X111700Y-45300
X111900Y-55500
X112500Y-48400
X113500Y-55500
X113600Y-57200
X114300Y-45600
X114325Y-48150
X114325Y-50600
X114400Y-44300
X114579Y-57595
X114600Y-58900
X116700Y-60800
X117000Y-47400
X117200Y-51900
X118000Y-54000
X118900Y-55000
X119100Y-43200
X120400Y-53100
X122350Y-55050
X122950Y-62050
X123150Y-59450
X123200Y-43200
X123850Y-59450
X124300Y-51700
T2
X110750Y-41850
X112750Y-41850
X114750Y-41850
T0
M30
