G04 #@! TF.GenerationSoftware,KiCad,Pcbnew,(5.0.0)*
G04 #@! TF.CreationDate,2020-05-01T19:32:20+02:00*
G04 #@! TF.ProjectId,PGPExT_v1-1,5047504578545F76312D312E6B696361,1.1*
G04 #@! TF.SameCoordinates,Original*
G04 #@! TF.FileFunction,Copper,L3,Inr,Plane*
G04 #@! TF.FilePolarity,Positive*
%FSLAX46Y46*%
G04 Gerber Fmt 4.6, Leading zero omitted, Abs format (unit mm)*
G04 Created by KiCad (PCBNEW (5.0.0)) date 05/01/20 19:32:20*
%MOMM*%
%LPD*%
G01*
G04 APERTURE LIST*
%ADD10C,0.100000*%
%ADD11C,0.150000*%
%ADD12C,0.300000*%
%ADD13C,0.400000*%
G04 #@! TA.AperFunction,NonConductor*
%ADD14C,0.800000*%
G04 #@! TD*
G04 #@! TA.AperFunction,ViaPad*
%ADD15C,1.100000*%
G04 #@! TD*
G04 #@! TA.AperFunction,ViaPad*
%ADD16C,0.500000*%
G04 #@! TD*
G04 #@! TA.AperFunction,Conductor*
%ADD17C,0.200000*%
G04 #@! TD*
G04 APERTURE END LIST*
D10*
D11*
X177002200Y-166007200D02*
X177002200Y-198007200D01*
X285002200Y-198007200D01*
X285002200Y-166007200D01*
X177002200Y-166007200D01*
D10*
D11*
X10000000Y-10000000D02*
X10000000Y-200007200D01*
X287002200Y-200007200D01*
X287002200Y-10000000D01*
X10000000Y-10000000D01*
D10*
D11*
X12000000Y-12000000D02*
X12000000Y-198007200D01*
X285002200Y-198007200D01*
X285002200Y-12000000D01*
X12000000Y-12000000D01*
D10*
D11*
X60000000Y-12000000D02*
X60000000Y-10000000D01*
D10*
D11*
X110000000Y-12000000D02*
X110000000Y-10000000D01*
D10*
D11*
X160000000Y-12000000D02*
X160000000Y-10000000D01*
D10*
D11*
X210000000Y-12000000D02*
X210000000Y-10000000D01*
D10*
D11*
X260000000Y-12000000D02*
X260000000Y-10000000D01*
D10*
D11*
X36065476Y-11588095D02*
X35322619Y-11588095D01*
X35694047Y-11588095D02*
X35694047Y-10288095D01*
X35570238Y-10473809D01*
X35446428Y-10597619D01*
X35322619Y-10659523D01*
D10*
D11*
X85322619Y-10411904D02*
X85384523Y-10350000D01*
X85508333Y-10288095D01*
X85817857Y-10288095D01*
X85941666Y-10350000D01*
X86003571Y-10411904D01*
X86065476Y-10535714D01*
X86065476Y-10659523D01*
X86003571Y-10845238D01*
X85260714Y-11588095D01*
X86065476Y-11588095D01*
D10*
D11*
X135260714Y-10288095D02*
X136065476Y-10288095D01*
X135632142Y-10783333D01*
X135817857Y-10783333D01*
X135941666Y-10845238D01*
X136003571Y-10907142D01*
X136065476Y-11030952D01*
X136065476Y-11340476D01*
X136003571Y-11464285D01*
X135941666Y-11526190D01*
X135817857Y-11588095D01*
X135446428Y-11588095D01*
X135322619Y-11526190D01*
X135260714Y-11464285D01*
D10*
D11*
X185941666Y-10721428D02*
X185941666Y-11588095D01*
X185632142Y-10226190D02*
X185322619Y-11154761D01*
X186127380Y-11154761D01*
D10*
D11*
X236003571Y-10288095D02*
X235384523Y-10288095D01*
X235322619Y-10907142D01*
X235384523Y-10845238D01*
X235508333Y-10783333D01*
X235817857Y-10783333D01*
X235941666Y-10845238D01*
X236003571Y-10907142D01*
X236065476Y-11030952D01*
X236065476Y-11340476D01*
X236003571Y-11464285D01*
X235941666Y-11526190D01*
X235817857Y-11588095D01*
X235508333Y-11588095D01*
X235384523Y-11526190D01*
X235322619Y-11464285D01*
D10*
D11*
X285941666Y-10288095D02*
X285694047Y-10288095D01*
X285570238Y-10350000D01*
X285508333Y-10411904D01*
X285384523Y-10597619D01*
X285322619Y-10845238D01*
X285322619Y-11340476D01*
X285384523Y-11464285D01*
X285446428Y-11526190D01*
X285570238Y-11588095D01*
X285817857Y-11588095D01*
X285941666Y-11526190D01*
X286003571Y-11464285D01*
X286065476Y-11340476D01*
X286065476Y-11030952D01*
X286003571Y-10907142D01*
X285941666Y-10845238D01*
X285817857Y-10783333D01*
X285570238Y-10783333D01*
X285446428Y-10845238D01*
X285384523Y-10907142D01*
X285322619Y-11030952D01*
D10*
D11*
X60000000Y-198007200D02*
X60000000Y-200007200D01*
D10*
D11*
X110000000Y-198007200D02*
X110000000Y-200007200D01*
D10*
D11*
X160000000Y-198007200D02*
X160000000Y-200007200D01*
D10*
D11*
X210000000Y-198007200D02*
X210000000Y-200007200D01*
D10*
D11*
X260000000Y-198007200D02*
X260000000Y-200007200D01*
D10*
D11*
X36065476Y-199595295D02*
X35322619Y-199595295D01*
X35694047Y-199595295D02*
X35694047Y-198295295D01*
X35570238Y-198481009D01*
X35446428Y-198604819D01*
X35322619Y-198666723D01*
D10*
D11*
X85322619Y-198419104D02*
X85384523Y-198357200D01*
X85508333Y-198295295D01*
X85817857Y-198295295D01*
X85941666Y-198357200D01*
X86003571Y-198419104D01*
X86065476Y-198542914D01*
X86065476Y-198666723D01*
X86003571Y-198852438D01*
X85260714Y-199595295D01*
X86065476Y-199595295D01*
D10*
D11*
X135260714Y-198295295D02*
X136065476Y-198295295D01*
X135632142Y-198790533D01*
X135817857Y-198790533D01*
X135941666Y-198852438D01*
X136003571Y-198914342D01*
X136065476Y-199038152D01*
X136065476Y-199347676D01*
X136003571Y-199471485D01*
X135941666Y-199533390D01*
X135817857Y-199595295D01*
X135446428Y-199595295D01*
X135322619Y-199533390D01*
X135260714Y-199471485D01*
D10*
D11*
X185941666Y-198728628D02*
X185941666Y-199595295D01*
X185632142Y-198233390D02*
X185322619Y-199161961D01*
X186127380Y-199161961D01*
D10*
D11*
X236003571Y-198295295D02*
X235384523Y-198295295D01*
X235322619Y-198914342D01*
X235384523Y-198852438D01*
X235508333Y-198790533D01*
X235817857Y-198790533D01*
X235941666Y-198852438D01*
X236003571Y-198914342D01*
X236065476Y-199038152D01*
X236065476Y-199347676D01*
X236003571Y-199471485D01*
X235941666Y-199533390D01*
X235817857Y-199595295D01*
X235508333Y-199595295D01*
X235384523Y-199533390D01*
X235322619Y-199471485D01*
D10*
D11*
X285941666Y-198295295D02*
X285694047Y-198295295D01*
X285570238Y-198357200D01*
X285508333Y-198419104D01*
X285384523Y-198604819D01*
X285322619Y-198852438D01*
X285322619Y-199347676D01*
X285384523Y-199471485D01*
X285446428Y-199533390D01*
X285570238Y-199595295D01*
X285817857Y-199595295D01*
X285941666Y-199533390D01*
X286003571Y-199471485D01*
X286065476Y-199347676D01*
X286065476Y-199038152D01*
X286003571Y-198914342D01*
X285941666Y-198852438D01*
X285817857Y-198790533D01*
X285570238Y-198790533D01*
X285446428Y-198852438D01*
X285384523Y-198914342D01*
X285322619Y-199038152D01*
D10*
D11*
X10000000Y-60000000D02*
X12000000Y-60000000D01*
D10*
D11*
X10000000Y-110000000D02*
X12000000Y-110000000D01*
D10*
D11*
X10000000Y-160000000D02*
X12000000Y-160000000D01*
D10*
D11*
X10690476Y-35216666D02*
X11309523Y-35216666D01*
X10566666Y-35588095D02*
X11000000Y-34288095D01*
X11433333Y-35588095D01*
D10*
D11*
X11092857Y-84907142D02*
X11278571Y-84969047D01*
X11340476Y-85030952D01*
X11402380Y-85154761D01*
X11402380Y-85340476D01*
X11340476Y-85464285D01*
X11278571Y-85526190D01*
X11154761Y-85588095D01*
X10659523Y-85588095D01*
X10659523Y-84288095D01*
X11092857Y-84288095D01*
X11216666Y-84350000D01*
X11278571Y-84411904D01*
X11340476Y-84535714D01*
X11340476Y-84659523D01*
X11278571Y-84783333D01*
X11216666Y-84845238D01*
X11092857Y-84907142D01*
X10659523Y-84907142D01*
D10*
D11*
X11402380Y-135464285D02*
X11340476Y-135526190D01*
X11154761Y-135588095D01*
X11030952Y-135588095D01*
X10845238Y-135526190D01*
X10721428Y-135402380D01*
X10659523Y-135278571D01*
X10597619Y-135030952D01*
X10597619Y-134845238D01*
X10659523Y-134597619D01*
X10721428Y-134473809D01*
X10845238Y-134350000D01*
X11030952Y-134288095D01*
X11154761Y-134288095D01*
X11340476Y-134350000D01*
X11402380Y-134411904D01*
D10*
D11*
X10659523Y-185588095D02*
X10659523Y-184288095D01*
X10969047Y-184288095D01*
X11154761Y-184350000D01*
X11278571Y-184473809D01*
X11340476Y-184597619D01*
X11402380Y-184845238D01*
X11402380Y-185030952D01*
X11340476Y-185278571D01*
X11278571Y-185402380D01*
X11154761Y-185526190D01*
X10969047Y-185588095D01*
X10659523Y-185588095D01*
D10*
D11*
X287002200Y-60000000D02*
X285002200Y-60000000D01*
D10*
D11*
X287002200Y-110000000D02*
X285002200Y-110000000D01*
D10*
D11*
X287002200Y-160000000D02*
X285002200Y-160000000D01*
D10*
D11*
X285692676Y-35216666D02*
X286311723Y-35216666D01*
X285568866Y-35588095D02*
X286002200Y-34288095D01*
X286435533Y-35588095D01*
D10*
D11*
X286095057Y-84907142D02*
X286280771Y-84969047D01*
X286342676Y-85030952D01*
X286404580Y-85154761D01*
X286404580Y-85340476D01*
X286342676Y-85464285D01*
X286280771Y-85526190D01*
X286156961Y-85588095D01*
X285661723Y-85588095D01*
X285661723Y-84288095D01*
X286095057Y-84288095D01*
X286218866Y-84350000D01*
X286280771Y-84411904D01*
X286342676Y-84535714D01*
X286342676Y-84659523D01*
X286280771Y-84783333D01*
X286218866Y-84845238D01*
X286095057Y-84907142D01*
X285661723Y-84907142D01*
D10*
D11*
X286404580Y-135464285D02*
X286342676Y-135526190D01*
X286156961Y-135588095D01*
X286033152Y-135588095D01*
X285847438Y-135526190D01*
X285723628Y-135402380D01*
X285661723Y-135278571D01*
X285599819Y-135030952D01*
X285599819Y-134845238D01*
X285661723Y-134597619D01*
X285723628Y-134473809D01*
X285847438Y-134350000D01*
X286033152Y-134288095D01*
X286156961Y-134288095D01*
X286342676Y-134350000D01*
X286404580Y-134411904D01*
D10*
D11*
X285661723Y-185588095D02*
X285661723Y-184288095D01*
X285971247Y-184288095D01*
X286156961Y-184350000D01*
X286280771Y-184473809D01*
X286342676Y-184597619D01*
X286404580Y-184845238D01*
X286404580Y-185030952D01*
X286342676Y-185278571D01*
X286280771Y-185402380D01*
X286156961Y-185526190D01*
X285971247Y-185588095D01*
X285661723Y-185588095D01*
D10*
D11*
X200434342Y-193785771D02*
X200434342Y-192285771D01*
X200791485Y-192285771D01*
X201005771Y-192357200D01*
X201148628Y-192500057D01*
X201220057Y-192642914D01*
X201291485Y-192928628D01*
X201291485Y-193142914D01*
X201220057Y-193428628D01*
X201148628Y-193571485D01*
X201005771Y-193714342D01*
X200791485Y-193785771D01*
X200434342Y-193785771D01*
X202577200Y-193785771D02*
X202577200Y-193000057D01*
X202505771Y-192857200D01*
X202362914Y-192785771D01*
X202077200Y-192785771D01*
X201934342Y-192857200D01*
X202577200Y-193714342D02*
X202434342Y-193785771D01*
X202077200Y-193785771D01*
X201934342Y-193714342D01*
X201862914Y-193571485D01*
X201862914Y-193428628D01*
X201934342Y-193285771D01*
X202077200Y-193214342D01*
X202434342Y-193214342D01*
X202577200Y-193142914D01*
X203077200Y-192785771D02*
X203648628Y-192785771D01*
X203291485Y-192285771D02*
X203291485Y-193571485D01*
X203362914Y-193714342D01*
X203505771Y-193785771D01*
X203648628Y-193785771D01*
X204720057Y-193714342D02*
X204577200Y-193785771D01*
X204291485Y-193785771D01*
X204148628Y-193714342D01*
X204077200Y-193571485D01*
X204077200Y-193000057D01*
X204148628Y-192857200D01*
X204291485Y-192785771D01*
X204577200Y-192785771D01*
X204720057Y-192857200D01*
X204791485Y-193000057D01*
X204791485Y-193142914D01*
X204077200Y-193285771D01*
X205434342Y-193642914D02*
X205505771Y-193714342D01*
X205434342Y-193785771D01*
X205362914Y-193714342D01*
X205434342Y-193642914D01*
X205434342Y-193785771D01*
X205434342Y-192857200D02*
X205505771Y-192928628D01*
X205434342Y-193000057D01*
X205362914Y-192928628D01*
X205434342Y-192857200D01*
X205434342Y-193000057D01*
X207220057Y-192428628D02*
X207291485Y-192357200D01*
X207434342Y-192285771D01*
X207791485Y-192285771D01*
X207934342Y-192357200D01*
X208005771Y-192428628D01*
X208077200Y-192571485D01*
X208077200Y-192714342D01*
X208005771Y-192928628D01*
X207148628Y-193785771D01*
X208077200Y-193785771D01*
X209005771Y-192285771D02*
X209148628Y-192285771D01*
X209291485Y-192357200D01*
X209362914Y-192428628D01*
X209434342Y-192571485D01*
X209505771Y-192857200D01*
X209505771Y-193214342D01*
X209434342Y-193500057D01*
X209362914Y-193642914D01*
X209291485Y-193714342D01*
X209148628Y-193785771D01*
X209005771Y-193785771D01*
X208862914Y-193714342D01*
X208791485Y-193642914D01*
X208720057Y-193500057D01*
X208648628Y-193214342D01*
X208648628Y-192857200D01*
X208720057Y-192571485D01*
X208791485Y-192428628D01*
X208862914Y-192357200D01*
X209005771Y-192285771D01*
X210934342Y-193785771D02*
X210077200Y-193785771D01*
X210505771Y-193785771D02*
X210505771Y-192285771D01*
X210362914Y-192500057D01*
X210220057Y-192642914D01*
X210077200Y-192714342D01*
X211648628Y-193785771D02*
X211934342Y-193785771D01*
X212077200Y-193714342D01*
X212148628Y-193642914D01*
X212291485Y-193428628D01*
X212362914Y-193142914D01*
X212362914Y-192571485D01*
X212291485Y-192428628D01*
X212220057Y-192357200D01*
X212077200Y-192285771D01*
X211791485Y-192285771D01*
X211648628Y-192357200D01*
X211577200Y-192428628D01*
X211505771Y-192571485D01*
X211505771Y-192928628D01*
X211577200Y-193071485D01*
X211648628Y-193142914D01*
X211791485Y-193214342D01*
X212077200Y-193214342D01*
X212220057Y-193142914D01*
X212291485Y-193071485D01*
X212362914Y-192928628D01*
X213005771Y-193214342D02*
X214148628Y-193214342D01*
X215148628Y-192285771D02*
X215291485Y-192285771D01*
X215434342Y-192357200D01*
X215505771Y-192428628D01*
X215577200Y-192571485D01*
X215648628Y-192857200D01*
X215648628Y-193214342D01*
X215577200Y-193500057D01*
X215505771Y-193642914D01*
X215434342Y-193714342D01*
X215291485Y-193785771D01*
X215148628Y-193785771D01*
X215005771Y-193714342D01*
X214934342Y-193642914D01*
X214862914Y-193500057D01*
X214791485Y-193214342D01*
X214791485Y-192857200D01*
X214862914Y-192571485D01*
X214934342Y-192428628D01*
X215005771Y-192357200D01*
X215148628Y-192285771D01*
X216362914Y-193785771D02*
X216648628Y-193785771D01*
X216791485Y-193714342D01*
X216862914Y-193642914D01*
X217005771Y-193428628D01*
X217077200Y-193142914D01*
X217077200Y-192571485D01*
X217005771Y-192428628D01*
X216934342Y-192357200D01*
X216791485Y-192285771D01*
X216505771Y-192285771D01*
X216362914Y-192357200D01*
X216291485Y-192428628D01*
X216220057Y-192571485D01*
X216220057Y-192928628D01*
X216291485Y-193071485D01*
X216362914Y-193142914D01*
X216505771Y-193214342D01*
X216791485Y-193214342D01*
X216934342Y-193142914D01*
X217005771Y-193071485D01*
X217077200Y-192928628D01*
X217720057Y-193214342D02*
X218862914Y-193214342D01*
X220362914Y-193785771D02*
X219505771Y-193785771D01*
X219934342Y-193785771D02*
X219934342Y-192285771D01*
X219791485Y-192500057D01*
X219648628Y-192642914D01*
X219505771Y-192714342D01*
X221791485Y-193785771D02*
X220934342Y-193785771D01*
X221362914Y-193785771D02*
X221362914Y-192285771D01*
X221220057Y-192500057D01*
X221077200Y-192642914D01*
X220934342Y-192714342D01*
D10*
D11*
X177002200Y-194507200D02*
X285002200Y-194507200D01*
D10*
D11*
X178434342Y-196585771D02*
X178434342Y-195085771D01*
X179291485Y-196585771D02*
X178648628Y-195728628D01*
X179291485Y-195085771D02*
X178434342Y-195942914D01*
X179934342Y-196585771D02*
X179934342Y-195585771D01*
X179934342Y-195085771D02*
X179862914Y-195157200D01*
X179934342Y-195228628D01*
X180005771Y-195157200D01*
X179934342Y-195085771D01*
X179934342Y-195228628D01*
X181505771Y-196442914D02*
X181434342Y-196514342D01*
X181220057Y-196585771D01*
X181077200Y-196585771D01*
X180862914Y-196514342D01*
X180720057Y-196371485D01*
X180648628Y-196228628D01*
X180577200Y-195942914D01*
X180577200Y-195728628D01*
X180648628Y-195442914D01*
X180720057Y-195300057D01*
X180862914Y-195157200D01*
X181077200Y-195085771D01*
X181220057Y-195085771D01*
X181434342Y-195157200D01*
X181505771Y-195228628D01*
X182791485Y-196585771D02*
X182791485Y-195800057D01*
X182720057Y-195657200D01*
X182577200Y-195585771D01*
X182291485Y-195585771D01*
X182148628Y-195657200D01*
X182791485Y-196514342D02*
X182648628Y-196585771D01*
X182291485Y-196585771D01*
X182148628Y-196514342D01*
X182077200Y-196371485D01*
X182077200Y-196228628D01*
X182148628Y-196085771D01*
X182291485Y-196014342D01*
X182648628Y-196014342D01*
X182791485Y-195942914D01*
X184148628Y-196585771D02*
X184148628Y-195085771D01*
X184148628Y-196514342D02*
X184005771Y-196585771D01*
X183720057Y-196585771D01*
X183577200Y-196514342D01*
X183505771Y-196442914D01*
X183434342Y-196300057D01*
X183434342Y-195871485D01*
X183505771Y-195728628D01*
X183577200Y-195657200D01*
X183720057Y-195585771D01*
X184005771Y-195585771D01*
X184148628Y-195657200D01*
X186005771Y-195800057D02*
X186505771Y-195800057D01*
X186720057Y-196585771D02*
X186005771Y-196585771D01*
X186005771Y-195085771D01*
X186720057Y-195085771D01*
X187362914Y-196442914D02*
X187434342Y-196514342D01*
X187362914Y-196585771D01*
X187291485Y-196514342D01*
X187362914Y-196442914D01*
X187362914Y-196585771D01*
X188077200Y-196585771D02*
X188077200Y-195085771D01*
X188434342Y-195085771D01*
X188648628Y-195157200D01*
X188791485Y-195300057D01*
X188862914Y-195442914D01*
X188934342Y-195728628D01*
X188934342Y-195942914D01*
X188862914Y-196228628D01*
X188791485Y-196371485D01*
X188648628Y-196514342D01*
X188434342Y-196585771D01*
X188077200Y-196585771D01*
X189577200Y-196442914D02*
X189648628Y-196514342D01*
X189577200Y-196585771D01*
X189505771Y-196514342D01*
X189577200Y-196442914D01*
X189577200Y-196585771D01*
X190220057Y-196157200D02*
X190934342Y-196157200D01*
X190077200Y-196585771D02*
X190577200Y-195085771D01*
X191077200Y-196585771D01*
X191577200Y-196442914D02*
X191648628Y-196514342D01*
X191577200Y-196585771D01*
X191505771Y-196514342D01*
X191577200Y-196442914D01*
X191577200Y-196585771D01*
X194577200Y-196585771D02*
X194577200Y-195085771D01*
X194720057Y-196014342D02*
X195148628Y-196585771D01*
X195148628Y-195585771D02*
X194577200Y-196157200D01*
X195791485Y-196585771D02*
X195791485Y-195585771D01*
X195791485Y-195085771D02*
X195720057Y-195157200D01*
X195791485Y-195228628D01*
X195862914Y-195157200D01*
X195791485Y-195085771D01*
X195791485Y-195228628D01*
X197148628Y-196514342D02*
X197005771Y-196585771D01*
X196720057Y-196585771D01*
X196577200Y-196514342D01*
X196505771Y-196442914D01*
X196434342Y-196300057D01*
X196434342Y-195871485D01*
X196505771Y-195728628D01*
X196577200Y-195657200D01*
X196720057Y-195585771D01*
X197005771Y-195585771D01*
X197148628Y-195657200D01*
X198434342Y-196585771D02*
X198434342Y-195800057D01*
X198362914Y-195657200D01*
X198220057Y-195585771D01*
X197934342Y-195585771D01*
X197791485Y-195657200D01*
X198434342Y-196514342D02*
X198291485Y-196585771D01*
X197934342Y-196585771D01*
X197791485Y-196514342D01*
X197720057Y-196371485D01*
X197720057Y-196228628D01*
X197791485Y-196085771D01*
X197934342Y-196014342D01*
X198291485Y-196014342D01*
X198434342Y-195942914D01*
X199791485Y-196585771D02*
X199791485Y-195085771D01*
X199791485Y-196514342D02*
X199648628Y-196585771D01*
X199362914Y-196585771D01*
X199220057Y-196514342D01*
X199148628Y-196442914D01*
X199077200Y-196300057D01*
X199077200Y-195871485D01*
X199148628Y-195728628D01*
X199220057Y-195657200D01*
X199362914Y-195585771D01*
X199648628Y-195585771D01*
X199791485Y-195657200D01*
X202077200Y-197157200D02*
X202005771Y-197085771D01*
X201862914Y-196871485D01*
X201791485Y-196728628D01*
X201720057Y-196514342D01*
X201648628Y-196157200D01*
X201648628Y-195871485D01*
X201720057Y-195514342D01*
X201791485Y-195300057D01*
X201862914Y-195157200D01*
X202005771Y-194942914D01*
X202077200Y-194871485D01*
X203362914Y-195085771D02*
X202648628Y-195085771D01*
X202577200Y-195800057D01*
X202648628Y-195728628D01*
X202791485Y-195657200D01*
X203148628Y-195657200D01*
X203291485Y-195728628D01*
X203362914Y-195800057D01*
X203434342Y-195942914D01*
X203434342Y-196300057D01*
X203362914Y-196442914D01*
X203291485Y-196514342D01*
X203148628Y-196585771D01*
X202791485Y-196585771D01*
X202648628Y-196514342D01*
X202577200Y-196442914D01*
X204077200Y-196442914D02*
X204148628Y-196514342D01*
X204077200Y-196585771D01*
X204005771Y-196514342D01*
X204077200Y-196442914D01*
X204077200Y-196585771D01*
X205077200Y-195085771D02*
X205220057Y-195085771D01*
X205362914Y-195157200D01*
X205434342Y-195228628D01*
X205505771Y-195371485D01*
X205577200Y-195657200D01*
X205577200Y-196014342D01*
X205505771Y-196300057D01*
X205434342Y-196442914D01*
X205362914Y-196514342D01*
X205220057Y-196585771D01*
X205077200Y-196585771D01*
X204934342Y-196514342D01*
X204862914Y-196442914D01*
X204791485Y-196300057D01*
X204720057Y-196014342D01*
X204720057Y-195657200D01*
X204791485Y-195371485D01*
X204862914Y-195228628D01*
X204934342Y-195157200D01*
X205077200Y-195085771D01*
X206220057Y-196442914D02*
X206291485Y-196514342D01*
X206220057Y-196585771D01*
X206148628Y-196514342D01*
X206220057Y-196442914D01*
X206220057Y-196585771D01*
X207220057Y-195085771D02*
X207362914Y-195085771D01*
X207505771Y-195157200D01*
X207577200Y-195228628D01*
X207648628Y-195371485D01*
X207720057Y-195657200D01*
X207720057Y-196014342D01*
X207648628Y-196300057D01*
X207577200Y-196442914D01*
X207505771Y-196514342D01*
X207362914Y-196585771D01*
X207220057Y-196585771D01*
X207077200Y-196514342D01*
X207005771Y-196442914D01*
X206934342Y-196300057D01*
X206862914Y-196014342D01*
X206862914Y-195657200D01*
X206934342Y-195371485D01*
X207005771Y-195228628D01*
X207077200Y-195157200D01*
X207220057Y-195085771D01*
X208220057Y-197157200D02*
X208291485Y-197085771D01*
X208434342Y-196871485D01*
X208505771Y-196728628D01*
X208577200Y-196514342D01*
X208648628Y-196157200D01*
X208648628Y-195871485D01*
X208577200Y-195514342D01*
X208505771Y-195300057D01*
X208434342Y-195157200D01*
X208291485Y-194942914D01*
X208220057Y-194871485D01*
D10*
D11*
X177002200Y-191507200D02*
X285002200Y-191507200D01*
D10*
D12*
X264411485Y-193785771D02*
X263911485Y-193071485D01*
X263554342Y-193785771D02*
X263554342Y-192285771D01*
X264125771Y-192285771D01*
X264268628Y-192357200D01*
X264340057Y-192428628D01*
X264411485Y-192571485D01*
X264411485Y-192785771D01*
X264340057Y-192928628D01*
X264268628Y-193000057D01*
X264125771Y-193071485D01*
X263554342Y-193071485D01*
X265625771Y-193714342D02*
X265482914Y-193785771D01*
X265197200Y-193785771D01*
X265054342Y-193714342D01*
X264982914Y-193571485D01*
X264982914Y-193000057D01*
X265054342Y-192857200D01*
X265197200Y-192785771D01*
X265482914Y-192785771D01*
X265625771Y-192857200D01*
X265697200Y-193000057D01*
X265697200Y-193142914D01*
X264982914Y-193285771D01*
X266197200Y-192785771D02*
X266554342Y-193785771D01*
X266911485Y-192785771D01*
X267482914Y-193642914D02*
X267554342Y-193714342D01*
X267482914Y-193785771D01*
X267411485Y-193714342D01*
X267482914Y-193642914D01*
X267482914Y-193785771D01*
X267482914Y-192857200D02*
X267554342Y-192928628D01*
X267482914Y-193000057D01*
X267411485Y-192928628D01*
X267482914Y-192857200D01*
X267482914Y-193000057D01*
X270125771Y-193785771D02*
X269268628Y-193785771D01*
X269697200Y-193785771D02*
X269697200Y-192285771D01*
X269554342Y-192500057D01*
X269411485Y-192642914D01*
X269268628Y-192714342D01*
X270768628Y-193642914D02*
X270840057Y-193714342D01*
X270768628Y-193785771D01*
X270697200Y-193714342D01*
X270768628Y-193642914D01*
X270768628Y-193785771D01*
X272268628Y-193785771D02*
X271411485Y-193785771D01*
X271840057Y-193785771D02*
X271840057Y-192285771D01*
X271697200Y-192500057D01*
X271554342Y-192642914D01*
X271411485Y-192714342D01*
D10*
D11*
X178362914Y-193714342D02*
X178577200Y-193785771D01*
X178934342Y-193785771D01*
X179077200Y-193714342D01*
X179148628Y-193642914D01*
X179220057Y-193500057D01*
X179220057Y-193357200D01*
X179148628Y-193214342D01*
X179077200Y-193142914D01*
X178934342Y-193071485D01*
X178648628Y-193000057D01*
X178505771Y-192928628D01*
X178434342Y-192857200D01*
X178362914Y-192714342D01*
X178362914Y-192571485D01*
X178434342Y-192428628D01*
X178505771Y-192357200D01*
X178648628Y-192285771D01*
X179005771Y-192285771D01*
X179220057Y-192357200D01*
X179862914Y-193785771D02*
X179862914Y-192785771D01*
X179862914Y-192285771D02*
X179791485Y-192357200D01*
X179862914Y-192428628D01*
X179934342Y-192357200D01*
X179862914Y-192285771D01*
X179862914Y-192428628D01*
X180434342Y-192785771D02*
X181220057Y-192785771D01*
X180434342Y-193785771D01*
X181220057Y-193785771D01*
X182362914Y-193714342D02*
X182220057Y-193785771D01*
X181934342Y-193785771D01*
X181791485Y-193714342D01*
X181720057Y-193571485D01*
X181720057Y-193000057D01*
X181791485Y-192857200D01*
X181934342Y-192785771D01*
X182220057Y-192785771D01*
X182362914Y-192857200D01*
X182434342Y-193000057D01*
X182434342Y-193142914D01*
X181720057Y-193285771D01*
X183077200Y-193642914D02*
X183148628Y-193714342D01*
X183077200Y-193785771D01*
X183005771Y-193714342D01*
X183077200Y-193642914D01*
X183077200Y-193785771D01*
X183077200Y-192857200D02*
X183148628Y-192928628D01*
X183077200Y-193000057D01*
X183005771Y-192928628D01*
X183077200Y-192857200D01*
X183077200Y-193000057D01*
X184862914Y-193357200D02*
X185577200Y-193357200D01*
X184720057Y-193785771D02*
X185220057Y-192285771D01*
X185720057Y-193785771D01*
X186862914Y-192785771D02*
X186862914Y-193785771D01*
X186505771Y-192214342D02*
X186148628Y-193285771D01*
X187077200Y-193285771D01*
D10*
D11*
X263434342Y-196585771D02*
X263434342Y-195085771D01*
X264791485Y-196585771D02*
X264791485Y-195085771D01*
X264791485Y-196514342D02*
X264648628Y-196585771D01*
X264362914Y-196585771D01*
X264220057Y-196514342D01*
X264148628Y-196442914D01*
X264077200Y-196300057D01*
X264077200Y-195871485D01*
X264148628Y-195728628D01*
X264220057Y-195657200D01*
X264362914Y-195585771D01*
X264648628Y-195585771D01*
X264791485Y-195657200D01*
X265505771Y-196442914D02*
X265577200Y-196514342D01*
X265505771Y-196585771D01*
X265434342Y-196514342D01*
X265505771Y-196442914D01*
X265505771Y-196585771D01*
X265505771Y-195657200D02*
X265577200Y-195728628D01*
X265505771Y-195800057D01*
X265434342Y-195728628D01*
X265505771Y-195657200D01*
X265505771Y-195800057D01*
X268148628Y-196585771D02*
X267291485Y-196585771D01*
X267720057Y-196585771D02*
X267720057Y-195085771D01*
X267577200Y-195300057D01*
X267434342Y-195442914D01*
X267291485Y-195514342D01*
X269862914Y-195014342D02*
X268577200Y-196942914D01*
X271148628Y-196585771D02*
X270291485Y-196585771D01*
X270720057Y-196585771D02*
X270720057Y-195085771D01*
X270577200Y-195300057D01*
X270434342Y-195442914D01*
X270291485Y-195514342D01*
D10*
D11*
X177002200Y-187507200D02*
X285002200Y-187507200D01*
D10*
D13*
X178714580Y-188211961D02*
X179857438Y-188211961D01*
X179036009Y-190211961D02*
X179286009Y-188211961D01*
X180274104Y-190211961D02*
X180440771Y-188878628D01*
X180524104Y-188211961D02*
X180416961Y-188307200D01*
X180500295Y-188402438D01*
X180607438Y-188307200D01*
X180524104Y-188211961D01*
X180500295Y-188402438D01*
X181107438Y-188878628D02*
X181869342Y-188878628D01*
X181476485Y-188211961D02*
X181262200Y-189926247D01*
X181333628Y-190116723D01*
X181512200Y-190211961D01*
X181702676Y-190211961D01*
X182655057Y-190211961D02*
X182476485Y-190116723D01*
X182405057Y-189926247D01*
X182619342Y-188211961D01*
X184190771Y-190116723D02*
X183988390Y-190211961D01*
X183607438Y-190211961D01*
X183428866Y-190116723D01*
X183357438Y-189926247D01*
X183452676Y-189164342D01*
X183571723Y-188973866D01*
X183774104Y-188878628D01*
X184155057Y-188878628D01*
X184333628Y-188973866D01*
X184405057Y-189164342D01*
X184381247Y-189354819D01*
X183405057Y-189545295D01*
X185155057Y-190021485D02*
X185238390Y-190116723D01*
X185131247Y-190211961D01*
X185047914Y-190116723D01*
X185155057Y-190021485D01*
X185131247Y-190211961D01*
X185286009Y-188973866D02*
X185369342Y-189069104D01*
X185262200Y-189164342D01*
X185178866Y-189069104D01*
X185286009Y-188973866D01*
X185262200Y-189164342D01*
X187607438Y-190211961D02*
X187857438Y-188211961D01*
X188619342Y-188211961D01*
X188797914Y-188307200D01*
X188881247Y-188402438D01*
X188952676Y-188592914D01*
X188916961Y-188878628D01*
X188797914Y-189069104D01*
X188690771Y-189164342D01*
X188488390Y-189259580D01*
X187726485Y-189259580D01*
X189893152Y-190211961D02*
X189714580Y-190116723D01*
X189631247Y-190021485D01*
X189559819Y-189831009D01*
X189631247Y-189259580D01*
X189750295Y-189069104D01*
X189857438Y-188973866D01*
X190059819Y-188878628D01*
X190345533Y-188878628D01*
X190524104Y-188973866D01*
X190607438Y-189069104D01*
X190678866Y-189259580D01*
X190607438Y-189831009D01*
X190488390Y-190021485D01*
X190381247Y-190116723D01*
X190178866Y-190211961D01*
X189893152Y-190211961D01*
X192702676Y-188307200D02*
X192524104Y-188211961D01*
X192238390Y-188211961D01*
X191940771Y-188307200D01*
X191726485Y-188497676D01*
X191607438Y-188688152D01*
X191464580Y-189069104D01*
X191428866Y-189354819D01*
X191476485Y-189735771D01*
X191547914Y-189926247D01*
X191714580Y-190116723D01*
X191988390Y-190211961D01*
X192178866Y-190211961D01*
X192476485Y-190116723D01*
X192583628Y-190021485D01*
X192666961Y-189354819D01*
X192286009Y-189354819D01*
X193702676Y-190211961D02*
X193524104Y-190116723D01*
X193440771Y-190021485D01*
X193369342Y-189831009D01*
X193440771Y-189259580D01*
X193559819Y-189069104D01*
X193666961Y-188973866D01*
X193869342Y-188878628D01*
X194155057Y-188878628D01*
X194333628Y-188973866D01*
X194416961Y-189069104D01*
X194488390Y-189259580D01*
X194416961Y-189831009D01*
X194297914Y-190021485D01*
X194190771Y-190116723D01*
X193988390Y-190211961D01*
X193702676Y-190211961D01*
X195321723Y-189450057D02*
X196845533Y-189450057D01*
X195988390Y-190211961D02*
X196178866Y-188688152D01*
X197833628Y-189164342D02*
X198500295Y-189164342D01*
X198655057Y-190211961D02*
X197702676Y-190211961D01*
X197952676Y-188211961D01*
X198905057Y-188211961D01*
X199321723Y-190211961D02*
X200536009Y-188878628D01*
X199488390Y-188878628D02*
X200369342Y-190211961D01*
X201012200Y-188878628D02*
X201774104Y-188878628D01*
X201381247Y-188211961D02*
X201166961Y-189926247D01*
X201238390Y-190116723D01*
X201416961Y-190211961D01*
X201607438Y-190211961D01*
X203047914Y-190116723D02*
X202845533Y-190211961D01*
X202464580Y-190211961D01*
X202286009Y-190116723D01*
X202214580Y-189926247D01*
X202309819Y-189164342D01*
X202428866Y-188973866D01*
X202631247Y-188878628D01*
X203012200Y-188878628D01*
X203190771Y-188973866D01*
X203262200Y-189164342D01*
X203238390Y-189354819D01*
X202262200Y-189545295D01*
X204155057Y-188878628D02*
X203988390Y-190211961D01*
X204131247Y-189069104D02*
X204238390Y-188973866D01*
X204440771Y-188878628D01*
X204726485Y-188878628D01*
X204905057Y-188973866D01*
X204976485Y-189164342D01*
X204845533Y-190211961D01*
X206655057Y-190211961D02*
X206905057Y-188211961D01*
X206666961Y-190116723D02*
X206464580Y-190211961D01*
X206083628Y-190211961D01*
X205905057Y-190116723D01*
X205821723Y-190021485D01*
X205750295Y-189831009D01*
X205821723Y-189259580D01*
X205940771Y-189069104D01*
X206047914Y-188973866D01*
X206250295Y-188878628D01*
X206631247Y-188878628D01*
X206809819Y-188973866D01*
X208381247Y-190116723D02*
X208178866Y-190211961D01*
X207797914Y-190211961D01*
X207619342Y-190116723D01*
X207547914Y-189926247D01*
X207643152Y-189164342D01*
X207762200Y-188973866D01*
X207964580Y-188878628D01*
X208345533Y-188878628D01*
X208524104Y-188973866D01*
X208595533Y-189164342D01*
X208571723Y-189354819D01*
X207595533Y-189545295D01*
X209321723Y-190211961D02*
X209488390Y-188878628D01*
X209440771Y-189259580D02*
X209559819Y-189069104D01*
X209666961Y-188973866D01*
X209869342Y-188878628D01*
X210059819Y-188878628D01*
D10*
D11*
X178934342Y-185600057D02*
X178434342Y-185600057D01*
X178434342Y-186385771D02*
X178434342Y-184885771D01*
X179148628Y-184885771D01*
X179720057Y-186385771D02*
X179720057Y-185385771D01*
X179720057Y-184885771D02*
X179648628Y-184957200D01*
X179720057Y-185028628D01*
X179791485Y-184957200D01*
X179720057Y-184885771D01*
X179720057Y-185028628D01*
X180648628Y-186385771D02*
X180505771Y-186314342D01*
X180434342Y-186171485D01*
X180434342Y-184885771D01*
X181791485Y-186314342D02*
X181648628Y-186385771D01*
X181362914Y-186385771D01*
X181220057Y-186314342D01*
X181148628Y-186171485D01*
X181148628Y-185600057D01*
X181220057Y-185457200D01*
X181362914Y-185385771D01*
X181648628Y-185385771D01*
X181791485Y-185457200D01*
X181862914Y-185600057D01*
X181862914Y-185742914D01*
X181148628Y-185885771D01*
X182505771Y-186242914D02*
X182577200Y-186314342D01*
X182505771Y-186385771D01*
X182434342Y-186314342D01*
X182505771Y-186242914D01*
X182505771Y-186385771D01*
X182505771Y-185457200D02*
X182577200Y-185528628D01*
X182505771Y-185600057D01*
X182434342Y-185528628D01*
X182505771Y-185457200D01*
X182505771Y-185600057D01*
X184362914Y-186385771D02*
X184362914Y-184885771D01*
X184934342Y-184885771D01*
X185077200Y-184957200D01*
X185148628Y-185028628D01*
X185220057Y-185171485D01*
X185220057Y-185385771D01*
X185148628Y-185528628D01*
X185077200Y-185600057D01*
X184934342Y-185671485D01*
X184362914Y-185671485D01*
X186648628Y-184957200D02*
X186505771Y-184885771D01*
X186291485Y-184885771D01*
X186077200Y-184957200D01*
X185934342Y-185100057D01*
X185862914Y-185242914D01*
X185791485Y-185528628D01*
X185791485Y-185742914D01*
X185862914Y-186028628D01*
X185934342Y-186171485D01*
X186077200Y-186314342D01*
X186291485Y-186385771D01*
X186434342Y-186385771D01*
X186648628Y-186314342D01*
X186720057Y-186242914D01*
X186720057Y-185742914D01*
X186434342Y-185742914D01*
X187362914Y-186385771D02*
X187362914Y-184885771D01*
X187934342Y-184885771D01*
X188077200Y-184957200D01*
X188148628Y-185028628D01*
X188220057Y-185171485D01*
X188220057Y-185385771D01*
X188148628Y-185528628D01*
X188077200Y-185600057D01*
X187934342Y-185671485D01*
X187362914Y-185671485D01*
X188862914Y-185600057D02*
X189362914Y-185600057D01*
X189577200Y-186385771D02*
X188862914Y-186385771D01*
X188862914Y-184885771D01*
X189577200Y-184885771D01*
X190077200Y-186385771D02*
X190862914Y-185385771D01*
X190077200Y-185385771D02*
X190862914Y-186385771D01*
X191220057Y-184885771D02*
X192077200Y-184885771D01*
X191648628Y-186385771D02*
X191648628Y-184885771D01*
X192220057Y-186528628D02*
X193362914Y-186528628D01*
X193577200Y-185385771D02*
X193934342Y-186385771D01*
X194291485Y-185385771D01*
X195648628Y-186385771D02*
X194791485Y-186385771D01*
X195220057Y-186385771D02*
X195220057Y-184885771D01*
X195077200Y-185100057D01*
X194934342Y-185242914D01*
X194791485Y-185314342D01*
X196291485Y-185814342D02*
X197434342Y-185814342D01*
X198934342Y-186385771D02*
X198077200Y-186385771D01*
X198505771Y-186385771D02*
X198505771Y-184885771D01*
X198362914Y-185100057D01*
X198220057Y-185242914D01*
X198077200Y-185314342D01*
X199577200Y-186242914D02*
X199648628Y-186314342D01*
X199577200Y-186385771D01*
X199505771Y-186314342D01*
X199577200Y-186242914D01*
X199577200Y-186385771D01*
X200291485Y-186385771D02*
X200291485Y-184885771D01*
X200434342Y-185814342D02*
X200862914Y-186385771D01*
X200862914Y-185385771D02*
X200291485Y-185957200D01*
X201505771Y-186385771D02*
X201505771Y-185385771D01*
X201505771Y-184885771D02*
X201434342Y-184957200D01*
X201505771Y-185028628D01*
X201577200Y-184957200D01*
X201505771Y-184885771D01*
X201505771Y-185028628D01*
X202862914Y-186314342D02*
X202720057Y-186385771D01*
X202434342Y-186385771D01*
X202291485Y-186314342D01*
X202220057Y-186242914D01*
X202148628Y-186100057D01*
X202148628Y-185671485D01*
X202220057Y-185528628D01*
X202291485Y-185457200D01*
X202434342Y-185385771D01*
X202720057Y-185385771D01*
X202862914Y-185457200D01*
X204148628Y-186385771D02*
X204148628Y-185600057D01*
X204077200Y-185457200D01*
X203934342Y-185385771D01*
X203648628Y-185385771D01*
X203505771Y-185457200D01*
X204148628Y-186314342D02*
X204005771Y-186385771D01*
X203648628Y-186385771D01*
X203505771Y-186314342D01*
X203434342Y-186171485D01*
X203434342Y-186028628D01*
X203505771Y-185885771D01*
X203648628Y-185814342D01*
X204005771Y-185814342D01*
X204148628Y-185742914D01*
X205505771Y-186385771D02*
X205505771Y-184885771D01*
X205505771Y-186314342D02*
X205362914Y-186385771D01*
X205077200Y-186385771D01*
X204934342Y-186314342D01*
X204862914Y-186242914D01*
X204791485Y-186100057D01*
X204791485Y-185671485D01*
X204862914Y-185528628D01*
X204934342Y-185457200D01*
X205077200Y-185385771D01*
X205362914Y-185385771D01*
X205505771Y-185457200D01*
X205862914Y-186528628D02*
X207005771Y-186528628D01*
X207362914Y-185385771D02*
X207362914Y-186885771D01*
X207362914Y-185457200D02*
X207505771Y-185385771D01*
X207791485Y-185385771D01*
X207934342Y-185457200D01*
X208005771Y-185528628D01*
X208077200Y-185671485D01*
X208077200Y-186100057D01*
X208005771Y-186242914D01*
X207934342Y-186314342D01*
X207791485Y-186385771D01*
X207505771Y-186385771D01*
X207362914Y-186314342D01*
X209362914Y-186314342D02*
X209220057Y-186385771D01*
X208934342Y-186385771D01*
X208791485Y-186314342D01*
X208720057Y-186242914D01*
X208648628Y-186100057D01*
X208648628Y-185671485D01*
X208720057Y-185528628D01*
X208791485Y-185457200D01*
X208934342Y-185385771D01*
X209220057Y-185385771D01*
X209362914Y-185457200D01*
X210005771Y-186385771D02*
X210005771Y-184885771D01*
X210005771Y-185457200D02*
X210148628Y-185385771D01*
X210434342Y-185385771D01*
X210577200Y-185457200D01*
X210648628Y-185528628D01*
X210720057Y-185671485D01*
X210720057Y-186100057D01*
X210648628Y-186242914D01*
X210577200Y-186314342D01*
X210434342Y-186385771D01*
X210148628Y-186385771D01*
X210005771Y-186314342D01*
D10*
D11*
X177002200Y-181507200D02*
X285002200Y-181507200D01*
D10*
D11*
X178362914Y-183614342D02*
X178577200Y-183685771D01*
X178934342Y-183685771D01*
X179077200Y-183614342D01*
X179148628Y-183542914D01*
X179220057Y-183400057D01*
X179220057Y-183257200D01*
X179148628Y-183114342D01*
X179077200Y-183042914D01*
X178934342Y-182971485D01*
X178648628Y-182900057D01*
X178505771Y-182828628D01*
X178434342Y-182757200D01*
X178362914Y-182614342D01*
X178362914Y-182471485D01*
X178434342Y-182328628D01*
X178505771Y-182257200D01*
X178648628Y-182185771D01*
X179005771Y-182185771D01*
X179220057Y-182257200D01*
X179862914Y-183685771D02*
X179862914Y-182185771D01*
X180505771Y-183685771D02*
X180505771Y-182900057D01*
X180434342Y-182757200D01*
X180291485Y-182685771D01*
X180077200Y-182685771D01*
X179934342Y-182757200D01*
X179862914Y-182828628D01*
X181791485Y-183614342D02*
X181648628Y-183685771D01*
X181362914Y-183685771D01*
X181220057Y-183614342D01*
X181148628Y-183471485D01*
X181148628Y-182900057D01*
X181220057Y-182757200D01*
X181362914Y-182685771D01*
X181648628Y-182685771D01*
X181791485Y-182757200D01*
X181862914Y-182900057D01*
X181862914Y-183042914D01*
X181148628Y-183185771D01*
X183077200Y-183614342D02*
X182934342Y-183685771D01*
X182648628Y-183685771D01*
X182505771Y-183614342D01*
X182434342Y-183471485D01*
X182434342Y-182900057D01*
X182505771Y-182757200D01*
X182648628Y-182685771D01*
X182934342Y-182685771D01*
X183077200Y-182757200D01*
X183148628Y-182900057D01*
X183148628Y-183042914D01*
X182434342Y-183185771D01*
X183577200Y-182685771D02*
X184148628Y-182685771D01*
X183791485Y-182185771D02*
X183791485Y-183471485D01*
X183862914Y-183614342D01*
X184005771Y-183685771D01*
X184148628Y-183685771D01*
X184648628Y-183542914D02*
X184720057Y-183614342D01*
X184648628Y-183685771D01*
X184577200Y-183614342D01*
X184648628Y-183542914D01*
X184648628Y-183685771D01*
X184648628Y-182757200D02*
X184720057Y-182828628D01*
X184648628Y-182900057D01*
X184577200Y-182828628D01*
X184648628Y-182757200D01*
X184648628Y-182900057D01*
D10*
D12*
X178411485Y-179185771D02*
X178768628Y-180685771D01*
X179054342Y-179614342D01*
X179340057Y-180685771D01*
X179697200Y-179185771D01*
X180268628Y-180685771D02*
X180268628Y-179185771D01*
X180911485Y-180685771D02*
X180911485Y-179900057D01*
X180840057Y-179757200D01*
X180697200Y-179685771D01*
X180482914Y-179685771D01*
X180340057Y-179757200D01*
X180268628Y-179828628D01*
X181840057Y-180685771D02*
X181697200Y-180614342D01*
X181625771Y-180542914D01*
X181554342Y-180400057D01*
X181554342Y-179971485D01*
X181625771Y-179828628D01*
X181697200Y-179757200D01*
X181840057Y-179685771D01*
X182054342Y-179685771D01*
X182197200Y-179757200D01*
X182268628Y-179828628D01*
X182340057Y-179971485D01*
X182340057Y-180400057D01*
X182268628Y-180542914D01*
X182197200Y-180614342D01*
X182054342Y-180685771D01*
X181840057Y-180685771D01*
X182768628Y-179185771D02*
X183625771Y-179185771D01*
X183197200Y-180685771D02*
X183197200Y-179185771D01*
X184125771Y-180685771D02*
X184125771Y-179185771D01*
X184768628Y-180685771D02*
X184768628Y-179900057D01*
X184697200Y-179757200D01*
X184554342Y-179685771D01*
X184340057Y-179685771D01*
X184197200Y-179757200D01*
X184125771Y-179828628D01*
X186054342Y-180614342D02*
X185911485Y-180685771D01*
X185625771Y-180685771D01*
X185482914Y-180614342D01*
X185411485Y-180471485D01*
X185411485Y-179900057D01*
X185482914Y-179757200D01*
X185625771Y-179685771D01*
X185911485Y-179685771D01*
X186054342Y-179757200D01*
X186125771Y-179900057D01*
X186125771Y-180042914D01*
X185411485Y-180185771D01*
X186768628Y-180685771D02*
X186768628Y-179185771D01*
X186768628Y-179900057D02*
X187625771Y-179900057D01*
X187625771Y-180685771D02*
X187625771Y-179185771D01*
X188911485Y-180614342D02*
X188768628Y-180685771D01*
X188482914Y-180685771D01*
X188340057Y-180614342D01*
X188268628Y-180471485D01*
X188268628Y-179900057D01*
X188340057Y-179757200D01*
X188482914Y-179685771D01*
X188768628Y-179685771D01*
X188911485Y-179757200D01*
X188982914Y-179900057D01*
X188982914Y-180042914D01*
X188268628Y-180185771D01*
X190268628Y-180614342D02*
X190125771Y-180685771D01*
X189840057Y-180685771D01*
X189697200Y-180614342D01*
X189625771Y-180542914D01*
X189554342Y-180400057D01*
X189554342Y-179971485D01*
X189625771Y-179828628D01*
X189697200Y-179757200D01*
X189840057Y-179685771D01*
X190125771Y-179685771D01*
X190268628Y-179757200D01*
X190911485Y-180685771D02*
X190911485Y-179185771D01*
X191054342Y-180114342D02*
X191482914Y-180685771D01*
X191482914Y-179685771D02*
X190911485Y-180257200D01*
D10*
D11*
X197002200Y-191507200D02*
X197002200Y-194507200D01*
D10*
D11*
X261002200Y-191507200D02*
X261002200Y-198007200D01*
D14*
X122000000Y-64400000D02*
X122000000Y-61900000D01*
X103500000Y-64400000D02*
X103500000Y-61900000D01*
X122000000Y-64400000D02*
X125500000Y-64400000D01*
X103500000Y-61900000D02*
X122000000Y-61900000D01*
X103989634Y-39250000D02*
X121500000Y-39250000D01*
X125500269Y-48509479D02*
G75*
G03X121500000Y-39250000I-12750269J-14521D01*
G01*
X103989634Y-39250000D02*
G75*
G03X100000000Y-48513827I8760366J-9263827D01*
G01*
X125500000Y-64400000D02*
X125500000Y-48513827D01*
X100000000Y-64400000D02*
X100000000Y-48513827D01*
X100000000Y-64400000D02*
X103500000Y-64400000D01*
D15*
G04 #@! TO.N,GND*
G04 #@! TO.C,SW1*
X114750000Y-41850000D03*
G04 #@! TO.N,/mode_select*
X112750000Y-41850000D03*
G04 #@! TO.N,N/C*
X110750000Y-41850000D03*
G04 #@! TD*
D16*
G04 #@! TO.N,GND*
X114578978Y-57594664D03*
X104980002Y-51500000D03*
X100920758Y-55437606D03*
X117200000Y-51900000D03*
X119100000Y-43200000D03*
X123200000Y-43200000D03*
X118000000Y-54000000D03*
X116700000Y-60800000D03*
X108200000Y-44400000D03*
X107200000Y-41600000D03*
X110077203Y-60425010D03*
X104300000Y-44000000D03*
X104029321Y-48413035D03*
X117000000Y-47399996D03*
X124299972Y-51700000D03*
X105000000Y-49300000D03*
X102550000Y-62050000D03*
X122949984Y-62050000D03*
G04 #@! TO.N,Net-(D1-Pad1)*
X111900010Y-55500000D03*
X106099990Y-58300000D03*
X107850000Y-56600013D03*
G04 #@! TO.N,/switch*
X114325009Y-50600000D03*
G04 #@! TO.N,Net-(D1-Pad2)*
X110950000Y-57224964D03*
G04 #@! TO.N,/PGPExt_Signal_Processing/LEDb*
X120400000Y-53100000D03*
G04 #@! TO.N,/PGPExt_Signal_Processing/LEDg*
X114325009Y-48150002D03*
G04 #@! TO.N,VDD*
X113600000Y-57200000D03*
X104800000Y-57900000D03*
X106400000Y-54600000D03*
X111700000Y-45300000D03*
X108597037Y-60425010D03*
X108200000Y-48600000D03*
X123150000Y-59450000D03*
G04 #@! TO.N,VDDA*
X100850034Y-52700000D03*
X105000000Y-48400000D03*
G04 #@! TO.N,Net-(C1-Pad1)*
X103500000Y-44000000D03*
G04 #@! TO.N,/PGPExt_Signal_Processing/LEDr_i*
X123850000Y-59449998D03*
G04 #@! TO.N,+BATT*
X102900000Y-51300000D03*
X102700000Y-44000000D03*
X105200000Y-43999998D03*
X108692096Y-48075012D03*
G04 #@! TO.N,Net-(JP1-Pad1)*
X101700000Y-48400000D03*
G04 #@! TO.N,Net-(R10-Pad2)*
X114400000Y-44300000D03*
X118900000Y-55000000D03*
G04 #@! TO.N,Net-(U5-Pad3)*
X107850000Y-55950000D03*
G04 #@! TO.N,Net-(U5-Pad6)*
X106599321Y-56928913D03*
G04 #@! TO.N,Net-(U7-Pad4)*
X114600000Y-58900000D03*
X112500000Y-48400000D03*
G04 #@! TO.N,Net-(U7-Pad9)*
X122350000Y-55050000D03*
X114300006Y-45600000D03*
G04 #@! TO.N,Net-(R14-Pad2)*
X111700000Y-44300000D03*
X113500000Y-55500000D03*
G04 #@! TD*
D17*
G04 #@! TO.N,Net-(R10-Pad2)*
X118900000Y-50940006D02*
X118900000Y-54646447D01*
X114400000Y-44300000D02*
X113799993Y-44900007D01*
X113799993Y-44900007D02*
X113799993Y-45840001D01*
X113799993Y-45840001D02*
X118900000Y-50940006D01*
X118900000Y-54646447D02*
X118900000Y-55000000D01*
G04 #@! TO.N,Net-(U7-Pad4)*
X114600000Y-58900000D02*
X114246447Y-58900000D01*
X112500000Y-48753553D02*
X112500000Y-48400000D01*
X114246447Y-58900000D02*
X112500000Y-57153553D01*
X112500000Y-57153553D02*
X112500000Y-48753553D01*
G04 #@! TO.N,Net-(U7-Pad9)*
X122350000Y-53649994D02*
X114550005Y-45849999D01*
X122350000Y-55050000D02*
X122350000Y-53649994D01*
X114550005Y-45849999D02*
X114300006Y-45600000D01*
G04 #@! TO.N,Net-(R14-Pad2)*
X113500000Y-53022998D02*
X113500000Y-55500000D01*
X113200000Y-52722998D02*
X113500000Y-53022998D01*
X111700000Y-44300000D02*
X113200000Y-45800000D01*
X113200000Y-45800000D02*
X113200000Y-52722998D01*
G04 #@! TD*
G04 #@! TO.N,GND*
G36*
X121867830Y-40801018D02*
X122671882Y-41865505D01*
X123352261Y-43012980D01*
X123900494Y-44229148D01*
X124309748Y-45498855D01*
X124574914Y-46806250D01*
X124694119Y-48151108D01*
X124700001Y-48500280D01*
X124700000Y-63600000D01*
X122800000Y-63600000D01*
X122800000Y-61978789D01*
X122815672Y-61900000D01*
X122753583Y-61587856D01*
X122576767Y-61323233D01*
X122312144Y-61146417D01*
X122078789Y-61100000D01*
X122000000Y-61084328D01*
X121921211Y-61100000D01*
X103578789Y-61100000D01*
X103500000Y-61084328D01*
X103421211Y-61100000D01*
X103187856Y-61146417D01*
X102923233Y-61323233D01*
X102746417Y-61587856D01*
X102684328Y-61900000D01*
X102700001Y-61978794D01*
X102700000Y-63600000D01*
X100800000Y-63600000D01*
X100800000Y-60295717D01*
X107947037Y-60295717D01*
X107947037Y-60554303D01*
X108045994Y-60793205D01*
X108228842Y-60976053D01*
X108467744Y-61075010D01*
X108726330Y-61075010D01*
X108965232Y-60976053D01*
X109148080Y-60793205D01*
X109247037Y-60554303D01*
X109247037Y-60295717D01*
X109148080Y-60056815D01*
X108965232Y-59873967D01*
X108726330Y-59775010D01*
X108467744Y-59775010D01*
X108228842Y-59873967D01*
X108045994Y-60056815D01*
X107947037Y-60295717D01*
X100800000Y-60295717D01*
X100800000Y-57770707D01*
X104150000Y-57770707D01*
X104150000Y-58029293D01*
X104248957Y-58268195D01*
X104431805Y-58451043D01*
X104670707Y-58550000D01*
X104929293Y-58550000D01*
X105168195Y-58451043D01*
X105351043Y-58268195D01*
X105391424Y-58170707D01*
X105449990Y-58170707D01*
X105449990Y-58429293D01*
X105548947Y-58668195D01*
X105731795Y-58851043D01*
X105970697Y-58950000D01*
X106229283Y-58950000D01*
X106468185Y-58851043D01*
X106651033Y-58668195D01*
X106749990Y-58429293D01*
X106749990Y-58170707D01*
X106651033Y-57931805D01*
X106468185Y-57748957D01*
X106229283Y-57650000D01*
X105970697Y-57650000D01*
X105731795Y-57748957D01*
X105548947Y-57931805D01*
X105449990Y-58170707D01*
X105391424Y-58170707D01*
X105450000Y-58029293D01*
X105450000Y-57770707D01*
X105351043Y-57531805D01*
X105168195Y-57348957D01*
X104929293Y-57250000D01*
X104670707Y-57250000D01*
X104431805Y-57348957D01*
X104248957Y-57531805D01*
X104150000Y-57770707D01*
X100800000Y-57770707D01*
X100800000Y-56799620D01*
X105949321Y-56799620D01*
X105949321Y-57058206D01*
X106048278Y-57297108D01*
X106231126Y-57479956D01*
X106470028Y-57578913D01*
X106728614Y-57578913D01*
X106967516Y-57479956D01*
X107150364Y-57297108D01*
X107249321Y-57058206D01*
X107249321Y-56848377D01*
X107298957Y-56968208D01*
X107481805Y-57151056D01*
X107720707Y-57250013D01*
X107979293Y-57250013D01*
X108218195Y-57151056D01*
X108273580Y-57095671D01*
X110300000Y-57095671D01*
X110300000Y-57354257D01*
X110398957Y-57593159D01*
X110581805Y-57776007D01*
X110820707Y-57874964D01*
X111079293Y-57874964D01*
X111318195Y-57776007D01*
X111501043Y-57593159D01*
X111600000Y-57354257D01*
X111600000Y-57095671D01*
X111501043Y-56856769D01*
X111318195Y-56673921D01*
X111079293Y-56574964D01*
X110820707Y-56574964D01*
X110581805Y-56673921D01*
X110398957Y-56856769D01*
X110300000Y-57095671D01*
X108273580Y-57095671D01*
X108401043Y-56968208D01*
X108500000Y-56729306D01*
X108500000Y-56470720D01*
X108418932Y-56275007D01*
X108500000Y-56079293D01*
X108500000Y-55820707D01*
X108401043Y-55581805D01*
X108218195Y-55398957D01*
X107979293Y-55300000D01*
X107720707Y-55300000D01*
X107481805Y-55398957D01*
X107298957Y-55581805D01*
X107200000Y-55820707D01*
X107200000Y-56079293D01*
X107281068Y-56275007D01*
X107200000Y-56470720D01*
X107200000Y-56680549D01*
X107150364Y-56560718D01*
X106967516Y-56377870D01*
X106728614Y-56278913D01*
X106470028Y-56278913D01*
X106231126Y-56377870D01*
X106048278Y-56560718D01*
X105949321Y-56799620D01*
X100800000Y-56799620D01*
X100800000Y-54470707D01*
X105750000Y-54470707D01*
X105750000Y-54729293D01*
X105848957Y-54968195D01*
X106031805Y-55151043D01*
X106270707Y-55250000D01*
X106529293Y-55250000D01*
X106768195Y-55151043D01*
X106951043Y-54968195D01*
X107050000Y-54729293D01*
X107050000Y-54470707D01*
X106951043Y-54231805D01*
X106768195Y-54048957D01*
X106529293Y-53950000D01*
X106270707Y-53950000D01*
X106031805Y-54048957D01*
X105848957Y-54231805D01*
X105750000Y-54470707D01*
X100800000Y-54470707D01*
X100800000Y-53350000D01*
X100979327Y-53350000D01*
X101218229Y-53251043D01*
X101401077Y-53068195D01*
X101500034Y-52829293D01*
X101500034Y-52570707D01*
X101401077Y-52331805D01*
X101218229Y-52148957D01*
X100979327Y-52050000D01*
X100800000Y-52050000D01*
X100800000Y-51170707D01*
X102250000Y-51170707D01*
X102250000Y-51429293D01*
X102348957Y-51668195D01*
X102531805Y-51851043D01*
X102770707Y-51950000D01*
X103029293Y-51950000D01*
X103268195Y-51851043D01*
X103451043Y-51668195D01*
X103550000Y-51429293D01*
X103550000Y-51170707D01*
X103451043Y-50931805D01*
X103268195Y-50748957D01*
X103029293Y-50650000D01*
X102770707Y-50650000D01*
X102531805Y-50748957D01*
X102348957Y-50931805D01*
X102250000Y-51170707D01*
X100800000Y-51170707D01*
X100800000Y-48536180D01*
X100814842Y-48270707D01*
X101050000Y-48270707D01*
X101050000Y-48529293D01*
X101148957Y-48768195D01*
X101331805Y-48951043D01*
X101570707Y-49050000D01*
X101829293Y-49050000D01*
X102068195Y-48951043D01*
X102251043Y-48768195D01*
X102350000Y-48529293D01*
X102350000Y-48270707D01*
X104350000Y-48270707D01*
X104350000Y-48529293D01*
X104448957Y-48768195D01*
X104631805Y-48951043D01*
X104870707Y-49050000D01*
X105129293Y-49050000D01*
X105368195Y-48951043D01*
X105551043Y-48768195D01*
X105650000Y-48529293D01*
X105650000Y-48470707D01*
X107550000Y-48470707D01*
X107550000Y-48729293D01*
X107648957Y-48968195D01*
X107831805Y-49151043D01*
X108070707Y-49250000D01*
X108329293Y-49250000D01*
X108568195Y-49151043D01*
X108751043Y-48968195D01*
X108850000Y-48729293D01*
X108850000Y-48713161D01*
X109060291Y-48626055D01*
X109243139Y-48443207D01*
X109342096Y-48204305D01*
X109342096Y-47945719D01*
X109243139Y-47706817D01*
X109060291Y-47523969D01*
X108821389Y-47425012D01*
X108562803Y-47425012D01*
X108323901Y-47523969D01*
X108141053Y-47706817D01*
X108042096Y-47945719D01*
X108042096Y-47961851D01*
X107831805Y-48048957D01*
X107648957Y-48231805D01*
X107550000Y-48470707D01*
X105650000Y-48470707D01*
X105650000Y-48270707D01*
X105551043Y-48031805D01*
X105368195Y-47848957D01*
X105129293Y-47750000D01*
X104870707Y-47750000D01*
X104631805Y-47848957D01*
X104448957Y-48031805D01*
X104350000Y-48270707D01*
X102350000Y-48270707D01*
X102251043Y-48031805D01*
X102068195Y-47848957D01*
X101829293Y-47750000D01*
X101570707Y-47750000D01*
X101331805Y-47848957D01*
X101148957Y-48031805D01*
X101050000Y-48270707D01*
X100814842Y-48270707D01*
X100875715Y-47181910D01*
X101098185Y-45866595D01*
X101465883Y-44584279D01*
X101759996Y-43870707D01*
X102050000Y-43870707D01*
X102050000Y-44129293D01*
X102148957Y-44368195D01*
X102331805Y-44551043D01*
X102570707Y-44650000D01*
X102829293Y-44650000D01*
X103068195Y-44551043D01*
X103100000Y-44519238D01*
X103131805Y-44551043D01*
X103370707Y-44650000D01*
X103629293Y-44650000D01*
X103868195Y-44551043D01*
X104051043Y-44368195D01*
X104150000Y-44129293D01*
X104150000Y-43870707D01*
X104150000Y-43870705D01*
X104550000Y-43870705D01*
X104550000Y-44129291D01*
X104648957Y-44368193D01*
X104831805Y-44551041D01*
X105070707Y-44649998D01*
X105329293Y-44649998D01*
X105568195Y-44551041D01*
X105751043Y-44368193D01*
X105832844Y-44170707D01*
X111050000Y-44170707D01*
X111050000Y-44429293D01*
X111148957Y-44668195D01*
X111280762Y-44800000D01*
X111148957Y-44931805D01*
X111050000Y-45170707D01*
X111050000Y-45429293D01*
X111148957Y-45668195D01*
X111331805Y-45851043D01*
X111570707Y-45950000D01*
X111829293Y-45950000D01*
X112068195Y-45851043D01*
X112251043Y-45668195D01*
X112283275Y-45590381D01*
X112700000Y-46007107D01*
X112700000Y-47779288D01*
X112629293Y-47750000D01*
X112370707Y-47750000D01*
X112131805Y-47848957D01*
X111948957Y-48031805D01*
X111850000Y-48270707D01*
X111850000Y-48529293D01*
X111948957Y-48768195D01*
X112000001Y-48819239D01*
X112000000Y-54850000D01*
X111770717Y-54850000D01*
X111531815Y-54948957D01*
X111348967Y-55131805D01*
X111250010Y-55370707D01*
X111250010Y-55629293D01*
X111348967Y-55868195D01*
X111531815Y-56051043D01*
X111770717Y-56150000D01*
X112000000Y-56150000D01*
X112000000Y-57104312D01*
X111990205Y-57153553D01*
X112000000Y-57202794D01*
X112000000Y-57202795D01*
X112029011Y-57348642D01*
X112139520Y-57514033D01*
X112181270Y-57541929D01*
X113858072Y-59218732D01*
X113885967Y-59260480D01*
X114051357Y-59370989D01*
X114176679Y-59395917D01*
X114231805Y-59451043D01*
X114470707Y-59550000D01*
X114729293Y-59550000D01*
X114968195Y-59451043D01*
X115098531Y-59320707D01*
X122500000Y-59320707D01*
X122500000Y-59579293D01*
X122598957Y-59818195D01*
X122781805Y-60001043D01*
X123020707Y-60100000D01*
X123279293Y-60100000D01*
X123500002Y-60008579D01*
X123720707Y-60099998D01*
X123979293Y-60099998D01*
X124218195Y-60001041D01*
X124401043Y-59818193D01*
X124500000Y-59579291D01*
X124500000Y-59320705D01*
X124401043Y-59081803D01*
X124218195Y-58898955D01*
X123979293Y-58799998D01*
X123720707Y-58799998D01*
X123499998Y-58891419D01*
X123279293Y-58800000D01*
X123020707Y-58800000D01*
X122781805Y-58898957D01*
X122598957Y-59081805D01*
X122500000Y-59320707D01*
X115098531Y-59320707D01*
X115151043Y-59268195D01*
X115250000Y-59029293D01*
X115250000Y-58770707D01*
X115151043Y-58531805D01*
X114968195Y-58348957D01*
X114729293Y-58250000D01*
X114470707Y-58250000D01*
X114352512Y-58298958D01*
X113852514Y-57798960D01*
X113968195Y-57751043D01*
X114151043Y-57568195D01*
X114250000Y-57329293D01*
X114250000Y-57070707D01*
X114151043Y-56831805D01*
X113968195Y-56648957D01*
X113729293Y-56550000D01*
X113470707Y-56550000D01*
X113231805Y-56648957D01*
X113048957Y-56831805D01*
X113001040Y-56947487D01*
X113000000Y-56946447D01*
X113000000Y-55919238D01*
X113131805Y-56051043D01*
X113370707Y-56150000D01*
X113629293Y-56150000D01*
X113868195Y-56051043D01*
X114051043Y-55868195D01*
X114150000Y-55629293D01*
X114150000Y-55370707D01*
X114051043Y-55131805D01*
X114000000Y-55080762D01*
X114000000Y-53072239D01*
X114009795Y-53022997D01*
X113971264Y-52829293D01*
X113970989Y-52827908D01*
X113860480Y-52662518D01*
X113818730Y-52634622D01*
X113700000Y-52515892D01*
X113700000Y-50789626D01*
X113773966Y-50968195D01*
X113956814Y-51151043D01*
X114195716Y-51250000D01*
X114454302Y-51250000D01*
X114693204Y-51151043D01*
X114876052Y-50968195D01*
X114975009Y-50729293D01*
X114975009Y-50470707D01*
X114876052Y-50231805D01*
X114693204Y-50048957D01*
X114454302Y-49950000D01*
X114195716Y-49950000D01*
X113956814Y-50048957D01*
X113773966Y-50231805D01*
X113700000Y-50410374D01*
X113700000Y-48339628D01*
X113773966Y-48518197D01*
X113956814Y-48701045D01*
X114195716Y-48800002D01*
X114454302Y-48800002D01*
X114693204Y-48701045D01*
X114876052Y-48518197D01*
X114975009Y-48279295D01*
X114975009Y-48020709D01*
X114876052Y-47781807D01*
X114693204Y-47598959D01*
X114454302Y-47500002D01*
X114195716Y-47500002D01*
X113956814Y-47598959D01*
X113773966Y-47781807D01*
X113700000Y-47960376D01*
X113700000Y-46447114D01*
X118400000Y-51147113D01*
X118400001Y-54580761D01*
X118348957Y-54631805D01*
X118250000Y-54870707D01*
X118250000Y-55129293D01*
X118348957Y-55368195D01*
X118531805Y-55551043D01*
X118770707Y-55650000D01*
X119029293Y-55650000D01*
X119268195Y-55551043D01*
X119451043Y-55368195D01*
X119550000Y-55129293D01*
X119550000Y-54870707D01*
X119451043Y-54631805D01*
X119400000Y-54580762D01*
X119400000Y-51407101D01*
X120442899Y-52450000D01*
X120270707Y-52450000D01*
X120031805Y-52548957D01*
X119848957Y-52731805D01*
X119750000Y-52970707D01*
X119750000Y-53229293D01*
X119848957Y-53468195D01*
X120031805Y-53651043D01*
X120270707Y-53750000D01*
X120529293Y-53750000D01*
X120768195Y-53651043D01*
X120951043Y-53468195D01*
X121050000Y-53229293D01*
X121050000Y-53057101D01*
X121850001Y-53857102D01*
X121850000Y-54630762D01*
X121798957Y-54681805D01*
X121700000Y-54920707D01*
X121700000Y-55179293D01*
X121798957Y-55418195D01*
X121981805Y-55601043D01*
X122220707Y-55700000D01*
X122479293Y-55700000D01*
X122718195Y-55601043D01*
X122901043Y-55418195D01*
X123000000Y-55179293D01*
X123000000Y-54920707D01*
X122901043Y-54681805D01*
X122850000Y-54630762D01*
X122850000Y-53699237D01*
X122859795Y-53649994D01*
X122820989Y-53454904D01*
X122750895Y-53350000D01*
X122710480Y-53289514D01*
X122668732Y-53261619D01*
X114950006Y-45542894D01*
X114950006Y-45470707D01*
X114851049Y-45231805D01*
X114668201Y-45048957D01*
X114448962Y-44958145D01*
X114457107Y-44950000D01*
X114529293Y-44950000D01*
X114768195Y-44851043D01*
X114951043Y-44668195D01*
X115050000Y-44429293D01*
X115050000Y-44170707D01*
X114951043Y-43931805D01*
X114768195Y-43748957D01*
X114529293Y-43650000D01*
X114270707Y-43650000D01*
X114031805Y-43748957D01*
X113848957Y-43931805D01*
X113750000Y-44170707D01*
X113750000Y-44242893D01*
X113481263Y-44511631D01*
X113439513Y-44539527D01*
X113329004Y-44704918D01*
X113299993Y-44850764D01*
X113290198Y-44900007D01*
X113299993Y-44949249D01*
X113299993Y-45192887D01*
X112350000Y-44242894D01*
X112350000Y-44170707D01*
X112251043Y-43931805D01*
X112068195Y-43748957D01*
X111829293Y-43650000D01*
X111570707Y-43650000D01*
X111331805Y-43748957D01*
X111148957Y-43931805D01*
X111050000Y-44170707D01*
X105832844Y-44170707D01*
X105850000Y-44129291D01*
X105850000Y-43870705D01*
X105751043Y-43631803D01*
X105568195Y-43448955D01*
X105329293Y-43349998D01*
X105070707Y-43349998D01*
X104831805Y-43448955D01*
X104648957Y-43631803D01*
X104550000Y-43870705D01*
X104150000Y-43870705D01*
X104051043Y-43631805D01*
X103868195Y-43448957D01*
X103629293Y-43350000D01*
X103370707Y-43350000D01*
X103131805Y-43448957D01*
X103100000Y-43480762D01*
X103068195Y-43448957D01*
X102829293Y-43350000D01*
X102570707Y-43350000D01*
X102331805Y-43448957D01*
X102148957Y-43631805D01*
X102050000Y-43870707D01*
X101759996Y-43870707D01*
X101974229Y-43350940D01*
X102616883Y-42181956D01*
X102984353Y-41661033D01*
X109800000Y-41661033D01*
X109800000Y-42038967D01*
X109944629Y-42388132D01*
X110211868Y-42655371D01*
X110561033Y-42800000D01*
X110938967Y-42800000D01*
X111288132Y-42655371D01*
X111555371Y-42388132D01*
X111700000Y-42038967D01*
X111700000Y-41661033D01*
X111800000Y-41661033D01*
X111800000Y-42038967D01*
X111944629Y-42388132D01*
X112211868Y-42655371D01*
X112561033Y-42800000D01*
X112938967Y-42800000D01*
X113233285Y-42678089D01*
X114139700Y-42678089D01*
X114186526Y-42887555D01*
X114626473Y-43024208D01*
X115085226Y-42982098D01*
X115313474Y-42887555D01*
X115360300Y-42678089D01*
X114750000Y-42067789D01*
X114139700Y-42678089D01*
X113233285Y-42678089D01*
X113288132Y-42655371D01*
X113555371Y-42388132D01*
X113628660Y-42211198D01*
X113712445Y-42413474D01*
X113921911Y-42460300D01*
X114532211Y-41850000D01*
X114967789Y-41850000D01*
X115578089Y-42460300D01*
X115787555Y-42413474D01*
X115924208Y-41973527D01*
X115882098Y-41514774D01*
X115787555Y-41286526D01*
X115578089Y-41239700D01*
X114967789Y-41850000D01*
X114532211Y-41850000D01*
X113921911Y-41239700D01*
X113712445Y-41286526D01*
X113640635Y-41517714D01*
X113555371Y-41311868D01*
X113288132Y-41044629D01*
X113233286Y-41021911D01*
X114139700Y-41021911D01*
X114750000Y-41632211D01*
X115360300Y-41021911D01*
X115313474Y-40812445D01*
X114873527Y-40675792D01*
X114414774Y-40717902D01*
X114186526Y-40812445D01*
X114139700Y-41021911D01*
X113233286Y-41021911D01*
X112938967Y-40900000D01*
X112561033Y-40900000D01*
X112211868Y-41044629D01*
X111944629Y-41311868D01*
X111800000Y-41661033D01*
X111700000Y-41661033D01*
X111555371Y-41311868D01*
X111288132Y-41044629D01*
X110938967Y-40900000D01*
X110561033Y-40900000D01*
X110211868Y-41044629D01*
X109944629Y-41311868D01*
X109800000Y-41661033D01*
X102984353Y-41661033D01*
X103385841Y-41091888D01*
X104282206Y-40082289D01*
X104315294Y-40050000D01*
X121156006Y-40050000D01*
X121867830Y-40801018D01*
X121867830Y-40801018D01*
G37*
X121867830Y-40801018D02*
X122671882Y-41865505D01*
X123352261Y-43012980D01*
X123900494Y-44229148D01*
X124309748Y-45498855D01*
X124574914Y-46806250D01*
X124694119Y-48151108D01*
X124700001Y-48500280D01*
X124700000Y-63600000D01*
X122800000Y-63600000D01*
X122800000Y-61978789D01*
X122815672Y-61900000D01*
X122753583Y-61587856D01*
X122576767Y-61323233D01*
X122312144Y-61146417D01*
X122078789Y-61100000D01*
X122000000Y-61084328D01*
X121921211Y-61100000D01*
X103578789Y-61100000D01*
X103500000Y-61084328D01*
X103421211Y-61100000D01*
X103187856Y-61146417D01*
X102923233Y-61323233D01*
X102746417Y-61587856D01*
X102684328Y-61900000D01*
X102700001Y-61978794D01*
X102700000Y-63600000D01*
X100800000Y-63600000D01*
X100800000Y-60295717D01*
X107947037Y-60295717D01*
X107947037Y-60554303D01*
X108045994Y-60793205D01*
X108228842Y-60976053D01*
X108467744Y-61075010D01*
X108726330Y-61075010D01*
X108965232Y-60976053D01*
X109148080Y-60793205D01*
X109247037Y-60554303D01*
X109247037Y-60295717D01*
X109148080Y-60056815D01*
X108965232Y-59873967D01*
X108726330Y-59775010D01*
X108467744Y-59775010D01*
X108228842Y-59873967D01*
X108045994Y-60056815D01*
X107947037Y-60295717D01*
X100800000Y-60295717D01*
X100800000Y-57770707D01*
X104150000Y-57770707D01*
X104150000Y-58029293D01*
X104248957Y-58268195D01*
X104431805Y-58451043D01*
X104670707Y-58550000D01*
X104929293Y-58550000D01*
X105168195Y-58451043D01*
X105351043Y-58268195D01*
X105391424Y-58170707D01*
X105449990Y-58170707D01*
X105449990Y-58429293D01*
X105548947Y-58668195D01*
X105731795Y-58851043D01*
X105970697Y-58950000D01*
X106229283Y-58950000D01*
X106468185Y-58851043D01*
X106651033Y-58668195D01*
X106749990Y-58429293D01*
X106749990Y-58170707D01*
X106651033Y-57931805D01*
X106468185Y-57748957D01*
X106229283Y-57650000D01*
X105970697Y-57650000D01*
X105731795Y-57748957D01*
X105548947Y-57931805D01*
X105449990Y-58170707D01*
X105391424Y-58170707D01*
X105450000Y-58029293D01*
X105450000Y-57770707D01*
X105351043Y-57531805D01*
X105168195Y-57348957D01*
X104929293Y-57250000D01*
X104670707Y-57250000D01*
X104431805Y-57348957D01*
X104248957Y-57531805D01*
X104150000Y-57770707D01*
X100800000Y-57770707D01*
X100800000Y-56799620D01*
X105949321Y-56799620D01*
X105949321Y-57058206D01*
X106048278Y-57297108D01*
X106231126Y-57479956D01*
X106470028Y-57578913D01*
X106728614Y-57578913D01*
X106967516Y-57479956D01*
X107150364Y-57297108D01*
X107249321Y-57058206D01*
X107249321Y-56848377D01*
X107298957Y-56968208D01*
X107481805Y-57151056D01*
X107720707Y-57250013D01*
X107979293Y-57250013D01*
X108218195Y-57151056D01*
X108273580Y-57095671D01*
X110300000Y-57095671D01*
X110300000Y-57354257D01*
X110398957Y-57593159D01*
X110581805Y-57776007D01*
X110820707Y-57874964D01*
X111079293Y-57874964D01*
X111318195Y-57776007D01*
X111501043Y-57593159D01*
X111600000Y-57354257D01*
X111600000Y-57095671D01*
X111501043Y-56856769D01*
X111318195Y-56673921D01*
X111079293Y-56574964D01*
X110820707Y-56574964D01*
X110581805Y-56673921D01*
X110398957Y-56856769D01*
X110300000Y-57095671D01*
X108273580Y-57095671D01*
X108401043Y-56968208D01*
X108500000Y-56729306D01*
X108500000Y-56470720D01*
X108418932Y-56275007D01*
X108500000Y-56079293D01*
X108500000Y-55820707D01*
X108401043Y-55581805D01*
X108218195Y-55398957D01*
X107979293Y-55300000D01*
X107720707Y-55300000D01*
X107481805Y-55398957D01*
X107298957Y-55581805D01*
X107200000Y-55820707D01*
X107200000Y-56079293D01*
X107281068Y-56275007D01*
X107200000Y-56470720D01*
X107200000Y-56680549D01*
X107150364Y-56560718D01*
X106967516Y-56377870D01*
X106728614Y-56278913D01*
X106470028Y-56278913D01*
X106231126Y-56377870D01*
X106048278Y-56560718D01*
X105949321Y-56799620D01*
X100800000Y-56799620D01*
X100800000Y-54470707D01*
X105750000Y-54470707D01*
X105750000Y-54729293D01*
X105848957Y-54968195D01*
X106031805Y-55151043D01*
X106270707Y-55250000D01*
X106529293Y-55250000D01*
X106768195Y-55151043D01*
X106951043Y-54968195D01*
X107050000Y-54729293D01*
X107050000Y-54470707D01*
X106951043Y-54231805D01*
X106768195Y-54048957D01*
X106529293Y-53950000D01*
X106270707Y-53950000D01*
X106031805Y-54048957D01*
X105848957Y-54231805D01*
X105750000Y-54470707D01*
X100800000Y-54470707D01*
X100800000Y-53350000D01*
X100979327Y-53350000D01*
X101218229Y-53251043D01*
X101401077Y-53068195D01*
X101500034Y-52829293D01*
X101500034Y-52570707D01*
X101401077Y-52331805D01*
X101218229Y-52148957D01*
X100979327Y-52050000D01*
X100800000Y-52050000D01*
X100800000Y-51170707D01*
X102250000Y-51170707D01*
X102250000Y-51429293D01*
X102348957Y-51668195D01*
X102531805Y-51851043D01*
X102770707Y-51950000D01*
X103029293Y-51950000D01*
X103268195Y-51851043D01*
X103451043Y-51668195D01*
X103550000Y-51429293D01*
X103550000Y-51170707D01*
X103451043Y-50931805D01*
X103268195Y-50748957D01*
X103029293Y-50650000D01*
X102770707Y-50650000D01*
X102531805Y-50748957D01*
X102348957Y-50931805D01*
X102250000Y-51170707D01*
X100800000Y-51170707D01*
X100800000Y-48536180D01*
X100814842Y-48270707D01*
X101050000Y-48270707D01*
X101050000Y-48529293D01*
X101148957Y-48768195D01*
X101331805Y-48951043D01*
X101570707Y-49050000D01*
X101829293Y-49050000D01*
X102068195Y-48951043D01*
X102251043Y-48768195D01*
X102350000Y-48529293D01*
X102350000Y-48270707D01*
X104350000Y-48270707D01*
X104350000Y-48529293D01*
X104448957Y-48768195D01*
X104631805Y-48951043D01*
X104870707Y-49050000D01*
X105129293Y-49050000D01*
X105368195Y-48951043D01*
X105551043Y-48768195D01*
X105650000Y-48529293D01*
X105650000Y-48470707D01*
X107550000Y-48470707D01*
X107550000Y-48729293D01*
X107648957Y-48968195D01*
X107831805Y-49151043D01*
X108070707Y-49250000D01*
X108329293Y-49250000D01*
X108568195Y-49151043D01*
X108751043Y-48968195D01*
X108850000Y-48729293D01*
X108850000Y-48713161D01*
X109060291Y-48626055D01*
X109243139Y-48443207D01*
X109342096Y-48204305D01*
X109342096Y-47945719D01*
X109243139Y-47706817D01*
X109060291Y-47523969D01*
X108821389Y-47425012D01*
X108562803Y-47425012D01*
X108323901Y-47523969D01*
X108141053Y-47706817D01*
X108042096Y-47945719D01*
X108042096Y-47961851D01*
X107831805Y-48048957D01*
X107648957Y-48231805D01*
X107550000Y-48470707D01*
X105650000Y-48470707D01*
X105650000Y-48270707D01*
X105551043Y-48031805D01*
X105368195Y-47848957D01*
X105129293Y-47750000D01*
X104870707Y-47750000D01*
X104631805Y-47848957D01*
X104448957Y-48031805D01*
X104350000Y-48270707D01*
X102350000Y-48270707D01*
X102251043Y-48031805D01*
X102068195Y-47848957D01*
X101829293Y-47750000D01*
X101570707Y-47750000D01*
X101331805Y-47848957D01*
X101148957Y-48031805D01*
X101050000Y-48270707D01*
X100814842Y-48270707D01*
X100875715Y-47181910D01*
X101098185Y-45866595D01*
X101465883Y-44584279D01*
X101759996Y-43870707D01*
X102050000Y-43870707D01*
X102050000Y-44129293D01*
X102148957Y-44368195D01*
X102331805Y-44551043D01*
X102570707Y-44650000D01*
X102829293Y-44650000D01*
X103068195Y-44551043D01*
X103100000Y-44519238D01*
X103131805Y-44551043D01*
X103370707Y-44650000D01*
X103629293Y-44650000D01*
X103868195Y-44551043D01*
X104051043Y-44368195D01*
X104150000Y-44129293D01*
X104150000Y-43870707D01*
X104150000Y-43870705D01*
X104550000Y-43870705D01*
X104550000Y-44129291D01*
X104648957Y-44368193D01*
X104831805Y-44551041D01*
X105070707Y-44649998D01*
X105329293Y-44649998D01*
X105568195Y-44551041D01*
X105751043Y-44368193D01*
X105832844Y-44170707D01*
X111050000Y-44170707D01*
X111050000Y-44429293D01*
X111148957Y-44668195D01*
X111280762Y-44800000D01*
X111148957Y-44931805D01*
X111050000Y-45170707D01*
X111050000Y-45429293D01*
X111148957Y-45668195D01*
X111331805Y-45851043D01*
X111570707Y-45950000D01*
X111829293Y-45950000D01*
X112068195Y-45851043D01*
X112251043Y-45668195D01*
X112283275Y-45590381D01*
X112700000Y-46007107D01*
X112700000Y-47779288D01*
X112629293Y-47750000D01*
X112370707Y-47750000D01*
X112131805Y-47848957D01*
X111948957Y-48031805D01*
X111850000Y-48270707D01*
X111850000Y-48529293D01*
X111948957Y-48768195D01*
X112000001Y-48819239D01*
X112000000Y-54850000D01*
X111770717Y-54850000D01*
X111531815Y-54948957D01*
X111348967Y-55131805D01*
X111250010Y-55370707D01*
X111250010Y-55629293D01*
X111348967Y-55868195D01*
X111531815Y-56051043D01*
X111770717Y-56150000D01*
X112000000Y-56150000D01*
X112000000Y-57104312D01*
X111990205Y-57153553D01*
X112000000Y-57202794D01*
X112000000Y-57202795D01*
X112029011Y-57348642D01*
X112139520Y-57514033D01*
X112181270Y-57541929D01*
X113858072Y-59218732D01*
X113885967Y-59260480D01*
X114051357Y-59370989D01*
X114176679Y-59395917D01*
X114231805Y-59451043D01*
X114470707Y-59550000D01*
X114729293Y-59550000D01*
X114968195Y-59451043D01*
X115098531Y-59320707D01*
X122500000Y-59320707D01*
X122500000Y-59579293D01*
X122598957Y-59818195D01*
X122781805Y-60001043D01*
X123020707Y-60100000D01*
X123279293Y-60100000D01*
X123500002Y-60008579D01*
X123720707Y-60099998D01*
X123979293Y-60099998D01*
X124218195Y-60001041D01*
X124401043Y-59818193D01*
X124500000Y-59579291D01*
X124500000Y-59320705D01*
X124401043Y-59081803D01*
X124218195Y-58898955D01*
X123979293Y-58799998D01*
X123720707Y-58799998D01*
X123499998Y-58891419D01*
X123279293Y-58800000D01*
X123020707Y-58800000D01*
X122781805Y-58898957D01*
X122598957Y-59081805D01*
X122500000Y-59320707D01*
X115098531Y-59320707D01*
X115151043Y-59268195D01*
X115250000Y-59029293D01*
X115250000Y-58770707D01*
X115151043Y-58531805D01*
X114968195Y-58348957D01*
X114729293Y-58250000D01*
X114470707Y-58250000D01*
X114352512Y-58298958D01*
X113852514Y-57798960D01*
X113968195Y-57751043D01*
X114151043Y-57568195D01*
X114250000Y-57329293D01*
X114250000Y-57070707D01*
X114151043Y-56831805D01*
X113968195Y-56648957D01*
X113729293Y-56550000D01*
X113470707Y-56550000D01*
X113231805Y-56648957D01*
X113048957Y-56831805D01*
X113001040Y-56947487D01*
X113000000Y-56946447D01*
X113000000Y-55919238D01*
X113131805Y-56051043D01*
X113370707Y-56150000D01*
X113629293Y-56150000D01*
X113868195Y-56051043D01*
X114051043Y-55868195D01*
X114150000Y-55629293D01*
X114150000Y-55370707D01*
X114051043Y-55131805D01*
X114000000Y-55080762D01*
X114000000Y-53072239D01*
X114009795Y-53022997D01*
X113971264Y-52829293D01*
X113970989Y-52827908D01*
X113860480Y-52662518D01*
X113818730Y-52634622D01*
X113700000Y-52515892D01*
X113700000Y-50789626D01*
X113773966Y-50968195D01*
X113956814Y-51151043D01*
X114195716Y-51250000D01*
X114454302Y-51250000D01*
X114693204Y-51151043D01*
X114876052Y-50968195D01*
X114975009Y-50729293D01*
X114975009Y-50470707D01*
X114876052Y-50231805D01*
X114693204Y-50048957D01*
X114454302Y-49950000D01*
X114195716Y-49950000D01*
X113956814Y-50048957D01*
X113773966Y-50231805D01*
X113700000Y-50410374D01*
X113700000Y-48339628D01*
X113773966Y-48518197D01*
X113956814Y-48701045D01*
X114195716Y-48800002D01*
X114454302Y-48800002D01*
X114693204Y-48701045D01*
X114876052Y-48518197D01*
X114975009Y-48279295D01*
X114975009Y-48020709D01*
X114876052Y-47781807D01*
X114693204Y-47598959D01*
X114454302Y-47500002D01*
X114195716Y-47500002D01*
X113956814Y-47598959D01*
X113773966Y-47781807D01*
X113700000Y-47960376D01*
X113700000Y-46447114D01*
X118400000Y-51147113D01*
X118400001Y-54580761D01*
X118348957Y-54631805D01*
X118250000Y-54870707D01*
X118250000Y-55129293D01*
X118348957Y-55368195D01*
X118531805Y-55551043D01*
X118770707Y-55650000D01*
X119029293Y-55650000D01*
X119268195Y-55551043D01*
X119451043Y-55368195D01*
X119550000Y-55129293D01*
X119550000Y-54870707D01*
X119451043Y-54631805D01*
X119400000Y-54580762D01*
X119400000Y-51407101D01*
X120442899Y-52450000D01*
X120270707Y-52450000D01*
X120031805Y-52548957D01*
X119848957Y-52731805D01*
X119750000Y-52970707D01*
X119750000Y-53229293D01*
X119848957Y-53468195D01*
X120031805Y-53651043D01*
X120270707Y-53750000D01*
X120529293Y-53750000D01*
X120768195Y-53651043D01*
X120951043Y-53468195D01*
X121050000Y-53229293D01*
X121050000Y-53057101D01*
X121850001Y-53857102D01*
X121850000Y-54630762D01*
X121798957Y-54681805D01*
X121700000Y-54920707D01*
X121700000Y-55179293D01*
X121798957Y-55418195D01*
X121981805Y-55601043D01*
X122220707Y-55700000D01*
X122479293Y-55700000D01*
X122718195Y-55601043D01*
X122901043Y-55418195D01*
X123000000Y-55179293D01*
X123000000Y-54920707D01*
X122901043Y-54681805D01*
X122850000Y-54630762D01*
X122850000Y-53699237D01*
X122859795Y-53649994D01*
X122820989Y-53454904D01*
X122750895Y-53350000D01*
X122710480Y-53289514D01*
X122668732Y-53261619D01*
X114950006Y-45542894D01*
X114950006Y-45470707D01*
X114851049Y-45231805D01*
X114668201Y-45048957D01*
X114448962Y-44958145D01*
X114457107Y-44950000D01*
X114529293Y-44950000D01*
X114768195Y-44851043D01*
X114951043Y-44668195D01*
X115050000Y-44429293D01*
X115050000Y-44170707D01*
X114951043Y-43931805D01*
X114768195Y-43748957D01*
X114529293Y-43650000D01*
X114270707Y-43650000D01*
X114031805Y-43748957D01*
X113848957Y-43931805D01*
X113750000Y-44170707D01*
X113750000Y-44242893D01*
X113481263Y-44511631D01*
X113439513Y-44539527D01*
X113329004Y-44704918D01*
X113299993Y-44850764D01*
X113290198Y-44900007D01*
X113299993Y-44949249D01*
X113299993Y-45192887D01*
X112350000Y-44242894D01*
X112350000Y-44170707D01*
X112251043Y-43931805D01*
X112068195Y-43748957D01*
X111829293Y-43650000D01*
X111570707Y-43650000D01*
X111331805Y-43748957D01*
X111148957Y-43931805D01*
X111050000Y-44170707D01*
X105832844Y-44170707D01*
X105850000Y-44129291D01*
X105850000Y-43870705D01*
X105751043Y-43631803D01*
X105568195Y-43448955D01*
X105329293Y-43349998D01*
X105070707Y-43349998D01*
X104831805Y-43448955D01*
X104648957Y-43631803D01*
X104550000Y-43870705D01*
X104150000Y-43870705D01*
X104051043Y-43631805D01*
X103868195Y-43448957D01*
X103629293Y-43350000D01*
X103370707Y-43350000D01*
X103131805Y-43448957D01*
X103100000Y-43480762D01*
X103068195Y-43448957D01*
X102829293Y-43350000D01*
X102570707Y-43350000D01*
X102331805Y-43448957D01*
X102148957Y-43631805D01*
X102050000Y-43870707D01*
X101759996Y-43870707D01*
X101974229Y-43350940D01*
X102616883Y-42181956D01*
X102984353Y-41661033D01*
X109800000Y-41661033D01*
X109800000Y-42038967D01*
X109944629Y-42388132D01*
X110211868Y-42655371D01*
X110561033Y-42800000D01*
X110938967Y-42800000D01*
X111288132Y-42655371D01*
X111555371Y-42388132D01*
X111700000Y-42038967D01*
X111700000Y-41661033D01*
X111800000Y-41661033D01*
X111800000Y-42038967D01*
X111944629Y-42388132D01*
X112211868Y-42655371D01*
X112561033Y-42800000D01*
X112938967Y-42800000D01*
X113233285Y-42678089D01*
X114139700Y-42678089D01*
X114186526Y-42887555D01*
X114626473Y-43024208D01*
X115085226Y-42982098D01*
X115313474Y-42887555D01*
X115360300Y-42678089D01*
X114750000Y-42067789D01*
X114139700Y-42678089D01*
X113233285Y-42678089D01*
X113288132Y-42655371D01*
X113555371Y-42388132D01*
X113628660Y-42211198D01*
X113712445Y-42413474D01*
X113921911Y-42460300D01*
X114532211Y-41850000D01*
X114967789Y-41850000D01*
X115578089Y-42460300D01*
X115787555Y-42413474D01*
X115924208Y-41973527D01*
X115882098Y-41514774D01*
X115787555Y-41286526D01*
X115578089Y-41239700D01*
X114967789Y-41850000D01*
X114532211Y-41850000D01*
X113921911Y-41239700D01*
X113712445Y-41286526D01*
X113640635Y-41517714D01*
X113555371Y-41311868D01*
X113288132Y-41044629D01*
X113233286Y-41021911D01*
X114139700Y-41021911D01*
X114750000Y-41632211D01*
X115360300Y-41021911D01*
X115313474Y-40812445D01*
X114873527Y-40675792D01*
X114414774Y-40717902D01*
X114186526Y-40812445D01*
X114139700Y-41021911D01*
X113233286Y-41021911D01*
X112938967Y-40900000D01*
X112561033Y-40900000D01*
X112211868Y-41044629D01*
X111944629Y-41311868D01*
X111800000Y-41661033D01*
X111700000Y-41661033D01*
X111555371Y-41311868D01*
X111288132Y-41044629D01*
X110938967Y-40900000D01*
X110561033Y-40900000D01*
X110211868Y-41044629D01*
X109944629Y-41311868D01*
X109800000Y-41661033D01*
X102984353Y-41661033D01*
X103385841Y-41091888D01*
X104282206Y-40082289D01*
X104315294Y-40050000D01*
X121156006Y-40050000D01*
X121867830Y-40801018D01*
G04 #@! TD*
M02*
