G04 #@! TF.GenerationSoftware,KiCad,Pcbnew,(5.0.0)*
G04 #@! TF.CreationDate,2020-05-01T19:32:20+02:00*
G04 #@! TF.ProjectId,PGPExT_v1-1,5047504578545F76312D312E6B696361,1.1*
G04 #@! TF.SameCoordinates,Original*
G04 #@! TF.FileFunction,Legend,Top*
G04 #@! TF.FilePolarity,Positive*
%FSLAX46Y46*%
G04 Gerber Fmt 4.6, Leading zero omitted, Abs format (unit mm)*
G04 Created by KiCad (PCBNEW (5.0.0)) date 05/01/20 19:32:20*
%MOMM*%
%LPD*%
G01*
G04 APERTURE LIST*
%ADD10C,0.100000*%
%ADD11C,0.150000*%
%ADD12C,0.300000*%
%ADD13C,0.400000*%
%ADD14C,0.800000*%
%ADD15C,0.120000*%
G04 APERTURE END LIST*
D10*
D11*
X177002200Y-166007200D02*
X177002200Y-198007200D01*
X285002200Y-198007200D01*
X285002200Y-166007200D01*
X177002200Y-166007200D01*
D10*
D11*
X10000000Y-10000000D02*
X10000000Y-200007200D01*
X287002200Y-200007200D01*
X287002200Y-10000000D01*
X10000000Y-10000000D01*
D10*
D11*
X12000000Y-12000000D02*
X12000000Y-198007200D01*
X285002200Y-198007200D01*
X285002200Y-12000000D01*
X12000000Y-12000000D01*
D10*
D11*
X60000000Y-12000000D02*
X60000000Y-10000000D01*
D10*
D11*
X110000000Y-12000000D02*
X110000000Y-10000000D01*
D10*
D11*
X160000000Y-12000000D02*
X160000000Y-10000000D01*
D10*
D11*
X210000000Y-12000000D02*
X210000000Y-10000000D01*
D10*
D11*
X260000000Y-12000000D02*
X260000000Y-10000000D01*
D10*
D11*
X36065476Y-11588095D02*
X35322619Y-11588095D01*
X35694047Y-11588095D02*
X35694047Y-10288095D01*
X35570238Y-10473809D01*
X35446428Y-10597619D01*
X35322619Y-10659523D01*
D10*
D11*
X85322619Y-10411904D02*
X85384523Y-10350000D01*
X85508333Y-10288095D01*
X85817857Y-10288095D01*
X85941666Y-10350000D01*
X86003571Y-10411904D01*
X86065476Y-10535714D01*
X86065476Y-10659523D01*
X86003571Y-10845238D01*
X85260714Y-11588095D01*
X86065476Y-11588095D01*
D10*
D11*
X135260714Y-10288095D02*
X136065476Y-10288095D01*
X135632142Y-10783333D01*
X135817857Y-10783333D01*
X135941666Y-10845238D01*
X136003571Y-10907142D01*
X136065476Y-11030952D01*
X136065476Y-11340476D01*
X136003571Y-11464285D01*
X135941666Y-11526190D01*
X135817857Y-11588095D01*
X135446428Y-11588095D01*
X135322619Y-11526190D01*
X135260714Y-11464285D01*
D10*
D11*
X185941666Y-10721428D02*
X185941666Y-11588095D01*
X185632142Y-10226190D02*
X185322619Y-11154761D01*
X186127380Y-11154761D01*
D10*
D11*
X236003571Y-10288095D02*
X235384523Y-10288095D01*
X235322619Y-10907142D01*
X235384523Y-10845238D01*
X235508333Y-10783333D01*
X235817857Y-10783333D01*
X235941666Y-10845238D01*
X236003571Y-10907142D01*
X236065476Y-11030952D01*
X236065476Y-11340476D01*
X236003571Y-11464285D01*
X235941666Y-11526190D01*
X235817857Y-11588095D01*
X235508333Y-11588095D01*
X235384523Y-11526190D01*
X235322619Y-11464285D01*
D10*
D11*
X285941666Y-10288095D02*
X285694047Y-10288095D01*
X285570238Y-10350000D01*
X285508333Y-10411904D01*
X285384523Y-10597619D01*
X285322619Y-10845238D01*
X285322619Y-11340476D01*
X285384523Y-11464285D01*
X285446428Y-11526190D01*
X285570238Y-11588095D01*
X285817857Y-11588095D01*
X285941666Y-11526190D01*
X286003571Y-11464285D01*
X286065476Y-11340476D01*
X286065476Y-11030952D01*
X286003571Y-10907142D01*
X285941666Y-10845238D01*
X285817857Y-10783333D01*
X285570238Y-10783333D01*
X285446428Y-10845238D01*
X285384523Y-10907142D01*
X285322619Y-11030952D01*
D10*
D11*
X60000000Y-198007200D02*
X60000000Y-200007200D01*
D10*
D11*
X110000000Y-198007200D02*
X110000000Y-200007200D01*
D10*
D11*
X160000000Y-198007200D02*
X160000000Y-200007200D01*
D10*
D11*
X210000000Y-198007200D02*
X210000000Y-200007200D01*
D10*
D11*
X260000000Y-198007200D02*
X260000000Y-200007200D01*
D10*
D11*
X36065476Y-199595295D02*
X35322619Y-199595295D01*
X35694047Y-199595295D02*
X35694047Y-198295295D01*
X35570238Y-198481009D01*
X35446428Y-198604819D01*
X35322619Y-198666723D01*
D10*
D11*
X85322619Y-198419104D02*
X85384523Y-198357200D01*
X85508333Y-198295295D01*
X85817857Y-198295295D01*
X85941666Y-198357200D01*
X86003571Y-198419104D01*
X86065476Y-198542914D01*
X86065476Y-198666723D01*
X86003571Y-198852438D01*
X85260714Y-199595295D01*
X86065476Y-199595295D01*
D10*
D11*
X135260714Y-198295295D02*
X136065476Y-198295295D01*
X135632142Y-198790533D01*
X135817857Y-198790533D01*
X135941666Y-198852438D01*
X136003571Y-198914342D01*
X136065476Y-199038152D01*
X136065476Y-199347676D01*
X136003571Y-199471485D01*
X135941666Y-199533390D01*
X135817857Y-199595295D01*
X135446428Y-199595295D01*
X135322619Y-199533390D01*
X135260714Y-199471485D01*
D10*
D11*
X185941666Y-198728628D02*
X185941666Y-199595295D01*
X185632142Y-198233390D02*
X185322619Y-199161961D01*
X186127380Y-199161961D01*
D10*
D11*
X236003571Y-198295295D02*
X235384523Y-198295295D01*
X235322619Y-198914342D01*
X235384523Y-198852438D01*
X235508333Y-198790533D01*
X235817857Y-198790533D01*
X235941666Y-198852438D01*
X236003571Y-198914342D01*
X236065476Y-199038152D01*
X236065476Y-199347676D01*
X236003571Y-199471485D01*
X235941666Y-199533390D01*
X235817857Y-199595295D01*
X235508333Y-199595295D01*
X235384523Y-199533390D01*
X235322619Y-199471485D01*
D10*
D11*
X285941666Y-198295295D02*
X285694047Y-198295295D01*
X285570238Y-198357200D01*
X285508333Y-198419104D01*
X285384523Y-198604819D01*
X285322619Y-198852438D01*
X285322619Y-199347676D01*
X285384523Y-199471485D01*
X285446428Y-199533390D01*
X285570238Y-199595295D01*
X285817857Y-199595295D01*
X285941666Y-199533390D01*
X286003571Y-199471485D01*
X286065476Y-199347676D01*
X286065476Y-199038152D01*
X286003571Y-198914342D01*
X285941666Y-198852438D01*
X285817857Y-198790533D01*
X285570238Y-198790533D01*
X285446428Y-198852438D01*
X285384523Y-198914342D01*
X285322619Y-199038152D01*
D10*
D11*
X10000000Y-60000000D02*
X12000000Y-60000000D01*
D10*
D11*
X10000000Y-110000000D02*
X12000000Y-110000000D01*
D10*
D11*
X10000000Y-160000000D02*
X12000000Y-160000000D01*
D10*
D11*
X10690476Y-35216666D02*
X11309523Y-35216666D01*
X10566666Y-35588095D02*
X11000000Y-34288095D01*
X11433333Y-35588095D01*
D10*
D11*
X11092857Y-84907142D02*
X11278571Y-84969047D01*
X11340476Y-85030952D01*
X11402380Y-85154761D01*
X11402380Y-85340476D01*
X11340476Y-85464285D01*
X11278571Y-85526190D01*
X11154761Y-85588095D01*
X10659523Y-85588095D01*
X10659523Y-84288095D01*
X11092857Y-84288095D01*
X11216666Y-84350000D01*
X11278571Y-84411904D01*
X11340476Y-84535714D01*
X11340476Y-84659523D01*
X11278571Y-84783333D01*
X11216666Y-84845238D01*
X11092857Y-84907142D01*
X10659523Y-84907142D01*
D10*
D11*
X11402380Y-135464285D02*
X11340476Y-135526190D01*
X11154761Y-135588095D01*
X11030952Y-135588095D01*
X10845238Y-135526190D01*
X10721428Y-135402380D01*
X10659523Y-135278571D01*
X10597619Y-135030952D01*
X10597619Y-134845238D01*
X10659523Y-134597619D01*
X10721428Y-134473809D01*
X10845238Y-134350000D01*
X11030952Y-134288095D01*
X11154761Y-134288095D01*
X11340476Y-134350000D01*
X11402380Y-134411904D01*
D10*
D11*
X10659523Y-185588095D02*
X10659523Y-184288095D01*
X10969047Y-184288095D01*
X11154761Y-184350000D01*
X11278571Y-184473809D01*
X11340476Y-184597619D01*
X11402380Y-184845238D01*
X11402380Y-185030952D01*
X11340476Y-185278571D01*
X11278571Y-185402380D01*
X11154761Y-185526190D01*
X10969047Y-185588095D01*
X10659523Y-185588095D01*
D10*
D11*
X287002200Y-60000000D02*
X285002200Y-60000000D01*
D10*
D11*
X287002200Y-110000000D02*
X285002200Y-110000000D01*
D10*
D11*
X287002200Y-160000000D02*
X285002200Y-160000000D01*
D10*
D11*
X285692676Y-35216666D02*
X286311723Y-35216666D01*
X285568866Y-35588095D02*
X286002200Y-34288095D01*
X286435533Y-35588095D01*
D10*
D11*
X286095057Y-84907142D02*
X286280771Y-84969047D01*
X286342676Y-85030952D01*
X286404580Y-85154761D01*
X286404580Y-85340476D01*
X286342676Y-85464285D01*
X286280771Y-85526190D01*
X286156961Y-85588095D01*
X285661723Y-85588095D01*
X285661723Y-84288095D01*
X286095057Y-84288095D01*
X286218866Y-84350000D01*
X286280771Y-84411904D01*
X286342676Y-84535714D01*
X286342676Y-84659523D01*
X286280771Y-84783333D01*
X286218866Y-84845238D01*
X286095057Y-84907142D01*
X285661723Y-84907142D01*
D10*
D11*
X286404580Y-135464285D02*
X286342676Y-135526190D01*
X286156961Y-135588095D01*
X286033152Y-135588095D01*
X285847438Y-135526190D01*
X285723628Y-135402380D01*
X285661723Y-135278571D01*
X285599819Y-135030952D01*
X285599819Y-134845238D01*
X285661723Y-134597619D01*
X285723628Y-134473809D01*
X285847438Y-134350000D01*
X286033152Y-134288095D01*
X286156961Y-134288095D01*
X286342676Y-134350000D01*
X286404580Y-134411904D01*
D10*
D11*
X285661723Y-185588095D02*
X285661723Y-184288095D01*
X285971247Y-184288095D01*
X286156961Y-184350000D01*
X286280771Y-184473809D01*
X286342676Y-184597619D01*
X286404580Y-184845238D01*
X286404580Y-185030952D01*
X286342676Y-185278571D01*
X286280771Y-185402380D01*
X286156961Y-185526190D01*
X285971247Y-185588095D01*
X285661723Y-185588095D01*
D10*
D11*
X200434342Y-193785771D02*
X200434342Y-192285771D01*
X200791485Y-192285771D01*
X201005771Y-192357200D01*
X201148628Y-192500057D01*
X201220057Y-192642914D01*
X201291485Y-192928628D01*
X201291485Y-193142914D01*
X201220057Y-193428628D01*
X201148628Y-193571485D01*
X201005771Y-193714342D01*
X200791485Y-193785771D01*
X200434342Y-193785771D01*
X202577200Y-193785771D02*
X202577200Y-193000057D01*
X202505771Y-192857200D01*
X202362914Y-192785771D01*
X202077200Y-192785771D01*
X201934342Y-192857200D01*
X202577200Y-193714342D02*
X202434342Y-193785771D01*
X202077200Y-193785771D01*
X201934342Y-193714342D01*
X201862914Y-193571485D01*
X201862914Y-193428628D01*
X201934342Y-193285771D01*
X202077200Y-193214342D01*
X202434342Y-193214342D01*
X202577200Y-193142914D01*
X203077200Y-192785771D02*
X203648628Y-192785771D01*
X203291485Y-192285771D02*
X203291485Y-193571485D01*
X203362914Y-193714342D01*
X203505771Y-193785771D01*
X203648628Y-193785771D01*
X204720057Y-193714342D02*
X204577200Y-193785771D01*
X204291485Y-193785771D01*
X204148628Y-193714342D01*
X204077200Y-193571485D01*
X204077200Y-193000057D01*
X204148628Y-192857200D01*
X204291485Y-192785771D01*
X204577200Y-192785771D01*
X204720057Y-192857200D01*
X204791485Y-193000057D01*
X204791485Y-193142914D01*
X204077200Y-193285771D01*
X205434342Y-193642914D02*
X205505771Y-193714342D01*
X205434342Y-193785771D01*
X205362914Y-193714342D01*
X205434342Y-193642914D01*
X205434342Y-193785771D01*
X205434342Y-192857200D02*
X205505771Y-192928628D01*
X205434342Y-193000057D01*
X205362914Y-192928628D01*
X205434342Y-192857200D01*
X205434342Y-193000057D01*
X207220057Y-192428628D02*
X207291485Y-192357200D01*
X207434342Y-192285771D01*
X207791485Y-192285771D01*
X207934342Y-192357200D01*
X208005771Y-192428628D01*
X208077200Y-192571485D01*
X208077200Y-192714342D01*
X208005771Y-192928628D01*
X207148628Y-193785771D01*
X208077200Y-193785771D01*
X209005771Y-192285771D02*
X209148628Y-192285771D01*
X209291485Y-192357200D01*
X209362914Y-192428628D01*
X209434342Y-192571485D01*
X209505771Y-192857200D01*
X209505771Y-193214342D01*
X209434342Y-193500057D01*
X209362914Y-193642914D01*
X209291485Y-193714342D01*
X209148628Y-193785771D01*
X209005771Y-193785771D01*
X208862914Y-193714342D01*
X208791485Y-193642914D01*
X208720057Y-193500057D01*
X208648628Y-193214342D01*
X208648628Y-192857200D01*
X208720057Y-192571485D01*
X208791485Y-192428628D01*
X208862914Y-192357200D01*
X209005771Y-192285771D01*
X210934342Y-193785771D02*
X210077200Y-193785771D01*
X210505771Y-193785771D02*
X210505771Y-192285771D01*
X210362914Y-192500057D01*
X210220057Y-192642914D01*
X210077200Y-192714342D01*
X211648628Y-193785771D02*
X211934342Y-193785771D01*
X212077200Y-193714342D01*
X212148628Y-193642914D01*
X212291485Y-193428628D01*
X212362914Y-193142914D01*
X212362914Y-192571485D01*
X212291485Y-192428628D01*
X212220057Y-192357200D01*
X212077200Y-192285771D01*
X211791485Y-192285771D01*
X211648628Y-192357200D01*
X211577200Y-192428628D01*
X211505771Y-192571485D01*
X211505771Y-192928628D01*
X211577200Y-193071485D01*
X211648628Y-193142914D01*
X211791485Y-193214342D01*
X212077200Y-193214342D01*
X212220057Y-193142914D01*
X212291485Y-193071485D01*
X212362914Y-192928628D01*
X213005771Y-193214342D02*
X214148628Y-193214342D01*
X215148628Y-192285771D02*
X215291485Y-192285771D01*
X215434342Y-192357200D01*
X215505771Y-192428628D01*
X215577200Y-192571485D01*
X215648628Y-192857200D01*
X215648628Y-193214342D01*
X215577200Y-193500057D01*
X215505771Y-193642914D01*
X215434342Y-193714342D01*
X215291485Y-193785771D01*
X215148628Y-193785771D01*
X215005771Y-193714342D01*
X214934342Y-193642914D01*
X214862914Y-193500057D01*
X214791485Y-193214342D01*
X214791485Y-192857200D01*
X214862914Y-192571485D01*
X214934342Y-192428628D01*
X215005771Y-192357200D01*
X215148628Y-192285771D01*
X216362914Y-193785771D02*
X216648628Y-193785771D01*
X216791485Y-193714342D01*
X216862914Y-193642914D01*
X217005771Y-193428628D01*
X217077200Y-193142914D01*
X217077200Y-192571485D01*
X217005771Y-192428628D01*
X216934342Y-192357200D01*
X216791485Y-192285771D01*
X216505771Y-192285771D01*
X216362914Y-192357200D01*
X216291485Y-192428628D01*
X216220057Y-192571485D01*
X216220057Y-192928628D01*
X216291485Y-193071485D01*
X216362914Y-193142914D01*
X216505771Y-193214342D01*
X216791485Y-193214342D01*
X216934342Y-193142914D01*
X217005771Y-193071485D01*
X217077200Y-192928628D01*
X217720057Y-193214342D02*
X218862914Y-193214342D01*
X220362914Y-193785771D02*
X219505771Y-193785771D01*
X219934342Y-193785771D02*
X219934342Y-192285771D01*
X219791485Y-192500057D01*
X219648628Y-192642914D01*
X219505771Y-192714342D01*
X221791485Y-193785771D02*
X220934342Y-193785771D01*
X221362914Y-193785771D02*
X221362914Y-192285771D01*
X221220057Y-192500057D01*
X221077200Y-192642914D01*
X220934342Y-192714342D01*
D10*
D11*
X177002200Y-194507200D02*
X285002200Y-194507200D01*
D10*
D11*
X178434342Y-196585771D02*
X178434342Y-195085771D01*
X179291485Y-196585771D02*
X178648628Y-195728628D01*
X179291485Y-195085771D02*
X178434342Y-195942914D01*
X179934342Y-196585771D02*
X179934342Y-195585771D01*
X179934342Y-195085771D02*
X179862914Y-195157200D01*
X179934342Y-195228628D01*
X180005771Y-195157200D01*
X179934342Y-195085771D01*
X179934342Y-195228628D01*
X181505771Y-196442914D02*
X181434342Y-196514342D01*
X181220057Y-196585771D01*
X181077200Y-196585771D01*
X180862914Y-196514342D01*
X180720057Y-196371485D01*
X180648628Y-196228628D01*
X180577200Y-195942914D01*
X180577200Y-195728628D01*
X180648628Y-195442914D01*
X180720057Y-195300057D01*
X180862914Y-195157200D01*
X181077200Y-195085771D01*
X181220057Y-195085771D01*
X181434342Y-195157200D01*
X181505771Y-195228628D01*
X182791485Y-196585771D02*
X182791485Y-195800057D01*
X182720057Y-195657200D01*
X182577200Y-195585771D01*
X182291485Y-195585771D01*
X182148628Y-195657200D01*
X182791485Y-196514342D02*
X182648628Y-196585771D01*
X182291485Y-196585771D01*
X182148628Y-196514342D01*
X182077200Y-196371485D01*
X182077200Y-196228628D01*
X182148628Y-196085771D01*
X182291485Y-196014342D01*
X182648628Y-196014342D01*
X182791485Y-195942914D01*
X184148628Y-196585771D02*
X184148628Y-195085771D01*
X184148628Y-196514342D02*
X184005771Y-196585771D01*
X183720057Y-196585771D01*
X183577200Y-196514342D01*
X183505771Y-196442914D01*
X183434342Y-196300057D01*
X183434342Y-195871485D01*
X183505771Y-195728628D01*
X183577200Y-195657200D01*
X183720057Y-195585771D01*
X184005771Y-195585771D01*
X184148628Y-195657200D01*
X186005771Y-195800057D02*
X186505771Y-195800057D01*
X186720057Y-196585771D02*
X186005771Y-196585771D01*
X186005771Y-195085771D01*
X186720057Y-195085771D01*
X187362914Y-196442914D02*
X187434342Y-196514342D01*
X187362914Y-196585771D01*
X187291485Y-196514342D01*
X187362914Y-196442914D01*
X187362914Y-196585771D01*
X188077200Y-196585771D02*
X188077200Y-195085771D01*
X188434342Y-195085771D01*
X188648628Y-195157200D01*
X188791485Y-195300057D01*
X188862914Y-195442914D01*
X188934342Y-195728628D01*
X188934342Y-195942914D01*
X188862914Y-196228628D01*
X188791485Y-196371485D01*
X188648628Y-196514342D01*
X188434342Y-196585771D01*
X188077200Y-196585771D01*
X189577200Y-196442914D02*
X189648628Y-196514342D01*
X189577200Y-196585771D01*
X189505771Y-196514342D01*
X189577200Y-196442914D01*
X189577200Y-196585771D01*
X190220057Y-196157200D02*
X190934342Y-196157200D01*
X190077200Y-196585771D02*
X190577200Y-195085771D01*
X191077200Y-196585771D01*
X191577200Y-196442914D02*
X191648628Y-196514342D01*
X191577200Y-196585771D01*
X191505771Y-196514342D01*
X191577200Y-196442914D01*
X191577200Y-196585771D01*
X194577200Y-196585771D02*
X194577200Y-195085771D01*
X194720057Y-196014342D02*
X195148628Y-196585771D01*
X195148628Y-195585771D02*
X194577200Y-196157200D01*
X195791485Y-196585771D02*
X195791485Y-195585771D01*
X195791485Y-195085771D02*
X195720057Y-195157200D01*
X195791485Y-195228628D01*
X195862914Y-195157200D01*
X195791485Y-195085771D01*
X195791485Y-195228628D01*
X197148628Y-196514342D02*
X197005771Y-196585771D01*
X196720057Y-196585771D01*
X196577200Y-196514342D01*
X196505771Y-196442914D01*
X196434342Y-196300057D01*
X196434342Y-195871485D01*
X196505771Y-195728628D01*
X196577200Y-195657200D01*
X196720057Y-195585771D01*
X197005771Y-195585771D01*
X197148628Y-195657200D01*
X198434342Y-196585771D02*
X198434342Y-195800057D01*
X198362914Y-195657200D01*
X198220057Y-195585771D01*
X197934342Y-195585771D01*
X197791485Y-195657200D01*
X198434342Y-196514342D02*
X198291485Y-196585771D01*
X197934342Y-196585771D01*
X197791485Y-196514342D01*
X197720057Y-196371485D01*
X197720057Y-196228628D01*
X197791485Y-196085771D01*
X197934342Y-196014342D01*
X198291485Y-196014342D01*
X198434342Y-195942914D01*
X199791485Y-196585771D02*
X199791485Y-195085771D01*
X199791485Y-196514342D02*
X199648628Y-196585771D01*
X199362914Y-196585771D01*
X199220057Y-196514342D01*
X199148628Y-196442914D01*
X199077200Y-196300057D01*
X199077200Y-195871485D01*
X199148628Y-195728628D01*
X199220057Y-195657200D01*
X199362914Y-195585771D01*
X199648628Y-195585771D01*
X199791485Y-195657200D01*
X202077200Y-197157200D02*
X202005771Y-197085771D01*
X201862914Y-196871485D01*
X201791485Y-196728628D01*
X201720057Y-196514342D01*
X201648628Y-196157200D01*
X201648628Y-195871485D01*
X201720057Y-195514342D01*
X201791485Y-195300057D01*
X201862914Y-195157200D01*
X202005771Y-194942914D01*
X202077200Y-194871485D01*
X203362914Y-195085771D02*
X202648628Y-195085771D01*
X202577200Y-195800057D01*
X202648628Y-195728628D01*
X202791485Y-195657200D01*
X203148628Y-195657200D01*
X203291485Y-195728628D01*
X203362914Y-195800057D01*
X203434342Y-195942914D01*
X203434342Y-196300057D01*
X203362914Y-196442914D01*
X203291485Y-196514342D01*
X203148628Y-196585771D01*
X202791485Y-196585771D01*
X202648628Y-196514342D01*
X202577200Y-196442914D01*
X204077200Y-196442914D02*
X204148628Y-196514342D01*
X204077200Y-196585771D01*
X204005771Y-196514342D01*
X204077200Y-196442914D01*
X204077200Y-196585771D01*
X205077200Y-195085771D02*
X205220057Y-195085771D01*
X205362914Y-195157200D01*
X205434342Y-195228628D01*
X205505771Y-195371485D01*
X205577200Y-195657200D01*
X205577200Y-196014342D01*
X205505771Y-196300057D01*
X205434342Y-196442914D01*
X205362914Y-196514342D01*
X205220057Y-196585771D01*
X205077200Y-196585771D01*
X204934342Y-196514342D01*
X204862914Y-196442914D01*
X204791485Y-196300057D01*
X204720057Y-196014342D01*
X204720057Y-195657200D01*
X204791485Y-195371485D01*
X204862914Y-195228628D01*
X204934342Y-195157200D01*
X205077200Y-195085771D01*
X206220057Y-196442914D02*
X206291485Y-196514342D01*
X206220057Y-196585771D01*
X206148628Y-196514342D01*
X206220057Y-196442914D01*
X206220057Y-196585771D01*
X207220057Y-195085771D02*
X207362914Y-195085771D01*
X207505771Y-195157200D01*
X207577200Y-195228628D01*
X207648628Y-195371485D01*
X207720057Y-195657200D01*
X207720057Y-196014342D01*
X207648628Y-196300057D01*
X207577200Y-196442914D01*
X207505771Y-196514342D01*
X207362914Y-196585771D01*
X207220057Y-196585771D01*
X207077200Y-196514342D01*
X207005771Y-196442914D01*
X206934342Y-196300057D01*
X206862914Y-196014342D01*
X206862914Y-195657200D01*
X206934342Y-195371485D01*
X207005771Y-195228628D01*
X207077200Y-195157200D01*
X207220057Y-195085771D01*
X208220057Y-197157200D02*
X208291485Y-197085771D01*
X208434342Y-196871485D01*
X208505771Y-196728628D01*
X208577200Y-196514342D01*
X208648628Y-196157200D01*
X208648628Y-195871485D01*
X208577200Y-195514342D01*
X208505771Y-195300057D01*
X208434342Y-195157200D01*
X208291485Y-194942914D01*
X208220057Y-194871485D01*
D10*
D11*
X177002200Y-191507200D02*
X285002200Y-191507200D01*
D10*
D12*
X264411485Y-193785771D02*
X263911485Y-193071485D01*
X263554342Y-193785771D02*
X263554342Y-192285771D01*
X264125771Y-192285771D01*
X264268628Y-192357200D01*
X264340057Y-192428628D01*
X264411485Y-192571485D01*
X264411485Y-192785771D01*
X264340057Y-192928628D01*
X264268628Y-193000057D01*
X264125771Y-193071485D01*
X263554342Y-193071485D01*
X265625771Y-193714342D02*
X265482914Y-193785771D01*
X265197200Y-193785771D01*
X265054342Y-193714342D01*
X264982914Y-193571485D01*
X264982914Y-193000057D01*
X265054342Y-192857200D01*
X265197200Y-192785771D01*
X265482914Y-192785771D01*
X265625771Y-192857200D01*
X265697200Y-193000057D01*
X265697200Y-193142914D01*
X264982914Y-193285771D01*
X266197200Y-192785771D02*
X266554342Y-193785771D01*
X266911485Y-192785771D01*
X267482914Y-193642914D02*
X267554342Y-193714342D01*
X267482914Y-193785771D01*
X267411485Y-193714342D01*
X267482914Y-193642914D01*
X267482914Y-193785771D01*
X267482914Y-192857200D02*
X267554342Y-192928628D01*
X267482914Y-193000057D01*
X267411485Y-192928628D01*
X267482914Y-192857200D01*
X267482914Y-193000057D01*
X270125771Y-193785771D02*
X269268628Y-193785771D01*
X269697200Y-193785771D02*
X269697200Y-192285771D01*
X269554342Y-192500057D01*
X269411485Y-192642914D01*
X269268628Y-192714342D01*
X270768628Y-193642914D02*
X270840057Y-193714342D01*
X270768628Y-193785771D01*
X270697200Y-193714342D01*
X270768628Y-193642914D01*
X270768628Y-193785771D01*
X272268628Y-193785771D02*
X271411485Y-193785771D01*
X271840057Y-193785771D02*
X271840057Y-192285771D01*
X271697200Y-192500057D01*
X271554342Y-192642914D01*
X271411485Y-192714342D01*
D10*
D11*
X178362914Y-193714342D02*
X178577200Y-193785771D01*
X178934342Y-193785771D01*
X179077200Y-193714342D01*
X179148628Y-193642914D01*
X179220057Y-193500057D01*
X179220057Y-193357200D01*
X179148628Y-193214342D01*
X179077200Y-193142914D01*
X178934342Y-193071485D01*
X178648628Y-193000057D01*
X178505771Y-192928628D01*
X178434342Y-192857200D01*
X178362914Y-192714342D01*
X178362914Y-192571485D01*
X178434342Y-192428628D01*
X178505771Y-192357200D01*
X178648628Y-192285771D01*
X179005771Y-192285771D01*
X179220057Y-192357200D01*
X179862914Y-193785771D02*
X179862914Y-192785771D01*
X179862914Y-192285771D02*
X179791485Y-192357200D01*
X179862914Y-192428628D01*
X179934342Y-192357200D01*
X179862914Y-192285771D01*
X179862914Y-192428628D01*
X180434342Y-192785771D02*
X181220057Y-192785771D01*
X180434342Y-193785771D01*
X181220057Y-193785771D01*
X182362914Y-193714342D02*
X182220057Y-193785771D01*
X181934342Y-193785771D01*
X181791485Y-193714342D01*
X181720057Y-193571485D01*
X181720057Y-193000057D01*
X181791485Y-192857200D01*
X181934342Y-192785771D01*
X182220057Y-192785771D01*
X182362914Y-192857200D01*
X182434342Y-193000057D01*
X182434342Y-193142914D01*
X181720057Y-193285771D01*
X183077200Y-193642914D02*
X183148628Y-193714342D01*
X183077200Y-193785771D01*
X183005771Y-193714342D01*
X183077200Y-193642914D01*
X183077200Y-193785771D01*
X183077200Y-192857200D02*
X183148628Y-192928628D01*
X183077200Y-193000057D01*
X183005771Y-192928628D01*
X183077200Y-192857200D01*
X183077200Y-193000057D01*
X184862914Y-193357200D02*
X185577200Y-193357200D01*
X184720057Y-193785771D02*
X185220057Y-192285771D01*
X185720057Y-193785771D01*
X186862914Y-192785771D02*
X186862914Y-193785771D01*
X186505771Y-192214342D02*
X186148628Y-193285771D01*
X187077200Y-193285771D01*
D10*
D11*
X263434342Y-196585771D02*
X263434342Y-195085771D01*
X264791485Y-196585771D02*
X264791485Y-195085771D01*
X264791485Y-196514342D02*
X264648628Y-196585771D01*
X264362914Y-196585771D01*
X264220057Y-196514342D01*
X264148628Y-196442914D01*
X264077200Y-196300057D01*
X264077200Y-195871485D01*
X264148628Y-195728628D01*
X264220057Y-195657200D01*
X264362914Y-195585771D01*
X264648628Y-195585771D01*
X264791485Y-195657200D01*
X265505771Y-196442914D02*
X265577200Y-196514342D01*
X265505771Y-196585771D01*
X265434342Y-196514342D01*
X265505771Y-196442914D01*
X265505771Y-196585771D01*
X265505771Y-195657200D02*
X265577200Y-195728628D01*
X265505771Y-195800057D01*
X265434342Y-195728628D01*
X265505771Y-195657200D01*
X265505771Y-195800057D01*
X268148628Y-196585771D02*
X267291485Y-196585771D01*
X267720057Y-196585771D02*
X267720057Y-195085771D01*
X267577200Y-195300057D01*
X267434342Y-195442914D01*
X267291485Y-195514342D01*
X269862914Y-195014342D02*
X268577200Y-196942914D01*
X271148628Y-196585771D02*
X270291485Y-196585771D01*
X270720057Y-196585771D02*
X270720057Y-195085771D01*
X270577200Y-195300057D01*
X270434342Y-195442914D01*
X270291485Y-195514342D01*
D10*
D11*
X177002200Y-187507200D02*
X285002200Y-187507200D01*
D10*
D13*
X178714580Y-188211961D02*
X179857438Y-188211961D01*
X179036009Y-190211961D02*
X179286009Y-188211961D01*
X180274104Y-190211961D02*
X180440771Y-188878628D01*
X180524104Y-188211961D02*
X180416961Y-188307200D01*
X180500295Y-188402438D01*
X180607438Y-188307200D01*
X180524104Y-188211961D01*
X180500295Y-188402438D01*
X181107438Y-188878628D02*
X181869342Y-188878628D01*
X181476485Y-188211961D02*
X181262200Y-189926247D01*
X181333628Y-190116723D01*
X181512200Y-190211961D01*
X181702676Y-190211961D01*
X182655057Y-190211961D02*
X182476485Y-190116723D01*
X182405057Y-189926247D01*
X182619342Y-188211961D01*
X184190771Y-190116723D02*
X183988390Y-190211961D01*
X183607438Y-190211961D01*
X183428866Y-190116723D01*
X183357438Y-189926247D01*
X183452676Y-189164342D01*
X183571723Y-188973866D01*
X183774104Y-188878628D01*
X184155057Y-188878628D01*
X184333628Y-188973866D01*
X184405057Y-189164342D01*
X184381247Y-189354819D01*
X183405057Y-189545295D01*
X185155057Y-190021485D02*
X185238390Y-190116723D01*
X185131247Y-190211961D01*
X185047914Y-190116723D01*
X185155057Y-190021485D01*
X185131247Y-190211961D01*
X185286009Y-188973866D02*
X185369342Y-189069104D01*
X185262200Y-189164342D01*
X185178866Y-189069104D01*
X185286009Y-188973866D01*
X185262200Y-189164342D01*
X187607438Y-190211961D02*
X187857438Y-188211961D01*
X188619342Y-188211961D01*
X188797914Y-188307200D01*
X188881247Y-188402438D01*
X188952676Y-188592914D01*
X188916961Y-188878628D01*
X188797914Y-189069104D01*
X188690771Y-189164342D01*
X188488390Y-189259580D01*
X187726485Y-189259580D01*
X189893152Y-190211961D02*
X189714580Y-190116723D01*
X189631247Y-190021485D01*
X189559819Y-189831009D01*
X189631247Y-189259580D01*
X189750295Y-189069104D01*
X189857438Y-188973866D01*
X190059819Y-188878628D01*
X190345533Y-188878628D01*
X190524104Y-188973866D01*
X190607438Y-189069104D01*
X190678866Y-189259580D01*
X190607438Y-189831009D01*
X190488390Y-190021485D01*
X190381247Y-190116723D01*
X190178866Y-190211961D01*
X189893152Y-190211961D01*
X192702676Y-188307200D02*
X192524104Y-188211961D01*
X192238390Y-188211961D01*
X191940771Y-188307200D01*
X191726485Y-188497676D01*
X191607438Y-188688152D01*
X191464580Y-189069104D01*
X191428866Y-189354819D01*
X191476485Y-189735771D01*
X191547914Y-189926247D01*
X191714580Y-190116723D01*
X191988390Y-190211961D01*
X192178866Y-190211961D01*
X192476485Y-190116723D01*
X192583628Y-190021485D01*
X192666961Y-189354819D01*
X192286009Y-189354819D01*
X193702676Y-190211961D02*
X193524104Y-190116723D01*
X193440771Y-190021485D01*
X193369342Y-189831009D01*
X193440771Y-189259580D01*
X193559819Y-189069104D01*
X193666961Y-188973866D01*
X193869342Y-188878628D01*
X194155057Y-188878628D01*
X194333628Y-188973866D01*
X194416961Y-189069104D01*
X194488390Y-189259580D01*
X194416961Y-189831009D01*
X194297914Y-190021485D01*
X194190771Y-190116723D01*
X193988390Y-190211961D01*
X193702676Y-190211961D01*
X195321723Y-189450057D02*
X196845533Y-189450057D01*
X195988390Y-190211961D02*
X196178866Y-188688152D01*
X197833628Y-189164342D02*
X198500295Y-189164342D01*
X198655057Y-190211961D02*
X197702676Y-190211961D01*
X197952676Y-188211961D01*
X198905057Y-188211961D01*
X199321723Y-190211961D02*
X200536009Y-188878628D01*
X199488390Y-188878628D02*
X200369342Y-190211961D01*
X201012200Y-188878628D02*
X201774104Y-188878628D01*
X201381247Y-188211961D02*
X201166961Y-189926247D01*
X201238390Y-190116723D01*
X201416961Y-190211961D01*
X201607438Y-190211961D01*
X203047914Y-190116723D02*
X202845533Y-190211961D01*
X202464580Y-190211961D01*
X202286009Y-190116723D01*
X202214580Y-189926247D01*
X202309819Y-189164342D01*
X202428866Y-188973866D01*
X202631247Y-188878628D01*
X203012200Y-188878628D01*
X203190771Y-188973866D01*
X203262200Y-189164342D01*
X203238390Y-189354819D01*
X202262200Y-189545295D01*
X204155057Y-188878628D02*
X203988390Y-190211961D01*
X204131247Y-189069104D02*
X204238390Y-188973866D01*
X204440771Y-188878628D01*
X204726485Y-188878628D01*
X204905057Y-188973866D01*
X204976485Y-189164342D01*
X204845533Y-190211961D01*
X206655057Y-190211961D02*
X206905057Y-188211961D01*
X206666961Y-190116723D02*
X206464580Y-190211961D01*
X206083628Y-190211961D01*
X205905057Y-190116723D01*
X205821723Y-190021485D01*
X205750295Y-189831009D01*
X205821723Y-189259580D01*
X205940771Y-189069104D01*
X206047914Y-188973866D01*
X206250295Y-188878628D01*
X206631247Y-188878628D01*
X206809819Y-188973866D01*
X208381247Y-190116723D02*
X208178866Y-190211961D01*
X207797914Y-190211961D01*
X207619342Y-190116723D01*
X207547914Y-189926247D01*
X207643152Y-189164342D01*
X207762200Y-188973866D01*
X207964580Y-188878628D01*
X208345533Y-188878628D01*
X208524104Y-188973866D01*
X208595533Y-189164342D01*
X208571723Y-189354819D01*
X207595533Y-189545295D01*
X209321723Y-190211961D02*
X209488390Y-188878628D01*
X209440771Y-189259580D02*
X209559819Y-189069104D01*
X209666961Y-188973866D01*
X209869342Y-188878628D01*
X210059819Y-188878628D01*
D10*
D11*
X178934342Y-185600057D02*
X178434342Y-185600057D01*
X178434342Y-186385771D02*
X178434342Y-184885771D01*
X179148628Y-184885771D01*
X179720057Y-186385771D02*
X179720057Y-185385771D01*
X179720057Y-184885771D02*
X179648628Y-184957200D01*
X179720057Y-185028628D01*
X179791485Y-184957200D01*
X179720057Y-184885771D01*
X179720057Y-185028628D01*
X180648628Y-186385771D02*
X180505771Y-186314342D01*
X180434342Y-186171485D01*
X180434342Y-184885771D01*
X181791485Y-186314342D02*
X181648628Y-186385771D01*
X181362914Y-186385771D01*
X181220057Y-186314342D01*
X181148628Y-186171485D01*
X181148628Y-185600057D01*
X181220057Y-185457200D01*
X181362914Y-185385771D01*
X181648628Y-185385771D01*
X181791485Y-185457200D01*
X181862914Y-185600057D01*
X181862914Y-185742914D01*
X181148628Y-185885771D01*
X182505771Y-186242914D02*
X182577200Y-186314342D01*
X182505771Y-186385771D01*
X182434342Y-186314342D01*
X182505771Y-186242914D01*
X182505771Y-186385771D01*
X182505771Y-185457200D02*
X182577200Y-185528628D01*
X182505771Y-185600057D01*
X182434342Y-185528628D01*
X182505771Y-185457200D01*
X182505771Y-185600057D01*
X184362914Y-186385771D02*
X184362914Y-184885771D01*
X184934342Y-184885771D01*
X185077200Y-184957200D01*
X185148628Y-185028628D01*
X185220057Y-185171485D01*
X185220057Y-185385771D01*
X185148628Y-185528628D01*
X185077200Y-185600057D01*
X184934342Y-185671485D01*
X184362914Y-185671485D01*
X186648628Y-184957200D02*
X186505771Y-184885771D01*
X186291485Y-184885771D01*
X186077200Y-184957200D01*
X185934342Y-185100057D01*
X185862914Y-185242914D01*
X185791485Y-185528628D01*
X185791485Y-185742914D01*
X185862914Y-186028628D01*
X185934342Y-186171485D01*
X186077200Y-186314342D01*
X186291485Y-186385771D01*
X186434342Y-186385771D01*
X186648628Y-186314342D01*
X186720057Y-186242914D01*
X186720057Y-185742914D01*
X186434342Y-185742914D01*
X187362914Y-186385771D02*
X187362914Y-184885771D01*
X187934342Y-184885771D01*
X188077200Y-184957200D01*
X188148628Y-185028628D01*
X188220057Y-185171485D01*
X188220057Y-185385771D01*
X188148628Y-185528628D01*
X188077200Y-185600057D01*
X187934342Y-185671485D01*
X187362914Y-185671485D01*
X188862914Y-185600057D02*
X189362914Y-185600057D01*
X189577200Y-186385771D02*
X188862914Y-186385771D01*
X188862914Y-184885771D01*
X189577200Y-184885771D01*
X190077200Y-186385771D02*
X190862914Y-185385771D01*
X190077200Y-185385771D02*
X190862914Y-186385771D01*
X191220057Y-184885771D02*
X192077200Y-184885771D01*
X191648628Y-186385771D02*
X191648628Y-184885771D01*
X192220057Y-186528628D02*
X193362914Y-186528628D01*
X193577200Y-185385771D02*
X193934342Y-186385771D01*
X194291485Y-185385771D01*
X195648628Y-186385771D02*
X194791485Y-186385771D01*
X195220057Y-186385771D02*
X195220057Y-184885771D01*
X195077200Y-185100057D01*
X194934342Y-185242914D01*
X194791485Y-185314342D01*
X196291485Y-185814342D02*
X197434342Y-185814342D01*
X198934342Y-186385771D02*
X198077200Y-186385771D01*
X198505771Y-186385771D02*
X198505771Y-184885771D01*
X198362914Y-185100057D01*
X198220057Y-185242914D01*
X198077200Y-185314342D01*
X199577200Y-186242914D02*
X199648628Y-186314342D01*
X199577200Y-186385771D01*
X199505771Y-186314342D01*
X199577200Y-186242914D01*
X199577200Y-186385771D01*
X200291485Y-186385771D02*
X200291485Y-184885771D01*
X200434342Y-185814342D02*
X200862914Y-186385771D01*
X200862914Y-185385771D02*
X200291485Y-185957200D01*
X201505771Y-186385771D02*
X201505771Y-185385771D01*
X201505771Y-184885771D02*
X201434342Y-184957200D01*
X201505771Y-185028628D01*
X201577200Y-184957200D01*
X201505771Y-184885771D01*
X201505771Y-185028628D01*
X202862914Y-186314342D02*
X202720057Y-186385771D01*
X202434342Y-186385771D01*
X202291485Y-186314342D01*
X202220057Y-186242914D01*
X202148628Y-186100057D01*
X202148628Y-185671485D01*
X202220057Y-185528628D01*
X202291485Y-185457200D01*
X202434342Y-185385771D01*
X202720057Y-185385771D01*
X202862914Y-185457200D01*
X204148628Y-186385771D02*
X204148628Y-185600057D01*
X204077200Y-185457200D01*
X203934342Y-185385771D01*
X203648628Y-185385771D01*
X203505771Y-185457200D01*
X204148628Y-186314342D02*
X204005771Y-186385771D01*
X203648628Y-186385771D01*
X203505771Y-186314342D01*
X203434342Y-186171485D01*
X203434342Y-186028628D01*
X203505771Y-185885771D01*
X203648628Y-185814342D01*
X204005771Y-185814342D01*
X204148628Y-185742914D01*
X205505771Y-186385771D02*
X205505771Y-184885771D01*
X205505771Y-186314342D02*
X205362914Y-186385771D01*
X205077200Y-186385771D01*
X204934342Y-186314342D01*
X204862914Y-186242914D01*
X204791485Y-186100057D01*
X204791485Y-185671485D01*
X204862914Y-185528628D01*
X204934342Y-185457200D01*
X205077200Y-185385771D01*
X205362914Y-185385771D01*
X205505771Y-185457200D01*
X205862914Y-186528628D02*
X207005771Y-186528628D01*
X207362914Y-185385771D02*
X207362914Y-186885771D01*
X207362914Y-185457200D02*
X207505771Y-185385771D01*
X207791485Y-185385771D01*
X207934342Y-185457200D01*
X208005771Y-185528628D01*
X208077200Y-185671485D01*
X208077200Y-186100057D01*
X208005771Y-186242914D01*
X207934342Y-186314342D01*
X207791485Y-186385771D01*
X207505771Y-186385771D01*
X207362914Y-186314342D01*
X209362914Y-186314342D02*
X209220057Y-186385771D01*
X208934342Y-186385771D01*
X208791485Y-186314342D01*
X208720057Y-186242914D01*
X208648628Y-186100057D01*
X208648628Y-185671485D01*
X208720057Y-185528628D01*
X208791485Y-185457200D01*
X208934342Y-185385771D01*
X209220057Y-185385771D01*
X209362914Y-185457200D01*
X210005771Y-186385771D02*
X210005771Y-184885771D01*
X210005771Y-185457200D02*
X210148628Y-185385771D01*
X210434342Y-185385771D01*
X210577200Y-185457200D01*
X210648628Y-185528628D01*
X210720057Y-185671485D01*
X210720057Y-186100057D01*
X210648628Y-186242914D01*
X210577200Y-186314342D01*
X210434342Y-186385771D01*
X210148628Y-186385771D01*
X210005771Y-186314342D01*
D10*
D11*
X177002200Y-181507200D02*
X285002200Y-181507200D01*
D10*
D11*
X178362914Y-183614342D02*
X178577200Y-183685771D01*
X178934342Y-183685771D01*
X179077200Y-183614342D01*
X179148628Y-183542914D01*
X179220057Y-183400057D01*
X179220057Y-183257200D01*
X179148628Y-183114342D01*
X179077200Y-183042914D01*
X178934342Y-182971485D01*
X178648628Y-182900057D01*
X178505771Y-182828628D01*
X178434342Y-182757200D01*
X178362914Y-182614342D01*
X178362914Y-182471485D01*
X178434342Y-182328628D01*
X178505771Y-182257200D01*
X178648628Y-182185771D01*
X179005771Y-182185771D01*
X179220057Y-182257200D01*
X179862914Y-183685771D02*
X179862914Y-182185771D01*
X180505771Y-183685771D02*
X180505771Y-182900057D01*
X180434342Y-182757200D01*
X180291485Y-182685771D01*
X180077200Y-182685771D01*
X179934342Y-182757200D01*
X179862914Y-182828628D01*
X181791485Y-183614342D02*
X181648628Y-183685771D01*
X181362914Y-183685771D01*
X181220057Y-183614342D01*
X181148628Y-183471485D01*
X181148628Y-182900057D01*
X181220057Y-182757200D01*
X181362914Y-182685771D01*
X181648628Y-182685771D01*
X181791485Y-182757200D01*
X181862914Y-182900057D01*
X181862914Y-183042914D01*
X181148628Y-183185771D01*
X183077200Y-183614342D02*
X182934342Y-183685771D01*
X182648628Y-183685771D01*
X182505771Y-183614342D01*
X182434342Y-183471485D01*
X182434342Y-182900057D01*
X182505771Y-182757200D01*
X182648628Y-182685771D01*
X182934342Y-182685771D01*
X183077200Y-182757200D01*
X183148628Y-182900057D01*
X183148628Y-183042914D01*
X182434342Y-183185771D01*
X183577200Y-182685771D02*
X184148628Y-182685771D01*
X183791485Y-182185771D02*
X183791485Y-183471485D01*
X183862914Y-183614342D01*
X184005771Y-183685771D01*
X184148628Y-183685771D01*
X184648628Y-183542914D02*
X184720057Y-183614342D01*
X184648628Y-183685771D01*
X184577200Y-183614342D01*
X184648628Y-183542914D01*
X184648628Y-183685771D01*
X184648628Y-182757200D02*
X184720057Y-182828628D01*
X184648628Y-182900057D01*
X184577200Y-182828628D01*
X184648628Y-182757200D01*
X184648628Y-182900057D01*
D10*
D12*
X178411485Y-179185771D02*
X178768628Y-180685771D01*
X179054342Y-179614342D01*
X179340057Y-180685771D01*
X179697200Y-179185771D01*
X180268628Y-180685771D02*
X180268628Y-179185771D01*
X180911485Y-180685771D02*
X180911485Y-179900057D01*
X180840057Y-179757200D01*
X180697200Y-179685771D01*
X180482914Y-179685771D01*
X180340057Y-179757200D01*
X180268628Y-179828628D01*
X181840057Y-180685771D02*
X181697200Y-180614342D01*
X181625771Y-180542914D01*
X181554342Y-180400057D01*
X181554342Y-179971485D01*
X181625771Y-179828628D01*
X181697200Y-179757200D01*
X181840057Y-179685771D01*
X182054342Y-179685771D01*
X182197200Y-179757200D01*
X182268628Y-179828628D01*
X182340057Y-179971485D01*
X182340057Y-180400057D01*
X182268628Y-180542914D01*
X182197200Y-180614342D01*
X182054342Y-180685771D01*
X181840057Y-180685771D01*
X182768628Y-179185771D02*
X183625771Y-179185771D01*
X183197200Y-180685771D02*
X183197200Y-179185771D01*
X184125771Y-180685771D02*
X184125771Y-179185771D01*
X184768628Y-180685771D02*
X184768628Y-179900057D01*
X184697200Y-179757200D01*
X184554342Y-179685771D01*
X184340057Y-179685771D01*
X184197200Y-179757200D01*
X184125771Y-179828628D01*
X186054342Y-180614342D02*
X185911485Y-180685771D01*
X185625771Y-180685771D01*
X185482914Y-180614342D01*
X185411485Y-180471485D01*
X185411485Y-179900057D01*
X185482914Y-179757200D01*
X185625771Y-179685771D01*
X185911485Y-179685771D01*
X186054342Y-179757200D01*
X186125771Y-179900057D01*
X186125771Y-180042914D01*
X185411485Y-180185771D01*
X186768628Y-180685771D02*
X186768628Y-179185771D01*
X186768628Y-179900057D02*
X187625771Y-179900057D01*
X187625771Y-180685771D02*
X187625771Y-179185771D01*
X188911485Y-180614342D02*
X188768628Y-180685771D01*
X188482914Y-180685771D01*
X188340057Y-180614342D01*
X188268628Y-180471485D01*
X188268628Y-179900057D01*
X188340057Y-179757200D01*
X188482914Y-179685771D01*
X188768628Y-179685771D01*
X188911485Y-179757200D01*
X188982914Y-179900057D01*
X188982914Y-180042914D01*
X188268628Y-180185771D01*
X190268628Y-180614342D02*
X190125771Y-180685771D01*
X189840057Y-180685771D01*
X189697200Y-180614342D01*
X189625771Y-180542914D01*
X189554342Y-180400057D01*
X189554342Y-179971485D01*
X189625771Y-179828628D01*
X189697200Y-179757200D01*
X189840057Y-179685771D01*
X190125771Y-179685771D01*
X190268628Y-179757200D01*
X190911485Y-180685771D02*
X190911485Y-179185771D01*
X191054342Y-180114342D02*
X191482914Y-180685771D01*
X191482914Y-179685771D02*
X190911485Y-180257200D01*
D10*
D11*
X197002200Y-191507200D02*
X197002200Y-194507200D01*
D10*
D11*
X261002200Y-191507200D02*
X261002200Y-198007200D01*
D14*
X122000000Y-64400000D02*
X122000000Y-61900000D01*
X103500000Y-64400000D02*
X103500000Y-61900000D01*
X122000000Y-64400000D02*
X125500000Y-64400000D01*
X103500000Y-61900000D02*
X122000000Y-61900000D01*
X103989634Y-39250000D02*
X121500000Y-39250000D01*
X125500269Y-48509479D02*
G75*
G03X121500000Y-39250000I-12750269J-14521D01*
G01*
X103989634Y-39250000D02*
G75*
G03X100000000Y-48513827I8760366J-9263827D01*
G01*
X125500000Y-64400000D02*
X125500000Y-48513827D01*
X100000000Y-64400000D02*
X100000000Y-48513827D01*
X100000000Y-64400000D02*
X103500000Y-64400000D01*
D15*
G04 #@! TO.C,D2*
X120180000Y-48807827D02*
X120180000Y-50207827D01*
X122580000Y-50707827D02*
X122580000Y-48807827D01*
D11*
G04 #@! TO.C,SW1*
X107000000Y-39620000D02*
X107000000Y-44080000D01*
X107000000Y-44080000D02*
X118500000Y-44080000D01*
X118500000Y-44080000D02*
X118500000Y-39620000D01*
X118500000Y-39620000D02*
X107000000Y-39620000D01*
D15*
G04 #@! TO.C,D3*
X122990000Y-61050000D02*
X122990000Y-63735000D01*
X122990000Y-63735000D02*
X124910000Y-63735000D01*
X124910000Y-63735000D02*
X124910000Y-61050000D01*
G04 #@! TO.C,R10*
X124010000Y-56562779D02*
X124010000Y-56237221D01*
X122990000Y-56562779D02*
X122990000Y-56237221D01*
G04 #@! TO.C,W1*
X107950000Y-60400000D02*
G75*
G03X107950000Y-60400000I-950000J0D01*
G01*
G04 #@! TO.C,W2*
X119450000Y-60400000D02*
G75*
G03X119450000Y-60400000I-950000J0D01*
G01*
G04 #@! TO.C,W5*
X103150000Y-58100000D02*
G75*
G03X103150000Y-58100000I-950000J0D01*
G01*
G04 #@! TO.C,W6*
X105050000Y-55900000D02*
G75*
G03X105050000Y-55900000I-950000J0D01*
G01*
G04 #@! TO.C,W7*
X106650000Y-53500000D02*
G75*
G03X106650000Y-53500000I-950000J0D01*
G01*
G04 #@! TO.C,W8*
X112050000Y-53500000D02*
G75*
G03X112050000Y-53500000I-950000J0D01*
G01*
G04 #@! TO.C,W9*
X109350000Y-53500000D02*
G75*
G03X109350000Y-53500000I-950000J0D01*
G01*
G04 #@! TO.C,W10*
X121950000Y-56900000D02*
G75*
G03X121950000Y-56900000I-950000J0D01*
G01*
G04 #@! TO.C,W16*
X119450000Y-56400000D02*
G75*
G03X119450000Y-56400000I-950000J0D01*
G01*
G04 #@! TO.C,W18*
X122850000Y-59400000D02*
G75*
G03X122850000Y-59400000I-950000J0D01*
G01*
G04 #@! TO.C,D5*
X100590000Y-61050000D02*
X100590000Y-63735000D01*
X100590000Y-63735000D02*
X102510000Y-63735000D01*
X102510000Y-63735000D02*
X102510000Y-61050000D01*
G04 #@! TO.C,R14*
X101490000Y-54062779D02*
X101490000Y-53737222D01*
X102510000Y-54062778D02*
X102510000Y-53737221D01*
G04 #@! TO.C,C3*
X115760000Y-49160000D02*
X115760000Y-47960000D01*
X115760000Y-44640000D02*
X115760000Y-45840000D01*
X112304437Y-44640000D02*
X115760000Y-44640000D01*
X112304437Y-49160000D02*
X115760000Y-49160000D01*
X111240000Y-48095563D02*
X111240000Y-47960000D01*
X111240000Y-45704437D02*
X111240000Y-45840000D01*
X111240000Y-45704437D02*
X112304437Y-44640000D01*
X111240000Y-48095563D02*
X112304437Y-49160000D01*
X110500000Y-45340000D02*
X111000000Y-45340000D01*
X110750000Y-45090000D02*
X110750000Y-45590000D01*
G04 #@! TO.C,C4*
X120058000Y-52805249D02*
X120058000Y-53322405D01*
X118638000Y-52805249D02*
X118638000Y-53322405D01*
G04 #@! TO.C,C6*
X124122000Y-46210405D02*
X124122000Y-45693249D01*
X122702000Y-46210405D02*
X122702000Y-45693249D01*
G04 #@! TO.C,D1*
X114040000Y-53020000D02*
X114040000Y-53950000D01*
X114040000Y-56180000D02*
X114040000Y-55250000D01*
X114040000Y-56180000D02*
X116200000Y-56180000D01*
X114040000Y-53020000D02*
X115500000Y-53020000D01*
G04 #@! TO.C,R1*
X116010000Y-59062779D02*
X116010000Y-58737221D01*
X114990000Y-59062779D02*
X114990000Y-58737221D01*
G04 #@! TO.C,R4*
X123410000Y-49670606D02*
X123410000Y-49345048D01*
X124430000Y-49670606D02*
X124430000Y-49345048D01*
G04 #@! TO.C,R5*
X121910000Y-52877221D02*
X121910000Y-53202779D01*
X120890000Y-52877221D02*
X120890000Y-53202779D01*
G04 #@! TO.C,R6*
X123922000Y-53226606D02*
X123922000Y-52901048D01*
X122902000Y-53226606D02*
X122902000Y-52901048D01*
G04 #@! TO.C,R7*
X119350000Y-49345048D02*
X119350000Y-49670606D01*
X118330000Y-49345048D02*
X118330000Y-49670606D01*
G04 #@! TO.C,R8*
X121890000Y-46114606D02*
X121890000Y-45789048D01*
X120870000Y-46114606D02*
X120870000Y-45789048D01*
G04 #@! TO.C,R9*
X119858000Y-45789048D02*
X119858000Y-46114606D01*
X118838000Y-45789048D02*
X118838000Y-46114606D01*
G04 #@! TO.C,U1*
X111600000Y-60510000D02*
X113400000Y-60510000D01*
X113400000Y-57290000D02*
X110950000Y-57290000D01*
G04 #@! TO.C,U2*
X103800000Y-44740000D02*
X101350000Y-44740000D01*
X102000000Y-47960000D02*
X103800000Y-47960000D01*
G04 #@! TO.C,U3*
X106200000Y-47960000D02*
X108650000Y-47960000D01*
X108000000Y-44740000D02*
X106200000Y-44740000D01*
G04 #@! TO.C,U4*
X103800000Y-48740000D02*
X102000000Y-48740000D01*
X102000000Y-51960000D02*
X104450000Y-51960000D01*
G04 #@! TO.C,U6*
X106200000Y-51960000D02*
X108000000Y-51960000D01*
X108000000Y-48740000D02*
X105550000Y-48740000D01*
G04 #@! TD*
G04 #@! TO.C,D2*
D11*
X116752380Y-51438095D02*
X115752380Y-51438095D01*
X115752380Y-51200000D01*
X115800000Y-51057142D01*
X115895238Y-50961904D01*
X115990476Y-50914285D01*
X116180952Y-50866666D01*
X116323809Y-50866666D01*
X116514285Y-50914285D01*
X116609523Y-50961904D01*
X116704761Y-51057142D01*
X116752380Y-51200000D01*
X116752380Y-51438095D01*
X115847619Y-50485714D02*
X115800000Y-50438095D01*
X115752380Y-50342857D01*
X115752380Y-50104761D01*
X115800000Y-50009523D01*
X115847619Y-49961904D01*
X115942857Y-49914285D01*
X116038095Y-49914285D01*
X116180952Y-49961904D01*
X116752380Y-50533333D01*
X116752380Y-49914285D01*
G04 #@! TO.C,SW1*
X104066666Y-40804761D02*
X104209523Y-40852380D01*
X104447619Y-40852380D01*
X104542857Y-40804761D01*
X104590476Y-40757142D01*
X104638095Y-40661904D01*
X104638095Y-40566666D01*
X104590476Y-40471428D01*
X104542857Y-40423809D01*
X104447619Y-40376190D01*
X104257142Y-40328571D01*
X104161904Y-40280952D01*
X104114285Y-40233333D01*
X104066666Y-40138095D01*
X104066666Y-40042857D01*
X104114285Y-39947619D01*
X104161904Y-39900000D01*
X104257142Y-39852380D01*
X104495238Y-39852380D01*
X104638095Y-39900000D01*
X104971428Y-39852380D02*
X105209523Y-40852380D01*
X105400000Y-40138095D01*
X105590476Y-40852380D01*
X105828571Y-39852380D01*
X106733333Y-40852380D02*
X106161904Y-40852380D01*
X106447619Y-40852380D02*
X106447619Y-39852380D01*
X106352380Y-39995238D01*
X106257142Y-40090476D01*
X106161904Y-40138095D01*
G04 #@! TO.C,D3*
X123361904Y-60252380D02*
X123361904Y-59252380D01*
X123600000Y-59252380D01*
X123742857Y-59300000D01*
X123838095Y-59395238D01*
X123885714Y-59490476D01*
X123933333Y-59680952D01*
X123933333Y-59823809D01*
X123885714Y-60014285D01*
X123838095Y-60109523D01*
X123742857Y-60204761D01*
X123600000Y-60252380D01*
X123361904Y-60252380D01*
X124266666Y-59252380D02*
X124885714Y-59252380D01*
X124552380Y-59633333D01*
X124695238Y-59633333D01*
X124790476Y-59680952D01*
X124838095Y-59728571D01*
X124885714Y-59823809D01*
X124885714Y-60061904D01*
X124838095Y-60157142D01*
X124790476Y-60204761D01*
X124695238Y-60252380D01*
X124409523Y-60252380D01*
X124314285Y-60204761D01*
X124266666Y-60157142D01*
G04 #@! TO.C,R10*
X125252380Y-57042857D02*
X124776190Y-57376190D01*
X125252380Y-57614285D02*
X124252380Y-57614285D01*
X124252380Y-57233333D01*
X124300000Y-57138095D01*
X124347619Y-57090476D01*
X124442857Y-57042857D01*
X124585714Y-57042857D01*
X124680952Y-57090476D01*
X124728571Y-57138095D01*
X124776190Y-57233333D01*
X124776190Y-57614285D01*
X125252380Y-56090476D02*
X125252380Y-56661904D01*
X125252380Y-56376190D02*
X124252380Y-56376190D01*
X124395238Y-56471428D01*
X124490476Y-56566666D01*
X124538095Y-56661904D01*
X124252380Y-55471428D02*
X124252380Y-55376190D01*
X124300000Y-55280952D01*
X124347619Y-55233333D01*
X124442857Y-55185714D01*
X124633333Y-55138095D01*
X124871428Y-55138095D01*
X125061904Y-55185714D01*
X125157142Y-55233333D01*
X125204761Y-55280952D01*
X125252380Y-55376190D01*
X125252380Y-55471428D01*
X125204761Y-55566666D01*
X125157142Y-55614285D01*
X125061904Y-55661904D01*
X124871428Y-55709523D01*
X124633333Y-55709523D01*
X124442857Y-55661904D01*
X124347619Y-55614285D01*
X124300000Y-55566666D01*
X124252380Y-55471428D01*
G04 #@! TO.C,W1*
X108395238Y-59852380D02*
X108633333Y-60852380D01*
X108823809Y-60138095D01*
X109014285Y-60852380D01*
X109252380Y-59852380D01*
X110157142Y-60852380D02*
X109585714Y-60852380D01*
X109871428Y-60852380D02*
X109871428Y-59852380D01*
X109776190Y-59995238D01*
X109680952Y-60090476D01*
X109585714Y-60138095D01*
G04 #@! TO.C,W2*
X119695238Y-60452380D02*
X119933333Y-61452380D01*
X120123809Y-60738095D01*
X120314285Y-61452380D01*
X120552380Y-60452380D01*
X120885714Y-60547619D02*
X120933333Y-60500000D01*
X121028571Y-60452380D01*
X121266666Y-60452380D01*
X121361904Y-60500000D01*
X121409523Y-60547619D01*
X121457142Y-60642857D01*
X121457142Y-60738095D01*
X121409523Y-60880952D01*
X120838095Y-61452380D01*
X121457142Y-61452380D01*
G04 #@! TO.C,W5*
X103395238Y-57552380D02*
X103633333Y-58552380D01*
X103823809Y-57838095D01*
X104014285Y-58552380D01*
X104252380Y-57552380D01*
X105109523Y-57552380D02*
X104633333Y-57552380D01*
X104585714Y-58028571D01*
X104633333Y-57980952D01*
X104728571Y-57933333D01*
X104966666Y-57933333D01*
X105061904Y-57980952D01*
X105109523Y-58028571D01*
X105157142Y-58123809D01*
X105157142Y-58361904D01*
X105109523Y-58457142D01*
X105061904Y-58504761D01*
X104966666Y-58552380D01*
X104728571Y-58552380D01*
X104633333Y-58504761D01*
X104585714Y-58457142D01*
G04 #@! TO.C,W6*
X101095238Y-55652380D02*
X101333333Y-56652380D01*
X101523809Y-55938095D01*
X101714285Y-56652380D01*
X101952380Y-55652380D01*
X102761904Y-55652380D02*
X102571428Y-55652380D01*
X102476190Y-55700000D01*
X102428571Y-55747619D01*
X102333333Y-55890476D01*
X102285714Y-56080952D01*
X102285714Y-56461904D01*
X102333333Y-56557142D01*
X102380952Y-56604761D01*
X102476190Y-56652380D01*
X102666666Y-56652380D01*
X102761904Y-56604761D01*
X102809523Y-56557142D01*
X102857142Y-56461904D01*
X102857142Y-56223809D01*
X102809523Y-56128571D01*
X102761904Y-56080952D01*
X102666666Y-56033333D01*
X102476190Y-56033333D01*
X102380952Y-56080952D01*
X102333333Y-56128571D01*
X102285714Y-56223809D01*
G04 #@! TO.C,W7*
X105595238Y-54752380D02*
X105833333Y-55752380D01*
X106023809Y-55038095D01*
X106214285Y-55752380D01*
X106452380Y-54752380D01*
X106738095Y-54752380D02*
X107404761Y-54752380D01*
X106976190Y-55752380D01*
G04 #@! TO.C,W8*
X110495238Y-54752380D02*
X110733333Y-55752380D01*
X110923809Y-55038095D01*
X111114285Y-55752380D01*
X111352380Y-54752380D01*
X111876190Y-55180952D02*
X111780952Y-55133333D01*
X111733333Y-55085714D01*
X111685714Y-54990476D01*
X111685714Y-54942857D01*
X111733333Y-54847619D01*
X111780952Y-54800000D01*
X111876190Y-54752380D01*
X112066666Y-54752380D01*
X112161904Y-54800000D01*
X112209523Y-54847619D01*
X112257142Y-54942857D01*
X112257142Y-54990476D01*
X112209523Y-55085714D01*
X112161904Y-55133333D01*
X112066666Y-55180952D01*
X111876190Y-55180952D01*
X111780952Y-55228571D01*
X111733333Y-55276190D01*
X111685714Y-55371428D01*
X111685714Y-55561904D01*
X111733333Y-55657142D01*
X111780952Y-55704761D01*
X111876190Y-55752380D01*
X112066666Y-55752380D01*
X112161904Y-55704761D01*
X112209523Y-55657142D01*
X112257142Y-55561904D01*
X112257142Y-55371428D01*
X112209523Y-55276190D01*
X112161904Y-55228571D01*
X112066666Y-55180952D01*
G04 #@! TO.C,W9*
X107995238Y-54752380D02*
X108233333Y-55752380D01*
X108423809Y-55038095D01*
X108614285Y-55752380D01*
X108852380Y-54752380D01*
X109280952Y-55752380D02*
X109471428Y-55752380D01*
X109566666Y-55704761D01*
X109614285Y-55657142D01*
X109709523Y-55514285D01*
X109757142Y-55323809D01*
X109757142Y-54942857D01*
X109709523Y-54847619D01*
X109661904Y-54800000D01*
X109566666Y-54752380D01*
X109376190Y-54752380D01*
X109280952Y-54800000D01*
X109233333Y-54847619D01*
X109185714Y-54942857D01*
X109185714Y-55180952D01*
X109233333Y-55276190D01*
X109280952Y-55323809D01*
X109376190Y-55371428D01*
X109566666Y-55371428D01*
X109661904Y-55323809D01*
X109709523Y-55276190D01*
X109757142Y-55180952D01*
G04 #@! TO.C,W10*
X119619047Y-54704380D02*
X119857142Y-55704380D01*
X120047619Y-54990095D01*
X120238095Y-55704380D01*
X120476190Y-54704380D01*
X121380952Y-55704380D02*
X120809523Y-55704380D01*
X121095238Y-55704380D02*
X121095238Y-54704380D01*
X121000000Y-54847238D01*
X120904761Y-54942476D01*
X120809523Y-54990095D01*
X122000000Y-54704380D02*
X122095238Y-54704380D01*
X122190476Y-54752000D01*
X122238095Y-54799619D01*
X122285714Y-54894857D01*
X122333333Y-55085333D01*
X122333333Y-55323428D01*
X122285714Y-55513904D01*
X122238095Y-55609142D01*
X122190476Y-55656761D01*
X122095238Y-55704380D01*
X122000000Y-55704380D01*
X121904761Y-55656761D01*
X121857142Y-55609142D01*
X121809523Y-55513904D01*
X121761904Y-55323428D01*
X121761904Y-55085333D01*
X121809523Y-54894857D01*
X121857142Y-54799619D01*
X121904761Y-54752000D01*
X122000000Y-54704380D01*
G04 #@! TO.C,W16*
X114619047Y-56452380D02*
X114857142Y-57452380D01*
X115047619Y-56738095D01*
X115238095Y-57452380D01*
X115476190Y-56452380D01*
X116380952Y-57452380D02*
X115809523Y-57452380D01*
X116095238Y-57452380D02*
X116095238Y-56452380D01*
X116000000Y-56595238D01*
X115904761Y-56690476D01*
X115809523Y-56738095D01*
X117238095Y-56452380D02*
X117047619Y-56452380D01*
X116952380Y-56500000D01*
X116904761Y-56547619D01*
X116809523Y-56690476D01*
X116761904Y-56880952D01*
X116761904Y-57261904D01*
X116809523Y-57357142D01*
X116857142Y-57404761D01*
X116952380Y-57452380D01*
X117142857Y-57452380D01*
X117238095Y-57404761D01*
X117285714Y-57357142D01*
X117333333Y-57261904D01*
X117333333Y-57023809D01*
X117285714Y-56928571D01*
X117238095Y-56880952D01*
X117142857Y-56833333D01*
X116952380Y-56833333D01*
X116857142Y-56880952D01*
X116809523Y-56928571D01*
X116761904Y-57023809D01*
G04 #@! TO.C,W18*
X118119047Y-58152380D02*
X118357142Y-59152380D01*
X118547619Y-58438095D01*
X118738095Y-59152380D01*
X118976190Y-58152380D01*
X119880952Y-59152380D02*
X119309523Y-59152380D01*
X119595238Y-59152380D02*
X119595238Y-58152380D01*
X119500000Y-58295238D01*
X119404761Y-58390476D01*
X119309523Y-58438095D01*
X120452380Y-58580952D02*
X120357142Y-58533333D01*
X120309523Y-58485714D01*
X120261904Y-58390476D01*
X120261904Y-58342857D01*
X120309523Y-58247619D01*
X120357142Y-58200000D01*
X120452380Y-58152380D01*
X120642857Y-58152380D01*
X120738095Y-58200000D01*
X120785714Y-58247619D01*
X120833333Y-58342857D01*
X120833333Y-58390476D01*
X120785714Y-58485714D01*
X120738095Y-58533333D01*
X120642857Y-58580952D01*
X120452380Y-58580952D01*
X120357142Y-58628571D01*
X120309523Y-58676190D01*
X120261904Y-58771428D01*
X120261904Y-58961904D01*
X120309523Y-59057142D01*
X120357142Y-59104761D01*
X120452380Y-59152380D01*
X120642857Y-59152380D01*
X120738095Y-59104761D01*
X120785714Y-59057142D01*
X120833333Y-58961904D01*
X120833333Y-58771428D01*
X120785714Y-58676190D01*
X120738095Y-58628571D01*
X120642857Y-58580952D01*
G04 #@! TO.C,D5*
X102861904Y-61152380D02*
X102861904Y-60152380D01*
X103100000Y-60152380D01*
X103242857Y-60200000D01*
X103338095Y-60295238D01*
X103385714Y-60390476D01*
X103433333Y-60580952D01*
X103433333Y-60723809D01*
X103385714Y-60914285D01*
X103338095Y-61009523D01*
X103242857Y-61104761D01*
X103100000Y-61152380D01*
X102861904Y-61152380D01*
X104338095Y-60152380D02*
X103861904Y-60152380D01*
X103814285Y-60628571D01*
X103861904Y-60580952D01*
X103957142Y-60533333D01*
X104195238Y-60533333D01*
X104290476Y-60580952D01*
X104338095Y-60628571D01*
X104385714Y-60723809D01*
X104385714Y-60961904D01*
X104338095Y-61057142D01*
X104290476Y-61104761D01*
X104195238Y-61152380D01*
X103957142Y-61152380D01*
X103861904Y-61104761D01*
X103814285Y-61057142D01*
G04 #@! TO.C,R14*
X101252380Y-54542857D02*
X100776190Y-54876190D01*
X101252380Y-55114285D02*
X100252380Y-55114285D01*
X100252380Y-54733333D01*
X100300000Y-54638095D01*
X100347619Y-54590476D01*
X100442857Y-54542857D01*
X100585714Y-54542857D01*
X100680952Y-54590476D01*
X100728571Y-54638095D01*
X100776190Y-54733333D01*
X100776190Y-55114285D01*
X101252380Y-53590476D02*
X101252380Y-54161904D01*
X101252380Y-53876190D02*
X100252380Y-53876190D01*
X100395238Y-53971428D01*
X100490476Y-54066666D01*
X100538095Y-54161904D01*
X100585714Y-52733333D02*
X101252380Y-52733333D01*
X100204761Y-52971428D02*
X100919047Y-53209523D01*
X100919047Y-52590476D01*
G04 #@! TO.C,C3*
X116833333Y-45457142D02*
X116785714Y-45504761D01*
X116642857Y-45552380D01*
X116547619Y-45552380D01*
X116404761Y-45504761D01*
X116309523Y-45409523D01*
X116261904Y-45314285D01*
X116214285Y-45123809D01*
X116214285Y-44980952D01*
X116261904Y-44790476D01*
X116309523Y-44695238D01*
X116404761Y-44600000D01*
X116547619Y-44552380D01*
X116642857Y-44552380D01*
X116785714Y-44600000D01*
X116833333Y-44647619D01*
X117166666Y-44552380D02*
X117785714Y-44552380D01*
X117452380Y-44933333D01*
X117595238Y-44933333D01*
X117690476Y-44980952D01*
X117738095Y-45028571D01*
X117785714Y-45123809D01*
X117785714Y-45361904D01*
X117738095Y-45457142D01*
X117690476Y-45504761D01*
X117595238Y-45552380D01*
X117309523Y-45552380D01*
X117214285Y-45504761D01*
X117166666Y-45457142D01*
G04 #@! TO.C,C4*
X117033333Y-52657142D02*
X116985714Y-52704761D01*
X116842857Y-52752380D01*
X116747619Y-52752380D01*
X116604761Y-52704761D01*
X116509523Y-52609523D01*
X116461904Y-52514285D01*
X116414285Y-52323809D01*
X116414285Y-52180952D01*
X116461904Y-51990476D01*
X116509523Y-51895238D01*
X116604761Y-51800000D01*
X116747619Y-51752380D01*
X116842857Y-51752380D01*
X116985714Y-51800000D01*
X117033333Y-51847619D01*
X117890476Y-52085714D02*
X117890476Y-52752380D01*
X117652380Y-51704761D02*
X117414285Y-52419047D01*
X118033333Y-52419047D01*
G04 #@! TO.C,C6*
X123757142Y-43366666D02*
X123804761Y-43414285D01*
X123852380Y-43557142D01*
X123852380Y-43652380D01*
X123804761Y-43795238D01*
X123709523Y-43890476D01*
X123614285Y-43938095D01*
X123423809Y-43985714D01*
X123280952Y-43985714D01*
X123090476Y-43938095D01*
X122995238Y-43890476D01*
X122900000Y-43795238D01*
X122852380Y-43652380D01*
X122852380Y-43557142D01*
X122900000Y-43414285D01*
X122947619Y-43366666D01*
X122852380Y-42509523D02*
X122852380Y-42700000D01*
X122900000Y-42795238D01*
X122947619Y-42842857D01*
X123090476Y-42938095D01*
X123280952Y-42985714D01*
X123661904Y-42985714D01*
X123757142Y-42938095D01*
X123804761Y-42890476D01*
X123852380Y-42795238D01*
X123852380Y-42604761D01*
X123804761Y-42509523D01*
X123757142Y-42461904D01*
X123661904Y-42414285D01*
X123423809Y-42414285D01*
X123328571Y-42461904D01*
X123280952Y-42509523D01*
X123233333Y-42604761D01*
X123233333Y-42795238D01*
X123280952Y-42890476D01*
X123328571Y-42938095D01*
X123423809Y-42985714D01*
G04 #@! TO.C,D1*
X113061904Y-52652380D02*
X113061904Y-51652380D01*
X113300000Y-51652380D01*
X113442857Y-51700000D01*
X113538095Y-51795238D01*
X113585714Y-51890476D01*
X113633333Y-52080952D01*
X113633333Y-52223809D01*
X113585714Y-52414285D01*
X113538095Y-52509523D01*
X113442857Y-52604761D01*
X113300000Y-52652380D01*
X113061904Y-52652380D01*
X114585714Y-52652380D02*
X114014285Y-52652380D01*
X114300000Y-52652380D02*
X114300000Y-51652380D01*
X114204761Y-51795238D01*
X114109523Y-51890476D01*
X114014285Y-51938095D01*
G04 #@! TO.C,R1*
X115333333Y-61452380D02*
X115000000Y-60976190D01*
X114761904Y-61452380D02*
X114761904Y-60452380D01*
X115142857Y-60452380D01*
X115238095Y-60500000D01*
X115285714Y-60547619D01*
X115333333Y-60642857D01*
X115333333Y-60785714D01*
X115285714Y-60880952D01*
X115238095Y-60928571D01*
X115142857Y-60976190D01*
X114761904Y-60976190D01*
X116285714Y-61452380D02*
X115714285Y-61452380D01*
X116000000Y-61452380D02*
X116000000Y-60452380D01*
X115904761Y-60595238D01*
X115809523Y-60690476D01*
X115714285Y-60738095D01*
G04 #@! TO.C,R4*
X118052380Y-50866666D02*
X117576190Y-51200000D01*
X118052380Y-51438095D02*
X117052380Y-51438095D01*
X117052380Y-51057142D01*
X117100000Y-50961904D01*
X117147619Y-50914285D01*
X117242857Y-50866666D01*
X117385714Y-50866666D01*
X117480952Y-50914285D01*
X117528571Y-50961904D01*
X117576190Y-51057142D01*
X117576190Y-51438095D01*
X117385714Y-50009523D02*
X118052380Y-50009523D01*
X117004761Y-50247619D02*
X117719047Y-50485714D01*
X117719047Y-49866666D01*
G04 #@! TO.C,R5*
X118152380Y-53966666D02*
X117676190Y-54300000D01*
X118152380Y-54538095D02*
X117152380Y-54538095D01*
X117152380Y-54157142D01*
X117200000Y-54061904D01*
X117247619Y-54014285D01*
X117342857Y-53966666D01*
X117485714Y-53966666D01*
X117580952Y-54014285D01*
X117628571Y-54061904D01*
X117676190Y-54157142D01*
X117676190Y-54538095D01*
X117152380Y-53061904D02*
X117152380Y-53538095D01*
X117628571Y-53585714D01*
X117580952Y-53538095D01*
X117533333Y-53442857D01*
X117533333Y-53204761D01*
X117580952Y-53109523D01*
X117628571Y-53061904D01*
X117723809Y-53014285D01*
X117961904Y-53014285D01*
X118057142Y-53061904D01*
X118104761Y-53109523D01*
X118152380Y-53204761D01*
X118152380Y-53442857D01*
X118104761Y-53538095D01*
X118057142Y-53585714D01*
G04 #@! TO.C,R6*
X125252380Y-53230493D02*
X124776190Y-53563827D01*
X125252380Y-53801922D02*
X124252380Y-53801922D01*
X124252380Y-53420969D01*
X124300000Y-53325731D01*
X124347619Y-53278112D01*
X124442857Y-53230493D01*
X124585714Y-53230493D01*
X124680952Y-53278112D01*
X124728571Y-53325731D01*
X124776190Y-53420969D01*
X124776190Y-53801922D01*
X124252380Y-52373350D02*
X124252380Y-52563827D01*
X124300000Y-52659065D01*
X124347619Y-52706684D01*
X124490476Y-52801922D01*
X124680952Y-52849541D01*
X125061904Y-52849541D01*
X125157142Y-52801922D01*
X125204761Y-52754303D01*
X125252380Y-52659065D01*
X125252380Y-52468588D01*
X125204761Y-52373350D01*
X125157142Y-52325731D01*
X125061904Y-52278112D01*
X124823809Y-52278112D01*
X124728571Y-52325731D01*
X124680952Y-52373350D01*
X124633333Y-52468588D01*
X124633333Y-52659065D01*
X124680952Y-52754303D01*
X124728571Y-52801922D01*
X124823809Y-52849541D01*
G04 #@! TO.C,R7*
X115452380Y-50866666D02*
X114976190Y-51200000D01*
X115452380Y-51438095D02*
X114452380Y-51438095D01*
X114452380Y-51057142D01*
X114500000Y-50961904D01*
X114547619Y-50914285D01*
X114642857Y-50866666D01*
X114785714Y-50866666D01*
X114880952Y-50914285D01*
X114928571Y-50961904D01*
X114976190Y-51057142D01*
X114976190Y-51438095D01*
X114452380Y-50533333D02*
X114452380Y-49866666D01*
X115452380Y-50295238D01*
G04 #@! TO.C,R8*
X121852380Y-43566666D02*
X121376190Y-43900000D01*
X121852380Y-44138095D02*
X120852380Y-44138095D01*
X120852380Y-43757142D01*
X120900000Y-43661904D01*
X120947619Y-43614285D01*
X121042857Y-43566666D01*
X121185714Y-43566666D01*
X121280952Y-43614285D01*
X121328571Y-43661904D01*
X121376190Y-43757142D01*
X121376190Y-44138095D01*
X121280952Y-42995238D02*
X121233333Y-43090476D01*
X121185714Y-43138095D01*
X121090476Y-43185714D01*
X121042857Y-43185714D01*
X120947619Y-43138095D01*
X120900000Y-43090476D01*
X120852380Y-42995238D01*
X120852380Y-42804761D01*
X120900000Y-42709523D01*
X120947619Y-42661904D01*
X121042857Y-42614285D01*
X121090476Y-42614285D01*
X121185714Y-42661904D01*
X121233333Y-42709523D01*
X121280952Y-42804761D01*
X121280952Y-42995238D01*
X121328571Y-43090476D01*
X121376190Y-43138095D01*
X121471428Y-43185714D01*
X121661904Y-43185714D01*
X121757142Y-43138095D01*
X121804761Y-43090476D01*
X121852380Y-42995238D01*
X121852380Y-42804761D01*
X121804761Y-42709523D01*
X121757142Y-42661904D01*
X121661904Y-42614285D01*
X121471428Y-42614285D01*
X121376190Y-42661904D01*
X121328571Y-42709523D01*
X121280952Y-42804761D01*
G04 #@! TO.C,R9*
X119852380Y-43466666D02*
X119376190Y-43800000D01*
X119852380Y-44038095D02*
X118852380Y-44038095D01*
X118852380Y-43657142D01*
X118900000Y-43561904D01*
X118947619Y-43514285D01*
X119042857Y-43466666D01*
X119185714Y-43466666D01*
X119280952Y-43514285D01*
X119328571Y-43561904D01*
X119376190Y-43657142D01*
X119376190Y-44038095D01*
X119852380Y-42990476D02*
X119852380Y-42800000D01*
X119804761Y-42704761D01*
X119757142Y-42657142D01*
X119614285Y-42561904D01*
X119423809Y-42514285D01*
X119042857Y-42514285D01*
X118947619Y-42561904D01*
X118900000Y-42609523D01*
X118852380Y-42704761D01*
X118852380Y-42895238D01*
X118900000Y-42990476D01*
X118947619Y-43038095D01*
X119042857Y-43085714D01*
X119280952Y-43085714D01*
X119376190Y-43038095D01*
X119423809Y-42990476D01*
X119471428Y-42895238D01*
X119471428Y-42704761D01*
X119423809Y-42609523D01*
X119376190Y-42561904D01*
X119280952Y-42514285D01*
G04 #@! TO.C,U1*
X108738095Y-57452380D02*
X108738095Y-58261904D01*
X108785714Y-58357142D01*
X108833333Y-58404761D01*
X108928571Y-58452380D01*
X109119047Y-58452380D01*
X109214285Y-58404761D01*
X109261904Y-58357142D01*
X109309523Y-58261904D01*
X109309523Y-57452380D01*
X110309523Y-58452380D02*
X109738095Y-58452380D01*
X110023809Y-58452380D02*
X110023809Y-57452380D01*
X109928571Y-57595238D01*
X109833333Y-57690476D01*
X109738095Y-57738095D01*
G04 #@! TO.C,U2*
X102138095Y-43152380D02*
X102138095Y-43961904D01*
X102185714Y-44057142D01*
X102233333Y-44104761D01*
X102328571Y-44152380D01*
X102519047Y-44152380D01*
X102614285Y-44104761D01*
X102661904Y-44057142D01*
X102709523Y-43961904D01*
X102709523Y-43152380D01*
X103138095Y-43247619D02*
X103185714Y-43200000D01*
X103280952Y-43152380D01*
X103519047Y-43152380D01*
X103614285Y-43200000D01*
X103661904Y-43247619D01*
X103709523Y-43342857D01*
X103709523Y-43438095D01*
X103661904Y-43580952D01*
X103090476Y-44152380D01*
X103709523Y-44152380D01*
G04 #@! TO.C,U3*
X105138095Y-43152380D02*
X105138095Y-43961904D01*
X105185714Y-44057142D01*
X105233333Y-44104761D01*
X105328571Y-44152380D01*
X105519047Y-44152380D01*
X105614285Y-44104761D01*
X105661904Y-44057142D01*
X105709523Y-43961904D01*
X105709523Y-43152380D01*
X106090476Y-43152380D02*
X106709523Y-43152380D01*
X106376190Y-43533333D01*
X106519047Y-43533333D01*
X106614285Y-43580952D01*
X106661904Y-43628571D01*
X106709523Y-43723809D01*
X106709523Y-43961904D01*
X106661904Y-44057142D01*
X106614285Y-44104761D01*
X106519047Y-44152380D01*
X106233333Y-44152380D01*
X106138095Y-44104761D01*
X106090476Y-44057142D01*
G04 #@! TO.C,U4*
X102938095Y-52352380D02*
X102938095Y-53161904D01*
X102985714Y-53257142D01*
X103033333Y-53304761D01*
X103128571Y-53352380D01*
X103319047Y-53352380D01*
X103414285Y-53304761D01*
X103461904Y-53257142D01*
X103509523Y-53161904D01*
X103509523Y-52352380D01*
X104414285Y-52685714D02*
X104414285Y-53352380D01*
X104176190Y-52304761D02*
X103938095Y-53019047D01*
X104557142Y-53019047D01*
G04 #@! TO.C,U6*
X109338095Y-48952380D02*
X109338095Y-49761904D01*
X109385714Y-49857142D01*
X109433333Y-49904761D01*
X109528571Y-49952380D01*
X109719047Y-49952380D01*
X109814285Y-49904761D01*
X109861904Y-49857142D01*
X109909523Y-49761904D01*
X109909523Y-48952380D01*
X110814285Y-48952380D02*
X110623809Y-48952380D01*
X110528571Y-49000000D01*
X110480952Y-49047619D01*
X110385714Y-49190476D01*
X110338095Y-49380952D01*
X110338095Y-49761904D01*
X110385714Y-49857142D01*
X110433333Y-49904761D01*
X110528571Y-49952380D01*
X110719047Y-49952380D01*
X110814285Y-49904761D01*
X110861904Y-49857142D01*
X110909523Y-49761904D01*
X110909523Y-49523809D01*
X110861904Y-49428571D01*
X110814285Y-49380952D01*
X110719047Y-49333333D01*
X110528571Y-49333333D01*
X110433333Y-49380952D01*
X110385714Y-49428571D01*
X110338095Y-49523809D01*
G04 #@! TD*
M02*
