G04 #@! TF.GenerationSoftware,KiCad,Pcbnew,(5.0.0)*
G04 #@! TF.CreationDate,2020-05-01T19:32:20+02:00*
G04 #@! TF.ProjectId,PGPExT_v1-1,5047504578545F76312D312E6B696361,1.1*
G04 #@! TF.SameCoordinates,Original*
G04 #@! TF.FileFunction,Soldermask,Bot*
G04 #@! TF.FilePolarity,Negative*
%FSLAX46Y46*%
G04 Gerber Fmt 4.6, Leading zero omitted, Abs format (unit mm)*
G04 Created by KiCad (PCBNEW (5.0.0)) date 05/01/20 19:32:20*
%MOMM*%
%LPD*%
G01*
G04 APERTURE LIST*
%ADD10C,0.100000*%
%ADD11C,0.150000*%
%ADD12C,0.300000*%
%ADD13C,0.400000*%
%ADD14C,0.800000*%
%ADD15R,0.750000X0.500000*%
%ADD16C,1.200000*%
%ADD17C,1.075000*%
%ADD18C,0.500000*%
%ADD19C,1.600000*%
%ADD20C,0.975000*%
%ADD21R,1.600000X0.550000*%
%ADD22R,1.600000X0.700000*%
G04 APERTURE END LIST*
D10*
D11*
X177002200Y-166007200D02*
X177002200Y-198007200D01*
X285002200Y-198007200D01*
X285002200Y-166007200D01*
X177002200Y-166007200D01*
D10*
D11*
X10000000Y-10000000D02*
X10000000Y-200007200D01*
X287002200Y-200007200D01*
X287002200Y-10000000D01*
X10000000Y-10000000D01*
D10*
D11*
X12000000Y-12000000D02*
X12000000Y-198007200D01*
X285002200Y-198007200D01*
X285002200Y-12000000D01*
X12000000Y-12000000D01*
D10*
D11*
X60000000Y-12000000D02*
X60000000Y-10000000D01*
D10*
D11*
X110000000Y-12000000D02*
X110000000Y-10000000D01*
D10*
D11*
X160000000Y-12000000D02*
X160000000Y-10000000D01*
D10*
D11*
X210000000Y-12000000D02*
X210000000Y-10000000D01*
D10*
D11*
X260000000Y-12000000D02*
X260000000Y-10000000D01*
D10*
D11*
X36065476Y-11588095D02*
X35322619Y-11588095D01*
X35694047Y-11588095D02*
X35694047Y-10288095D01*
X35570238Y-10473809D01*
X35446428Y-10597619D01*
X35322619Y-10659523D01*
D10*
D11*
X85322619Y-10411904D02*
X85384523Y-10350000D01*
X85508333Y-10288095D01*
X85817857Y-10288095D01*
X85941666Y-10350000D01*
X86003571Y-10411904D01*
X86065476Y-10535714D01*
X86065476Y-10659523D01*
X86003571Y-10845238D01*
X85260714Y-11588095D01*
X86065476Y-11588095D01*
D10*
D11*
X135260714Y-10288095D02*
X136065476Y-10288095D01*
X135632142Y-10783333D01*
X135817857Y-10783333D01*
X135941666Y-10845238D01*
X136003571Y-10907142D01*
X136065476Y-11030952D01*
X136065476Y-11340476D01*
X136003571Y-11464285D01*
X135941666Y-11526190D01*
X135817857Y-11588095D01*
X135446428Y-11588095D01*
X135322619Y-11526190D01*
X135260714Y-11464285D01*
D10*
D11*
X185941666Y-10721428D02*
X185941666Y-11588095D01*
X185632142Y-10226190D02*
X185322619Y-11154761D01*
X186127380Y-11154761D01*
D10*
D11*
X236003571Y-10288095D02*
X235384523Y-10288095D01*
X235322619Y-10907142D01*
X235384523Y-10845238D01*
X235508333Y-10783333D01*
X235817857Y-10783333D01*
X235941666Y-10845238D01*
X236003571Y-10907142D01*
X236065476Y-11030952D01*
X236065476Y-11340476D01*
X236003571Y-11464285D01*
X235941666Y-11526190D01*
X235817857Y-11588095D01*
X235508333Y-11588095D01*
X235384523Y-11526190D01*
X235322619Y-11464285D01*
D10*
D11*
X285941666Y-10288095D02*
X285694047Y-10288095D01*
X285570238Y-10350000D01*
X285508333Y-10411904D01*
X285384523Y-10597619D01*
X285322619Y-10845238D01*
X285322619Y-11340476D01*
X285384523Y-11464285D01*
X285446428Y-11526190D01*
X285570238Y-11588095D01*
X285817857Y-11588095D01*
X285941666Y-11526190D01*
X286003571Y-11464285D01*
X286065476Y-11340476D01*
X286065476Y-11030952D01*
X286003571Y-10907142D01*
X285941666Y-10845238D01*
X285817857Y-10783333D01*
X285570238Y-10783333D01*
X285446428Y-10845238D01*
X285384523Y-10907142D01*
X285322619Y-11030952D01*
D10*
D11*
X60000000Y-198007200D02*
X60000000Y-200007200D01*
D10*
D11*
X110000000Y-198007200D02*
X110000000Y-200007200D01*
D10*
D11*
X160000000Y-198007200D02*
X160000000Y-200007200D01*
D10*
D11*
X210000000Y-198007200D02*
X210000000Y-200007200D01*
D10*
D11*
X260000000Y-198007200D02*
X260000000Y-200007200D01*
D10*
D11*
X36065476Y-199595295D02*
X35322619Y-199595295D01*
X35694047Y-199595295D02*
X35694047Y-198295295D01*
X35570238Y-198481009D01*
X35446428Y-198604819D01*
X35322619Y-198666723D01*
D10*
D11*
X85322619Y-198419104D02*
X85384523Y-198357200D01*
X85508333Y-198295295D01*
X85817857Y-198295295D01*
X85941666Y-198357200D01*
X86003571Y-198419104D01*
X86065476Y-198542914D01*
X86065476Y-198666723D01*
X86003571Y-198852438D01*
X85260714Y-199595295D01*
X86065476Y-199595295D01*
D10*
D11*
X135260714Y-198295295D02*
X136065476Y-198295295D01*
X135632142Y-198790533D01*
X135817857Y-198790533D01*
X135941666Y-198852438D01*
X136003571Y-198914342D01*
X136065476Y-199038152D01*
X136065476Y-199347676D01*
X136003571Y-199471485D01*
X135941666Y-199533390D01*
X135817857Y-199595295D01*
X135446428Y-199595295D01*
X135322619Y-199533390D01*
X135260714Y-199471485D01*
D10*
D11*
X185941666Y-198728628D02*
X185941666Y-199595295D01*
X185632142Y-198233390D02*
X185322619Y-199161961D01*
X186127380Y-199161961D01*
D10*
D11*
X236003571Y-198295295D02*
X235384523Y-198295295D01*
X235322619Y-198914342D01*
X235384523Y-198852438D01*
X235508333Y-198790533D01*
X235817857Y-198790533D01*
X235941666Y-198852438D01*
X236003571Y-198914342D01*
X236065476Y-199038152D01*
X236065476Y-199347676D01*
X236003571Y-199471485D01*
X235941666Y-199533390D01*
X235817857Y-199595295D01*
X235508333Y-199595295D01*
X235384523Y-199533390D01*
X235322619Y-199471485D01*
D10*
D11*
X285941666Y-198295295D02*
X285694047Y-198295295D01*
X285570238Y-198357200D01*
X285508333Y-198419104D01*
X285384523Y-198604819D01*
X285322619Y-198852438D01*
X285322619Y-199347676D01*
X285384523Y-199471485D01*
X285446428Y-199533390D01*
X285570238Y-199595295D01*
X285817857Y-199595295D01*
X285941666Y-199533390D01*
X286003571Y-199471485D01*
X286065476Y-199347676D01*
X286065476Y-199038152D01*
X286003571Y-198914342D01*
X285941666Y-198852438D01*
X285817857Y-198790533D01*
X285570238Y-198790533D01*
X285446428Y-198852438D01*
X285384523Y-198914342D01*
X285322619Y-199038152D01*
D10*
D11*
X10000000Y-60000000D02*
X12000000Y-60000000D01*
D10*
D11*
X10000000Y-110000000D02*
X12000000Y-110000000D01*
D10*
D11*
X10000000Y-160000000D02*
X12000000Y-160000000D01*
D10*
D11*
X10690476Y-35216666D02*
X11309523Y-35216666D01*
X10566666Y-35588095D02*
X11000000Y-34288095D01*
X11433333Y-35588095D01*
D10*
D11*
X11092857Y-84907142D02*
X11278571Y-84969047D01*
X11340476Y-85030952D01*
X11402380Y-85154761D01*
X11402380Y-85340476D01*
X11340476Y-85464285D01*
X11278571Y-85526190D01*
X11154761Y-85588095D01*
X10659523Y-85588095D01*
X10659523Y-84288095D01*
X11092857Y-84288095D01*
X11216666Y-84350000D01*
X11278571Y-84411904D01*
X11340476Y-84535714D01*
X11340476Y-84659523D01*
X11278571Y-84783333D01*
X11216666Y-84845238D01*
X11092857Y-84907142D01*
X10659523Y-84907142D01*
D10*
D11*
X11402380Y-135464285D02*
X11340476Y-135526190D01*
X11154761Y-135588095D01*
X11030952Y-135588095D01*
X10845238Y-135526190D01*
X10721428Y-135402380D01*
X10659523Y-135278571D01*
X10597619Y-135030952D01*
X10597619Y-134845238D01*
X10659523Y-134597619D01*
X10721428Y-134473809D01*
X10845238Y-134350000D01*
X11030952Y-134288095D01*
X11154761Y-134288095D01*
X11340476Y-134350000D01*
X11402380Y-134411904D01*
D10*
D11*
X10659523Y-185588095D02*
X10659523Y-184288095D01*
X10969047Y-184288095D01*
X11154761Y-184350000D01*
X11278571Y-184473809D01*
X11340476Y-184597619D01*
X11402380Y-184845238D01*
X11402380Y-185030952D01*
X11340476Y-185278571D01*
X11278571Y-185402380D01*
X11154761Y-185526190D01*
X10969047Y-185588095D01*
X10659523Y-185588095D01*
D10*
D11*
X287002200Y-60000000D02*
X285002200Y-60000000D01*
D10*
D11*
X287002200Y-110000000D02*
X285002200Y-110000000D01*
D10*
D11*
X287002200Y-160000000D02*
X285002200Y-160000000D01*
D10*
D11*
X285692676Y-35216666D02*
X286311723Y-35216666D01*
X285568866Y-35588095D02*
X286002200Y-34288095D01*
X286435533Y-35588095D01*
D10*
D11*
X286095057Y-84907142D02*
X286280771Y-84969047D01*
X286342676Y-85030952D01*
X286404580Y-85154761D01*
X286404580Y-85340476D01*
X286342676Y-85464285D01*
X286280771Y-85526190D01*
X286156961Y-85588095D01*
X285661723Y-85588095D01*
X285661723Y-84288095D01*
X286095057Y-84288095D01*
X286218866Y-84350000D01*
X286280771Y-84411904D01*
X286342676Y-84535714D01*
X286342676Y-84659523D01*
X286280771Y-84783333D01*
X286218866Y-84845238D01*
X286095057Y-84907142D01*
X285661723Y-84907142D01*
D10*
D11*
X286404580Y-135464285D02*
X286342676Y-135526190D01*
X286156961Y-135588095D01*
X286033152Y-135588095D01*
X285847438Y-135526190D01*
X285723628Y-135402380D01*
X285661723Y-135278571D01*
X285599819Y-135030952D01*
X285599819Y-134845238D01*
X285661723Y-134597619D01*
X285723628Y-134473809D01*
X285847438Y-134350000D01*
X286033152Y-134288095D01*
X286156961Y-134288095D01*
X286342676Y-134350000D01*
X286404580Y-134411904D01*
D10*
D11*
X285661723Y-185588095D02*
X285661723Y-184288095D01*
X285971247Y-184288095D01*
X286156961Y-184350000D01*
X286280771Y-184473809D01*
X286342676Y-184597619D01*
X286404580Y-184845238D01*
X286404580Y-185030952D01*
X286342676Y-185278571D01*
X286280771Y-185402380D01*
X286156961Y-185526190D01*
X285971247Y-185588095D01*
X285661723Y-185588095D01*
D10*
D11*
X200434342Y-193785771D02*
X200434342Y-192285771D01*
X200791485Y-192285771D01*
X201005771Y-192357200D01*
X201148628Y-192500057D01*
X201220057Y-192642914D01*
X201291485Y-192928628D01*
X201291485Y-193142914D01*
X201220057Y-193428628D01*
X201148628Y-193571485D01*
X201005771Y-193714342D01*
X200791485Y-193785771D01*
X200434342Y-193785771D01*
X202577200Y-193785771D02*
X202577200Y-193000057D01*
X202505771Y-192857200D01*
X202362914Y-192785771D01*
X202077200Y-192785771D01*
X201934342Y-192857200D01*
X202577200Y-193714342D02*
X202434342Y-193785771D01*
X202077200Y-193785771D01*
X201934342Y-193714342D01*
X201862914Y-193571485D01*
X201862914Y-193428628D01*
X201934342Y-193285771D01*
X202077200Y-193214342D01*
X202434342Y-193214342D01*
X202577200Y-193142914D01*
X203077200Y-192785771D02*
X203648628Y-192785771D01*
X203291485Y-192285771D02*
X203291485Y-193571485D01*
X203362914Y-193714342D01*
X203505771Y-193785771D01*
X203648628Y-193785771D01*
X204720057Y-193714342D02*
X204577200Y-193785771D01*
X204291485Y-193785771D01*
X204148628Y-193714342D01*
X204077200Y-193571485D01*
X204077200Y-193000057D01*
X204148628Y-192857200D01*
X204291485Y-192785771D01*
X204577200Y-192785771D01*
X204720057Y-192857200D01*
X204791485Y-193000057D01*
X204791485Y-193142914D01*
X204077200Y-193285771D01*
X205434342Y-193642914D02*
X205505771Y-193714342D01*
X205434342Y-193785771D01*
X205362914Y-193714342D01*
X205434342Y-193642914D01*
X205434342Y-193785771D01*
X205434342Y-192857200D02*
X205505771Y-192928628D01*
X205434342Y-193000057D01*
X205362914Y-192928628D01*
X205434342Y-192857200D01*
X205434342Y-193000057D01*
X207220057Y-192428628D02*
X207291485Y-192357200D01*
X207434342Y-192285771D01*
X207791485Y-192285771D01*
X207934342Y-192357200D01*
X208005771Y-192428628D01*
X208077200Y-192571485D01*
X208077200Y-192714342D01*
X208005771Y-192928628D01*
X207148628Y-193785771D01*
X208077200Y-193785771D01*
X209005771Y-192285771D02*
X209148628Y-192285771D01*
X209291485Y-192357200D01*
X209362914Y-192428628D01*
X209434342Y-192571485D01*
X209505771Y-192857200D01*
X209505771Y-193214342D01*
X209434342Y-193500057D01*
X209362914Y-193642914D01*
X209291485Y-193714342D01*
X209148628Y-193785771D01*
X209005771Y-193785771D01*
X208862914Y-193714342D01*
X208791485Y-193642914D01*
X208720057Y-193500057D01*
X208648628Y-193214342D01*
X208648628Y-192857200D01*
X208720057Y-192571485D01*
X208791485Y-192428628D01*
X208862914Y-192357200D01*
X209005771Y-192285771D01*
X210934342Y-193785771D02*
X210077200Y-193785771D01*
X210505771Y-193785771D02*
X210505771Y-192285771D01*
X210362914Y-192500057D01*
X210220057Y-192642914D01*
X210077200Y-192714342D01*
X211648628Y-193785771D02*
X211934342Y-193785771D01*
X212077200Y-193714342D01*
X212148628Y-193642914D01*
X212291485Y-193428628D01*
X212362914Y-193142914D01*
X212362914Y-192571485D01*
X212291485Y-192428628D01*
X212220057Y-192357200D01*
X212077200Y-192285771D01*
X211791485Y-192285771D01*
X211648628Y-192357200D01*
X211577200Y-192428628D01*
X211505771Y-192571485D01*
X211505771Y-192928628D01*
X211577200Y-193071485D01*
X211648628Y-193142914D01*
X211791485Y-193214342D01*
X212077200Y-193214342D01*
X212220057Y-193142914D01*
X212291485Y-193071485D01*
X212362914Y-192928628D01*
X213005771Y-193214342D02*
X214148628Y-193214342D01*
X215148628Y-192285771D02*
X215291485Y-192285771D01*
X215434342Y-192357200D01*
X215505771Y-192428628D01*
X215577200Y-192571485D01*
X215648628Y-192857200D01*
X215648628Y-193214342D01*
X215577200Y-193500057D01*
X215505771Y-193642914D01*
X215434342Y-193714342D01*
X215291485Y-193785771D01*
X215148628Y-193785771D01*
X215005771Y-193714342D01*
X214934342Y-193642914D01*
X214862914Y-193500057D01*
X214791485Y-193214342D01*
X214791485Y-192857200D01*
X214862914Y-192571485D01*
X214934342Y-192428628D01*
X215005771Y-192357200D01*
X215148628Y-192285771D01*
X216362914Y-193785771D02*
X216648628Y-193785771D01*
X216791485Y-193714342D01*
X216862914Y-193642914D01*
X217005771Y-193428628D01*
X217077200Y-193142914D01*
X217077200Y-192571485D01*
X217005771Y-192428628D01*
X216934342Y-192357200D01*
X216791485Y-192285771D01*
X216505771Y-192285771D01*
X216362914Y-192357200D01*
X216291485Y-192428628D01*
X216220057Y-192571485D01*
X216220057Y-192928628D01*
X216291485Y-193071485D01*
X216362914Y-193142914D01*
X216505771Y-193214342D01*
X216791485Y-193214342D01*
X216934342Y-193142914D01*
X217005771Y-193071485D01*
X217077200Y-192928628D01*
X217720057Y-193214342D02*
X218862914Y-193214342D01*
X220362914Y-193785771D02*
X219505771Y-193785771D01*
X219934342Y-193785771D02*
X219934342Y-192285771D01*
X219791485Y-192500057D01*
X219648628Y-192642914D01*
X219505771Y-192714342D01*
X221791485Y-193785771D02*
X220934342Y-193785771D01*
X221362914Y-193785771D02*
X221362914Y-192285771D01*
X221220057Y-192500057D01*
X221077200Y-192642914D01*
X220934342Y-192714342D01*
D10*
D11*
X177002200Y-194507200D02*
X285002200Y-194507200D01*
D10*
D11*
X178434342Y-196585771D02*
X178434342Y-195085771D01*
X179291485Y-196585771D02*
X178648628Y-195728628D01*
X179291485Y-195085771D02*
X178434342Y-195942914D01*
X179934342Y-196585771D02*
X179934342Y-195585771D01*
X179934342Y-195085771D02*
X179862914Y-195157200D01*
X179934342Y-195228628D01*
X180005771Y-195157200D01*
X179934342Y-195085771D01*
X179934342Y-195228628D01*
X181505771Y-196442914D02*
X181434342Y-196514342D01*
X181220057Y-196585771D01*
X181077200Y-196585771D01*
X180862914Y-196514342D01*
X180720057Y-196371485D01*
X180648628Y-196228628D01*
X180577200Y-195942914D01*
X180577200Y-195728628D01*
X180648628Y-195442914D01*
X180720057Y-195300057D01*
X180862914Y-195157200D01*
X181077200Y-195085771D01*
X181220057Y-195085771D01*
X181434342Y-195157200D01*
X181505771Y-195228628D01*
X182791485Y-196585771D02*
X182791485Y-195800057D01*
X182720057Y-195657200D01*
X182577200Y-195585771D01*
X182291485Y-195585771D01*
X182148628Y-195657200D01*
X182791485Y-196514342D02*
X182648628Y-196585771D01*
X182291485Y-196585771D01*
X182148628Y-196514342D01*
X182077200Y-196371485D01*
X182077200Y-196228628D01*
X182148628Y-196085771D01*
X182291485Y-196014342D01*
X182648628Y-196014342D01*
X182791485Y-195942914D01*
X184148628Y-196585771D02*
X184148628Y-195085771D01*
X184148628Y-196514342D02*
X184005771Y-196585771D01*
X183720057Y-196585771D01*
X183577200Y-196514342D01*
X183505771Y-196442914D01*
X183434342Y-196300057D01*
X183434342Y-195871485D01*
X183505771Y-195728628D01*
X183577200Y-195657200D01*
X183720057Y-195585771D01*
X184005771Y-195585771D01*
X184148628Y-195657200D01*
X186005771Y-195800057D02*
X186505771Y-195800057D01*
X186720057Y-196585771D02*
X186005771Y-196585771D01*
X186005771Y-195085771D01*
X186720057Y-195085771D01*
X187362914Y-196442914D02*
X187434342Y-196514342D01*
X187362914Y-196585771D01*
X187291485Y-196514342D01*
X187362914Y-196442914D01*
X187362914Y-196585771D01*
X188077200Y-196585771D02*
X188077200Y-195085771D01*
X188434342Y-195085771D01*
X188648628Y-195157200D01*
X188791485Y-195300057D01*
X188862914Y-195442914D01*
X188934342Y-195728628D01*
X188934342Y-195942914D01*
X188862914Y-196228628D01*
X188791485Y-196371485D01*
X188648628Y-196514342D01*
X188434342Y-196585771D01*
X188077200Y-196585771D01*
X189577200Y-196442914D02*
X189648628Y-196514342D01*
X189577200Y-196585771D01*
X189505771Y-196514342D01*
X189577200Y-196442914D01*
X189577200Y-196585771D01*
X190220057Y-196157200D02*
X190934342Y-196157200D01*
X190077200Y-196585771D02*
X190577200Y-195085771D01*
X191077200Y-196585771D01*
X191577200Y-196442914D02*
X191648628Y-196514342D01*
X191577200Y-196585771D01*
X191505771Y-196514342D01*
X191577200Y-196442914D01*
X191577200Y-196585771D01*
X194577200Y-196585771D02*
X194577200Y-195085771D01*
X194720057Y-196014342D02*
X195148628Y-196585771D01*
X195148628Y-195585771D02*
X194577200Y-196157200D01*
X195791485Y-196585771D02*
X195791485Y-195585771D01*
X195791485Y-195085771D02*
X195720057Y-195157200D01*
X195791485Y-195228628D01*
X195862914Y-195157200D01*
X195791485Y-195085771D01*
X195791485Y-195228628D01*
X197148628Y-196514342D02*
X197005771Y-196585771D01*
X196720057Y-196585771D01*
X196577200Y-196514342D01*
X196505771Y-196442914D01*
X196434342Y-196300057D01*
X196434342Y-195871485D01*
X196505771Y-195728628D01*
X196577200Y-195657200D01*
X196720057Y-195585771D01*
X197005771Y-195585771D01*
X197148628Y-195657200D01*
X198434342Y-196585771D02*
X198434342Y-195800057D01*
X198362914Y-195657200D01*
X198220057Y-195585771D01*
X197934342Y-195585771D01*
X197791485Y-195657200D01*
X198434342Y-196514342D02*
X198291485Y-196585771D01*
X197934342Y-196585771D01*
X197791485Y-196514342D01*
X197720057Y-196371485D01*
X197720057Y-196228628D01*
X197791485Y-196085771D01*
X197934342Y-196014342D01*
X198291485Y-196014342D01*
X198434342Y-195942914D01*
X199791485Y-196585771D02*
X199791485Y-195085771D01*
X199791485Y-196514342D02*
X199648628Y-196585771D01*
X199362914Y-196585771D01*
X199220057Y-196514342D01*
X199148628Y-196442914D01*
X199077200Y-196300057D01*
X199077200Y-195871485D01*
X199148628Y-195728628D01*
X199220057Y-195657200D01*
X199362914Y-195585771D01*
X199648628Y-195585771D01*
X199791485Y-195657200D01*
X202077200Y-197157200D02*
X202005771Y-197085771D01*
X201862914Y-196871485D01*
X201791485Y-196728628D01*
X201720057Y-196514342D01*
X201648628Y-196157200D01*
X201648628Y-195871485D01*
X201720057Y-195514342D01*
X201791485Y-195300057D01*
X201862914Y-195157200D01*
X202005771Y-194942914D01*
X202077200Y-194871485D01*
X203362914Y-195085771D02*
X202648628Y-195085771D01*
X202577200Y-195800057D01*
X202648628Y-195728628D01*
X202791485Y-195657200D01*
X203148628Y-195657200D01*
X203291485Y-195728628D01*
X203362914Y-195800057D01*
X203434342Y-195942914D01*
X203434342Y-196300057D01*
X203362914Y-196442914D01*
X203291485Y-196514342D01*
X203148628Y-196585771D01*
X202791485Y-196585771D01*
X202648628Y-196514342D01*
X202577200Y-196442914D01*
X204077200Y-196442914D02*
X204148628Y-196514342D01*
X204077200Y-196585771D01*
X204005771Y-196514342D01*
X204077200Y-196442914D01*
X204077200Y-196585771D01*
X205077200Y-195085771D02*
X205220057Y-195085771D01*
X205362914Y-195157200D01*
X205434342Y-195228628D01*
X205505771Y-195371485D01*
X205577200Y-195657200D01*
X205577200Y-196014342D01*
X205505771Y-196300057D01*
X205434342Y-196442914D01*
X205362914Y-196514342D01*
X205220057Y-196585771D01*
X205077200Y-196585771D01*
X204934342Y-196514342D01*
X204862914Y-196442914D01*
X204791485Y-196300057D01*
X204720057Y-196014342D01*
X204720057Y-195657200D01*
X204791485Y-195371485D01*
X204862914Y-195228628D01*
X204934342Y-195157200D01*
X205077200Y-195085771D01*
X206220057Y-196442914D02*
X206291485Y-196514342D01*
X206220057Y-196585771D01*
X206148628Y-196514342D01*
X206220057Y-196442914D01*
X206220057Y-196585771D01*
X207220057Y-195085771D02*
X207362914Y-195085771D01*
X207505771Y-195157200D01*
X207577200Y-195228628D01*
X207648628Y-195371485D01*
X207720057Y-195657200D01*
X207720057Y-196014342D01*
X207648628Y-196300057D01*
X207577200Y-196442914D01*
X207505771Y-196514342D01*
X207362914Y-196585771D01*
X207220057Y-196585771D01*
X207077200Y-196514342D01*
X207005771Y-196442914D01*
X206934342Y-196300057D01*
X206862914Y-196014342D01*
X206862914Y-195657200D01*
X206934342Y-195371485D01*
X207005771Y-195228628D01*
X207077200Y-195157200D01*
X207220057Y-195085771D01*
X208220057Y-197157200D02*
X208291485Y-197085771D01*
X208434342Y-196871485D01*
X208505771Y-196728628D01*
X208577200Y-196514342D01*
X208648628Y-196157200D01*
X208648628Y-195871485D01*
X208577200Y-195514342D01*
X208505771Y-195300057D01*
X208434342Y-195157200D01*
X208291485Y-194942914D01*
X208220057Y-194871485D01*
D10*
D11*
X177002200Y-191507200D02*
X285002200Y-191507200D01*
D10*
D12*
X264411485Y-193785771D02*
X263911485Y-193071485D01*
X263554342Y-193785771D02*
X263554342Y-192285771D01*
X264125771Y-192285771D01*
X264268628Y-192357200D01*
X264340057Y-192428628D01*
X264411485Y-192571485D01*
X264411485Y-192785771D01*
X264340057Y-192928628D01*
X264268628Y-193000057D01*
X264125771Y-193071485D01*
X263554342Y-193071485D01*
X265625771Y-193714342D02*
X265482914Y-193785771D01*
X265197200Y-193785771D01*
X265054342Y-193714342D01*
X264982914Y-193571485D01*
X264982914Y-193000057D01*
X265054342Y-192857200D01*
X265197200Y-192785771D01*
X265482914Y-192785771D01*
X265625771Y-192857200D01*
X265697200Y-193000057D01*
X265697200Y-193142914D01*
X264982914Y-193285771D01*
X266197200Y-192785771D02*
X266554342Y-193785771D01*
X266911485Y-192785771D01*
X267482914Y-193642914D02*
X267554342Y-193714342D01*
X267482914Y-193785771D01*
X267411485Y-193714342D01*
X267482914Y-193642914D01*
X267482914Y-193785771D01*
X267482914Y-192857200D02*
X267554342Y-192928628D01*
X267482914Y-193000057D01*
X267411485Y-192928628D01*
X267482914Y-192857200D01*
X267482914Y-193000057D01*
X270125771Y-193785771D02*
X269268628Y-193785771D01*
X269697200Y-193785771D02*
X269697200Y-192285771D01*
X269554342Y-192500057D01*
X269411485Y-192642914D01*
X269268628Y-192714342D01*
X270768628Y-193642914D02*
X270840057Y-193714342D01*
X270768628Y-193785771D01*
X270697200Y-193714342D01*
X270768628Y-193642914D01*
X270768628Y-193785771D01*
X272268628Y-193785771D02*
X271411485Y-193785771D01*
X271840057Y-193785771D02*
X271840057Y-192285771D01*
X271697200Y-192500057D01*
X271554342Y-192642914D01*
X271411485Y-192714342D01*
D10*
D11*
X178362914Y-193714342D02*
X178577200Y-193785771D01*
X178934342Y-193785771D01*
X179077200Y-193714342D01*
X179148628Y-193642914D01*
X179220057Y-193500057D01*
X179220057Y-193357200D01*
X179148628Y-193214342D01*
X179077200Y-193142914D01*
X178934342Y-193071485D01*
X178648628Y-193000057D01*
X178505771Y-192928628D01*
X178434342Y-192857200D01*
X178362914Y-192714342D01*
X178362914Y-192571485D01*
X178434342Y-192428628D01*
X178505771Y-192357200D01*
X178648628Y-192285771D01*
X179005771Y-192285771D01*
X179220057Y-192357200D01*
X179862914Y-193785771D02*
X179862914Y-192785771D01*
X179862914Y-192285771D02*
X179791485Y-192357200D01*
X179862914Y-192428628D01*
X179934342Y-192357200D01*
X179862914Y-192285771D01*
X179862914Y-192428628D01*
X180434342Y-192785771D02*
X181220057Y-192785771D01*
X180434342Y-193785771D01*
X181220057Y-193785771D01*
X182362914Y-193714342D02*
X182220057Y-193785771D01*
X181934342Y-193785771D01*
X181791485Y-193714342D01*
X181720057Y-193571485D01*
X181720057Y-193000057D01*
X181791485Y-192857200D01*
X181934342Y-192785771D01*
X182220057Y-192785771D01*
X182362914Y-192857200D01*
X182434342Y-193000057D01*
X182434342Y-193142914D01*
X181720057Y-193285771D01*
X183077200Y-193642914D02*
X183148628Y-193714342D01*
X183077200Y-193785771D01*
X183005771Y-193714342D01*
X183077200Y-193642914D01*
X183077200Y-193785771D01*
X183077200Y-192857200D02*
X183148628Y-192928628D01*
X183077200Y-193000057D01*
X183005771Y-192928628D01*
X183077200Y-192857200D01*
X183077200Y-193000057D01*
X184862914Y-193357200D02*
X185577200Y-193357200D01*
X184720057Y-193785771D02*
X185220057Y-192285771D01*
X185720057Y-193785771D01*
X186862914Y-192785771D02*
X186862914Y-193785771D01*
X186505771Y-192214342D02*
X186148628Y-193285771D01*
X187077200Y-193285771D01*
D10*
D11*
X263434342Y-196585771D02*
X263434342Y-195085771D01*
X264791485Y-196585771D02*
X264791485Y-195085771D01*
X264791485Y-196514342D02*
X264648628Y-196585771D01*
X264362914Y-196585771D01*
X264220057Y-196514342D01*
X264148628Y-196442914D01*
X264077200Y-196300057D01*
X264077200Y-195871485D01*
X264148628Y-195728628D01*
X264220057Y-195657200D01*
X264362914Y-195585771D01*
X264648628Y-195585771D01*
X264791485Y-195657200D01*
X265505771Y-196442914D02*
X265577200Y-196514342D01*
X265505771Y-196585771D01*
X265434342Y-196514342D01*
X265505771Y-196442914D01*
X265505771Y-196585771D01*
X265505771Y-195657200D02*
X265577200Y-195728628D01*
X265505771Y-195800057D01*
X265434342Y-195728628D01*
X265505771Y-195657200D01*
X265505771Y-195800057D01*
X268148628Y-196585771D02*
X267291485Y-196585771D01*
X267720057Y-196585771D02*
X267720057Y-195085771D01*
X267577200Y-195300057D01*
X267434342Y-195442914D01*
X267291485Y-195514342D01*
X269862914Y-195014342D02*
X268577200Y-196942914D01*
X271148628Y-196585771D02*
X270291485Y-196585771D01*
X270720057Y-196585771D02*
X270720057Y-195085771D01*
X270577200Y-195300057D01*
X270434342Y-195442914D01*
X270291485Y-195514342D01*
D10*
D11*
X177002200Y-187507200D02*
X285002200Y-187507200D01*
D10*
D13*
X178714580Y-188211961D02*
X179857438Y-188211961D01*
X179036009Y-190211961D02*
X179286009Y-188211961D01*
X180274104Y-190211961D02*
X180440771Y-188878628D01*
X180524104Y-188211961D02*
X180416961Y-188307200D01*
X180500295Y-188402438D01*
X180607438Y-188307200D01*
X180524104Y-188211961D01*
X180500295Y-188402438D01*
X181107438Y-188878628D02*
X181869342Y-188878628D01*
X181476485Y-188211961D02*
X181262200Y-189926247D01*
X181333628Y-190116723D01*
X181512200Y-190211961D01*
X181702676Y-190211961D01*
X182655057Y-190211961D02*
X182476485Y-190116723D01*
X182405057Y-189926247D01*
X182619342Y-188211961D01*
X184190771Y-190116723D02*
X183988390Y-190211961D01*
X183607438Y-190211961D01*
X183428866Y-190116723D01*
X183357438Y-189926247D01*
X183452676Y-189164342D01*
X183571723Y-188973866D01*
X183774104Y-188878628D01*
X184155057Y-188878628D01*
X184333628Y-188973866D01*
X184405057Y-189164342D01*
X184381247Y-189354819D01*
X183405057Y-189545295D01*
X185155057Y-190021485D02*
X185238390Y-190116723D01*
X185131247Y-190211961D01*
X185047914Y-190116723D01*
X185155057Y-190021485D01*
X185131247Y-190211961D01*
X185286009Y-188973866D02*
X185369342Y-189069104D01*
X185262200Y-189164342D01*
X185178866Y-189069104D01*
X185286009Y-188973866D01*
X185262200Y-189164342D01*
X187607438Y-190211961D02*
X187857438Y-188211961D01*
X188619342Y-188211961D01*
X188797914Y-188307200D01*
X188881247Y-188402438D01*
X188952676Y-188592914D01*
X188916961Y-188878628D01*
X188797914Y-189069104D01*
X188690771Y-189164342D01*
X188488390Y-189259580D01*
X187726485Y-189259580D01*
X189893152Y-190211961D02*
X189714580Y-190116723D01*
X189631247Y-190021485D01*
X189559819Y-189831009D01*
X189631247Y-189259580D01*
X189750295Y-189069104D01*
X189857438Y-188973866D01*
X190059819Y-188878628D01*
X190345533Y-188878628D01*
X190524104Y-188973866D01*
X190607438Y-189069104D01*
X190678866Y-189259580D01*
X190607438Y-189831009D01*
X190488390Y-190021485D01*
X190381247Y-190116723D01*
X190178866Y-190211961D01*
X189893152Y-190211961D01*
X192702676Y-188307200D02*
X192524104Y-188211961D01*
X192238390Y-188211961D01*
X191940771Y-188307200D01*
X191726485Y-188497676D01*
X191607438Y-188688152D01*
X191464580Y-189069104D01*
X191428866Y-189354819D01*
X191476485Y-189735771D01*
X191547914Y-189926247D01*
X191714580Y-190116723D01*
X191988390Y-190211961D01*
X192178866Y-190211961D01*
X192476485Y-190116723D01*
X192583628Y-190021485D01*
X192666961Y-189354819D01*
X192286009Y-189354819D01*
X193702676Y-190211961D02*
X193524104Y-190116723D01*
X193440771Y-190021485D01*
X193369342Y-189831009D01*
X193440771Y-189259580D01*
X193559819Y-189069104D01*
X193666961Y-188973866D01*
X193869342Y-188878628D01*
X194155057Y-188878628D01*
X194333628Y-188973866D01*
X194416961Y-189069104D01*
X194488390Y-189259580D01*
X194416961Y-189831009D01*
X194297914Y-190021485D01*
X194190771Y-190116723D01*
X193988390Y-190211961D01*
X193702676Y-190211961D01*
X195321723Y-189450057D02*
X196845533Y-189450057D01*
X195988390Y-190211961D02*
X196178866Y-188688152D01*
X197833628Y-189164342D02*
X198500295Y-189164342D01*
X198655057Y-190211961D02*
X197702676Y-190211961D01*
X197952676Y-188211961D01*
X198905057Y-188211961D01*
X199321723Y-190211961D02*
X200536009Y-188878628D01*
X199488390Y-188878628D02*
X200369342Y-190211961D01*
X201012200Y-188878628D02*
X201774104Y-188878628D01*
X201381247Y-188211961D02*
X201166961Y-189926247D01*
X201238390Y-190116723D01*
X201416961Y-190211961D01*
X201607438Y-190211961D01*
X203047914Y-190116723D02*
X202845533Y-190211961D01*
X202464580Y-190211961D01*
X202286009Y-190116723D01*
X202214580Y-189926247D01*
X202309819Y-189164342D01*
X202428866Y-188973866D01*
X202631247Y-188878628D01*
X203012200Y-188878628D01*
X203190771Y-188973866D01*
X203262200Y-189164342D01*
X203238390Y-189354819D01*
X202262200Y-189545295D01*
X204155057Y-188878628D02*
X203988390Y-190211961D01*
X204131247Y-189069104D02*
X204238390Y-188973866D01*
X204440771Y-188878628D01*
X204726485Y-188878628D01*
X204905057Y-188973866D01*
X204976485Y-189164342D01*
X204845533Y-190211961D01*
X206655057Y-190211961D02*
X206905057Y-188211961D01*
X206666961Y-190116723D02*
X206464580Y-190211961D01*
X206083628Y-190211961D01*
X205905057Y-190116723D01*
X205821723Y-190021485D01*
X205750295Y-189831009D01*
X205821723Y-189259580D01*
X205940771Y-189069104D01*
X206047914Y-188973866D01*
X206250295Y-188878628D01*
X206631247Y-188878628D01*
X206809819Y-188973866D01*
X208381247Y-190116723D02*
X208178866Y-190211961D01*
X207797914Y-190211961D01*
X207619342Y-190116723D01*
X207547914Y-189926247D01*
X207643152Y-189164342D01*
X207762200Y-188973866D01*
X207964580Y-188878628D01*
X208345533Y-188878628D01*
X208524104Y-188973866D01*
X208595533Y-189164342D01*
X208571723Y-189354819D01*
X207595533Y-189545295D01*
X209321723Y-190211961D02*
X209488390Y-188878628D01*
X209440771Y-189259580D02*
X209559819Y-189069104D01*
X209666961Y-188973866D01*
X209869342Y-188878628D01*
X210059819Y-188878628D01*
D10*
D11*
X178934342Y-185600057D02*
X178434342Y-185600057D01*
X178434342Y-186385771D02*
X178434342Y-184885771D01*
X179148628Y-184885771D01*
X179720057Y-186385771D02*
X179720057Y-185385771D01*
X179720057Y-184885771D02*
X179648628Y-184957200D01*
X179720057Y-185028628D01*
X179791485Y-184957200D01*
X179720057Y-184885771D01*
X179720057Y-185028628D01*
X180648628Y-186385771D02*
X180505771Y-186314342D01*
X180434342Y-186171485D01*
X180434342Y-184885771D01*
X181791485Y-186314342D02*
X181648628Y-186385771D01*
X181362914Y-186385771D01*
X181220057Y-186314342D01*
X181148628Y-186171485D01*
X181148628Y-185600057D01*
X181220057Y-185457200D01*
X181362914Y-185385771D01*
X181648628Y-185385771D01*
X181791485Y-185457200D01*
X181862914Y-185600057D01*
X181862914Y-185742914D01*
X181148628Y-185885771D01*
X182505771Y-186242914D02*
X182577200Y-186314342D01*
X182505771Y-186385771D01*
X182434342Y-186314342D01*
X182505771Y-186242914D01*
X182505771Y-186385771D01*
X182505771Y-185457200D02*
X182577200Y-185528628D01*
X182505771Y-185600057D01*
X182434342Y-185528628D01*
X182505771Y-185457200D01*
X182505771Y-185600057D01*
X184362914Y-186385771D02*
X184362914Y-184885771D01*
X184934342Y-184885771D01*
X185077200Y-184957200D01*
X185148628Y-185028628D01*
X185220057Y-185171485D01*
X185220057Y-185385771D01*
X185148628Y-185528628D01*
X185077200Y-185600057D01*
X184934342Y-185671485D01*
X184362914Y-185671485D01*
X186648628Y-184957200D02*
X186505771Y-184885771D01*
X186291485Y-184885771D01*
X186077200Y-184957200D01*
X185934342Y-185100057D01*
X185862914Y-185242914D01*
X185791485Y-185528628D01*
X185791485Y-185742914D01*
X185862914Y-186028628D01*
X185934342Y-186171485D01*
X186077200Y-186314342D01*
X186291485Y-186385771D01*
X186434342Y-186385771D01*
X186648628Y-186314342D01*
X186720057Y-186242914D01*
X186720057Y-185742914D01*
X186434342Y-185742914D01*
X187362914Y-186385771D02*
X187362914Y-184885771D01*
X187934342Y-184885771D01*
X188077200Y-184957200D01*
X188148628Y-185028628D01*
X188220057Y-185171485D01*
X188220057Y-185385771D01*
X188148628Y-185528628D01*
X188077200Y-185600057D01*
X187934342Y-185671485D01*
X187362914Y-185671485D01*
X188862914Y-185600057D02*
X189362914Y-185600057D01*
X189577200Y-186385771D02*
X188862914Y-186385771D01*
X188862914Y-184885771D01*
X189577200Y-184885771D01*
X190077200Y-186385771D02*
X190862914Y-185385771D01*
X190077200Y-185385771D02*
X190862914Y-186385771D01*
X191220057Y-184885771D02*
X192077200Y-184885771D01*
X191648628Y-186385771D02*
X191648628Y-184885771D01*
X192220057Y-186528628D02*
X193362914Y-186528628D01*
X193577200Y-185385771D02*
X193934342Y-186385771D01*
X194291485Y-185385771D01*
X195648628Y-186385771D02*
X194791485Y-186385771D01*
X195220057Y-186385771D02*
X195220057Y-184885771D01*
X195077200Y-185100057D01*
X194934342Y-185242914D01*
X194791485Y-185314342D01*
X196291485Y-185814342D02*
X197434342Y-185814342D01*
X198934342Y-186385771D02*
X198077200Y-186385771D01*
X198505771Y-186385771D02*
X198505771Y-184885771D01*
X198362914Y-185100057D01*
X198220057Y-185242914D01*
X198077200Y-185314342D01*
X199577200Y-186242914D02*
X199648628Y-186314342D01*
X199577200Y-186385771D01*
X199505771Y-186314342D01*
X199577200Y-186242914D01*
X199577200Y-186385771D01*
X200291485Y-186385771D02*
X200291485Y-184885771D01*
X200434342Y-185814342D02*
X200862914Y-186385771D01*
X200862914Y-185385771D02*
X200291485Y-185957200D01*
X201505771Y-186385771D02*
X201505771Y-185385771D01*
X201505771Y-184885771D02*
X201434342Y-184957200D01*
X201505771Y-185028628D01*
X201577200Y-184957200D01*
X201505771Y-184885771D01*
X201505771Y-185028628D01*
X202862914Y-186314342D02*
X202720057Y-186385771D01*
X202434342Y-186385771D01*
X202291485Y-186314342D01*
X202220057Y-186242914D01*
X202148628Y-186100057D01*
X202148628Y-185671485D01*
X202220057Y-185528628D01*
X202291485Y-185457200D01*
X202434342Y-185385771D01*
X202720057Y-185385771D01*
X202862914Y-185457200D01*
X204148628Y-186385771D02*
X204148628Y-185600057D01*
X204077200Y-185457200D01*
X203934342Y-185385771D01*
X203648628Y-185385771D01*
X203505771Y-185457200D01*
X204148628Y-186314342D02*
X204005771Y-186385771D01*
X203648628Y-186385771D01*
X203505771Y-186314342D01*
X203434342Y-186171485D01*
X203434342Y-186028628D01*
X203505771Y-185885771D01*
X203648628Y-185814342D01*
X204005771Y-185814342D01*
X204148628Y-185742914D01*
X205505771Y-186385771D02*
X205505771Y-184885771D01*
X205505771Y-186314342D02*
X205362914Y-186385771D01*
X205077200Y-186385771D01*
X204934342Y-186314342D01*
X204862914Y-186242914D01*
X204791485Y-186100057D01*
X204791485Y-185671485D01*
X204862914Y-185528628D01*
X204934342Y-185457200D01*
X205077200Y-185385771D01*
X205362914Y-185385771D01*
X205505771Y-185457200D01*
X205862914Y-186528628D02*
X207005771Y-186528628D01*
X207362914Y-185385771D02*
X207362914Y-186885771D01*
X207362914Y-185457200D02*
X207505771Y-185385771D01*
X207791485Y-185385771D01*
X207934342Y-185457200D01*
X208005771Y-185528628D01*
X208077200Y-185671485D01*
X208077200Y-186100057D01*
X208005771Y-186242914D01*
X207934342Y-186314342D01*
X207791485Y-186385771D01*
X207505771Y-186385771D01*
X207362914Y-186314342D01*
X209362914Y-186314342D02*
X209220057Y-186385771D01*
X208934342Y-186385771D01*
X208791485Y-186314342D01*
X208720057Y-186242914D01*
X208648628Y-186100057D01*
X208648628Y-185671485D01*
X208720057Y-185528628D01*
X208791485Y-185457200D01*
X208934342Y-185385771D01*
X209220057Y-185385771D01*
X209362914Y-185457200D01*
X210005771Y-186385771D02*
X210005771Y-184885771D01*
X210005771Y-185457200D02*
X210148628Y-185385771D01*
X210434342Y-185385771D01*
X210577200Y-185457200D01*
X210648628Y-185528628D01*
X210720057Y-185671485D01*
X210720057Y-186100057D01*
X210648628Y-186242914D01*
X210577200Y-186314342D01*
X210434342Y-186385771D01*
X210148628Y-186385771D01*
X210005771Y-186314342D01*
D10*
D11*
X177002200Y-181507200D02*
X285002200Y-181507200D01*
D10*
D11*
X178362914Y-183614342D02*
X178577200Y-183685771D01*
X178934342Y-183685771D01*
X179077200Y-183614342D01*
X179148628Y-183542914D01*
X179220057Y-183400057D01*
X179220057Y-183257200D01*
X179148628Y-183114342D01*
X179077200Y-183042914D01*
X178934342Y-182971485D01*
X178648628Y-182900057D01*
X178505771Y-182828628D01*
X178434342Y-182757200D01*
X178362914Y-182614342D01*
X178362914Y-182471485D01*
X178434342Y-182328628D01*
X178505771Y-182257200D01*
X178648628Y-182185771D01*
X179005771Y-182185771D01*
X179220057Y-182257200D01*
X179862914Y-183685771D02*
X179862914Y-182185771D01*
X180505771Y-183685771D02*
X180505771Y-182900057D01*
X180434342Y-182757200D01*
X180291485Y-182685771D01*
X180077200Y-182685771D01*
X179934342Y-182757200D01*
X179862914Y-182828628D01*
X181791485Y-183614342D02*
X181648628Y-183685771D01*
X181362914Y-183685771D01*
X181220057Y-183614342D01*
X181148628Y-183471485D01*
X181148628Y-182900057D01*
X181220057Y-182757200D01*
X181362914Y-182685771D01*
X181648628Y-182685771D01*
X181791485Y-182757200D01*
X181862914Y-182900057D01*
X181862914Y-183042914D01*
X181148628Y-183185771D01*
X183077200Y-183614342D02*
X182934342Y-183685771D01*
X182648628Y-183685771D01*
X182505771Y-183614342D01*
X182434342Y-183471485D01*
X182434342Y-182900057D01*
X182505771Y-182757200D01*
X182648628Y-182685771D01*
X182934342Y-182685771D01*
X183077200Y-182757200D01*
X183148628Y-182900057D01*
X183148628Y-183042914D01*
X182434342Y-183185771D01*
X183577200Y-182685771D02*
X184148628Y-182685771D01*
X183791485Y-182185771D02*
X183791485Y-183471485D01*
X183862914Y-183614342D01*
X184005771Y-183685771D01*
X184148628Y-183685771D01*
X184648628Y-183542914D02*
X184720057Y-183614342D01*
X184648628Y-183685771D01*
X184577200Y-183614342D01*
X184648628Y-183542914D01*
X184648628Y-183685771D01*
X184648628Y-182757200D02*
X184720057Y-182828628D01*
X184648628Y-182900057D01*
X184577200Y-182828628D01*
X184648628Y-182757200D01*
X184648628Y-182900057D01*
D10*
D12*
X178411485Y-179185771D02*
X178768628Y-180685771D01*
X179054342Y-179614342D01*
X179340057Y-180685771D01*
X179697200Y-179185771D01*
X180268628Y-180685771D02*
X180268628Y-179185771D01*
X180911485Y-180685771D02*
X180911485Y-179900057D01*
X180840057Y-179757200D01*
X180697200Y-179685771D01*
X180482914Y-179685771D01*
X180340057Y-179757200D01*
X180268628Y-179828628D01*
X181840057Y-180685771D02*
X181697200Y-180614342D01*
X181625771Y-180542914D01*
X181554342Y-180400057D01*
X181554342Y-179971485D01*
X181625771Y-179828628D01*
X181697200Y-179757200D01*
X181840057Y-179685771D01*
X182054342Y-179685771D01*
X182197200Y-179757200D01*
X182268628Y-179828628D01*
X182340057Y-179971485D01*
X182340057Y-180400057D01*
X182268628Y-180542914D01*
X182197200Y-180614342D01*
X182054342Y-180685771D01*
X181840057Y-180685771D01*
X182768628Y-179185771D02*
X183625771Y-179185771D01*
X183197200Y-180685771D02*
X183197200Y-179185771D01*
X184125771Y-180685771D02*
X184125771Y-179185771D01*
X184768628Y-180685771D02*
X184768628Y-179900057D01*
X184697200Y-179757200D01*
X184554342Y-179685771D01*
X184340057Y-179685771D01*
X184197200Y-179757200D01*
X184125771Y-179828628D01*
X186054342Y-180614342D02*
X185911485Y-180685771D01*
X185625771Y-180685771D01*
X185482914Y-180614342D01*
X185411485Y-180471485D01*
X185411485Y-179900057D01*
X185482914Y-179757200D01*
X185625771Y-179685771D01*
X185911485Y-179685771D01*
X186054342Y-179757200D01*
X186125771Y-179900057D01*
X186125771Y-180042914D01*
X185411485Y-180185771D01*
X186768628Y-180685771D02*
X186768628Y-179185771D01*
X186768628Y-179900057D02*
X187625771Y-179900057D01*
X187625771Y-180685771D02*
X187625771Y-179185771D01*
X188911485Y-180614342D02*
X188768628Y-180685771D01*
X188482914Y-180685771D01*
X188340057Y-180614342D01*
X188268628Y-180471485D01*
X188268628Y-179900057D01*
X188340057Y-179757200D01*
X188482914Y-179685771D01*
X188768628Y-179685771D01*
X188911485Y-179757200D01*
X188982914Y-179900057D01*
X188982914Y-180042914D01*
X188268628Y-180185771D01*
X190268628Y-180614342D02*
X190125771Y-180685771D01*
X189840057Y-180685771D01*
X189697200Y-180614342D01*
X189625771Y-180542914D01*
X189554342Y-180400057D01*
X189554342Y-179971485D01*
X189625771Y-179828628D01*
X189697200Y-179757200D01*
X189840057Y-179685771D01*
X190125771Y-179685771D01*
X190268628Y-179757200D01*
X190911485Y-180685771D02*
X190911485Y-179185771D01*
X191054342Y-180114342D02*
X191482914Y-180685771D01*
X191482914Y-179685771D02*
X190911485Y-180257200D01*
D10*
D11*
X197002200Y-191507200D02*
X197002200Y-194507200D01*
D10*
D11*
X261002200Y-191507200D02*
X261002200Y-198007200D01*
D14*
X122000000Y-64400000D02*
X122000000Y-61900000D01*
X103500000Y-64400000D02*
X103500000Y-61900000D01*
X122000000Y-64400000D02*
X125500000Y-64400000D01*
X103500000Y-61900000D02*
X122000000Y-61900000D01*
X103989634Y-39250000D02*
X121500000Y-39250000D01*
X125500269Y-48509479D02*
G75*
G03X121500000Y-39250000I-12750269J-14521D01*
G01*
X103989634Y-39250000D02*
G75*
G03X100000000Y-48513827I8760366J-9263827D01*
G01*
X125500000Y-64400000D02*
X125500000Y-48513827D01*
X100000000Y-64400000D02*
X100000000Y-48513827D01*
X100000000Y-64400000D02*
X103500000Y-64400000D01*
D15*
G04 #@! TO.C,D4*
X123250000Y-46200000D03*
X123250000Y-47500000D03*
X121350000Y-47500000D03*
X121350000Y-46200000D03*
G04 #@! TD*
D16*
G04 #@! TO.C,SW1*
X114750000Y-41850000D03*
X112750000Y-41850000D03*
X110750000Y-41850000D03*
G04 #@! TD*
D10*
G04 #@! TO.C,C5*
G36*
X105757592Y-49651294D02*
X105783681Y-49655164D01*
X105809264Y-49661572D01*
X105834096Y-49670457D01*
X105857938Y-49681734D01*
X105880560Y-49695293D01*
X105901743Y-49711003D01*
X105921285Y-49728715D01*
X105938997Y-49748257D01*
X105954707Y-49769440D01*
X105968266Y-49792062D01*
X105979543Y-49815904D01*
X105988428Y-49840736D01*
X105994836Y-49866319D01*
X105998706Y-49892408D01*
X106000000Y-49918750D01*
X106000000Y-50881250D01*
X105998706Y-50907592D01*
X105994836Y-50933681D01*
X105988428Y-50959264D01*
X105979543Y-50984096D01*
X105968266Y-51007938D01*
X105954707Y-51030560D01*
X105938997Y-51051743D01*
X105921285Y-51071285D01*
X105901743Y-51088997D01*
X105880560Y-51104707D01*
X105857938Y-51118266D01*
X105834096Y-51129543D01*
X105809264Y-51138428D01*
X105783681Y-51144836D01*
X105757592Y-51148706D01*
X105731250Y-51150000D01*
X105193750Y-51150000D01*
X105167408Y-51148706D01*
X105141319Y-51144836D01*
X105115736Y-51138428D01*
X105090904Y-51129543D01*
X105067062Y-51118266D01*
X105044440Y-51104707D01*
X105023257Y-51088997D01*
X105003715Y-51071285D01*
X104986003Y-51051743D01*
X104970293Y-51030560D01*
X104956734Y-51007938D01*
X104945457Y-50984096D01*
X104936572Y-50959264D01*
X104930164Y-50933681D01*
X104926294Y-50907592D01*
X104925000Y-50881250D01*
X104925000Y-49918750D01*
X104926294Y-49892408D01*
X104930164Y-49866319D01*
X104936572Y-49840736D01*
X104945457Y-49815904D01*
X104956734Y-49792062D01*
X104970293Y-49769440D01*
X104986003Y-49748257D01*
X105003715Y-49728715D01*
X105023257Y-49711003D01*
X105044440Y-49695293D01*
X105067062Y-49681734D01*
X105090904Y-49670457D01*
X105115736Y-49661572D01*
X105141319Y-49655164D01*
X105167408Y-49651294D01*
X105193750Y-49650000D01*
X105731250Y-49650000D01*
X105757592Y-49651294D01*
X105757592Y-49651294D01*
G37*
D17*
X105462500Y-50400000D03*
D10*
G36*
X107632592Y-49651294D02*
X107658681Y-49655164D01*
X107684264Y-49661572D01*
X107709096Y-49670457D01*
X107732938Y-49681734D01*
X107755560Y-49695293D01*
X107776743Y-49711003D01*
X107796285Y-49728715D01*
X107813997Y-49748257D01*
X107829707Y-49769440D01*
X107843266Y-49792062D01*
X107854543Y-49815904D01*
X107863428Y-49840736D01*
X107869836Y-49866319D01*
X107873706Y-49892408D01*
X107875000Y-49918750D01*
X107875000Y-50881250D01*
X107873706Y-50907592D01*
X107869836Y-50933681D01*
X107863428Y-50959264D01*
X107854543Y-50984096D01*
X107843266Y-51007938D01*
X107829707Y-51030560D01*
X107813997Y-51051743D01*
X107796285Y-51071285D01*
X107776743Y-51088997D01*
X107755560Y-51104707D01*
X107732938Y-51118266D01*
X107709096Y-51129543D01*
X107684264Y-51138428D01*
X107658681Y-51144836D01*
X107632592Y-51148706D01*
X107606250Y-51150000D01*
X107068750Y-51150000D01*
X107042408Y-51148706D01*
X107016319Y-51144836D01*
X106990736Y-51138428D01*
X106965904Y-51129543D01*
X106942062Y-51118266D01*
X106919440Y-51104707D01*
X106898257Y-51088997D01*
X106878715Y-51071285D01*
X106861003Y-51051743D01*
X106845293Y-51030560D01*
X106831734Y-51007938D01*
X106820457Y-50984096D01*
X106811572Y-50959264D01*
X106805164Y-50933681D01*
X106801294Y-50907592D01*
X106800000Y-50881250D01*
X106800000Y-49918750D01*
X106801294Y-49892408D01*
X106805164Y-49866319D01*
X106811572Y-49840736D01*
X106820457Y-49815904D01*
X106831734Y-49792062D01*
X106845293Y-49769440D01*
X106861003Y-49748257D01*
X106878715Y-49728715D01*
X106898257Y-49711003D01*
X106919440Y-49695293D01*
X106942062Y-49681734D01*
X106965904Y-49670457D01*
X106990736Y-49661572D01*
X107016319Y-49655164D01*
X107042408Y-49651294D01*
X107068750Y-49650000D01*
X107606250Y-49650000D01*
X107632592Y-49651294D01*
X107632592Y-49651294D01*
G37*
D17*
X107337500Y-50400000D03*
G04 #@! TD*
D18*
G04 #@! TO.C,JP1*
X104550000Y-41600000D03*
D10*
G36*
X105059755Y-40800961D02*
X105069134Y-40803806D01*
X105077779Y-40808427D01*
X105085355Y-40814645D01*
X105091573Y-40822221D01*
X105096194Y-40830866D01*
X105099039Y-40840245D01*
X105100000Y-40850000D01*
X105100000Y-42350000D01*
X105099039Y-42359755D01*
X105096194Y-42369134D01*
X105091573Y-42377779D01*
X105085355Y-42385355D01*
X105077779Y-42391573D01*
X105069134Y-42396194D01*
X105059755Y-42399039D01*
X105050000Y-42400000D01*
X104550000Y-42400000D01*
X104543889Y-42399398D01*
X104525466Y-42399398D01*
X104520565Y-42399157D01*
X104471734Y-42394347D01*
X104466881Y-42393627D01*
X104418756Y-42384055D01*
X104413995Y-42382863D01*
X104367040Y-42368619D01*
X104362421Y-42366966D01*
X104317088Y-42348189D01*
X104312651Y-42346091D01*
X104269378Y-42322960D01*
X104265171Y-42320438D01*
X104224372Y-42293178D01*
X104220430Y-42290254D01*
X104182501Y-42259126D01*
X104178866Y-42255831D01*
X104144169Y-42221134D01*
X104140874Y-42217499D01*
X104109746Y-42179570D01*
X104106822Y-42175628D01*
X104079562Y-42134829D01*
X104077040Y-42130622D01*
X104053909Y-42087349D01*
X104051811Y-42082912D01*
X104033034Y-42037579D01*
X104031381Y-42032960D01*
X104017137Y-41986005D01*
X104015945Y-41981244D01*
X104006373Y-41933119D01*
X104005653Y-41928266D01*
X104000843Y-41879435D01*
X104000602Y-41874534D01*
X104000602Y-41856111D01*
X104000000Y-41850000D01*
X104000000Y-41350000D01*
X104000602Y-41343889D01*
X104000602Y-41325466D01*
X104000843Y-41320565D01*
X104005653Y-41271734D01*
X104006373Y-41266881D01*
X104015945Y-41218756D01*
X104017137Y-41213995D01*
X104031381Y-41167040D01*
X104033034Y-41162421D01*
X104051811Y-41117088D01*
X104053909Y-41112651D01*
X104077040Y-41069378D01*
X104079562Y-41065171D01*
X104106822Y-41024372D01*
X104109746Y-41020430D01*
X104140874Y-40982501D01*
X104144169Y-40978866D01*
X104178866Y-40944169D01*
X104182501Y-40940874D01*
X104220430Y-40909746D01*
X104224372Y-40906822D01*
X104265171Y-40879562D01*
X104269378Y-40877040D01*
X104312651Y-40853909D01*
X104317088Y-40851811D01*
X104362421Y-40833034D01*
X104367040Y-40831381D01*
X104413995Y-40817137D01*
X104418756Y-40815945D01*
X104466881Y-40806373D01*
X104471734Y-40805653D01*
X104520565Y-40800843D01*
X104525466Y-40800602D01*
X104543889Y-40800602D01*
X104550000Y-40800000D01*
X105050000Y-40800000D01*
X105059755Y-40800961D01*
X105059755Y-40800961D01*
G37*
D18*
X105850000Y-41600000D03*
D10*
G36*
X105856111Y-40800602D02*
X105874534Y-40800602D01*
X105879435Y-40800843D01*
X105928266Y-40805653D01*
X105933119Y-40806373D01*
X105981244Y-40815945D01*
X105986005Y-40817137D01*
X106032960Y-40831381D01*
X106037579Y-40833034D01*
X106082912Y-40851811D01*
X106087349Y-40853909D01*
X106130622Y-40877040D01*
X106134829Y-40879562D01*
X106175628Y-40906822D01*
X106179570Y-40909746D01*
X106217499Y-40940874D01*
X106221134Y-40944169D01*
X106255831Y-40978866D01*
X106259126Y-40982501D01*
X106290254Y-41020430D01*
X106293178Y-41024372D01*
X106320438Y-41065171D01*
X106322960Y-41069378D01*
X106346091Y-41112651D01*
X106348189Y-41117088D01*
X106366966Y-41162421D01*
X106368619Y-41167040D01*
X106382863Y-41213995D01*
X106384055Y-41218756D01*
X106393627Y-41266881D01*
X106394347Y-41271734D01*
X106399157Y-41320565D01*
X106399398Y-41325466D01*
X106399398Y-41343889D01*
X106400000Y-41350000D01*
X106400000Y-41850000D01*
X106399398Y-41856111D01*
X106399398Y-41874534D01*
X106399157Y-41879435D01*
X106394347Y-41928266D01*
X106393627Y-41933119D01*
X106384055Y-41981244D01*
X106382863Y-41986005D01*
X106368619Y-42032960D01*
X106366966Y-42037579D01*
X106348189Y-42082912D01*
X106346091Y-42087349D01*
X106322960Y-42130622D01*
X106320438Y-42134829D01*
X106293178Y-42175628D01*
X106290254Y-42179570D01*
X106259126Y-42217499D01*
X106255831Y-42221134D01*
X106221134Y-42255831D01*
X106217499Y-42259126D01*
X106179570Y-42290254D01*
X106175628Y-42293178D01*
X106134829Y-42320438D01*
X106130622Y-42322960D01*
X106087349Y-42346091D01*
X106082912Y-42348189D01*
X106037579Y-42366966D01*
X106032960Y-42368619D01*
X105986005Y-42382863D01*
X105981244Y-42384055D01*
X105933119Y-42393627D01*
X105928266Y-42394347D01*
X105879435Y-42399157D01*
X105874534Y-42399398D01*
X105856111Y-42399398D01*
X105850000Y-42400000D01*
X105350000Y-42400000D01*
X105340245Y-42399039D01*
X105330866Y-42396194D01*
X105322221Y-42391573D01*
X105314645Y-42385355D01*
X105308427Y-42377779D01*
X105303806Y-42369134D01*
X105300961Y-42359755D01*
X105300000Y-42350000D01*
X105300000Y-40850000D01*
X105300961Y-40840245D01*
X105303806Y-40830866D01*
X105308427Y-40822221D01*
X105314645Y-40814645D01*
X105322221Y-40808427D01*
X105330866Y-40803806D01*
X105340245Y-40800961D01*
X105350000Y-40800000D01*
X105850000Y-40800000D01*
X105856111Y-40800602D01*
X105856111Y-40800602D01*
G37*
G04 #@! TD*
D19*
G04 #@! TO.C,W3*
X101600000Y-50500000D03*
G04 #@! TD*
G04 #@! TO.C,W4*
X124000000Y-50400000D03*
G04 #@! TD*
G04 #@! TO.C,W11*
X114900000Y-55900000D03*
G04 #@! TD*
G04 #@! TO.C,W12*
X122400000Y-57900000D03*
G04 #@! TD*
G04 #@! TO.C,W13*
X120900000Y-55900000D03*
G04 #@! TD*
G04 #@! TO.C,W14*
X119400000Y-57900000D03*
G04 #@! TD*
G04 #@! TO.C,W15*
X116400000Y-57900000D03*
G04 #@! TD*
G04 #@! TO.C,W17*
X117900000Y-55900000D03*
G04 #@! TD*
D10*
G04 #@! TO.C,C1*
G36*
X103960592Y-44601294D02*
X103986681Y-44605164D01*
X104012264Y-44611572D01*
X104037096Y-44620457D01*
X104060938Y-44631734D01*
X104083560Y-44645293D01*
X104104743Y-44661003D01*
X104124285Y-44678715D01*
X104141997Y-44698257D01*
X104157707Y-44719440D01*
X104171266Y-44742062D01*
X104182543Y-44765904D01*
X104191428Y-44790736D01*
X104197836Y-44816319D01*
X104201706Y-44842408D01*
X104203000Y-44868750D01*
X104203000Y-45406250D01*
X104201706Y-45432592D01*
X104197836Y-45458681D01*
X104191428Y-45484264D01*
X104182543Y-45509096D01*
X104171266Y-45532938D01*
X104157707Y-45555560D01*
X104141997Y-45576743D01*
X104124285Y-45596285D01*
X104104743Y-45613997D01*
X104083560Y-45629707D01*
X104060938Y-45643266D01*
X104037096Y-45654543D01*
X104012264Y-45663428D01*
X103986681Y-45669836D01*
X103960592Y-45673706D01*
X103934250Y-45675000D01*
X102971750Y-45675000D01*
X102945408Y-45673706D01*
X102919319Y-45669836D01*
X102893736Y-45663428D01*
X102868904Y-45654543D01*
X102845062Y-45643266D01*
X102822440Y-45629707D01*
X102801257Y-45613997D01*
X102781715Y-45596285D01*
X102764003Y-45576743D01*
X102748293Y-45555560D01*
X102734734Y-45532938D01*
X102723457Y-45509096D01*
X102714572Y-45484264D01*
X102708164Y-45458681D01*
X102704294Y-45432592D01*
X102703000Y-45406250D01*
X102703000Y-44868750D01*
X102704294Y-44842408D01*
X102708164Y-44816319D01*
X102714572Y-44790736D01*
X102723457Y-44765904D01*
X102734734Y-44742062D01*
X102748293Y-44719440D01*
X102764003Y-44698257D01*
X102781715Y-44678715D01*
X102801257Y-44661003D01*
X102822440Y-44645293D01*
X102845062Y-44631734D01*
X102868904Y-44620457D01*
X102893736Y-44611572D01*
X102919319Y-44605164D01*
X102945408Y-44601294D01*
X102971750Y-44600000D01*
X103934250Y-44600000D01*
X103960592Y-44601294D01*
X103960592Y-44601294D01*
G37*
D17*
X103453000Y-45137500D03*
D10*
G36*
X103960592Y-46476294D02*
X103986681Y-46480164D01*
X104012264Y-46486572D01*
X104037096Y-46495457D01*
X104060938Y-46506734D01*
X104083560Y-46520293D01*
X104104743Y-46536003D01*
X104124285Y-46553715D01*
X104141997Y-46573257D01*
X104157707Y-46594440D01*
X104171266Y-46617062D01*
X104182543Y-46640904D01*
X104191428Y-46665736D01*
X104197836Y-46691319D01*
X104201706Y-46717408D01*
X104203000Y-46743750D01*
X104203000Y-47281250D01*
X104201706Y-47307592D01*
X104197836Y-47333681D01*
X104191428Y-47359264D01*
X104182543Y-47384096D01*
X104171266Y-47407938D01*
X104157707Y-47430560D01*
X104141997Y-47451743D01*
X104124285Y-47471285D01*
X104104743Y-47488997D01*
X104083560Y-47504707D01*
X104060938Y-47518266D01*
X104037096Y-47529543D01*
X104012264Y-47538428D01*
X103986681Y-47544836D01*
X103960592Y-47548706D01*
X103934250Y-47550000D01*
X102971750Y-47550000D01*
X102945408Y-47548706D01*
X102919319Y-47544836D01*
X102893736Y-47538428D01*
X102868904Y-47529543D01*
X102845062Y-47518266D01*
X102822440Y-47504707D01*
X102801257Y-47488997D01*
X102781715Y-47471285D01*
X102764003Y-47451743D01*
X102748293Y-47430560D01*
X102734734Y-47407938D01*
X102723457Y-47384096D01*
X102714572Y-47359264D01*
X102708164Y-47333681D01*
X102704294Y-47307592D01*
X102703000Y-47281250D01*
X102703000Y-46743750D01*
X102704294Y-46717408D01*
X102708164Y-46691319D01*
X102714572Y-46665736D01*
X102723457Y-46640904D01*
X102734734Y-46617062D01*
X102748293Y-46594440D01*
X102764003Y-46573257D01*
X102781715Y-46553715D01*
X102801257Y-46536003D01*
X102822440Y-46520293D01*
X102845062Y-46506734D01*
X102868904Y-46495457D01*
X102893736Y-46486572D01*
X102919319Y-46480164D01*
X102945408Y-46476294D01*
X102971750Y-46475000D01*
X103934250Y-46475000D01*
X103960592Y-46476294D01*
X103960592Y-46476294D01*
G37*
D17*
X103453000Y-47012500D03*
G04 #@! TD*
D10*
G04 #@! TO.C,C2*
G36*
X105757592Y-51951294D02*
X105783681Y-51955164D01*
X105809264Y-51961572D01*
X105834096Y-51970457D01*
X105857938Y-51981734D01*
X105880560Y-51995293D01*
X105901743Y-52011003D01*
X105921285Y-52028715D01*
X105938997Y-52048257D01*
X105954707Y-52069440D01*
X105968266Y-52092062D01*
X105979543Y-52115904D01*
X105988428Y-52140736D01*
X105994836Y-52166319D01*
X105998706Y-52192408D01*
X106000000Y-52218750D01*
X106000000Y-53181250D01*
X105998706Y-53207592D01*
X105994836Y-53233681D01*
X105988428Y-53259264D01*
X105979543Y-53284096D01*
X105968266Y-53307938D01*
X105954707Y-53330560D01*
X105938997Y-53351743D01*
X105921285Y-53371285D01*
X105901743Y-53388997D01*
X105880560Y-53404707D01*
X105857938Y-53418266D01*
X105834096Y-53429543D01*
X105809264Y-53438428D01*
X105783681Y-53444836D01*
X105757592Y-53448706D01*
X105731250Y-53450000D01*
X105193750Y-53450000D01*
X105167408Y-53448706D01*
X105141319Y-53444836D01*
X105115736Y-53438428D01*
X105090904Y-53429543D01*
X105067062Y-53418266D01*
X105044440Y-53404707D01*
X105023257Y-53388997D01*
X105003715Y-53371285D01*
X104986003Y-53351743D01*
X104970293Y-53330560D01*
X104956734Y-53307938D01*
X104945457Y-53284096D01*
X104936572Y-53259264D01*
X104930164Y-53233681D01*
X104926294Y-53207592D01*
X104925000Y-53181250D01*
X104925000Y-52218750D01*
X104926294Y-52192408D01*
X104930164Y-52166319D01*
X104936572Y-52140736D01*
X104945457Y-52115904D01*
X104956734Y-52092062D01*
X104970293Y-52069440D01*
X104986003Y-52048257D01*
X105003715Y-52028715D01*
X105023257Y-52011003D01*
X105044440Y-51995293D01*
X105067062Y-51981734D01*
X105090904Y-51970457D01*
X105115736Y-51961572D01*
X105141319Y-51955164D01*
X105167408Y-51951294D01*
X105193750Y-51950000D01*
X105731250Y-51950000D01*
X105757592Y-51951294D01*
X105757592Y-51951294D01*
G37*
D17*
X105462500Y-52700000D03*
D10*
G36*
X107632592Y-51951294D02*
X107658681Y-51955164D01*
X107684264Y-51961572D01*
X107709096Y-51970457D01*
X107732938Y-51981734D01*
X107755560Y-51995293D01*
X107776743Y-52011003D01*
X107796285Y-52028715D01*
X107813997Y-52048257D01*
X107829707Y-52069440D01*
X107843266Y-52092062D01*
X107854543Y-52115904D01*
X107863428Y-52140736D01*
X107869836Y-52166319D01*
X107873706Y-52192408D01*
X107875000Y-52218750D01*
X107875000Y-53181250D01*
X107873706Y-53207592D01*
X107869836Y-53233681D01*
X107863428Y-53259264D01*
X107854543Y-53284096D01*
X107843266Y-53307938D01*
X107829707Y-53330560D01*
X107813997Y-53351743D01*
X107796285Y-53371285D01*
X107776743Y-53388997D01*
X107755560Y-53404707D01*
X107732938Y-53418266D01*
X107709096Y-53429543D01*
X107684264Y-53438428D01*
X107658681Y-53444836D01*
X107632592Y-53448706D01*
X107606250Y-53450000D01*
X107068750Y-53450000D01*
X107042408Y-53448706D01*
X107016319Y-53444836D01*
X106990736Y-53438428D01*
X106965904Y-53429543D01*
X106942062Y-53418266D01*
X106919440Y-53404707D01*
X106898257Y-53388997D01*
X106878715Y-53371285D01*
X106861003Y-53351743D01*
X106845293Y-53330560D01*
X106831734Y-53307938D01*
X106820457Y-53284096D01*
X106811572Y-53259264D01*
X106805164Y-53233681D01*
X106801294Y-53207592D01*
X106800000Y-53181250D01*
X106800000Y-52218750D01*
X106801294Y-52192408D01*
X106805164Y-52166319D01*
X106811572Y-52140736D01*
X106820457Y-52115904D01*
X106831734Y-52092062D01*
X106845293Y-52069440D01*
X106861003Y-52048257D01*
X106878715Y-52028715D01*
X106898257Y-52011003D01*
X106919440Y-51995293D01*
X106942062Y-51981734D01*
X106965904Y-51970457D01*
X106990736Y-51961572D01*
X107016319Y-51955164D01*
X107042408Y-51951294D01*
X107068750Y-51950000D01*
X107606250Y-51950000D01*
X107632592Y-51951294D01*
X107632592Y-51951294D01*
G37*
D17*
X107337500Y-52700000D03*
G04 #@! TD*
D10*
G04 #@! TO.C,C7*
G36*
X120032592Y-47265121D02*
X120058681Y-47268991D01*
X120084264Y-47275399D01*
X120109096Y-47284284D01*
X120132938Y-47295561D01*
X120155560Y-47309120D01*
X120176743Y-47324830D01*
X120196285Y-47342542D01*
X120213997Y-47362084D01*
X120229707Y-47383267D01*
X120243266Y-47405889D01*
X120254543Y-47429731D01*
X120263428Y-47454563D01*
X120269836Y-47480146D01*
X120273706Y-47506235D01*
X120275000Y-47532577D01*
X120275000Y-48495077D01*
X120273706Y-48521419D01*
X120269836Y-48547508D01*
X120263428Y-48573091D01*
X120254543Y-48597923D01*
X120243266Y-48621765D01*
X120229707Y-48644387D01*
X120213997Y-48665570D01*
X120196285Y-48685112D01*
X120176743Y-48702824D01*
X120155560Y-48718534D01*
X120132938Y-48732093D01*
X120109096Y-48743370D01*
X120084264Y-48752255D01*
X120058681Y-48758663D01*
X120032592Y-48762533D01*
X120006250Y-48763827D01*
X119468750Y-48763827D01*
X119442408Y-48762533D01*
X119416319Y-48758663D01*
X119390736Y-48752255D01*
X119365904Y-48743370D01*
X119342062Y-48732093D01*
X119319440Y-48718534D01*
X119298257Y-48702824D01*
X119278715Y-48685112D01*
X119261003Y-48665570D01*
X119245293Y-48644387D01*
X119231734Y-48621765D01*
X119220457Y-48597923D01*
X119211572Y-48573091D01*
X119205164Y-48547508D01*
X119201294Y-48521419D01*
X119200000Y-48495077D01*
X119200000Y-47532577D01*
X119201294Y-47506235D01*
X119205164Y-47480146D01*
X119211572Y-47454563D01*
X119220457Y-47429731D01*
X119231734Y-47405889D01*
X119245293Y-47383267D01*
X119261003Y-47362084D01*
X119278715Y-47342542D01*
X119298257Y-47324830D01*
X119319440Y-47309120D01*
X119342062Y-47295561D01*
X119365904Y-47284284D01*
X119390736Y-47275399D01*
X119416319Y-47268991D01*
X119442408Y-47265121D01*
X119468750Y-47263827D01*
X120006250Y-47263827D01*
X120032592Y-47265121D01*
X120032592Y-47265121D01*
G37*
D17*
X119737500Y-48013827D03*
D10*
G36*
X118157592Y-47265121D02*
X118183681Y-47268991D01*
X118209264Y-47275399D01*
X118234096Y-47284284D01*
X118257938Y-47295561D01*
X118280560Y-47309120D01*
X118301743Y-47324830D01*
X118321285Y-47342542D01*
X118338997Y-47362084D01*
X118354707Y-47383267D01*
X118368266Y-47405889D01*
X118379543Y-47429731D01*
X118388428Y-47454563D01*
X118394836Y-47480146D01*
X118398706Y-47506235D01*
X118400000Y-47532577D01*
X118400000Y-48495077D01*
X118398706Y-48521419D01*
X118394836Y-48547508D01*
X118388428Y-48573091D01*
X118379543Y-48597923D01*
X118368266Y-48621765D01*
X118354707Y-48644387D01*
X118338997Y-48665570D01*
X118321285Y-48685112D01*
X118301743Y-48702824D01*
X118280560Y-48718534D01*
X118257938Y-48732093D01*
X118234096Y-48743370D01*
X118209264Y-48752255D01*
X118183681Y-48758663D01*
X118157592Y-48762533D01*
X118131250Y-48763827D01*
X117593750Y-48763827D01*
X117567408Y-48762533D01*
X117541319Y-48758663D01*
X117515736Y-48752255D01*
X117490904Y-48743370D01*
X117467062Y-48732093D01*
X117444440Y-48718534D01*
X117423257Y-48702824D01*
X117403715Y-48685112D01*
X117386003Y-48665570D01*
X117370293Y-48644387D01*
X117356734Y-48621765D01*
X117345457Y-48597923D01*
X117336572Y-48573091D01*
X117330164Y-48547508D01*
X117326294Y-48521419D01*
X117325000Y-48495077D01*
X117325000Y-47532577D01*
X117326294Y-47506235D01*
X117330164Y-47480146D01*
X117336572Y-47454563D01*
X117345457Y-47429731D01*
X117356734Y-47405889D01*
X117370293Y-47383267D01*
X117386003Y-47362084D01*
X117403715Y-47342542D01*
X117423257Y-47324830D01*
X117444440Y-47309120D01*
X117467062Y-47295561D01*
X117490904Y-47284284D01*
X117515736Y-47275399D01*
X117541319Y-47268991D01*
X117567408Y-47265121D01*
X117593750Y-47263827D01*
X118131250Y-47263827D01*
X118157592Y-47265121D01*
X118157592Y-47265121D01*
G37*
D17*
X117862500Y-48013827D03*
G04 #@! TD*
D10*
G04 #@! TO.C,R2*
G36*
X105854142Y-44662174D02*
X105877803Y-44665684D01*
X105901007Y-44671496D01*
X105923529Y-44679554D01*
X105945153Y-44689782D01*
X105965670Y-44702079D01*
X105984883Y-44716329D01*
X106002607Y-44732393D01*
X106018671Y-44750117D01*
X106032921Y-44769330D01*
X106045218Y-44789847D01*
X106055446Y-44811471D01*
X106063504Y-44833993D01*
X106069316Y-44857197D01*
X106072826Y-44880858D01*
X106074000Y-44904750D01*
X106074000Y-45467250D01*
X106072826Y-45491142D01*
X106069316Y-45514803D01*
X106063504Y-45538007D01*
X106055446Y-45560529D01*
X106045218Y-45582153D01*
X106032921Y-45602670D01*
X106018671Y-45621883D01*
X106002607Y-45639607D01*
X105984883Y-45655671D01*
X105965670Y-45669921D01*
X105945153Y-45682218D01*
X105923529Y-45692446D01*
X105901007Y-45700504D01*
X105877803Y-45706316D01*
X105854142Y-45709826D01*
X105830250Y-45711000D01*
X105342750Y-45711000D01*
X105318858Y-45709826D01*
X105295197Y-45706316D01*
X105271993Y-45700504D01*
X105249471Y-45692446D01*
X105227847Y-45682218D01*
X105207330Y-45669921D01*
X105188117Y-45655671D01*
X105170393Y-45639607D01*
X105154329Y-45621883D01*
X105140079Y-45602670D01*
X105127782Y-45582153D01*
X105117554Y-45560529D01*
X105109496Y-45538007D01*
X105103684Y-45514803D01*
X105100174Y-45491142D01*
X105099000Y-45467250D01*
X105099000Y-44904750D01*
X105100174Y-44880858D01*
X105103684Y-44857197D01*
X105109496Y-44833993D01*
X105117554Y-44811471D01*
X105127782Y-44789847D01*
X105140079Y-44769330D01*
X105154329Y-44750117D01*
X105170393Y-44732393D01*
X105188117Y-44716329D01*
X105207330Y-44702079D01*
X105227847Y-44689782D01*
X105249471Y-44679554D01*
X105271993Y-44671496D01*
X105295197Y-44665684D01*
X105318858Y-44662174D01*
X105342750Y-44661000D01*
X105830250Y-44661000D01*
X105854142Y-44662174D01*
X105854142Y-44662174D01*
G37*
D20*
X105586500Y-45186000D03*
D10*
G36*
X107429142Y-44662174D02*
X107452803Y-44665684D01*
X107476007Y-44671496D01*
X107498529Y-44679554D01*
X107520153Y-44689782D01*
X107540670Y-44702079D01*
X107559883Y-44716329D01*
X107577607Y-44732393D01*
X107593671Y-44750117D01*
X107607921Y-44769330D01*
X107620218Y-44789847D01*
X107630446Y-44811471D01*
X107638504Y-44833993D01*
X107644316Y-44857197D01*
X107647826Y-44880858D01*
X107649000Y-44904750D01*
X107649000Y-45467250D01*
X107647826Y-45491142D01*
X107644316Y-45514803D01*
X107638504Y-45538007D01*
X107630446Y-45560529D01*
X107620218Y-45582153D01*
X107607921Y-45602670D01*
X107593671Y-45621883D01*
X107577607Y-45639607D01*
X107559883Y-45655671D01*
X107540670Y-45669921D01*
X107520153Y-45682218D01*
X107498529Y-45692446D01*
X107476007Y-45700504D01*
X107452803Y-45706316D01*
X107429142Y-45709826D01*
X107405250Y-45711000D01*
X106917750Y-45711000D01*
X106893858Y-45709826D01*
X106870197Y-45706316D01*
X106846993Y-45700504D01*
X106824471Y-45692446D01*
X106802847Y-45682218D01*
X106782330Y-45669921D01*
X106763117Y-45655671D01*
X106745393Y-45639607D01*
X106729329Y-45621883D01*
X106715079Y-45602670D01*
X106702782Y-45582153D01*
X106692554Y-45560529D01*
X106684496Y-45538007D01*
X106678684Y-45514803D01*
X106675174Y-45491142D01*
X106674000Y-45467250D01*
X106674000Y-44904750D01*
X106675174Y-44880858D01*
X106678684Y-44857197D01*
X106684496Y-44833993D01*
X106692554Y-44811471D01*
X106702782Y-44789847D01*
X106715079Y-44769330D01*
X106729329Y-44750117D01*
X106745393Y-44732393D01*
X106763117Y-44716329D01*
X106782330Y-44702079D01*
X106802847Y-44689782D01*
X106824471Y-44679554D01*
X106846993Y-44671496D01*
X106870197Y-44665684D01*
X106893858Y-44662174D01*
X106917750Y-44661000D01*
X107405250Y-44661000D01*
X107429142Y-44662174D01*
X107429142Y-44662174D01*
G37*
D20*
X107161500Y-45186000D03*
G04 #@! TD*
D10*
G04 #@! TO.C,R3*
G36*
X107429142Y-46440174D02*
X107452803Y-46443684D01*
X107476007Y-46449496D01*
X107498529Y-46457554D01*
X107520153Y-46467782D01*
X107540670Y-46480079D01*
X107559883Y-46494329D01*
X107577607Y-46510393D01*
X107593671Y-46528117D01*
X107607921Y-46547330D01*
X107620218Y-46567847D01*
X107630446Y-46589471D01*
X107638504Y-46611993D01*
X107644316Y-46635197D01*
X107647826Y-46658858D01*
X107649000Y-46682750D01*
X107649000Y-47245250D01*
X107647826Y-47269142D01*
X107644316Y-47292803D01*
X107638504Y-47316007D01*
X107630446Y-47338529D01*
X107620218Y-47360153D01*
X107607921Y-47380670D01*
X107593671Y-47399883D01*
X107577607Y-47417607D01*
X107559883Y-47433671D01*
X107540670Y-47447921D01*
X107520153Y-47460218D01*
X107498529Y-47470446D01*
X107476007Y-47478504D01*
X107452803Y-47484316D01*
X107429142Y-47487826D01*
X107405250Y-47489000D01*
X106917750Y-47489000D01*
X106893858Y-47487826D01*
X106870197Y-47484316D01*
X106846993Y-47478504D01*
X106824471Y-47470446D01*
X106802847Y-47460218D01*
X106782330Y-47447921D01*
X106763117Y-47433671D01*
X106745393Y-47417607D01*
X106729329Y-47399883D01*
X106715079Y-47380670D01*
X106702782Y-47360153D01*
X106692554Y-47338529D01*
X106684496Y-47316007D01*
X106678684Y-47292803D01*
X106675174Y-47269142D01*
X106674000Y-47245250D01*
X106674000Y-46682750D01*
X106675174Y-46658858D01*
X106678684Y-46635197D01*
X106684496Y-46611993D01*
X106692554Y-46589471D01*
X106702782Y-46567847D01*
X106715079Y-46547330D01*
X106729329Y-46528117D01*
X106745393Y-46510393D01*
X106763117Y-46494329D01*
X106782330Y-46480079D01*
X106802847Y-46467782D01*
X106824471Y-46457554D01*
X106846993Y-46449496D01*
X106870197Y-46443684D01*
X106893858Y-46440174D01*
X106917750Y-46439000D01*
X107405250Y-46439000D01*
X107429142Y-46440174D01*
X107429142Y-46440174D01*
G37*
D20*
X107161500Y-46964000D03*
D10*
G36*
X105854142Y-46440174D02*
X105877803Y-46443684D01*
X105901007Y-46449496D01*
X105923529Y-46457554D01*
X105945153Y-46467782D01*
X105965670Y-46480079D01*
X105984883Y-46494329D01*
X106002607Y-46510393D01*
X106018671Y-46528117D01*
X106032921Y-46547330D01*
X106045218Y-46567847D01*
X106055446Y-46589471D01*
X106063504Y-46611993D01*
X106069316Y-46635197D01*
X106072826Y-46658858D01*
X106074000Y-46682750D01*
X106074000Y-47245250D01*
X106072826Y-47269142D01*
X106069316Y-47292803D01*
X106063504Y-47316007D01*
X106055446Y-47338529D01*
X106045218Y-47360153D01*
X106032921Y-47380670D01*
X106018671Y-47399883D01*
X106002607Y-47417607D01*
X105984883Y-47433671D01*
X105965670Y-47447921D01*
X105945153Y-47460218D01*
X105923529Y-47470446D01*
X105901007Y-47478504D01*
X105877803Y-47484316D01*
X105854142Y-47487826D01*
X105830250Y-47489000D01*
X105342750Y-47489000D01*
X105318858Y-47487826D01*
X105295197Y-47484316D01*
X105271993Y-47478504D01*
X105249471Y-47470446D01*
X105227847Y-47460218D01*
X105207330Y-47447921D01*
X105188117Y-47433671D01*
X105170393Y-47417607D01*
X105154329Y-47399883D01*
X105140079Y-47380670D01*
X105127782Y-47360153D01*
X105117554Y-47338529D01*
X105109496Y-47316007D01*
X105103684Y-47292803D01*
X105100174Y-47269142D01*
X105099000Y-47245250D01*
X105099000Y-46682750D01*
X105100174Y-46658858D01*
X105103684Y-46635197D01*
X105109496Y-46611993D01*
X105117554Y-46589471D01*
X105127782Y-46567847D01*
X105140079Y-46547330D01*
X105154329Y-46528117D01*
X105170393Y-46510393D01*
X105188117Y-46494329D01*
X105207330Y-46480079D01*
X105227847Y-46467782D01*
X105249471Y-46457554D01*
X105271993Y-46449496D01*
X105295197Y-46443684D01*
X105318858Y-46440174D01*
X105342750Y-46439000D01*
X105830250Y-46439000D01*
X105854142Y-46440174D01*
X105854142Y-46440174D01*
G37*
D20*
X105586500Y-46964000D03*
G04 #@! TD*
D10*
G04 #@! TO.C,R11*
G36*
X121780142Y-43740001D02*
X121803803Y-43743511D01*
X121827007Y-43749323D01*
X121849529Y-43757381D01*
X121871153Y-43767609D01*
X121891670Y-43779906D01*
X121910883Y-43794156D01*
X121928607Y-43810220D01*
X121944671Y-43827944D01*
X121958921Y-43847157D01*
X121971218Y-43867674D01*
X121981446Y-43889298D01*
X121989504Y-43911820D01*
X121995316Y-43935024D01*
X121998826Y-43958685D01*
X122000000Y-43982577D01*
X122000000Y-44545077D01*
X121998826Y-44568969D01*
X121995316Y-44592630D01*
X121989504Y-44615834D01*
X121981446Y-44638356D01*
X121971218Y-44659980D01*
X121958921Y-44680497D01*
X121944671Y-44699710D01*
X121928607Y-44717434D01*
X121910883Y-44733498D01*
X121891670Y-44747748D01*
X121871153Y-44760045D01*
X121849529Y-44770273D01*
X121827007Y-44778331D01*
X121803803Y-44784143D01*
X121780142Y-44787653D01*
X121756250Y-44788827D01*
X121268750Y-44788827D01*
X121244858Y-44787653D01*
X121221197Y-44784143D01*
X121197993Y-44778331D01*
X121175471Y-44770273D01*
X121153847Y-44760045D01*
X121133330Y-44747748D01*
X121114117Y-44733498D01*
X121096393Y-44717434D01*
X121080329Y-44699710D01*
X121066079Y-44680497D01*
X121053782Y-44659980D01*
X121043554Y-44638356D01*
X121035496Y-44615834D01*
X121029684Y-44592630D01*
X121026174Y-44568969D01*
X121025000Y-44545077D01*
X121025000Y-43982577D01*
X121026174Y-43958685D01*
X121029684Y-43935024D01*
X121035496Y-43911820D01*
X121043554Y-43889298D01*
X121053782Y-43867674D01*
X121066079Y-43847157D01*
X121080329Y-43827944D01*
X121096393Y-43810220D01*
X121114117Y-43794156D01*
X121133330Y-43779906D01*
X121153847Y-43767609D01*
X121175471Y-43757381D01*
X121197993Y-43749323D01*
X121221197Y-43743511D01*
X121244858Y-43740001D01*
X121268750Y-43738827D01*
X121756250Y-43738827D01*
X121780142Y-43740001D01*
X121780142Y-43740001D01*
G37*
D20*
X121512500Y-44263827D03*
D10*
G36*
X123355142Y-43740001D02*
X123378803Y-43743511D01*
X123402007Y-43749323D01*
X123424529Y-43757381D01*
X123446153Y-43767609D01*
X123466670Y-43779906D01*
X123485883Y-43794156D01*
X123503607Y-43810220D01*
X123519671Y-43827944D01*
X123533921Y-43847157D01*
X123546218Y-43867674D01*
X123556446Y-43889298D01*
X123564504Y-43911820D01*
X123570316Y-43935024D01*
X123573826Y-43958685D01*
X123575000Y-43982577D01*
X123575000Y-44545077D01*
X123573826Y-44568969D01*
X123570316Y-44592630D01*
X123564504Y-44615834D01*
X123556446Y-44638356D01*
X123546218Y-44659980D01*
X123533921Y-44680497D01*
X123519671Y-44699710D01*
X123503607Y-44717434D01*
X123485883Y-44733498D01*
X123466670Y-44747748D01*
X123446153Y-44760045D01*
X123424529Y-44770273D01*
X123402007Y-44778331D01*
X123378803Y-44784143D01*
X123355142Y-44787653D01*
X123331250Y-44788827D01*
X122843750Y-44788827D01*
X122819858Y-44787653D01*
X122796197Y-44784143D01*
X122772993Y-44778331D01*
X122750471Y-44770273D01*
X122728847Y-44760045D01*
X122708330Y-44747748D01*
X122689117Y-44733498D01*
X122671393Y-44717434D01*
X122655329Y-44699710D01*
X122641079Y-44680497D01*
X122628782Y-44659980D01*
X122618554Y-44638356D01*
X122610496Y-44615834D01*
X122604684Y-44592630D01*
X122601174Y-44568969D01*
X122600000Y-44545077D01*
X122600000Y-43982577D01*
X122601174Y-43958685D01*
X122604684Y-43935024D01*
X122610496Y-43911820D01*
X122618554Y-43889298D01*
X122628782Y-43867674D01*
X122641079Y-43847157D01*
X122655329Y-43827944D01*
X122671393Y-43810220D01*
X122689117Y-43794156D01*
X122708330Y-43779906D01*
X122728847Y-43767609D01*
X122750471Y-43757381D01*
X122772993Y-43749323D01*
X122796197Y-43743511D01*
X122819858Y-43740001D01*
X122843750Y-43738827D01*
X123331250Y-43738827D01*
X123355142Y-43740001D01*
X123355142Y-43740001D01*
G37*
D20*
X123087500Y-44263827D03*
G04 #@! TD*
D10*
G04 #@! TO.C,R12*
G36*
X118280142Y-45490001D02*
X118303803Y-45493511D01*
X118327007Y-45499323D01*
X118349529Y-45507381D01*
X118371153Y-45517609D01*
X118391670Y-45529906D01*
X118410883Y-45544156D01*
X118428607Y-45560220D01*
X118444671Y-45577944D01*
X118458921Y-45597157D01*
X118471218Y-45617674D01*
X118481446Y-45639298D01*
X118489504Y-45661820D01*
X118495316Y-45685024D01*
X118498826Y-45708685D01*
X118500000Y-45732577D01*
X118500000Y-46295077D01*
X118498826Y-46318969D01*
X118495316Y-46342630D01*
X118489504Y-46365834D01*
X118481446Y-46388356D01*
X118471218Y-46409980D01*
X118458921Y-46430497D01*
X118444671Y-46449710D01*
X118428607Y-46467434D01*
X118410883Y-46483498D01*
X118391670Y-46497748D01*
X118371153Y-46510045D01*
X118349529Y-46520273D01*
X118327007Y-46528331D01*
X118303803Y-46534143D01*
X118280142Y-46537653D01*
X118256250Y-46538827D01*
X117768750Y-46538827D01*
X117744858Y-46537653D01*
X117721197Y-46534143D01*
X117697993Y-46528331D01*
X117675471Y-46520273D01*
X117653847Y-46510045D01*
X117633330Y-46497748D01*
X117614117Y-46483498D01*
X117596393Y-46467434D01*
X117580329Y-46449710D01*
X117566079Y-46430497D01*
X117553782Y-46409980D01*
X117543554Y-46388356D01*
X117535496Y-46365834D01*
X117529684Y-46342630D01*
X117526174Y-46318969D01*
X117525000Y-46295077D01*
X117525000Y-45732577D01*
X117526174Y-45708685D01*
X117529684Y-45685024D01*
X117535496Y-45661820D01*
X117543554Y-45639298D01*
X117553782Y-45617674D01*
X117566079Y-45597157D01*
X117580329Y-45577944D01*
X117596393Y-45560220D01*
X117614117Y-45544156D01*
X117633330Y-45529906D01*
X117653847Y-45517609D01*
X117675471Y-45507381D01*
X117697993Y-45499323D01*
X117721197Y-45493511D01*
X117744858Y-45490001D01*
X117768750Y-45488827D01*
X118256250Y-45488827D01*
X118280142Y-45490001D01*
X118280142Y-45490001D01*
G37*
D20*
X118012500Y-46013827D03*
D10*
G36*
X119855142Y-45490001D02*
X119878803Y-45493511D01*
X119902007Y-45499323D01*
X119924529Y-45507381D01*
X119946153Y-45517609D01*
X119966670Y-45529906D01*
X119985883Y-45544156D01*
X120003607Y-45560220D01*
X120019671Y-45577944D01*
X120033921Y-45597157D01*
X120046218Y-45617674D01*
X120056446Y-45639298D01*
X120064504Y-45661820D01*
X120070316Y-45685024D01*
X120073826Y-45708685D01*
X120075000Y-45732577D01*
X120075000Y-46295077D01*
X120073826Y-46318969D01*
X120070316Y-46342630D01*
X120064504Y-46365834D01*
X120056446Y-46388356D01*
X120046218Y-46409980D01*
X120033921Y-46430497D01*
X120019671Y-46449710D01*
X120003607Y-46467434D01*
X119985883Y-46483498D01*
X119966670Y-46497748D01*
X119946153Y-46510045D01*
X119924529Y-46520273D01*
X119902007Y-46528331D01*
X119878803Y-46534143D01*
X119855142Y-46537653D01*
X119831250Y-46538827D01*
X119343750Y-46538827D01*
X119319858Y-46537653D01*
X119296197Y-46534143D01*
X119272993Y-46528331D01*
X119250471Y-46520273D01*
X119228847Y-46510045D01*
X119208330Y-46497748D01*
X119189117Y-46483498D01*
X119171393Y-46467434D01*
X119155329Y-46449710D01*
X119141079Y-46430497D01*
X119128782Y-46409980D01*
X119118554Y-46388356D01*
X119110496Y-46365834D01*
X119104684Y-46342630D01*
X119101174Y-46318969D01*
X119100000Y-46295077D01*
X119100000Y-45732577D01*
X119101174Y-45708685D01*
X119104684Y-45685024D01*
X119110496Y-45661820D01*
X119118554Y-45639298D01*
X119128782Y-45617674D01*
X119141079Y-45597157D01*
X119155329Y-45577944D01*
X119171393Y-45560220D01*
X119189117Y-45544156D01*
X119208330Y-45529906D01*
X119228847Y-45517609D01*
X119250471Y-45507381D01*
X119272993Y-45499323D01*
X119296197Y-45493511D01*
X119319858Y-45490001D01*
X119343750Y-45488827D01*
X119831250Y-45488827D01*
X119855142Y-45490001D01*
X119855142Y-45490001D01*
G37*
D20*
X119587500Y-46013827D03*
G04 #@! TD*
D10*
G04 #@! TO.C,R13*
G36*
X118280142Y-43740001D02*
X118303803Y-43743511D01*
X118327007Y-43749323D01*
X118349529Y-43757381D01*
X118371153Y-43767609D01*
X118391670Y-43779906D01*
X118410883Y-43794156D01*
X118428607Y-43810220D01*
X118444671Y-43827944D01*
X118458921Y-43847157D01*
X118471218Y-43867674D01*
X118481446Y-43889298D01*
X118489504Y-43911820D01*
X118495316Y-43935024D01*
X118498826Y-43958685D01*
X118500000Y-43982577D01*
X118500000Y-44545077D01*
X118498826Y-44568969D01*
X118495316Y-44592630D01*
X118489504Y-44615834D01*
X118481446Y-44638356D01*
X118471218Y-44659980D01*
X118458921Y-44680497D01*
X118444671Y-44699710D01*
X118428607Y-44717434D01*
X118410883Y-44733498D01*
X118391670Y-44747748D01*
X118371153Y-44760045D01*
X118349529Y-44770273D01*
X118327007Y-44778331D01*
X118303803Y-44784143D01*
X118280142Y-44787653D01*
X118256250Y-44788827D01*
X117768750Y-44788827D01*
X117744858Y-44787653D01*
X117721197Y-44784143D01*
X117697993Y-44778331D01*
X117675471Y-44770273D01*
X117653847Y-44760045D01*
X117633330Y-44747748D01*
X117614117Y-44733498D01*
X117596393Y-44717434D01*
X117580329Y-44699710D01*
X117566079Y-44680497D01*
X117553782Y-44659980D01*
X117543554Y-44638356D01*
X117535496Y-44615834D01*
X117529684Y-44592630D01*
X117526174Y-44568969D01*
X117525000Y-44545077D01*
X117525000Y-43982577D01*
X117526174Y-43958685D01*
X117529684Y-43935024D01*
X117535496Y-43911820D01*
X117543554Y-43889298D01*
X117553782Y-43867674D01*
X117566079Y-43847157D01*
X117580329Y-43827944D01*
X117596393Y-43810220D01*
X117614117Y-43794156D01*
X117633330Y-43779906D01*
X117653847Y-43767609D01*
X117675471Y-43757381D01*
X117697993Y-43749323D01*
X117721197Y-43743511D01*
X117744858Y-43740001D01*
X117768750Y-43738827D01*
X118256250Y-43738827D01*
X118280142Y-43740001D01*
X118280142Y-43740001D01*
G37*
D20*
X118012500Y-44263827D03*
D10*
G36*
X119855142Y-43740001D02*
X119878803Y-43743511D01*
X119902007Y-43749323D01*
X119924529Y-43757381D01*
X119946153Y-43767609D01*
X119966670Y-43779906D01*
X119985883Y-43794156D01*
X120003607Y-43810220D01*
X120019671Y-43827944D01*
X120033921Y-43847157D01*
X120046218Y-43867674D01*
X120056446Y-43889298D01*
X120064504Y-43911820D01*
X120070316Y-43935024D01*
X120073826Y-43958685D01*
X120075000Y-43982577D01*
X120075000Y-44545077D01*
X120073826Y-44568969D01*
X120070316Y-44592630D01*
X120064504Y-44615834D01*
X120056446Y-44638356D01*
X120046218Y-44659980D01*
X120033921Y-44680497D01*
X120019671Y-44699710D01*
X120003607Y-44717434D01*
X119985883Y-44733498D01*
X119966670Y-44747748D01*
X119946153Y-44760045D01*
X119924529Y-44770273D01*
X119902007Y-44778331D01*
X119878803Y-44784143D01*
X119855142Y-44787653D01*
X119831250Y-44788827D01*
X119343750Y-44788827D01*
X119319858Y-44787653D01*
X119296197Y-44784143D01*
X119272993Y-44778331D01*
X119250471Y-44770273D01*
X119228847Y-44760045D01*
X119208330Y-44747748D01*
X119189117Y-44733498D01*
X119171393Y-44717434D01*
X119155329Y-44699710D01*
X119141079Y-44680497D01*
X119128782Y-44659980D01*
X119118554Y-44638356D01*
X119110496Y-44615834D01*
X119104684Y-44592630D01*
X119101174Y-44568969D01*
X119100000Y-44545077D01*
X119100000Y-43982577D01*
X119101174Y-43958685D01*
X119104684Y-43935024D01*
X119110496Y-43911820D01*
X119118554Y-43889298D01*
X119128782Y-43867674D01*
X119141079Y-43847157D01*
X119155329Y-43827944D01*
X119171393Y-43810220D01*
X119189117Y-43794156D01*
X119208330Y-43779906D01*
X119228847Y-43767609D01*
X119250471Y-43757381D01*
X119272993Y-43749323D01*
X119296197Y-43743511D01*
X119319858Y-43740001D01*
X119343750Y-43738827D01*
X119831250Y-43738827D01*
X119855142Y-43740001D01*
X119855142Y-43740001D01*
G37*
D20*
X119587500Y-44263827D03*
G04 #@! TD*
D21*
G04 #@! TO.C,U5*
X109350000Y-54625000D03*
X109350000Y-55275000D03*
X109350000Y-55925000D03*
X109350000Y-56575000D03*
X109350000Y-57225000D03*
X109350000Y-57875000D03*
X109350000Y-58525000D03*
X109350000Y-59175000D03*
X103450000Y-59175000D03*
X103450000Y-58525000D03*
X103450000Y-57875000D03*
X103450000Y-57225000D03*
X103450000Y-56575000D03*
X103450000Y-55925000D03*
X103450000Y-55275000D03*
X103450000Y-54625000D03*
G04 #@! TD*
D22*
G04 #@! TO.C,U7*
X110300000Y-51910000D03*
X110300000Y-50640000D03*
X110300000Y-49370000D03*
X110300000Y-48100000D03*
X110300000Y-46830000D03*
X110300000Y-45560000D03*
X110300000Y-44290000D03*
X115700000Y-44290000D03*
X115700000Y-45560000D03*
X115700000Y-46830000D03*
X115700000Y-48100000D03*
X115700000Y-49370000D03*
X115700000Y-50640000D03*
X115700000Y-51910000D03*
G04 #@! TD*
M02*
