G04 #@! TF.GenerationSoftware,KiCad,Pcbnew,(5.0.0)*
G04 #@! TF.CreationDate,2020-05-01T19:32:20+02:00*
G04 #@! TF.ProjectId,PGPExT_v1-1,5047504578545F76312D312E6B696361,1.1*
G04 #@! TF.SameCoordinates,Original*
G04 #@! TF.FileFunction,Copper,L4,Bot,Signal*
G04 #@! TF.FilePolarity,Positive*
%FSLAX46Y46*%
G04 Gerber Fmt 4.6, Leading zero omitted, Abs format (unit mm)*
G04 Created by KiCad (PCBNEW (5.0.0)) date 05/01/20 19:32:20*
%MOMM*%
%LPD*%
G01*
G04 APERTURE LIST*
%ADD10C,0.100000*%
%ADD11C,0.150000*%
%ADD12C,0.300000*%
%ADD13C,0.400000*%
G04 #@! TA.AperFunction,NonConductor*
%ADD14C,0.800000*%
G04 #@! TD*
G04 #@! TA.AperFunction,SMDPad,CuDef*
%ADD15R,0.650000X0.400000*%
G04 #@! TD*
G04 #@! TA.AperFunction,ComponentPad*
%ADD16C,1.100000*%
G04 #@! TD*
G04 #@! TA.AperFunction,Conductor*
%ADD17C,0.100000*%
G04 #@! TD*
G04 #@! TA.AperFunction,SMDPad,CuDef*
%ADD18C,0.975000*%
G04 #@! TD*
G04 #@! TA.AperFunction,SMDPad,CuDef*
%ADD19C,0.500000*%
G04 #@! TD*
G04 #@! TA.AperFunction,BGAPad,CuDef*
%ADD20C,1.500000*%
G04 #@! TD*
G04 #@! TA.AperFunction,SMDPad,CuDef*
%ADD21C,0.875000*%
G04 #@! TD*
G04 #@! TA.AperFunction,SMDPad,CuDef*
%ADD22R,1.500000X0.450000*%
G04 #@! TD*
G04 #@! TA.AperFunction,SMDPad,CuDef*
%ADD23R,1.500000X0.600000*%
G04 #@! TD*
G04 #@! TA.AperFunction,ViaPad*
%ADD24C,0.500000*%
G04 #@! TD*
G04 #@! TA.AperFunction,Conductor*
%ADD25C,0.300000*%
G04 #@! TD*
G04 #@! TA.AperFunction,Conductor*
%ADD26C,0.200000*%
G04 #@! TD*
G04 #@! TA.AperFunction,Conductor*
%ADD27C,0.150000*%
G04 #@! TD*
G04 APERTURE END LIST*
D10*
D11*
X177002200Y-166007200D02*
X177002200Y-198007200D01*
X285002200Y-198007200D01*
X285002200Y-166007200D01*
X177002200Y-166007200D01*
D10*
D11*
X10000000Y-10000000D02*
X10000000Y-200007200D01*
X287002200Y-200007200D01*
X287002200Y-10000000D01*
X10000000Y-10000000D01*
D10*
D11*
X12000000Y-12000000D02*
X12000000Y-198007200D01*
X285002200Y-198007200D01*
X285002200Y-12000000D01*
X12000000Y-12000000D01*
D10*
D11*
X60000000Y-12000000D02*
X60000000Y-10000000D01*
D10*
D11*
X110000000Y-12000000D02*
X110000000Y-10000000D01*
D10*
D11*
X160000000Y-12000000D02*
X160000000Y-10000000D01*
D10*
D11*
X210000000Y-12000000D02*
X210000000Y-10000000D01*
D10*
D11*
X260000000Y-12000000D02*
X260000000Y-10000000D01*
D10*
D11*
X36065476Y-11588095D02*
X35322619Y-11588095D01*
X35694047Y-11588095D02*
X35694047Y-10288095D01*
X35570238Y-10473809D01*
X35446428Y-10597619D01*
X35322619Y-10659523D01*
D10*
D11*
X85322619Y-10411904D02*
X85384523Y-10350000D01*
X85508333Y-10288095D01*
X85817857Y-10288095D01*
X85941666Y-10350000D01*
X86003571Y-10411904D01*
X86065476Y-10535714D01*
X86065476Y-10659523D01*
X86003571Y-10845238D01*
X85260714Y-11588095D01*
X86065476Y-11588095D01*
D10*
D11*
X135260714Y-10288095D02*
X136065476Y-10288095D01*
X135632142Y-10783333D01*
X135817857Y-10783333D01*
X135941666Y-10845238D01*
X136003571Y-10907142D01*
X136065476Y-11030952D01*
X136065476Y-11340476D01*
X136003571Y-11464285D01*
X135941666Y-11526190D01*
X135817857Y-11588095D01*
X135446428Y-11588095D01*
X135322619Y-11526190D01*
X135260714Y-11464285D01*
D10*
D11*
X185941666Y-10721428D02*
X185941666Y-11588095D01*
X185632142Y-10226190D02*
X185322619Y-11154761D01*
X186127380Y-11154761D01*
D10*
D11*
X236003571Y-10288095D02*
X235384523Y-10288095D01*
X235322619Y-10907142D01*
X235384523Y-10845238D01*
X235508333Y-10783333D01*
X235817857Y-10783333D01*
X235941666Y-10845238D01*
X236003571Y-10907142D01*
X236065476Y-11030952D01*
X236065476Y-11340476D01*
X236003571Y-11464285D01*
X235941666Y-11526190D01*
X235817857Y-11588095D01*
X235508333Y-11588095D01*
X235384523Y-11526190D01*
X235322619Y-11464285D01*
D10*
D11*
X285941666Y-10288095D02*
X285694047Y-10288095D01*
X285570238Y-10350000D01*
X285508333Y-10411904D01*
X285384523Y-10597619D01*
X285322619Y-10845238D01*
X285322619Y-11340476D01*
X285384523Y-11464285D01*
X285446428Y-11526190D01*
X285570238Y-11588095D01*
X285817857Y-11588095D01*
X285941666Y-11526190D01*
X286003571Y-11464285D01*
X286065476Y-11340476D01*
X286065476Y-11030952D01*
X286003571Y-10907142D01*
X285941666Y-10845238D01*
X285817857Y-10783333D01*
X285570238Y-10783333D01*
X285446428Y-10845238D01*
X285384523Y-10907142D01*
X285322619Y-11030952D01*
D10*
D11*
X60000000Y-198007200D02*
X60000000Y-200007200D01*
D10*
D11*
X110000000Y-198007200D02*
X110000000Y-200007200D01*
D10*
D11*
X160000000Y-198007200D02*
X160000000Y-200007200D01*
D10*
D11*
X210000000Y-198007200D02*
X210000000Y-200007200D01*
D10*
D11*
X260000000Y-198007200D02*
X260000000Y-200007200D01*
D10*
D11*
X36065476Y-199595295D02*
X35322619Y-199595295D01*
X35694047Y-199595295D02*
X35694047Y-198295295D01*
X35570238Y-198481009D01*
X35446428Y-198604819D01*
X35322619Y-198666723D01*
D10*
D11*
X85322619Y-198419104D02*
X85384523Y-198357200D01*
X85508333Y-198295295D01*
X85817857Y-198295295D01*
X85941666Y-198357200D01*
X86003571Y-198419104D01*
X86065476Y-198542914D01*
X86065476Y-198666723D01*
X86003571Y-198852438D01*
X85260714Y-199595295D01*
X86065476Y-199595295D01*
D10*
D11*
X135260714Y-198295295D02*
X136065476Y-198295295D01*
X135632142Y-198790533D01*
X135817857Y-198790533D01*
X135941666Y-198852438D01*
X136003571Y-198914342D01*
X136065476Y-199038152D01*
X136065476Y-199347676D01*
X136003571Y-199471485D01*
X135941666Y-199533390D01*
X135817857Y-199595295D01*
X135446428Y-199595295D01*
X135322619Y-199533390D01*
X135260714Y-199471485D01*
D10*
D11*
X185941666Y-198728628D02*
X185941666Y-199595295D01*
X185632142Y-198233390D02*
X185322619Y-199161961D01*
X186127380Y-199161961D01*
D10*
D11*
X236003571Y-198295295D02*
X235384523Y-198295295D01*
X235322619Y-198914342D01*
X235384523Y-198852438D01*
X235508333Y-198790533D01*
X235817857Y-198790533D01*
X235941666Y-198852438D01*
X236003571Y-198914342D01*
X236065476Y-199038152D01*
X236065476Y-199347676D01*
X236003571Y-199471485D01*
X235941666Y-199533390D01*
X235817857Y-199595295D01*
X235508333Y-199595295D01*
X235384523Y-199533390D01*
X235322619Y-199471485D01*
D10*
D11*
X285941666Y-198295295D02*
X285694047Y-198295295D01*
X285570238Y-198357200D01*
X285508333Y-198419104D01*
X285384523Y-198604819D01*
X285322619Y-198852438D01*
X285322619Y-199347676D01*
X285384523Y-199471485D01*
X285446428Y-199533390D01*
X285570238Y-199595295D01*
X285817857Y-199595295D01*
X285941666Y-199533390D01*
X286003571Y-199471485D01*
X286065476Y-199347676D01*
X286065476Y-199038152D01*
X286003571Y-198914342D01*
X285941666Y-198852438D01*
X285817857Y-198790533D01*
X285570238Y-198790533D01*
X285446428Y-198852438D01*
X285384523Y-198914342D01*
X285322619Y-199038152D01*
D10*
D11*
X10000000Y-60000000D02*
X12000000Y-60000000D01*
D10*
D11*
X10000000Y-110000000D02*
X12000000Y-110000000D01*
D10*
D11*
X10000000Y-160000000D02*
X12000000Y-160000000D01*
D10*
D11*
X10690476Y-35216666D02*
X11309523Y-35216666D01*
X10566666Y-35588095D02*
X11000000Y-34288095D01*
X11433333Y-35588095D01*
D10*
D11*
X11092857Y-84907142D02*
X11278571Y-84969047D01*
X11340476Y-85030952D01*
X11402380Y-85154761D01*
X11402380Y-85340476D01*
X11340476Y-85464285D01*
X11278571Y-85526190D01*
X11154761Y-85588095D01*
X10659523Y-85588095D01*
X10659523Y-84288095D01*
X11092857Y-84288095D01*
X11216666Y-84350000D01*
X11278571Y-84411904D01*
X11340476Y-84535714D01*
X11340476Y-84659523D01*
X11278571Y-84783333D01*
X11216666Y-84845238D01*
X11092857Y-84907142D01*
X10659523Y-84907142D01*
D10*
D11*
X11402380Y-135464285D02*
X11340476Y-135526190D01*
X11154761Y-135588095D01*
X11030952Y-135588095D01*
X10845238Y-135526190D01*
X10721428Y-135402380D01*
X10659523Y-135278571D01*
X10597619Y-135030952D01*
X10597619Y-134845238D01*
X10659523Y-134597619D01*
X10721428Y-134473809D01*
X10845238Y-134350000D01*
X11030952Y-134288095D01*
X11154761Y-134288095D01*
X11340476Y-134350000D01*
X11402380Y-134411904D01*
D10*
D11*
X10659523Y-185588095D02*
X10659523Y-184288095D01*
X10969047Y-184288095D01*
X11154761Y-184350000D01*
X11278571Y-184473809D01*
X11340476Y-184597619D01*
X11402380Y-184845238D01*
X11402380Y-185030952D01*
X11340476Y-185278571D01*
X11278571Y-185402380D01*
X11154761Y-185526190D01*
X10969047Y-185588095D01*
X10659523Y-185588095D01*
D10*
D11*
X287002200Y-60000000D02*
X285002200Y-60000000D01*
D10*
D11*
X287002200Y-110000000D02*
X285002200Y-110000000D01*
D10*
D11*
X287002200Y-160000000D02*
X285002200Y-160000000D01*
D10*
D11*
X285692676Y-35216666D02*
X286311723Y-35216666D01*
X285568866Y-35588095D02*
X286002200Y-34288095D01*
X286435533Y-35588095D01*
D10*
D11*
X286095057Y-84907142D02*
X286280771Y-84969047D01*
X286342676Y-85030952D01*
X286404580Y-85154761D01*
X286404580Y-85340476D01*
X286342676Y-85464285D01*
X286280771Y-85526190D01*
X286156961Y-85588095D01*
X285661723Y-85588095D01*
X285661723Y-84288095D01*
X286095057Y-84288095D01*
X286218866Y-84350000D01*
X286280771Y-84411904D01*
X286342676Y-84535714D01*
X286342676Y-84659523D01*
X286280771Y-84783333D01*
X286218866Y-84845238D01*
X286095057Y-84907142D01*
X285661723Y-84907142D01*
D10*
D11*
X286404580Y-135464285D02*
X286342676Y-135526190D01*
X286156961Y-135588095D01*
X286033152Y-135588095D01*
X285847438Y-135526190D01*
X285723628Y-135402380D01*
X285661723Y-135278571D01*
X285599819Y-135030952D01*
X285599819Y-134845238D01*
X285661723Y-134597619D01*
X285723628Y-134473809D01*
X285847438Y-134350000D01*
X286033152Y-134288095D01*
X286156961Y-134288095D01*
X286342676Y-134350000D01*
X286404580Y-134411904D01*
D10*
D11*
X285661723Y-185588095D02*
X285661723Y-184288095D01*
X285971247Y-184288095D01*
X286156961Y-184350000D01*
X286280771Y-184473809D01*
X286342676Y-184597619D01*
X286404580Y-184845238D01*
X286404580Y-185030952D01*
X286342676Y-185278571D01*
X286280771Y-185402380D01*
X286156961Y-185526190D01*
X285971247Y-185588095D01*
X285661723Y-185588095D01*
D10*
D11*
X200434342Y-193785771D02*
X200434342Y-192285771D01*
X200791485Y-192285771D01*
X201005771Y-192357200D01*
X201148628Y-192500057D01*
X201220057Y-192642914D01*
X201291485Y-192928628D01*
X201291485Y-193142914D01*
X201220057Y-193428628D01*
X201148628Y-193571485D01*
X201005771Y-193714342D01*
X200791485Y-193785771D01*
X200434342Y-193785771D01*
X202577200Y-193785771D02*
X202577200Y-193000057D01*
X202505771Y-192857200D01*
X202362914Y-192785771D01*
X202077200Y-192785771D01*
X201934342Y-192857200D01*
X202577200Y-193714342D02*
X202434342Y-193785771D01*
X202077200Y-193785771D01*
X201934342Y-193714342D01*
X201862914Y-193571485D01*
X201862914Y-193428628D01*
X201934342Y-193285771D01*
X202077200Y-193214342D01*
X202434342Y-193214342D01*
X202577200Y-193142914D01*
X203077200Y-192785771D02*
X203648628Y-192785771D01*
X203291485Y-192285771D02*
X203291485Y-193571485D01*
X203362914Y-193714342D01*
X203505771Y-193785771D01*
X203648628Y-193785771D01*
X204720057Y-193714342D02*
X204577200Y-193785771D01*
X204291485Y-193785771D01*
X204148628Y-193714342D01*
X204077200Y-193571485D01*
X204077200Y-193000057D01*
X204148628Y-192857200D01*
X204291485Y-192785771D01*
X204577200Y-192785771D01*
X204720057Y-192857200D01*
X204791485Y-193000057D01*
X204791485Y-193142914D01*
X204077200Y-193285771D01*
X205434342Y-193642914D02*
X205505771Y-193714342D01*
X205434342Y-193785771D01*
X205362914Y-193714342D01*
X205434342Y-193642914D01*
X205434342Y-193785771D01*
X205434342Y-192857200D02*
X205505771Y-192928628D01*
X205434342Y-193000057D01*
X205362914Y-192928628D01*
X205434342Y-192857200D01*
X205434342Y-193000057D01*
X207220057Y-192428628D02*
X207291485Y-192357200D01*
X207434342Y-192285771D01*
X207791485Y-192285771D01*
X207934342Y-192357200D01*
X208005771Y-192428628D01*
X208077200Y-192571485D01*
X208077200Y-192714342D01*
X208005771Y-192928628D01*
X207148628Y-193785771D01*
X208077200Y-193785771D01*
X209005771Y-192285771D02*
X209148628Y-192285771D01*
X209291485Y-192357200D01*
X209362914Y-192428628D01*
X209434342Y-192571485D01*
X209505771Y-192857200D01*
X209505771Y-193214342D01*
X209434342Y-193500057D01*
X209362914Y-193642914D01*
X209291485Y-193714342D01*
X209148628Y-193785771D01*
X209005771Y-193785771D01*
X208862914Y-193714342D01*
X208791485Y-193642914D01*
X208720057Y-193500057D01*
X208648628Y-193214342D01*
X208648628Y-192857200D01*
X208720057Y-192571485D01*
X208791485Y-192428628D01*
X208862914Y-192357200D01*
X209005771Y-192285771D01*
X210934342Y-193785771D02*
X210077200Y-193785771D01*
X210505771Y-193785771D02*
X210505771Y-192285771D01*
X210362914Y-192500057D01*
X210220057Y-192642914D01*
X210077200Y-192714342D01*
X211648628Y-193785771D02*
X211934342Y-193785771D01*
X212077200Y-193714342D01*
X212148628Y-193642914D01*
X212291485Y-193428628D01*
X212362914Y-193142914D01*
X212362914Y-192571485D01*
X212291485Y-192428628D01*
X212220057Y-192357200D01*
X212077200Y-192285771D01*
X211791485Y-192285771D01*
X211648628Y-192357200D01*
X211577200Y-192428628D01*
X211505771Y-192571485D01*
X211505771Y-192928628D01*
X211577200Y-193071485D01*
X211648628Y-193142914D01*
X211791485Y-193214342D01*
X212077200Y-193214342D01*
X212220057Y-193142914D01*
X212291485Y-193071485D01*
X212362914Y-192928628D01*
X213005771Y-193214342D02*
X214148628Y-193214342D01*
X215148628Y-192285771D02*
X215291485Y-192285771D01*
X215434342Y-192357200D01*
X215505771Y-192428628D01*
X215577200Y-192571485D01*
X215648628Y-192857200D01*
X215648628Y-193214342D01*
X215577200Y-193500057D01*
X215505771Y-193642914D01*
X215434342Y-193714342D01*
X215291485Y-193785771D01*
X215148628Y-193785771D01*
X215005771Y-193714342D01*
X214934342Y-193642914D01*
X214862914Y-193500057D01*
X214791485Y-193214342D01*
X214791485Y-192857200D01*
X214862914Y-192571485D01*
X214934342Y-192428628D01*
X215005771Y-192357200D01*
X215148628Y-192285771D01*
X216362914Y-193785771D02*
X216648628Y-193785771D01*
X216791485Y-193714342D01*
X216862914Y-193642914D01*
X217005771Y-193428628D01*
X217077200Y-193142914D01*
X217077200Y-192571485D01*
X217005771Y-192428628D01*
X216934342Y-192357200D01*
X216791485Y-192285771D01*
X216505771Y-192285771D01*
X216362914Y-192357200D01*
X216291485Y-192428628D01*
X216220057Y-192571485D01*
X216220057Y-192928628D01*
X216291485Y-193071485D01*
X216362914Y-193142914D01*
X216505771Y-193214342D01*
X216791485Y-193214342D01*
X216934342Y-193142914D01*
X217005771Y-193071485D01*
X217077200Y-192928628D01*
X217720057Y-193214342D02*
X218862914Y-193214342D01*
X220362914Y-193785771D02*
X219505771Y-193785771D01*
X219934342Y-193785771D02*
X219934342Y-192285771D01*
X219791485Y-192500057D01*
X219648628Y-192642914D01*
X219505771Y-192714342D01*
X221791485Y-193785771D02*
X220934342Y-193785771D01*
X221362914Y-193785771D02*
X221362914Y-192285771D01*
X221220057Y-192500057D01*
X221077200Y-192642914D01*
X220934342Y-192714342D01*
D10*
D11*
X177002200Y-194507200D02*
X285002200Y-194507200D01*
D10*
D11*
X178434342Y-196585771D02*
X178434342Y-195085771D01*
X179291485Y-196585771D02*
X178648628Y-195728628D01*
X179291485Y-195085771D02*
X178434342Y-195942914D01*
X179934342Y-196585771D02*
X179934342Y-195585771D01*
X179934342Y-195085771D02*
X179862914Y-195157200D01*
X179934342Y-195228628D01*
X180005771Y-195157200D01*
X179934342Y-195085771D01*
X179934342Y-195228628D01*
X181505771Y-196442914D02*
X181434342Y-196514342D01*
X181220057Y-196585771D01*
X181077200Y-196585771D01*
X180862914Y-196514342D01*
X180720057Y-196371485D01*
X180648628Y-196228628D01*
X180577200Y-195942914D01*
X180577200Y-195728628D01*
X180648628Y-195442914D01*
X180720057Y-195300057D01*
X180862914Y-195157200D01*
X181077200Y-195085771D01*
X181220057Y-195085771D01*
X181434342Y-195157200D01*
X181505771Y-195228628D01*
X182791485Y-196585771D02*
X182791485Y-195800057D01*
X182720057Y-195657200D01*
X182577200Y-195585771D01*
X182291485Y-195585771D01*
X182148628Y-195657200D01*
X182791485Y-196514342D02*
X182648628Y-196585771D01*
X182291485Y-196585771D01*
X182148628Y-196514342D01*
X182077200Y-196371485D01*
X182077200Y-196228628D01*
X182148628Y-196085771D01*
X182291485Y-196014342D01*
X182648628Y-196014342D01*
X182791485Y-195942914D01*
X184148628Y-196585771D02*
X184148628Y-195085771D01*
X184148628Y-196514342D02*
X184005771Y-196585771D01*
X183720057Y-196585771D01*
X183577200Y-196514342D01*
X183505771Y-196442914D01*
X183434342Y-196300057D01*
X183434342Y-195871485D01*
X183505771Y-195728628D01*
X183577200Y-195657200D01*
X183720057Y-195585771D01*
X184005771Y-195585771D01*
X184148628Y-195657200D01*
X186005771Y-195800057D02*
X186505771Y-195800057D01*
X186720057Y-196585771D02*
X186005771Y-196585771D01*
X186005771Y-195085771D01*
X186720057Y-195085771D01*
X187362914Y-196442914D02*
X187434342Y-196514342D01*
X187362914Y-196585771D01*
X187291485Y-196514342D01*
X187362914Y-196442914D01*
X187362914Y-196585771D01*
X188077200Y-196585771D02*
X188077200Y-195085771D01*
X188434342Y-195085771D01*
X188648628Y-195157200D01*
X188791485Y-195300057D01*
X188862914Y-195442914D01*
X188934342Y-195728628D01*
X188934342Y-195942914D01*
X188862914Y-196228628D01*
X188791485Y-196371485D01*
X188648628Y-196514342D01*
X188434342Y-196585771D01*
X188077200Y-196585771D01*
X189577200Y-196442914D02*
X189648628Y-196514342D01*
X189577200Y-196585771D01*
X189505771Y-196514342D01*
X189577200Y-196442914D01*
X189577200Y-196585771D01*
X190220057Y-196157200D02*
X190934342Y-196157200D01*
X190077200Y-196585771D02*
X190577200Y-195085771D01*
X191077200Y-196585771D01*
X191577200Y-196442914D02*
X191648628Y-196514342D01*
X191577200Y-196585771D01*
X191505771Y-196514342D01*
X191577200Y-196442914D01*
X191577200Y-196585771D01*
X194577200Y-196585771D02*
X194577200Y-195085771D01*
X194720057Y-196014342D02*
X195148628Y-196585771D01*
X195148628Y-195585771D02*
X194577200Y-196157200D01*
X195791485Y-196585771D02*
X195791485Y-195585771D01*
X195791485Y-195085771D02*
X195720057Y-195157200D01*
X195791485Y-195228628D01*
X195862914Y-195157200D01*
X195791485Y-195085771D01*
X195791485Y-195228628D01*
X197148628Y-196514342D02*
X197005771Y-196585771D01*
X196720057Y-196585771D01*
X196577200Y-196514342D01*
X196505771Y-196442914D01*
X196434342Y-196300057D01*
X196434342Y-195871485D01*
X196505771Y-195728628D01*
X196577200Y-195657200D01*
X196720057Y-195585771D01*
X197005771Y-195585771D01*
X197148628Y-195657200D01*
X198434342Y-196585771D02*
X198434342Y-195800057D01*
X198362914Y-195657200D01*
X198220057Y-195585771D01*
X197934342Y-195585771D01*
X197791485Y-195657200D01*
X198434342Y-196514342D02*
X198291485Y-196585771D01*
X197934342Y-196585771D01*
X197791485Y-196514342D01*
X197720057Y-196371485D01*
X197720057Y-196228628D01*
X197791485Y-196085771D01*
X197934342Y-196014342D01*
X198291485Y-196014342D01*
X198434342Y-195942914D01*
X199791485Y-196585771D02*
X199791485Y-195085771D01*
X199791485Y-196514342D02*
X199648628Y-196585771D01*
X199362914Y-196585771D01*
X199220057Y-196514342D01*
X199148628Y-196442914D01*
X199077200Y-196300057D01*
X199077200Y-195871485D01*
X199148628Y-195728628D01*
X199220057Y-195657200D01*
X199362914Y-195585771D01*
X199648628Y-195585771D01*
X199791485Y-195657200D01*
X202077200Y-197157200D02*
X202005771Y-197085771D01*
X201862914Y-196871485D01*
X201791485Y-196728628D01*
X201720057Y-196514342D01*
X201648628Y-196157200D01*
X201648628Y-195871485D01*
X201720057Y-195514342D01*
X201791485Y-195300057D01*
X201862914Y-195157200D01*
X202005771Y-194942914D01*
X202077200Y-194871485D01*
X203362914Y-195085771D02*
X202648628Y-195085771D01*
X202577200Y-195800057D01*
X202648628Y-195728628D01*
X202791485Y-195657200D01*
X203148628Y-195657200D01*
X203291485Y-195728628D01*
X203362914Y-195800057D01*
X203434342Y-195942914D01*
X203434342Y-196300057D01*
X203362914Y-196442914D01*
X203291485Y-196514342D01*
X203148628Y-196585771D01*
X202791485Y-196585771D01*
X202648628Y-196514342D01*
X202577200Y-196442914D01*
X204077200Y-196442914D02*
X204148628Y-196514342D01*
X204077200Y-196585771D01*
X204005771Y-196514342D01*
X204077200Y-196442914D01*
X204077200Y-196585771D01*
X205077200Y-195085771D02*
X205220057Y-195085771D01*
X205362914Y-195157200D01*
X205434342Y-195228628D01*
X205505771Y-195371485D01*
X205577200Y-195657200D01*
X205577200Y-196014342D01*
X205505771Y-196300057D01*
X205434342Y-196442914D01*
X205362914Y-196514342D01*
X205220057Y-196585771D01*
X205077200Y-196585771D01*
X204934342Y-196514342D01*
X204862914Y-196442914D01*
X204791485Y-196300057D01*
X204720057Y-196014342D01*
X204720057Y-195657200D01*
X204791485Y-195371485D01*
X204862914Y-195228628D01*
X204934342Y-195157200D01*
X205077200Y-195085771D01*
X206220057Y-196442914D02*
X206291485Y-196514342D01*
X206220057Y-196585771D01*
X206148628Y-196514342D01*
X206220057Y-196442914D01*
X206220057Y-196585771D01*
X207220057Y-195085771D02*
X207362914Y-195085771D01*
X207505771Y-195157200D01*
X207577200Y-195228628D01*
X207648628Y-195371485D01*
X207720057Y-195657200D01*
X207720057Y-196014342D01*
X207648628Y-196300057D01*
X207577200Y-196442914D01*
X207505771Y-196514342D01*
X207362914Y-196585771D01*
X207220057Y-196585771D01*
X207077200Y-196514342D01*
X207005771Y-196442914D01*
X206934342Y-196300057D01*
X206862914Y-196014342D01*
X206862914Y-195657200D01*
X206934342Y-195371485D01*
X207005771Y-195228628D01*
X207077200Y-195157200D01*
X207220057Y-195085771D01*
X208220057Y-197157200D02*
X208291485Y-197085771D01*
X208434342Y-196871485D01*
X208505771Y-196728628D01*
X208577200Y-196514342D01*
X208648628Y-196157200D01*
X208648628Y-195871485D01*
X208577200Y-195514342D01*
X208505771Y-195300057D01*
X208434342Y-195157200D01*
X208291485Y-194942914D01*
X208220057Y-194871485D01*
D10*
D11*
X177002200Y-191507200D02*
X285002200Y-191507200D01*
D10*
D12*
X264411485Y-193785771D02*
X263911485Y-193071485D01*
X263554342Y-193785771D02*
X263554342Y-192285771D01*
X264125771Y-192285771D01*
X264268628Y-192357200D01*
X264340057Y-192428628D01*
X264411485Y-192571485D01*
X264411485Y-192785771D01*
X264340057Y-192928628D01*
X264268628Y-193000057D01*
X264125771Y-193071485D01*
X263554342Y-193071485D01*
X265625771Y-193714342D02*
X265482914Y-193785771D01*
X265197200Y-193785771D01*
X265054342Y-193714342D01*
X264982914Y-193571485D01*
X264982914Y-193000057D01*
X265054342Y-192857200D01*
X265197200Y-192785771D01*
X265482914Y-192785771D01*
X265625771Y-192857200D01*
X265697200Y-193000057D01*
X265697200Y-193142914D01*
X264982914Y-193285771D01*
X266197200Y-192785771D02*
X266554342Y-193785771D01*
X266911485Y-192785771D01*
X267482914Y-193642914D02*
X267554342Y-193714342D01*
X267482914Y-193785771D01*
X267411485Y-193714342D01*
X267482914Y-193642914D01*
X267482914Y-193785771D01*
X267482914Y-192857200D02*
X267554342Y-192928628D01*
X267482914Y-193000057D01*
X267411485Y-192928628D01*
X267482914Y-192857200D01*
X267482914Y-193000057D01*
X270125771Y-193785771D02*
X269268628Y-193785771D01*
X269697200Y-193785771D02*
X269697200Y-192285771D01*
X269554342Y-192500057D01*
X269411485Y-192642914D01*
X269268628Y-192714342D01*
X270768628Y-193642914D02*
X270840057Y-193714342D01*
X270768628Y-193785771D01*
X270697200Y-193714342D01*
X270768628Y-193642914D01*
X270768628Y-193785771D01*
X272268628Y-193785771D02*
X271411485Y-193785771D01*
X271840057Y-193785771D02*
X271840057Y-192285771D01*
X271697200Y-192500057D01*
X271554342Y-192642914D01*
X271411485Y-192714342D01*
D10*
D11*
X178362914Y-193714342D02*
X178577200Y-193785771D01*
X178934342Y-193785771D01*
X179077200Y-193714342D01*
X179148628Y-193642914D01*
X179220057Y-193500057D01*
X179220057Y-193357200D01*
X179148628Y-193214342D01*
X179077200Y-193142914D01*
X178934342Y-193071485D01*
X178648628Y-193000057D01*
X178505771Y-192928628D01*
X178434342Y-192857200D01*
X178362914Y-192714342D01*
X178362914Y-192571485D01*
X178434342Y-192428628D01*
X178505771Y-192357200D01*
X178648628Y-192285771D01*
X179005771Y-192285771D01*
X179220057Y-192357200D01*
X179862914Y-193785771D02*
X179862914Y-192785771D01*
X179862914Y-192285771D02*
X179791485Y-192357200D01*
X179862914Y-192428628D01*
X179934342Y-192357200D01*
X179862914Y-192285771D01*
X179862914Y-192428628D01*
X180434342Y-192785771D02*
X181220057Y-192785771D01*
X180434342Y-193785771D01*
X181220057Y-193785771D01*
X182362914Y-193714342D02*
X182220057Y-193785771D01*
X181934342Y-193785771D01*
X181791485Y-193714342D01*
X181720057Y-193571485D01*
X181720057Y-193000057D01*
X181791485Y-192857200D01*
X181934342Y-192785771D01*
X182220057Y-192785771D01*
X182362914Y-192857200D01*
X182434342Y-193000057D01*
X182434342Y-193142914D01*
X181720057Y-193285771D01*
X183077200Y-193642914D02*
X183148628Y-193714342D01*
X183077200Y-193785771D01*
X183005771Y-193714342D01*
X183077200Y-193642914D01*
X183077200Y-193785771D01*
X183077200Y-192857200D02*
X183148628Y-192928628D01*
X183077200Y-193000057D01*
X183005771Y-192928628D01*
X183077200Y-192857200D01*
X183077200Y-193000057D01*
X184862914Y-193357200D02*
X185577200Y-193357200D01*
X184720057Y-193785771D02*
X185220057Y-192285771D01*
X185720057Y-193785771D01*
X186862914Y-192785771D02*
X186862914Y-193785771D01*
X186505771Y-192214342D02*
X186148628Y-193285771D01*
X187077200Y-193285771D01*
D10*
D11*
X263434342Y-196585771D02*
X263434342Y-195085771D01*
X264791485Y-196585771D02*
X264791485Y-195085771D01*
X264791485Y-196514342D02*
X264648628Y-196585771D01*
X264362914Y-196585771D01*
X264220057Y-196514342D01*
X264148628Y-196442914D01*
X264077200Y-196300057D01*
X264077200Y-195871485D01*
X264148628Y-195728628D01*
X264220057Y-195657200D01*
X264362914Y-195585771D01*
X264648628Y-195585771D01*
X264791485Y-195657200D01*
X265505771Y-196442914D02*
X265577200Y-196514342D01*
X265505771Y-196585771D01*
X265434342Y-196514342D01*
X265505771Y-196442914D01*
X265505771Y-196585771D01*
X265505771Y-195657200D02*
X265577200Y-195728628D01*
X265505771Y-195800057D01*
X265434342Y-195728628D01*
X265505771Y-195657200D01*
X265505771Y-195800057D01*
X268148628Y-196585771D02*
X267291485Y-196585771D01*
X267720057Y-196585771D02*
X267720057Y-195085771D01*
X267577200Y-195300057D01*
X267434342Y-195442914D01*
X267291485Y-195514342D01*
X269862914Y-195014342D02*
X268577200Y-196942914D01*
X271148628Y-196585771D02*
X270291485Y-196585771D01*
X270720057Y-196585771D02*
X270720057Y-195085771D01*
X270577200Y-195300057D01*
X270434342Y-195442914D01*
X270291485Y-195514342D01*
D10*
D11*
X177002200Y-187507200D02*
X285002200Y-187507200D01*
D10*
D13*
X178714580Y-188211961D02*
X179857438Y-188211961D01*
X179036009Y-190211961D02*
X179286009Y-188211961D01*
X180274104Y-190211961D02*
X180440771Y-188878628D01*
X180524104Y-188211961D02*
X180416961Y-188307200D01*
X180500295Y-188402438D01*
X180607438Y-188307200D01*
X180524104Y-188211961D01*
X180500295Y-188402438D01*
X181107438Y-188878628D02*
X181869342Y-188878628D01*
X181476485Y-188211961D02*
X181262200Y-189926247D01*
X181333628Y-190116723D01*
X181512200Y-190211961D01*
X181702676Y-190211961D01*
X182655057Y-190211961D02*
X182476485Y-190116723D01*
X182405057Y-189926247D01*
X182619342Y-188211961D01*
X184190771Y-190116723D02*
X183988390Y-190211961D01*
X183607438Y-190211961D01*
X183428866Y-190116723D01*
X183357438Y-189926247D01*
X183452676Y-189164342D01*
X183571723Y-188973866D01*
X183774104Y-188878628D01*
X184155057Y-188878628D01*
X184333628Y-188973866D01*
X184405057Y-189164342D01*
X184381247Y-189354819D01*
X183405057Y-189545295D01*
X185155057Y-190021485D02*
X185238390Y-190116723D01*
X185131247Y-190211961D01*
X185047914Y-190116723D01*
X185155057Y-190021485D01*
X185131247Y-190211961D01*
X185286009Y-188973866D02*
X185369342Y-189069104D01*
X185262200Y-189164342D01*
X185178866Y-189069104D01*
X185286009Y-188973866D01*
X185262200Y-189164342D01*
X187607438Y-190211961D02*
X187857438Y-188211961D01*
X188619342Y-188211961D01*
X188797914Y-188307200D01*
X188881247Y-188402438D01*
X188952676Y-188592914D01*
X188916961Y-188878628D01*
X188797914Y-189069104D01*
X188690771Y-189164342D01*
X188488390Y-189259580D01*
X187726485Y-189259580D01*
X189893152Y-190211961D02*
X189714580Y-190116723D01*
X189631247Y-190021485D01*
X189559819Y-189831009D01*
X189631247Y-189259580D01*
X189750295Y-189069104D01*
X189857438Y-188973866D01*
X190059819Y-188878628D01*
X190345533Y-188878628D01*
X190524104Y-188973866D01*
X190607438Y-189069104D01*
X190678866Y-189259580D01*
X190607438Y-189831009D01*
X190488390Y-190021485D01*
X190381247Y-190116723D01*
X190178866Y-190211961D01*
X189893152Y-190211961D01*
X192702676Y-188307200D02*
X192524104Y-188211961D01*
X192238390Y-188211961D01*
X191940771Y-188307200D01*
X191726485Y-188497676D01*
X191607438Y-188688152D01*
X191464580Y-189069104D01*
X191428866Y-189354819D01*
X191476485Y-189735771D01*
X191547914Y-189926247D01*
X191714580Y-190116723D01*
X191988390Y-190211961D01*
X192178866Y-190211961D01*
X192476485Y-190116723D01*
X192583628Y-190021485D01*
X192666961Y-189354819D01*
X192286009Y-189354819D01*
X193702676Y-190211961D02*
X193524104Y-190116723D01*
X193440771Y-190021485D01*
X193369342Y-189831009D01*
X193440771Y-189259580D01*
X193559819Y-189069104D01*
X193666961Y-188973866D01*
X193869342Y-188878628D01*
X194155057Y-188878628D01*
X194333628Y-188973866D01*
X194416961Y-189069104D01*
X194488390Y-189259580D01*
X194416961Y-189831009D01*
X194297914Y-190021485D01*
X194190771Y-190116723D01*
X193988390Y-190211961D01*
X193702676Y-190211961D01*
X195321723Y-189450057D02*
X196845533Y-189450057D01*
X195988390Y-190211961D02*
X196178866Y-188688152D01*
X197833628Y-189164342D02*
X198500295Y-189164342D01*
X198655057Y-190211961D02*
X197702676Y-190211961D01*
X197952676Y-188211961D01*
X198905057Y-188211961D01*
X199321723Y-190211961D02*
X200536009Y-188878628D01*
X199488390Y-188878628D02*
X200369342Y-190211961D01*
X201012200Y-188878628D02*
X201774104Y-188878628D01*
X201381247Y-188211961D02*
X201166961Y-189926247D01*
X201238390Y-190116723D01*
X201416961Y-190211961D01*
X201607438Y-190211961D01*
X203047914Y-190116723D02*
X202845533Y-190211961D01*
X202464580Y-190211961D01*
X202286009Y-190116723D01*
X202214580Y-189926247D01*
X202309819Y-189164342D01*
X202428866Y-188973866D01*
X202631247Y-188878628D01*
X203012200Y-188878628D01*
X203190771Y-188973866D01*
X203262200Y-189164342D01*
X203238390Y-189354819D01*
X202262200Y-189545295D01*
X204155057Y-188878628D02*
X203988390Y-190211961D01*
X204131247Y-189069104D02*
X204238390Y-188973866D01*
X204440771Y-188878628D01*
X204726485Y-188878628D01*
X204905057Y-188973866D01*
X204976485Y-189164342D01*
X204845533Y-190211961D01*
X206655057Y-190211961D02*
X206905057Y-188211961D01*
X206666961Y-190116723D02*
X206464580Y-190211961D01*
X206083628Y-190211961D01*
X205905057Y-190116723D01*
X205821723Y-190021485D01*
X205750295Y-189831009D01*
X205821723Y-189259580D01*
X205940771Y-189069104D01*
X206047914Y-188973866D01*
X206250295Y-188878628D01*
X206631247Y-188878628D01*
X206809819Y-188973866D01*
X208381247Y-190116723D02*
X208178866Y-190211961D01*
X207797914Y-190211961D01*
X207619342Y-190116723D01*
X207547914Y-189926247D01*
X207643152Y-189164342D01*
X207762200Y-188973866D01*
X207964580Y-188878628D01*
X208345533Y-188878628D01*
X208524104Y-188973866D01*
X208595533Y-189164342D01*
X208571723Y-189354819D01*
X207595533Y-189545295D01*
X209321723Y-190211961D02*
X209488390Y-188878628D01*
X209440771Y-189259580D02*
X209559819Y-189069104D01*
X209666961Y-188973866D01*
X209869342Y-188878628D01*
X210059819Y-188878628D01*
D10*
D11*
X178934342Y-185600057D02*
X178434342Y-185600057D01*
X178434342Y-186385771D02*
X178434342Y-184885771D01*
X179148628Y-184885771D01*
X179720057Y-186385771D02*
X179720057Y-185385771D01*
X179720057Y-184885771D02*
X179648628Y-184957200D01*
X179720057Y-185028628D01*
X179791485Y-184957200D01*
X179720057Y-184885771D01*
X179720057Y-185028628D01*
X180648628Y-186385771D02*
X180505771Y-186314342D01*
X180434342Y-186171485D01*
X180434342Y-184885771D01*
X181791485Y-186314342D02*
X181648628Y-186385771D01*
X181362914Y-186385771D01*
X181220057Y-186314342D01*
X181148628Y-186171485D01*
X181148628Y-185600057D01*
X181220057Y-185457200D01*
X181362914Y-185385771D01*
X181648628Y-185385771D01*
X181791485Y-185457200D01*
X181862914Y-185600057D01*
X181862914Y-185742914D01*
X181148628Y-185885771D01*
X182505771Y-186242914D02*
X182577200Y-186314342D01*
X182505771Y-186385771D01*
X182434342Y-186314342D01*
X182505771Y-186242914D01*
X182505771Y-186385771D01*
X182505771Y-185457200D02*
X182577200Y-185528628D01*
X182505771Y-185600057D01*
X182434342Y-185528628D01*
X182505771Y-185457200D01*
X182505771Y-185600057D01*
X184362914Y-186385771D02*
X184362914Y-184885771D01*
X184934342Y-184885771D01*
X185077200Y-184957200D01*
X185148628Y-185028628D01*
X185220057Y-185171485D01*
X185220057Y-185385771D01*
X185148628Y-185528628D01*
X185077200Y-185600057D01*
X184934342Y-185671485D01*
X184362914Y-185671485D01*
X186648628Y-184957200D02*
X186505771Y-184885771D01*
X186291485Y-184885771D01*
X186077200Y-184957200D01*
X185934342Y-185100057D01*
X185862914Y-185242914D01*
X185791485Y-185528628D01*
X185791485Y-185742914D01*
X185862914Y-186028628D01*
X185934342Y-186171485D01*
X186077200Y-186314342D01*
X186291485Y-186385771D01*
X186434342Y-186385771D01*
X186648628Y-186314342D01*
X186720057Y-186242914D01*
X186720057Y-185742914D01*
X186434342Y-185742914D01*
X187362914Y-186385771D02*
X187362914Y-184885771D01*
X187934342Y-184885771D01*
X188077200Y-184957200D01*
X188148628Y-185028628D01*
X188220057Y-185171485D01*
X188220057Y-185385771D01*
X188148628Y-185528628D01*
X188077200Y-185600057D01*
X187934342Y-185671485D01*
X187362914Y-185671485D01*
X188862914Y-185600057D02*
X189362914Y-185600057D01*
X189577200Y-186385771D02*
X188862914Y-186385771D01*
X188862914Y-184885771D01*
X189577200Y-184885771D01*
X190077200Y-186385771D02*
X190862914Y-185385771D01*
X190077200Y-185385771D02*
X190862914Y-186385771D01*
X191220057Y-184885771D02*
X192077200Y-184885771D01*
X191648628Y-186385771D02*
X191648628Y-184885771D01*
X192220057Y-186528628D02*
X193362914Y-186528628D01*
X193577200Y-185385771D02*
X193934342Y-186385771D01*
X194291485Y-185385771D01*
X195648628Y-186385771D02*
X194791485Y-186385771D01*
X195220057Y-186385771D02*
X195220057Y-184885771D01*
X195077200Y-185100057D01*
X194934342Y-185242914D01*
X194791485Y-185314342D01*
X196291485Y-185814342D02*
X197434342Y-185814342D01*
X198934342Y-186385771D02*
X198077200Y-186385771D01*
X198505771Y-186385771D02*
X198505771Y-184885771D01*
X198362914Y-185100057D01*
X198220057Y-185242914D01*
X198077200Y-185314342D01*
X199577200Y-186242914D02*
X199648628Y-186314342D01*
X199577200Y-186385771D01*
X199505771Y-186314342D01*
X199577200Y-186242914D01*
X199577200Y-186385771D01*
X200291485Y-186385771D02*
X200291485Y-184885771D01*
X200434342Y-185814342D02*
X200862914Y-186385771D01*
X200862914Y-185385771D02*
X200291485Y-185957200D01*
X201505771Y-186385771D02*
X201505771Y-185385771D01*
X201505771Y-184885771D02*
X201434342Y-184957200D01*
X201505771Y-185028628D01*
X201577200Y-184957200D01*
X201505771Y-184885771D01*
X201505771Y-185028628D01*
X202862914Y-186314342D02*
X202720057Y-186385771D01*
X202434342Y-186385771D01*
X202291485Y-186314342D01*
X202220057Y-186242914D01*
X202148628Y-186100057D01*
X202148628Y-185671485D01*
X202220057Y-185528628D01*
X202291485Y-185457200D01*
X202434342Y-185385771D01*
X202720057Y-185385771D01*
X202862914Y-185457200D01*
X204148628Y-186385771D02*
X204148628Y-185600057D01*
X204077200Y-185457200D01*
X203934342Y-185385771D01*
X203648628Y-185385771D01*
X203505771Y-185457200D01*
X204148628Y-186314342D02*
X204005771Y-186385771D01*
X203648628Y-186385771D01*
X203505771Y-186314342D01*
X203434342Y-186171485D01*
X203434342Y-186028628D01*
X203505771Y-185885771D01*
X203648628Y-185814342D01*
X204005771Y-185814342D01*
X204148628Y-185742914D01*
X205505771Y-186385771D02*
X205505771Y-184885771D01*
X205505771Y-186314342D02*
X205362914Y-186385771D01*
X205077200Y-186385771D01*
X204934342Y-186314342D01*
X204862914Y-186242914D01*
X204791485Y-186100057D01*
X204791485Y-185671485D01*
X204862914Y-185528628D01*
X204934342Y-185457200D01*
X205077200Y-185385771D01*
X205362914Y-185385771D01*
X205505771Y-185457200D01*
X205862914Y-186528628D02*
X207005771Y-186528628D01*
X207362914Y-185385771D02*
X207362914Y-186885771D01*
X207362914Y-185457200D02*
X207505771Y-185385771D01*
X207791485Y-185385771D01*
X207934342Y-185457200D01*
X208005771Y-185528628D01*
X208077200Y-185671485D01*
X208077200Y-186100057D01*
X208005771Y-186242914D01*
X207934342Y-186314342D01*
X207791485Y-186385771D01*
X207505771Y-186385771D01*
X207362914Y-186314342D01*
X209362914Y-186314342D02*
X209220057Y-186385771D01*
X208934342Y-186385771D01*
X208791485Y-186314342D01*
X208720057Y-186242914D01*
X208648628Y-186100057D01*
X208648628Y-185671485D01*
X208720057Y-185528628D01*
X208791485Y-185457200D01*
X208934342Y-185385771D01*
X209220057Y-185385771D01*
X209362914Y-185457200D01*
X210005771Y-186385771D02*
X210005771Y-184885771D01*
X210005771Y-185457200D02*
X210148628Y-185385771D01*
X210434342Y-185385771D01*
X210577200Y-185457200D01*
X210648628Y-185528628D01*
X210720057Y-185671485D01*
X210720057Y-186100057D01*
X210648628Y-186242914D01*
X210577200Y-186314342D01*
X210434342Y-186385771D01*
X210148628Y-186385771D01*
X210005771Y-186314342D01*
D10*
D11*
X177002200Y-181507200D02*
X285002200Y-181507200D01*
D10*
D11*
X178362914Y-183614342D02*
X178577200Y-183685771D01*
X178934342Y-183685771D01*
X179077200Y-183614342D01*
X179148628Y-183542914D01*
X179220057Y-183400057D01*
X179220057Y-183257200D01*
X179148628Y-183114342D01*
X179077200Y-183042914D01*
X178934342Y-182971485D01*
X178648628Y-182900057D01*
X178505771Y-182828628D01*
X178434342Y-182757200D01*
X178362914Y-182614342D01*
X178362914Y-182471485D01*
X178434342Y-182328628D01*
X178505771Y-182257200D01*
X178648628Y-182185771D01*
X179005771Y-182185771D01*
X179220057Y-182257200D01*
X179862914Y-183685771D02*
X179862914Y-182185771D01*
X180505771Y-183685771D02*
X180505771Y-182900057D01*
X180434342Y-182757200D01*
X180291485Y-182685771D01*
X180077200Y-182685771D01*
X179934342Y-182757200D01*
X179862914Y-182828628D01*
X181791485Y-183614342D02*
X181648628Y-183685771D01*
X181362914Y-183685771D01*
X181220057Y-183614342D01*
X181148628Y-183471485D01*
X181148628Y-182900057D01*
X181220057Y-182757200D01*
X181362914Y-182685771D01*
X181648628Y-182685771D01*
X181791485Y-182757200D01*
X181862914Y-182900057D01*
X181862914Y-183042914D01*
X181148628Y-183185771D01*
X183077200Y-183614342D02*
X182934342Y-183685771D01*
X182648628Y-183685771D01*
X182505771Y-183614342D01*
X182434342Y-183471485D01*
X182434342Y-182900057D01*
X182505771Y-182757200D01*
X182648628Y-182685771D01*
X182934342Y-182685771D01*
X183077200Y-182757200D01*
X183148628Y-182900057D01*
X183148628Y-183042914D01*
X182434342Y-183185771D01*
X183577200Y-182685771D02*
X184148628Y-182685771D01*
X183791485Y-182185771D02*
X183791485Y-183471485D01*
X183862914Y-183614342D01*
X184005771Y-183685771D01*
X184148628Y-183685771D01*
X184648628Y-183542914D02*
X184720057Y-183614342D01*
X184648628Y-183685771D01*
X184577200Y-183614342D01*
X184648628Y-183542914D01*
X184648628Y-183685771D01*
X184648628Y-182757200D02*
X184720057Y-182828628D01*
X184648628Y-182900057D01*
X184577200Y-182828628D01*
X184648628Y-182757200D01*
X184648628Y-182900057D01*
D10*
D12*
X178411485Y-179185771D02*
X178768628Y-180685771D01*
X179054342Y-179614342D01*
X179340057Y-180685771D01*
X179697200Y-179185771D01*
X180268628Y-180685771D02*
X180268628Y-179185771D01*
X180911485Y-180685771D02*
X180911485Y-179900057D01*
X180840057Y-179757200D01*
X180697200Y-179685771D01*
X180482914Y-179685771D01*
X180340057Y-179757200D01*
X180268628Y-179828628D01*
X181840057Y-180685771D02*
X181697200Y-180614342D01*
X181625771Y-180542914D01*
X181554342Y-180400057D01*
X181554342Y-179971485D01*
X181625771Y-179828628D01*
X181697200Y-179757200D01*
X181840057Y-179685771D01*
X182054342Y-179685771D01*
X182197200Y-179757200D01*
X182268628Y-179828628D01*
X182340057Y-179971485D01*
X182340057Y-180400057D01*
X182268628Y-180542914D01*
X182197200Y-180614342D01*
X182054342Y-180685771D01*
X181840057Y-180685771D01*
X182768628Y-179185771D02*
X183625771Y-179185771D01*
X183197200Y-180685771D02*
X183197200Y-179185771D01*
X184125771Y-180685771D02*
X184125771Y-179185771D01*
X184768628Y-180685771D02*
X184768628Y-179900057D01*
X184697200Y-179757200D01*
X184554342Y-179685771D01*
X184340057Y-179685771D01*
X184197200Y-179757200D01*
X184125771Y-179828628D01*
X186054342Y-180614342D02*
X185911485Y-180685771D01*
X185625771Y-180685771D01*
X185482914Y-180614342D01*
X185411485Y-180471485D01*
X185411485Y-179900057D01*
X185482914Y-179757200D01*
X185625771Y-179685771D01*
X185911485Y-179685771D01*
X186054342Y-179757200D01*
X186125771Y-179900057D01*
X186125771Y-180042914D01*
X185411485Y-180185771D01*
X186768628Y-180685771D02*
X186768628Y-179185771D01*
X186768628Y-179900057D02*
X187625771Y-179900057D01*
X187625771Y-180685771D02*
X187625771Y-179185771D01*
X188911485Y-180614342D02*
X188768628Y-180685771D01*
X188482914Y-180685771D01*
X188340057Y-180614342D01*
X188268628Y-180471485D01*
X188268628Y-179900057D01*
X188340057Y-179757200D01*
X188482914Y-179685771D01*
X188768628Y-179685771D01*
X188911485Y-179757200D01*
X188982914Y-179900057D01*
X188982914Y-180042914D01*
X188268628Y-180185771D01*
X190268628Y-180614342D02*
X190125771Y-180685771D01*
X189840057Y-180685771D01*
X189697200Y-180614342D01*
X189625771Y-180542914D01*
X189554342Y-180400057D01*
X189554342Y-179971485D01*
X189625771Y-179828628D01*
X189697200Y-179757200D01*
X189840057Y-179685771D01*
X190125771Y-179685771D01*
X190268628Y-179757200D01*
X190911485Y-180685771D02*
X190911485Y-179185771D01*
X191054342Y-180114342D02*
X191482914Y-180685771D01*
X191482914Y-179685771D02*
X190911485Y-180257200D01*
D10*
D11*
X197002200Y-191507200D02*
X197002200Y-194507200D01*
D10*
D11*
X261002200Y-191507200D02*
X261002200Y-198007200D01*
D14*
X122000000Y-64400000D02*
X122000000Y-61900000D01*
X103500000Y-64400000D02*
X103500000Y-61900000D01*
X122000000Y-64400000D02*
X125500000Y-64400000D01*
X103500000Y-61900000D02*
X122000000Y-61900000D01*
X103989634Y-39250000D02*
X121500000Y-39250000D01*
X125500269Y-48509479D02*
G75*
G03X121500000Y-39250000I-12750269J-14521D01*
G01*
X103989634Y-39250000D02*
G75*
G03X100000000Y-48513827I8760366J-9263827D01*
G01*
X125500000Y-64400000D02*
X125500000Y-48513827D01*
X100000000Y-64400000D02*
X100000000Y-48513827D01*
X100000000Y-64400000D02*
X103500000Y-64400000D01*
D15*
G04 #@! TO.P,D4,4*
G04 #@! TO.N,N/C*
X123250000Y-46200000D03*
G04 #@! TO.P,D4,1*
G04 #@! TO.N,Net-(C7-Pad1)*
X123250000Y-47500000D03*
G04 #@! TO.P,D4,2*
G04 #@! TO.N,Net-(D4-Pad2)*
X121350000Y-47500000D03*
G04 #@! TO.P,D4,3*
G04 #@! TO.N,N/C*
X121350000Y-46200000D03*
G04 #@! TD*
D16*
G04 #@! TO.P,SW1,3*
G04 #@! TO.N,GND*
X114750000Y-41850000D03*
G04 #@! TO.P,SW1,2*
G04 #@! TO.N,/mode_select*
X112750000Y-41850000D03*
G04 #@! TO.P,SW1,1*
G04 #@! TO.N,N/C*
X110750000Y-41850000D03*
G04 #@! TD*
D17*
G04 #@! TO.N,GND*
G04 #@! TO.C,C5*
G36*
X105730142Y-49701174D02*
X105753803Y-49704684D01*
X105777007Y-49710496D01*
X105799529Y-49718554D01*
X105821153Y-49728782D01*
X105841670Y-49741079D01*
X105860883Y-49755329D01*
X105878607Y-49771393D01*
X105894671Y-49789117D01*
X105908921Y-49808330D01*
X105921218Y-49828847D01*
X105931446Y-49850471D01*
X105939504Y-49872993D01*
X105945316Y-49896197D01*
X105948826Y-49919858D01*
X105950000Y-49943750D01*
X105950000Y-50856250D01*
X105948826Y-50880142D01*
X105945316Y-50903803D01*
X105939504Y-50927007D01*
X105931446Y-50949529D01*
X105921218Y-50971153D01*
X105908921Y-50991670D01*
X105894671Y-51010883D01*
X105878607Y-51028607D01*
X105860883Y-51044671D01*
X105841670Y-51058921D01*
X105821153Y-51071218D01*
X105799529Y-51081446D01*
X105777007Y-51089504D01*
X105753803Y-51095316D01*
X105730142Y-51098826D01*
X105706250Y-51100000D01*
X105218750Y-51100000D01*
X105194858Y-51098826D01*
X105171197Y-51095316D01*
X105147993Y-51089504D01*
X105125471Y-51081446D01*
X105103847Y-51071218D01*
X105083330Y-51058921D01*
X105064117Y-51044671D01*
X105046393Y-51028607D01*
X105030329Y-51010883D01*
X105016079Y-50991670D01*
X105003782Y-50971153D01*
X104993554Y-50949529D01*
X104985496Y-50927007D01*
X104979684Y-50903803D01*
X104976174Y-50880142D01*
X104975000Y-50856250D01*
X104975000Y-49943750D01*
X104976174Y-49919858D01*
X104979684Y-49896197D01*
X104985496Y-49872993D01*
X104993554Y-49850471D01*
X105003782Y-49828847D01*
X105016079Y-49808330D01*
X105030329Y-49789117D01*
X105046393Y-49771393D01*
X105064117Y-49755329D01*
X105083330Y-49741079D01*
X105103847Y-49728782D01*
X105125471Y-49718554D01*
X105147993Y-49710496D01*
X105171197Y-49704684D01*
X105194858Y-49701174D01*
X105218750Y-49700000D01*
X105706250Y-49700000D01*
X105730142Y-49701174D01*
X105730142Y-49701174D01*
G37*
D18*
G04 #@! TD*
G04 #@! TO.P,C5,2*
G04 #@! TO.N,GND*
X105462500Y-50400000D03*
D17*
G04 #@! TO.N,VDD*
G04 #@! TO.C,C5*
G36*
X107605142Y-49701174D02*
X107628803Y-49704684D01*
X107652007Y-49710496D01*
X107674529Y-49718554D01*
X107696153Y-49728782D01*
X107716670Y-49741079D01*
X107735883Y-49755329D01*
X107753607Y-49771393D01*
X107769671Y-49789117D01*
X107783921Y-49808330D01*
X107796218Y-49828847D01*
X107806446Y-49850471D01*
X107814504Y-49872993D01*
X107820316Y-49896197D01*
X107823826Y-49919858D01*
X107825000Y-49943750D01*
X107825000Y-50856250D01*
X107823826Y-50880142D01*
X107820316Y-50903803D01*
X107814504Y-50927007D01*
X107806446Y-50949529D01*
X107796218Y-50971153D01*
X107783921Y-50991670D01*
X107769671Y-51010883D01*
X107753607Y-51028607D01*
X107735883Y-51044671D01*
X107716670Y-51058921D01*
X107696153Y-51071218D01*
X107674529Y-51081446D01*
X107652007Y-51089504D01*
X107628803Y-51095316D01*
X107605142Y-51098826D01*
X107581250Y-51100000D01*
X107093750Y-51100000D01*
X107069858Y-51098826D01*
X107046197Y-51095316D01*
X107022993Y-51089504D01*
X107000471Y-51081446D01*
X106978847Y-51071218D01*
X106958330Y-51058921D01*
X106939117Y-51044671D01*
X106921393Y-51028607D01*
X106905329Y-51010883D01*
X106891079Y-50991670D01*
X106878782Y-50971153D01*
X106868554Y-50949529D01*
X106860496Y-50927007D01*
X106854684Y-50903803D01*
X106851174Y-50880142D01*
X106850000Y-50856250D01*
X106850000Y-49943750D01*
X106851174Y-49919858D01*
X106854684Y-49896197D01*
X106860496Y-49872993D01*
X106868554Y-49850471D01*
X106878782Y-49828847D01*
X106891079Y-49808330D01*
X106905329Y-49789117D01*
X106921393Y-49771393D01*
X106939117Y-49755329D01*
X106958330Y-49741079D01*
X106978847Y-49728782D01*
X107000471Y-49718554D01*
X107022993Y-49710496D01*
X107046197Y-49704684D01*
X107069858Y-49701174D01*
X107093750Y-49700000D01*
X107581250Y-49700000D01*
X107605142Y-49701174D01*
X107605142Y-49701174D01*
G37*
D18*
G04 #@! TD*
G04 #@! TO.P,C5,1*
G04 #@! TO.N,VDD*
X107337500Y-50400000D03*
D19*
G04 #@! TO.P,JP1,1*
G04 #@! TO.N,Net-(JP1-Pad1)*
X104550000Y-41600000D03*
D17*
G04 #@! TD*
G04 #@! TO.N,Net-(JP1-Pad1)*
G04 #@! TO.C,JP1*
G36*
X105050000Y-42350000D02*
X104550000Y-42350000D01*
X104550000Y-42349398D01*
X104525466Y-42349398D01*
X104476635Y-42344588D01*
X104428510Y-42335016D01*
X104381555Y-42320772D01*
X104336222Y-42301995D01*
X104292949Y-42278864D01*
X104252150Y-42251604D01*
X104214221Y-42220476D01*
X104179524Y-42185779D01*
X104148396Y-42147850D01*
X104121136Y-42107051D01*
X104098005Y-42063778D01*
X104079228Y-42018445D01*
X104064984Y-41971490D01*
X104055412Y-41923365D01*
X104050602Y-41874534D01*
X104050602Y-41850000D01*
X104050000Y-41850000D01*
X104050000Y-41350000D01*
X104050602Y-41350000D01*
X104050602Y-41325466D01*
X104055412Y-41276635D01*
X104064984Y-41228510D01*
X104079228Y-41181555D01*
X104098005Y-41136222D01*
X104121136Y-41092949D01*
X104148396Y-41052150D01*
X104179524Y-41014221D01*
X104214221Y-40979524D01*
X104252150Y-40948396D01*
X104292949Y-40921136D01*
X104336222Y-40898005D01*
X104381555Y-40879228D01*
X104428510Y-40864984D01*
X104476635Y-40855412D01*
X104525466Y-40850602D01*
X104550000Y-40850602D01*
X104550000Y-40850000D01*
X105050000Y-40850000D01*
X105050000Y-42350000D01*
X105050000Y-42350000D01*
G37*
D19*
G04 #@! TO.P,JP1,2*
G04 #@! TO.N,GND*
X105850000Y-41600000D03*
D17*
G04 #@! TD*
G04 #@! TO.N,GND*
G04 #@! TO.C,JP1*
G36*
X105850000Y-40850602D02*
X105874534Y-40850602D01*
X105923365Y-40855412D01*
X105971490Y-40864984D01*
X106018445Y-40879228D01*
X106063778Y-40898005D01*
X106107051Y-40921136D01*
X106147850Y-40948396D01*
X106185779Y-40979524D01*
X106220476Y-41014221D01*
X106251604Y-41052150D01*
X106278864Y-41092949D01*
X106301995Y-41136222D01*
X106320772Y-41181555D01*
X106335016Y-41228510D01*
X106344588Y-41276635D01*
X106349398Y-41325466D01*
X106349398Y-41350000D01*
X106350000Y-41350000D01*
X106350000Y-41850000D01*
X106349398Y-41850000D01*
X106349398Y-41874534D01*
X106344588Y-41923365D01*
X106335016Y-41971490D01*
X106320772Y-42018445D01*
X106301995Y-42063778D01*
X106278864Y-42107051D01*
X106251604Y-42147850D01*
X106220476Y-42185779D01*
X106185779Y-42220476D01*
X106147850Y-42251604D01*
X106107051Y-42278864D01*
X106063778Y-42301995D01*
X106018445Y-42320772D01*
X105971490Y-42335016D01*
X105923365Y-42344588D01*
X105874534Y-42349398D01*
X105850000Y-42349398D01*
X105850000Y-42350000D01*
X105350000Y-42350000D01*
X105350000Y-40850000D01*
X105850000Y-40850000D01*
X105850000Y-40850602D01*
X105850000Y-40850602D01*
G37*
D20*
G04 #@! TO.P,W3,1*
G04 #@! TO.N,+BATT*
X101600000Y-50500000D03*
G04 #@! TD*
G04 #@! TO.P,W4,1*
G04 #@! TO.N,GND*
X124000000Y-50400000D03*
G04 #@! TD*
G04 #@! TO.P,W11,1*
G04 #@! TO.N,GND*
X114900000Y-55900000D03*
G04 #@! TD*
G04 #@! TO.P,W12,1*
G04 #@! TO.N,VDD*
X122400000Y-57900000D03*
G04 #@! TD*
G04 #@! TO.P,W13,1*
G04 #@! TO.N,Net-(U7-Pad9)*
X120900000Y-55900000D03*
G04 #@! TD*
G04 #@! TO.P,W14,1*
G04 #@! TO.N,Net-(R10-Pad2)*
X119400000Y-57900000D03*
G04 #@! TD*
G04 #@! TO.P,W15,1*
G04 #@! TO.N,Net-(U7-Pad4)*
X116400000Y-57900000D03*
G04 #@! TD*
G04 #@! TO.P,W17,1*
G04 #@! TO.N,Net-(R14-Pad2)*
X117900000Y-55900000D03*
G04 #@! TD*
D17*
G04 #@! TO.N,Net-(C1-Pad1)*
G04 #@! TO.C,C1*
G36*
X103933142Y-44651174D02*
X103956803Y-44654684D01*
X103980007Y-44660496D01*
X104002529Y-44668554D01*
X104024153Y-44678782D01*
X104044670Y-44691079D01*
X104063883Y-44705329D01*
X104081607Y-44721393D01*
X104097671Y-44739117D01*
X104111921Y-44758330D01*
X104124218Y-44778847D01*
X104134446Y-44800471D01*
X104142504Y-44822993D01*
X104148316Y-44846197D01*
X104151826Y-44869858D01*
X104153000Y-44893750D01*
X104153000Y-45381250D01*
X104151826Y-45405142D01*
X104148316Y-45428803D01*
X104142504Y-45452007D01*
X104134446Y-45474529D01*
X104124218Y-45496153D01*
X104111921Y-45516670D01*
X104097671Y-45535883D01*
X104081607Y-45553607D01*
X104063883Y-45569671D01*
X104044670Y-45583921D01*
X104024153Y-45596218D01*
X104002529Y-45606446D01*
X103980007Y-45614504D01*
X103956803Y-45620316D01*
X103933142Y-45623826D01*
X103909250Y-45625000D01*
X102996750Y-45625000D01*
X102972858Y-45623826D01*
X102949197Y-45620316D01*
X102925993Y-45614504D01*
X102903471Y-45606446D01*
X102881847Y-45596218D01*
X102861330Y-45583921D01*
X102842117Y-45569671D01*
X102824393Y-45553607D01*
X102808329Y-45535883D01*
X102794079Y-45516670D01*
X102781782Y-45496153D01*
X102771554Y-45474529D01*
X102763496Y-45452007D01*
X102757684Y-45428803D01*
X102754174Y-45405142D01*
X102753000Y-45381250D01*
X102753000Y-44893750D01*
X102754174Y-44869858D01*
X102757684Y-44846197D01*
X102763496Y-44822993D01*
X102771554Y-44800471D01*
X102781782Y-44778847D01*
X102794079Y-44758330D01*
X102808329Y-44739117D01*
X102824393Y-44721393D01*
X102842117Y-44705329D01*
X102861330Y-44691079D01*
X102881847Y-44678782D01*
X102903471Y-44668554D01*
X102925993Y-44660496D01*
X102949197Y-44654684D01*
X102972858Y-44651174D01*
X102996750Y-44650000D01*
X103909250Y-44650000D01*
X103933142Y-44651174D01*
X103933142Y-44651174D01*
G37*
D18*
G04 #@! TD*
G04 #@! TO.P,C1,1*
G04 #@! TO.N,Net-(C1-Pad1)*
X103453000Y-45137500D03*
D17*
G04 #@! TO.N,GND*
G04 #@! TO.C,C1*
G36*
X103933142Y-46526174D02*
X103956803Y-46529684D01*
X103980007Y-46535496D01*
X104002529Y-46543554D01*
X104024153Y-46553782D01*
X104044670Y-46566079D01*
X104063883Y-46580329D01*
X104081607Y-46596393D01*
X104097671Y-46614117D01*
X104111921Y-46633330D01*
X104124218Y-46653847D01*
X104134446Y-46675471D01*
X104142504Y-46697993D01*
X104148316Y-46721197D01*
X104151826Y-46744858D01*
X104153000Y-46768750D01*
X104153000Y-47256250D01*
X104151826Y-47280142D01*
X104148316Y-47303803D01*
X104142504Y-47327007D01*
X104134446Y-47349529D01*
X104124218Y-47371153D01*
X104111921Y-47391670D01*
X104097671Y-47410883D01*
X104081607Y-47428607D01*
X104063883Y-47444671D01*
X104044670Y-47458921D01*
X104024153Y-47471218D01*
X104002529Y-47481446D01*
X103980007Y-47489504D01*
X103956803Y-47495316D01*
X103933142Y-47498826D01*
X103909250Y-47500000D01*
X102996750Y-47500000D01*
X102972858Y-47498826D01*
X102949197Y-47495316D01*
X102925993Y-47489504D01*
X102903471Y-47481446D01*
X102881847Y-47471218D01*
X102861330Y-47458921D01*
X102842117Y-47444671D01*
X102824393Y-47428607D01*
X102808329Y-47410883D01*
X102794079Y-47391670D01*
X102781782Y-47371153D01*
X102771554Y-47349529D01*
X102763496Y-47327007D01*
X102757684Y-47303803D01*
X102754174Y-47280142D01*
X102753000Y-47256250D01*
X102753000Y-46768750D01*
X102754174Y-46744858D01*
X102757684Y-46721197D01*
X102763496Y-46697993D01*
X102771554Y-46675471D01*
X102781782Y-46653847D01*
X102794079Y-46633330D01*
X102808329Y-46614117D01*
X102824393Y-46596393D01*
X102842117Y-46580329D01*
X102861330Y-46566079D01*
X102881847Y-46553782D01*
X102903471Y-46543554D01*
X102925993Y-46535496D01*
X102949197Y-46529684D01*
X102972858Y-46526174D01*
X102996750Y-46525000D01*
X103909250Y-46525000D01*
X103933142Y-46526174D01*
X103933142Y-46526174D01*
G37*
D18*
G04 #@! TD*
G04 #@! TO.P,C1,2*
G04 #@! TO.N,GND*
X103453000Y-47012500D03*
D17*
G04 #@! TO.N,GND*
G04 #@! TO.C,C2*
G36*
X105730142Y-52001174D02*
X105753803Y-52004684D01*
X105777007Y-52010496D01*
X105799529Y-52018554D01*
X105821153Y-52028782D01*
X105841670Y-52041079D01*
X105860883Y-52055329D01*
X105878607Y-52071393D01*
X105894671Y-52089117D01*
X105908921Y-52108330D01*
X105921218Y-52128847D01*
X105931446Y-52150471D01*
X105939504Y-52172993D01*
X105945316Y-52196197D01*
X105948826Y-52219858D01*
X105950000Y-52243750D01*
X105950000Y-53156250D01*
X105948826Y-53180142D01*
X105945316Y-53203803D01*
X105939504Y-53227007D01*
X105931446Y-53249529D01*
X105921218Y-53271153D01*
X105908921Y-53291670D01*
X105894671Y-53310883D01*
X105878607Y-53328607D01*
X105860883Y-53344671D01*
X105841670Y-53358921D01*
X105821153Y-53371218D01*
X105799529Y-53381446D01*
X105777007Y-53389504D01*
X105753803Y-53395316D01*
X105730142Y-53398826D01*
X105706250Y-53400000D01*
X105218750Y-53400000D01*
X105194858Y-53398826D01*
X105171197Y-53395316D01*
X105147993Y-53389504D01*
X105125471Y-53381446D01*
X105103847Y-53371218D01*
X105083330Y-53358921D01*
X105064117Y-53344671D01*
X105046393Y-53328607D01*
X105030329Y-53310883D01*
X105016079Y-53291670D01*
X105003782Y-53271153D01*
X104993554Y-53249529D01*
X104985496Y-53227007D01*
X104979684Y-53203803D01*
X104976174Y-53180142D01*
X104975000Y-53156250D01*
X104975000Y-52243750D01*
X104976174Y-52219858D01*
X104979684Y-52196197D01*
X104985496Y-52172993D01*
X104993554Y-52150471D01*
X105003782Y-52128847D01*
X105016079Y-52108330D01*
X105030329Y-52089117D01*
X105046393Y-52071393D01*
X105064117Y-52055329D01*
X105083330Y-52041079D01*
X105103847Y-52028782D01*
X105125471Y-52018554D01*
X105147993Y-52010496D01*
X105171197Y-52004684D01*
X105194858Y-52001174D01*
X105218750Y-52000000D01*
X105706250Y-52000000D01*
X105730142Y-52001174D01*
X105730142Y-52001174D01*
G37*
D18*
G04 #@! TD*
G04 #@! TO.P,C2,2*
G04 #@! TO.N,GND*
X105462500Y-52700000D03*
D17*
G04 #@! TO.N,VDD*
G04 #@! TO.C,C2*
G36*
X107605142Y-52001174D02*
X107628803Y-52004684D01*
X107652007Y-52010496D01*
X107674529Y-52018554D01*
X107696153Y-52028782D01*
X107716670Y-52041079D01*
X107735883Y-52055329D01*
X107753607Y-52071393D01*
X107769671Y-52089117D01*
X107783921Y-52108330D01*
X107796218Y-52128847D01*
X107806446Y-52150471D01*
X107814504Y-52172993D01*
X107820316Y-52196197D01*
X107823826Y-52219858D01*
X107825000Y-52243750D01*
X107825000Y-53156250D01*
X107823826Y-53180142D01*
X107820316Y-53203803D01*
X107814504Y-53227007D01*
X107806446Y-53249529D01*
X107796218Y-53271153D01*
X107783921Y-53291670D01*
X107769671Y-53310883D01*
X107753607Y-53328607D01*
X107735883Y-53344671D01*
X107716670Y-53358921D01*
X107696153Y-53371218D01*
X107674529Y-53381446D01*
X107652007Y-53389504D01*
X107628803Y-53395316D01*
X107605142Y-53398826D01*
X107581250Y-53400000D01*
X107093750Y-53400000D01*
X107069858Y-53398826D01*
X107046197Y-53395316D01*
X107022993Y-53389504D01*
X107000471Y-53381446D01*
X106978847Y-53371218D01*
X106958330Y-53358921D01*
X106939117Y-53344671D01*
X106921393Y-53328607D01*
X106905329Y-53310883D01*
X106891079Y-53291670D01*
X106878782Y-53271153D01*
X106868554Y-53249529D01*
X106860496Y-53227007D01*
X106854684Y-53203803D01*
X106851174Y-53180142D01*
X106850000Y-53156250D01*
X106850000Y-52243750D01*
X106851174Y-52219858D01*
X106854684Y-52196197D01*
X106860496Y-52172993D01*
X106868554Y-52150471D01*
X106878782Y-52128847D01*
X106891079Y-52108330D01*
X106905329Y-52089117D01*
X106921393Y-52071393D01*
X106939117Y-52055329D01*
X106958330Y-52041079D01*
X106978847Y-52028782D01*
X107000471Y-52018554D01*
X107022993Y-52010496D01*
X107046197Y-52004684D01*
X107069858Y-52001174D01*
X107093750Y-52000000D01*
X107581250Y-52000000D01*
X107605142Y-52001174D01*
X107605142Y-52001174D01*
G37*
D18*
G04 #@! TD*
G04 #@! TO.P,C2,1*
G04 #@! TO.N,VDD*
X107337500Y-52700000D03*
D17*
G04 #@! TO.N,Net-(C7-Pad1)*
G04 #@! TO.C,C7*
G36*
X120005142Y-47315001D02*
X120028803Y-47318511D01*
X120052007Y-47324323D01*
X120074529Y-47332381D01*
X120096153Y-47342609D01*
X120116670Y-47354906D01*
X120135883Y-47369156D01*
X120153607Y-47385220D01*
X120169671Y-47402944D01*
X120183921Y-47422157D01*
X120196218Y-47442674D01*
X120206446Y-47464298D01*
X120214504Y-47486820D01*
X120220316Y-47510024D01*
X120223826Y-47533685D01*
X120225000Y-47557577D01*
X120225000Y-48470077D01*
X120223826Y-48493969D01*
X120220316Y-48517630D01*
X120214504Y-48540834D01*
X120206446Y-48563356D01*
X120196218Y-48584980D01*
X120183921Y-48605497D01*
X120169671Y-48624710D01*
X120153607Y-48642434D01*
X120135883Y-48658498D01*
X120116670Y-48672748D01*
X120096153Y-48685045D01*
X120074529Y-48695273D01*
X120052007Y-48703331D01*
X120028803Y-48709143D01*
X120005142Y-48712653D01*
X119981250Y-48713827D01*
X119493750Y-48713827D01*
X119469858Y-48712653D01*
X119446197Y-48709143D01*
X119422993Y-48703331D01*
X119400471Y-48695273D01*
X119378847Y-48685045D01*
X119358330Y-48672748D01*
X119339117Y-48658498D01*
X119321393Y-48642434D01*
X119305329Y-48624710D01*
X119291079Y-48605497D01*
X119278782Y-48584980D01*
X119268554Y-48563356D01*
X119260496Y-48540834D01*
X119254684Y-48517630D01*
X119251174Y-48493969D01*
X119250000Y-48470077D01*
X119250000Y-47557577D01*
X119251174Y-47533685D01*
X119254684Y-47510024D01*
X119260496Y-47486820D01*
X119268554Y-47464298D01*
X119278782Y-47442674D01*
X119291079Y-47422157D01*
X119305329Y-47402944D01*
X119321393Y-47385220D01*
X119339117Y-47369156D01*
X119358330Y-47354906D01*
X119378847Y-47342609D01*
X119400471Y-47332381D01*
X119422993Y-47324323D01*
X119446197Y-47318511D01*
X119469858Y-47315001D01*
X119493750Y-47313827D01*
X119981250Y-47313827D01*
X120005142Y-47315001D01*
X120005142Y-47315001D01*
G37*
D18*
G04 #@! TD*
G04 #@! TO.P,C7,1*
G04 #@! TO.N,Net-(C7-Pad1)*
X119737500Y-48013827D03*
D17*
G04 #@! TO.N,GND*
G04 #@! TO.C,C7*
G36*
X118130142Y-47315001D02*
X118153803Y-47318511D01*
X118177007Y-47324323D01*
X118199529Y-47332381D01*
X118221153Y-47342609D01*
X118241670Y-47354906D01*
X118260883Y-47369156D01*
X118278607Y-47385220D01*
X118294671Y-47402944D01*
X118308921Y-47422157D01*
X118321218Y-47442674D01*
X118331446Y-47464298D01*
X118339504Y-47486820D01*
X118345316Y-47510024D01*
X118348826Y-47533685D01*
X118350000Y-47557577D01*
X118350000Y-48470077D01*
X118348826Y-48493969D01*
X118345316Y-48517630D01*
X118339504Y-48540834D01*
X118331446Y-48563356D01*
X118321218Y-48584980D01*
X118308921Y-48605497D01*
X118294671Y-48624710D01*
X118278607Y-48642434D01*
X118260883Y-48658498D01*
X118241670Y-48672748D01*
X118221153Y-48685045D01*
X118199529Y-48695273D01*
X118177007Y-48703331D01*
X118153803Y-48709143D01*
X118130142Y-48712653D01*
X118106250Y-48713827D01*
X117618750Y-48713827D01*
X117594858Y-48712653D01*
X117571197Y-48709143D01*
X117547993Y-48703331D01*
X117525471Y-48695273D01*
X117503847Y-48685045D01*
X117483330Y-48672748D01*
X117464117Y-48658498D01*
X117446393Y-48642434D01*
X117430329Y-48624710D01*
X117416079Y-48605497D01*
X117403782Y-48584980D01*
X117393554Y-48563356D01*
X117385496Y-48540834D01*
X117379684Y-48517630D01*
X117376174Y-48493969D01*
X117375000Y-48470077D01*
X117375000Y-47557577D01*
X117376174Y-47533685D01*
X117379684Y-47510024D01*
X117385496Y-47486820D01*
X117393554Y-47464298D01*
X117403782Y-47442674D01*
X117416079Y-47422157D01*
X117430329Y-47402944D01*
X117446393Y-47385220D01*
X117464117Y-47369156D01*
X117483330Y-47354906D01*
X117503847Y-47342609D01*
X117525471Y-47332381D01*
X117547993Y-47324323D01*
X117571197Y-47318511D01*
X117594858Y-47315001D01*
X117618750Y-47313827D01*
X118106250Y-47313827D01*
X118130142Y-47315001D01*
X118130142Y-47315001D01*
G37*
D18*
G04 #@! TD*
G04 #@! TO.P,C7,2*
G04 #@! TO.N,GND*
X117862500Y-48013827D03*
D17*
G04 #@! TO.N,+BATT*
G04 #@! TO.C,R2*
G36*
X105826691Y-44712053D02*
X105847926Y-44715203D01*
X105868750Y-44720419D01*
X105888962Y-44727651D01*
X105908368Y-44736830D01*
X105926781Y-44747866D01*
X105944024Y-44760654D01*
X105959930Y-44775070D01*
X105974346Y-44790976D01*
X105987134Y-44808219D01*
X105998170Y-44826632D01*
X106007349Y-44846038D01*
X106014581Y-44866250D01*
X106019797Y-44887074D01*
X106022947Y-44908309D01*
X106024000Y-44929750D01*
X106024000Y-45442250D01*
X106022947Y-45463691D01*
X106019797Y-45484926D01*
X106014581Y-45505750D01*
X106007349Y-45525962D01*
X105998170Y-45545368D01*
X105987134Y-45563781D01*
X105974346Y-45581024D01*
X105959930Y-45596930D01*
X105944024Y-45611346D01*
X105926781Y-45624134D01*
X105908368Y-45635170D01*
X105888962Y-45644349D01*
X105868750Y-45651581D01*
X105847926Y-45656797D01*
X105826691Y-45659947D01*
X105805250Y-45661000D01*
X105367750Y-45661000D01*
X105346309Y-45659947D01*
X105325074Y-45656797D01*
X105304250Y-45651581D01*
X105284038Y-45644349D01*
X105264632Y-45635170D01*
X105246219Y-45624134D01*
X105228976Y-45611346D01*
X105213070Y-45596930D01*
X105198654Y-45581024D01*
X105185866Y-45563781D01*
X105174830Y-45545368D01*
X105165651Y-45525962D01*
X105158419Y-45505750D01*
X105153203Y-45484926D01*
X105150053Y-45463691D01*
X105149000Y-45442250D01*
X105149000Y-44929750D01*
X105150053Y-44908309D01*
X105153203Y-44887074D01*
X105158419Y-44866250D01*
X105165651Y-44846038D01*
X105174830Y-44826632D01*
X105185866Y-44808219D01*
X105198654Y-44790976D01*
X105213070Y-44775070D01*
X105228976Y-44760654D01*
X105246219Y-44747866D01*
X105264632Y-44736830D01*
X105284038Y-44727651D01*
X105304250Y-44720419D01*
X105325074Y-44715203D01*
X105346309Y-44712053D01*
X105367750Y-44711000D01*
X105805250Y-44711000D01*
X105826691Y-44712053D01*
X105826691Y-44712053D01*
G37*
D21*
G04 #@! TD*
G04 #@! TO.P,R2,2*
G04 #@! TO.N,+BATT*
X105586500Y-45186000D03*
D17*
G04 #@! TO.N,/PGPExt_Signal_Processing/battvolt*
G04 #@! TO.C,R2*
G36*
X107401691Y-44712053D02*
X107422926Y-44715203D01*
X107443750Y-44720419D01*
X107463962Y-44727651D01*
X107483368Y-44736830D01*
X107501781Y-44747866D01*
X107519024Y-44760654D01*
X107534930Y-44775070D01*
X107549346Y-44790976D01*
X107562134Y-44808219D01*
X107573170Y-44826632D01*
X107582349Y-44846038D01*
X107589581Y-44866250D01*
X107594797Y-44887074D01*
X107597947Y-44908309D01*
X107599000Y-44929750D01*
X107599000Y-45442250D01*
X107597947Y-45463691D01*
X107594797Y-45484926D01*
X107589581Y-45505750D01*
X107582349Y-45525962D01*
X107573170Y-45545368D01*
X107562134Y-45563781D01*
X107549346Y-45581024D01*
X107534930Y-45596930D01*
X107519024Y-45611346D01*
X107501781Y-45624134D01*
X107483368Y-45635170D01*
X107463962Y-45644349D01*
X107443750Y-45651581D01*
X107422926Y-45656797D01*
X107401691Y-45659947D01*
X107380250Y-45661000D01*
X106942750Y-45661000D01*
X106921309Y-45659947D01*
X106900074Y-45656797D01*
X106879250Y-45651581D01*
X106859038Y-45644349D01*
X106839632Y-45635170D01*
X106821219Y-45624134D01*
X106803976Y-45611346D01*
X106788070Y-45596930D01*
X106773654Y-45581024D01*
X106760866Y-45563781D01*
X106749830Y-45545368D01*
X106740651Y-45525962D01*
X106733419Y-45505750D01*
X106728203Y-45484926D01*
X106725053Y-45463691D01*
X106724000Y-45442250D01*
X106724000Y-44929750D01*
X106725053Y-44908309D01*
X106728203Y-44887074D01*
X106733419Y-44866250D01*
X106740651Y-44846038D01*
X106749830Y-44826632D01*
X106760866Y-44808219D01*
X106773654Y-44790976D01*
X106788070Y-44775070D01*
X106803976Y-44760654D01*
X106821219Y-44747866D01*
X106839632Y-44736830D01*
X106859038Y-44727651D01*
X106879250Y-44720419D01*
X106900074Y-44715203D01*
X106921309Y-44712053D01*
X106942750Y-44711000D01*
X107380250Y-44711000D01*
X107401691Y-44712053D01*
X107401691Y-44712053D01*
G37*
D21*
G04 #@! TD*
G04 #@! TO.P,R2,1*
G04 #@! TO.N,/PGPExt_Signal_Processing/battvolt*
X107161500Y-45186000D03*
D17*
G04 #@! TO.N,/PGPExt_Signal_Processing/battvolt*
G04 #@! TO.C,R3*
G36*
X107401691Y-46490053D02*
X107422926Y-46493203D01*
X107443750Y-46498419D01*
X107463962Y-46505651D01*
X107483368Y-46514830D01*
X107501781Y-46525866D01*
X107519024Y-46538654D01*
X107534930Y-46553070D01*
X107549346Y-46568976D01*
X107562134Y-46586219D01*
X107573170Y-46604632D01*
X107582349Y-46624038D01*
X107589581Y-46644250D01*
X107594797Y-46665074D01*
X107597947Y-46686309D01*
X107599000Y-46707750D01*
X107599000Y-47220250D01*
X107597947Y-47241691D01*
X107594797Y-47262926D01*
X107589581Y-47283750D01*
X107582349Y-47303962D01*
X107573170Y-47323368D01*
X107562134Y-47341781D01*
X107549346Y-47359024D01*
X107534930Y-47374930D01*
X107519024Y-47389346D01*
X107501781Y-47402134D01*
X107483368Y-47413170D01*
X107463962Y-47422349D01*
X107443750Y-47429581D01*
X107422926Y-47434797D01*
X107401691Y-47437947D01*
X107380250Y-47439000D01*
X106942750Y-47439000D01*
X106921309Y-47437947D01*
X106900074Y-47434797D01*
X106879250Y-47429581D01*
X106859038Y-47422349D01*
X106839632Y-47413170D01*
X106821219Y-47402134D01*
X106803976Y-47389346D01*
X106788070Y-47374930D01*
X106773654Y-47359024D01*
X106760866Y-47341781D01*
X106749830Y-47323368D01*
X106740651Y-47303962D01*
X106733419Y-47283750D01*
X106728203Y-47262926D01*
X106725053Y-47241691D01*
X106724000Y-47220250D01*
X106724000Y-46707750D01*
X106725053Y-46686309D01*
X106728203Y-46665074D01*
X106733419Y-46644250D01*
X106740651Y-46624038D01*
X106749830Y-46604632D01*
X106760866Y-46586219D01*
X106773654Y-46568976D01*
X106788070Y-46553070D01*
X106803976Y-46538654D01*
X106821219Y-46525866D01*
X106839632Y-46514830D01*
X106859038Y-46505651D01*
X106879250Y-46498419D01*
X106900074Y-46493203D01*
X106921309Y-46490053D01*
X106942750Y-46489000D01*
X107380250Y-46489000D01*
X107401691Y-46490053D01*
X107401691Y-46490053D01*
G37*
D21*
G04 #@! TD*
G04 #@! TO.P,R3,2*
G04 #@! TO.N,/PGPExt_Signal_Processing/battvolt*
X107161500Y-46964000D03*
D17*
G04 #@! TO.N,GND*
G04 #@! TO.C,R3*
G36*
X105826691Y-46490053D02*
X105847926Y-46493203D01*
X105868750Y-46498419D01*
X105888962Y-46505651D01*
X105908368Y-46514830D01*
X105926781Y-46525866D01*
X105944024Y-46538654D01*
X105959930Y-46553070D01*
X105974346Y-46568976D01*
X105987134Y-46586219D01*
X105998170Y-46604632D01*
X106007349Y-46624038D01*
X106014581Y-46644250D01*
X106019797Y-46665074D01*
X106022947Y-46686309D01*
X106024000Y-46707750D01*
X106024000Y-47220250D01*
X106022947Y-47241691D01*
X106019797Y-47262926D01*
X106014581Y-47283750D01*
X106007349Y-47303962D01*
X105998170Y-47323368D01*
X105987134Y-47341781D01*
X105974346Y-47359024D01*
X105959930Y-47374930D01*
X105944024Y-47389346D01*
X105926781Y-47402134D01*
X105908368Y-47413170D01*
X105888962Y-47422349D01*
X105868750Y-47429581D01*
X105847926Y-47434797D01*
X105826691Y-47437947D01*
X105805250Y-47439000D01*
X105367750Y-47439000D01*
X105346309Y-47437947D01*
X105325074Y-47434797D01*
X105304250Y-47429581D01*
X105284038Y-47422349D01*
X105264632Y-47413170D01*
X105246219Y-47402134D01*
X105228976Y-47389346D01*
X105213070Y-47374930D01*
X105198654Y-47359024D01*
X105185866Y-47341781D01*
X105174830Y-47323368D01*
X105165651Y-47303962D01*
X105158419Y-47283750D01*
X105153203Y-47262926D01*
X105150053Y-47241691D01*
X105149000Y-47220250D01*
X105149000Y-46707750D01*
X105150053Y-46686309D01*
X105153203Y-46665074D01*
X105158419Y-46644250D01*
X105165651Y-46624038D01*
X105174830Y-46604632D01*
X105185866Y-46586219D01*
X105198654Y-46568976D01*
X105213070Y-46553070D01*
X105228976Y-46538654D01*
X105246219Y-46525866D01*
X105264632Y-46514830D01*
X105284038Y-46505651D01*
X105304250Y-46498419D01*
X105325074Y-46493203D01*
X105346309Y-46490053D01*
X105367750Y-46489000D01*
X105805250Y-46489000D01*
X105826691Y-46490053D01*
X105826691Y-46490053D01*
G37*
D21*
G04 #@! TD*
G04 #@! TO.P,R3,1*
G04 #@! TO.N,GND*
X105586500Y-46964000D03*
D17*
G04 #@! TO.N,Net-(D4-Pad2)*
G04 #@! TO.C,R11*
G36*
X121752691Y-43789880D02*
X121773926Y-43793030D01*
X121794750Y-43798246D01*
X121814962Y-43805478D01*
X121834368Y-43814657D01*
X121852781Y-43825693D01*
X121870024Y-43838481D01*
X121885930Y-43852897D01*
X121900346Y-43868803D01*
X121913134Y-43886046D01*
X121924170Y-43904459D01*
X121933349Y-43923865D01*
X121940581Y-43944077D01*
X121945797Y-43964901D01*
X121948947Y-43986136D01*
X121950000Y-44007577D01*
X121950000Y-44520077D01*
X121948947Y-44541518D01*
X121945797Y-44562753D01*
X121940581Y-44583577D01*
X121933349Y-44603789D01*
X121924170Y-44623195D01*
X121913134Y-44641608D01*
X121900346Y-44658851D01*
X121885930Y-44674757D01*
X121870024Y-44689173D01*
X121852781Y-44701961D01*
X121834368Y-44712997D01*
X121814962Y-44722176D01*
X121794750Y-44729408D01*
X121773926Y-44734624D01*
X121752691Y-44737774D01*
X121731250Y-44738827D01*
X121293750Y-44738827D01*
X121272309Y-44737774D01*
X121251074Y-44734624D01*
X121230250Y-44729408D01*
X121210038Y-44722176D01*
X121190632Y-44712997D01*
X121172219Y-44701961D01*
X121154976Y-44689173D01*
X121139070Y-44674757D01*
X121124654Y-44658851D01*
X121111866Y-44641608D01*
X121100830Y-44623195D01*
X121091651Y-44603789D01*
X121084419Y-44583577D01*
X121079203Y-44562753D01*
X121076053Y-44541518D01*
X121075000Y-44520077D01*
X121075000Y-44007577D01*
X121076053Y-43986136D01*
X121079203Y-43964901D01*
X121084419Y-43944077D01*
X121091651Y-43923865D01*
X121100830Y-43904459D01*
X121111866Y-43886046D01*
X121124654Y-43868803D01*
X121139070Y-43852897D01*
X121154976Y-43838481D01*
X121172219Y-43825693D01*
X121190632Y-43814657D01*
X121210038Y-43805478D01*
X121230250Y-43798246D01*
X121251074Y-43793030D01*
X121272309Y-43789880D01*
X121293750Y-43788827D01*
X121731250Y-43788827D01*
X121752691Y-43789880D01*
X121752691Y-43789880D01*
G37*
D21*
G04 #@! TD*
G04 #@! TO.P,R11,1*
G04 #@! TO.N,Net-(D4-Pad2)*
X121512500Y-44263827D03*
D17*
G04 #@! TO.N,/PGPExt_Signal_Processing/LEDr_i*
G04 #@! TO.C,R11*
G36*
X123327691Y-43789880D02*
X123348926Y-43793030D01*
X123369750Y-43798246D01*
X123389962Y-43805478D01*
X123409368Y-43814657D01*
X123427781Y-43825693D01*
X123445024Y-43838481D01*
X123460930Y-43852897D01*
X123475346Y-43868803D01*
X123488134Y-43886046D01*
X123499170Y-43904459D01*
X123508349Y-43923865D01*
X123515581Y-43944077D01*
X123520797Y-43964901D01*
X123523947Y-43986136D01*
X123525000Y-44007577D01*
X123525000Y-44520077D01*
X123523947Y-44541518D01*
X123520797Y-44562753D01*
X123515581Y-44583577D01*
X123508349Y-44603789D01*
X123499170Y-44623195D01*
X123488134Y-44641608D01*
X123475346Y-44658851D01*
X123460930Y-44674757D01*
X123445024Y-44689173D01*
X123427781Y-44701961D01*
X123409368Y-44712997D01*
X123389962Y-44722176D01*
X123369750Y-44729408D01*
X123348926Y-44734624D01*
X123327691Y-44737774D01*
X123306250Y-44738827D01*
X122868750Y-44738827D01*
X122847309Y-44737774D01*
X122826074Y-44734624D01*
X122805250Y-44729408D01*
X122785038Y-44722176D01*
X122765632Y-44712997D01*
X122747219Y-44701961D01*
X122729976Y-44689173D01*
X122714070Y-44674757D01*
X122699654Y-44658851D01*
X122686866Y-44641608D01*
X122675830Y-44623195D01*
X122666651Y-44603789D01*
X122659419Y-44583577D01*
X122654203Y-44562753D01*
X122651053Y-44541518D01*
X122650000Y-44520077D01*
X122650000Y-44007577D01*
X122651053Y-43986136D01*
X122654203Y-43964901D01*
X122659419Y-43944077D01*
X122666651Y-43923865D01*
X122675830Y-43904459D01*
X122686866Y-43886046D01*
X122699654Y-43868803D01*
X122714070Y-43852897D01*
X122729976Y-43838481D01*
X122747219Y-43825693D01*
X122765632Y-43814657D01*
X122785038Y-43805478D01*
X122805250Y-43798246D01*
X122826074Y-43793030D01*
X122847309Y-43789880D01*
X122868750Y-43788827D01*
X123306250Y-43788827D01*
X123327691Y-43789880D01*
X123327691Y-43789880D01*
G37*
D21*
G04 #@! TD*
G04 #@! TO.P,R11,2*
G04 #@! TO.N,/PGPExt_Signal_Processing/LEDr_i*
X123087500Y-44263827D03*
D17*
G04 #@! TO.N,/PGPExt_Signal_Processing/LEDr*
G04 #@! TO.C,R12*
G36*
X118252691Y-45539880D02*
X118273926Y-45543030D01*
X118294750Y-45548246D01*
X118314962Y-45555478D01*
X118334368Y-45564657D01*
X118352781Y-45575693D01*
X118370024Y-45588481D01*
X118385930Y-45602897D01*
X118400346Y-45618803D01*
X118413134Y-45636046D01*
X118424170Y-45654459D01*
X118433349Y-45673865D01*
X118440581Y-45694077D01*
X118445797Y-45714901D01*
X118448947Y-45736136D01*
X118450000Y-45757577D01*
X118450000Y-46270077D01*
X118448947Y-46291518D01*
X118445797Y-46312753D01*
X118440581Y-46333577D01*
X118433349Y-46353789D01*
X118424170Y-46373195D01*
X118413134Y-46391608D01*
X118400346Y-46408851D01*
X118385930Y-46424757D01*
X118370024Y-46439173D01*
X118352781Y-46451961D01*
X118334368Y-46462997D01*
X118314962Y-46472176D01*
X118294750Y-46479408D01*
X118273926Y-46484624D01*
X118252691Y-46487774D01*
X118231250Y-46488827D01*
X117793750Y-46488827D01*
X117772309Y-46487774D01*
X117751074Y-46484624D01*
X117730250Y-46479408D01*
X117710038Y-46472176D01*
X117690632Y-46462997D01*
X117672219Y-46451961D01*
X117654976Y-46439173D01*
X117639070Y-46424757D01*
X117624654Y-46408851D01*
X117611866Y-46391608D01*
X117600830Y-46373195D01*
X117591651Y-46353789D01*
X117584419Y-46333577D01*
X117579203Y-46312753D01*
X117576053Y-46291518D01*
X117575000Y-46270077D01*
X117575000Y-45757577D01*
X117576053Y-45736136D01*
X117579203Y-45714901D01*
X117584419Y-45694077D01*
X117591651Y-45673865D01*
X117600830Y-45654459D01*
X117611866Y-45636046D01*
X117624654Y-45618803D01*
X117639070Y-45602897D01*
X117654976Y-45588481D01*
X117672219Y-45575693D01*
X117690632Y-45564657D01*
X117710038Y-45555478D01*
X117730250Y-45548246D01*
X117751074Y-45543030D01*
X117772309Y-45539880D01*
X117793750Y-45538827D01*
X118231250Y-45538827D01*
X118252691Y-45539880D01*
X118252691Y-45539880D01*
G37*
D21*
G04 #@! TD*
G04 #@! TO.P,R12,2*
G04 #@! TO.N,/PGPExt_Signal_Processing/LEDr*
X118012500Y-46013827D03*
D17*
G04 #@! TO.N,Net-(C7-Pad1)*
G04 #@! TO.C,R12*
G36*
X119827691Y-45539880D02*
X119848926Y-45543030D01*
X119869750Y-45548246D01*
X119889962Y-45555478D01*
X119909368Y-45564657D01*
X119927781Y-45575693D01*
X119945024Y-45588481D01*
X119960930Y-45602897D01*
X119975346Y-45618803D01*
X119988134Y-45636046D01*
X119999170Y-45654459D01*
X120008349Y-45673865D01*
X120015581Y-45694077D01*
X120020797Y-45714901D01*
X120023947Y-45736136D01*
X120025000Y-45757577D01*
X120025000Y-46270077D01*
X120023947Y-46291518D01*
X120020797Y-46312753D01*
X120015581Y-46333577D01*
X120008349Y-46353789D01*
X119999170Y-46373195D01*
X119988134Y-46391608D01*
X119975346Y-46408851D01*
X119960930Y-46424757D01*
X119945024Y-46439173D01*
X119927781Y-46451961D01*
X119909368Y-46462997D01*
X119889962Y-46472176D01*
X119869750Y-46479408D01*
X119848926Y-46484624D01*
X119827691Y-46487774D01*
X119806250Y-46488827D01*
X119368750Y-46488827D01*
X119347309Y-46487774D01*
X119326074Y-46484624D01*
X119305250Y-46479408D01*
X119285038Y-46472176D01*
X119265632Y-46462997D01*
X119247219Y-46451961D01*
X119229976Y-46439173D01*
X119214070Y-46424757D01*
X119199654Y-46408851D01*
X119186866Y-46391608D01*
X119175830Y-46373195D01*
X119166651Y-46353789D01*
X119159419Y-46333577D01*
X119154203Y-46312753D01*
X119151053Y-46291518D01*
X119150000Y-46270077D01*
X119150000Y-45757577D01*
X119151053Y-45736136D01*
X119154203Y-45714901D01*
X119159419Y-45694077D01*
X119166651Y-45673865D01*
X119175830Y-45654459D01*
X119186866Y-45636046D01*
X119199654Y-45618803D01*
X119214070Y-45602897D01*
X119229976Y-45588481D01*
X119247219Y-45575693D01*
X119265632Y-45564657D01*
X119285038Y-45555478D01*
X119305250Y-45548246D01*
X119326074Y-45543030D01*
X119347309Y-45539880D01*
X119368750Y-45538827D01*
X119806250Y-45538827D01*
X119827691Y-45539880D01*
X119827691Y-45539880D01*
G37*
D21*
G04 #@! TD*
G04 #@! TO.P,R12,1*
G04 #@! TO.N,Net-(C7-Pad1)*
X119587500Y-46013827D03*
D17*
G04 #@! TO.N,/PGPExt_Signal_Processing/LEDr*
G04 #@! TO.C,R13*
G36*
X118252691Y-43789880D02*
X118273926Y-43793030D01*
X118294750Y-43798246D01*
X118314962Y-43805478D01*
X118334368Y-43814657D01*
X118352781Y-43825693D01*
X118370024Y-43838481D01*
X118385930Y-43852897D01*
X118400346Y-43868803D01*
X118413134Y-43886046D01*
X118424170Y-43904459D01*
X118433349Y-43923865D01*
X118440581Y-43944077D01*
X118445797Y-43964901D01*
X118448947Y-43986136D01*
X118450000Y-44007577D01*
X118450000Y-44520077D01*
X118448947Y-44541518D01*
X118445797Y-44562753D01*
X118440581Y-44583577D01*
X118433349Y-44603789D01*
X118424170Y-44623195D01*
X118413134Y-44641608D01*
X118400346Y-44658851D01*
X118385930Y-44674757D01*
X118370024Y-44689173D01*
X118352781Y-44701961D01*
X118334368Y-44712997D01*
X118314962Y-44722176D01*
X118294750Y-44729408D01*
X118273926Y-44734624D01*
X118252691Y-44737774D01*
X118231250Y-44738827D01*
X117793750Y-44738827D01*
X117772309Y-44737774D01*
X117751074Y-44734624D01*
X117730250Y-44729408D01*
X117710038Y-44722176D01*
X117690632Y-44712997D01*
X117672219Y-44701961D01*
X117654976Y-44689173D01*
X117639070Y-44674757D01*
X117624654Y-44658851D01*
X117611866Y-44641608D01*
X117600830Y-44623195D01*
X117591651Y-44603789D01*
X117584419Y-44583577D01*
X117579203Y-44562753D01*
X117576053Y-44541518D01*
X117575000Y-44520077D01*
X117575000Y-44007577D01*
X117576053Y-43986136D01*
X117579203Y-43964901D01*
X117584419Y-43944077D01*
X117591651Y-43923865D01*
X117600830Y-43904459D01*
X117611866Y-43886046D01*
X117624654Y-43868803D01*
X117639070Y-43852897D01*
X117654976Y-43838481D01*
X117672219Y-43825693D01*
X117690632Y-43814657D01*
X117710038Y-43805478D01*
X117730250Y-43798246D01*
X117751074Y-43793030D01*
X117772309Y-43789880D01*
X117793750Y-43788827D01*
X118231250Y-43788827D01*
X118252691Y-43789880D01*
X118252691Y-43789880D01*
G37*
D21*
G04 #@! TD*
G04 #@! TO.P,R13,1*
G04 #@! TO.N,/PGPExt_Signal_Processing/LEDr*
X118012500Y-44263827D03*
D17*
G04 #@! TO.N,GND*
G04 #@! TO.C,R13*
G36*
X119827691Y-43789880D02*
X119848926Y-43793030D01*
X119869750Y-43798246D01*
X119889962Y-43805478D01*
X119909368Y-43814657D01*
X119927781Y-43825693D01*
X119945024Y-43838481D01*
X119960930Y-43852897D01*
X119975346Y-43868803D01*
X119988134Y-43886046D01*
X119999170Y-43904459D01*
X120008349Y-43923865D01*
X120015581Y-43944077D01*
X120020797Y-43964901D01*
X120023947Y-43986136D01*
X120025000Y-44007577D01*
X120025000Y-44520077D01*
X120023947Y-44541518D01*
X120020797Y-44562753D01*
X120015581Y-44583577D01*
X120008349Y-44603789D01*
X119999170Y-44623195D01*
X119988134Y-44641608D01*
X119975346Y-44658851D01*
X119960930Y-44674757D01*
X119945024Y-44689173D01*
X119927781Y-44701961D01*
X119909368Y-44712997D01*
X119889962Y-44722176D01*
X119869750Y-44729408D01*
X119848926Y-44734624D01*
X119827691Y-44737774D01*
X119806250Y-44738827D01*
X119368750Y-44738827D01*
X119347309Y-44737774D01*
X119326074Y-44734624D01*
X119305250Y-44729408D01*
X119285038Y-44722176D01*
X119265632Y-44712997D01*
X119247219Y-44701961D01*
X119229976Y-44689173D01*
X119214070Y-44674757D01*
X119199654Y-44658851D01*
X119186866Y-44641608D01*
X119175830Y-44623195D01*
X119166651Y-44603789D01*
X119159419Y-44583577D01*
X119154203Y-44562753D01*
X119151053Y-44541518D01*
X119150000Y-44520077D01*
X119150000Y-44007577D01*
X119151053Y-43986136D01*
X119154203Y-43964901D01*
X119159419Y-43944077D01*
X119166651Y-43923865D01*
X119175830Y-43904459D01*
X119186866Y-43886046D01*
X119199654Y-43868803D01*
X119214070Y-43852897D01*
X119229976Y-43838481D01*
X119247219Y-43825693D01*
X119265632Y-43814657D01*
X119285038Y-43805478D01*
X119305250Y-43798246D01*
X119326074Y-43793030D01*
X119347309Y-43789880D01*
X119368750Y-43788827D01*
X119806250Y-43788827D01*
X119827691Y-43789880D01*
X119827691Y-43789880D01*
G37*
D21*
G04 #@! TD*
G04 #@! TO.P,R13,2*
G04 #@! TO.N,GND*
X119587500Y-44263827D03*
D22*
G04 #@! TO.P,U5,1*
G04 #@! TO.N,VDD*
X109350000Y-54625000D03*
G04 #@! TO.P,U5,2*
G04 #@! TO.N,N/C*
X109350000Y-55275000D03*
G04 #@! TO.P,U5,3*
G04 #@! TO.N,Net-(U5-Pad3)*
X109350000Y-55925000D03*
G04 #@! TO.P,U5,4*
G04 #@! TO.N,Net-(D1-Pad1)*
X109350000Y-56575000D03*
G04 #@! TO.P,U5,5*
G04 #@! TO.N,Net-(D1-Pad2)*
X109350000Y-57225000D03*
G04 #@! TO.P,U5,6*
G04 #@! TO.N,Net-(U5-Pad6)*
X109350000Y-57875000D03*
G04 #@! TO.P,U5,7*
G04 #@! TO.N,N/C*
X109350000Y-58525000D03*
G04 #@! TO.P,U5,8*
G04 #@! TO.N,/motor_manual*
X109350000Y-59175000D03*
G04 #@! TO.P,U5,9*
G04 #@! TO.N,/motor_auto*
X103450000Y-59175000D03*
G04 #@! TO.P,U5,10*
G04 #@! TO.N,Net-(D1-Pad1)*
X103450000Y-58525000D03*
G04 #@! TO.P,U5,11*
G04 #@! TO.N,VDD*
X103450000Y-57875000D03*
G04 #@! TO.P,U5,12*
G04 #@! TO.N,N/C*
X103450000Y-57225000D03*
G04 #@! TO.P,U5,13*
X103450000Y-56575000D03*
G04 #@! TO.P,U5,14*
G04 #@! TO.N,GND*
X103450000Y-55925000D03*
G04 #@! TO.P,U5,15*
G04 #@! TO.N,Net-(D1-Pad2)*
X103450000Y-55275000D03*
G04 #@! TO.P,U5,16*
G04 #@! TO.N,GND*
X103450000Y-54625000D03*
G04 #@! TD*
D23*
G04 #@! TO.P,U7,1*
G04 #@! TO.N,VDD*
X110300000Y-51910000D03*
G04 #@! TO.P,U7,2*
G04 #@! TO.N,/motor_manual*
X110300000Y-50640000D03*
G04 #@! TO.P,U7,3*
G04 #@! TO.N,/motor_auto*
X110300000Y-49370000D03*
G04 #@! TO.P,U7,4*
G04 #@! TO.N,Net-(U7-Pad4)*
X110300000Y-48100000D03*
G04 #@! TO.P,U7,5*
G04 #@! TO.N,/mode_select*
X110300000Y-46830000D03*
G04 #@! TO.P,U7,6*
G04 #@! TO.N,/PGPExt_Signal_Processing/battvolt*
X110300000Y-45560000D03*
G04 #@! TO.P,U7,7*
G04 #@! TO.N,Net-(R14-Pad2)*
X110300000Y-44290000D03*
G04 #@! TO.P,U7,8*
G04 #@! TO.N,Net-(R10-Pad2)*
X115700000Y-44290000D03*
G04 #@! TO.P,U7,9*
G04 #@! TO.N,Net-(U7-Pad9)*
X115700000Y-45560000D03*
G04 #@! TO.P,U7,10*
G04 #@! TO.N,/PGPExt_Signal_Processing/LEDr*
X115700000Y-46830000D03*
G04 #@! TO.P,U7,11*
G04 #@! TO.N,/PGPExt_Signal_Processing/LEDg*
X115700000Y-48100000D03*
G04 #@! TO.P,U7,12*
G04 #@! TO.N,/PGPExt_Signal_Processing/LEDb*
X115700000Y-49370000D03*
G04 #@! TO.P,U7,13*
G04 #@! TO.N,/switch*
X115700000Y-50640000D03*
G04 #@! TO.P,U7,14*
G04 #@! TO.N,GND*
X115700000Y-51910000D03*
G04 #@! TD*
D24*
G04 #@! TO.N,GND*
X114578978Y-57594664D03*
X104980002Y-51500000D03*
X100920758Y-55437606D03*
X117200000Y-51900000D03*
X119100000Y-43200000D03*
X123200000Y-43200000D03*
X118000000Y-54000000D03*
X116700000Y-60800000D03*
X108200000Y-44400000D03*
X107200000Y-41600000D03*
X110077203Y-60425010D03*
X104300000Y-44000000D03*
X104029321Y-48413035D03*
X117000000Y-47399996D03*
X124299972Y-51700000D03*
X105000000Y-49300000D03*
X102550000Y-62050000D03*
X122949984Y-62050000D03*
G04 #@! TO.N,Net-(D1-Pad1)*
X111900010Y-55500000D03*
X106099990Y-58300000D03*
X107850000Y-56600013D03*
G04 #@! TO.N,/switch*
X114325009Y-50600000D03*
G04 #@! TO.N,Net-(D1-Pad2)*
X110950000Y-57224964D03*
G04 #@! TO.N,/PGPExt_Signal_Processing/LEDb*
X120400000Y-53100000D03*
G04 #@! TO.N,/PGPExt_Signal_Processing/LEDg*
X114325009Y-48150002D03*
G04 #@! TO.N,VDD*
X113600000Y-57200000D03*
X104800000Y-57900000D03*
X106400000Y-54600000D03*
X111700000Y-45300000D03*
X108597037Y-60425010D03*
X108200000Y-48600000D03*
X123150000Y-59450000D03*
G04 #@! TO.N,VDDA*
X100850034Y-52700000D03*
X105000000Y-48400000D03*
G04 #@! TO.N,Net-(C1-Pad1)*
X103500000Y-44000000D03*
G04 #@! TO.N,/PGPExt_Signal_Processing/LEDr_i*
X123850000Y-59449998D03*
G04 #@! TO.N,+BATT*
X102900000Y-51300000D03*
X102700000Y-44000000D03*
X105200000Y-43999998D03*
X108692096Y-48075012D03*
G04 #@! TO.N,Net-(JP1-Pad1)*
X101700000Y-48400000D03*
G04 #@! TO.N,Net-(R10-Pad2)*
X114400000Y-44300000D03*
X118900000Y-55000000D03*
G04 #@! TO.N,Net-(U5-Pad3)*
X107850000Y-55950000D03*
G04 #@! TO.N,Net-(U5-Pad6)*
X106599321Y-56928913D03*
G04 #@! TO.N,Net-(U7-Pad4)*
X114600000Y-58900000D03*
X112500000Y-48400000D03*
G04 #@! TO.N,Net-(U7-Pad9)*
X122350000Y-55050000D03*
X114300006Y-45600000D03*
G04 #@! TO.N,Net-(R14-Pad2)*
X111700000Y-44300000D03*
X113500000Y-55500000D03*
G04 #@! TD*
D25*
G04 #@! TO.N,GND*
X114900000Y-55900000D02*
X114900000Y-57273642D01*
X114900000Y-57273642D02*
X114578978Y-57594664D01*
X105462500Y-50400000D02*
X105462500Y-51017502D01*
X105462500Y-51017502D02*
X104980002Y-51500000D01*
X105462500Y-51982498D02*
X104980002Y-51500000D01*
X105462500Y-52700000D02*
X105462500Y-51982498D01*
X103450000Y-54625000D02*
X101733364Y-54625000D01*
X101170757Y-55187607D02*
X100920758Y-55437606D01*
X101733364Y-54625000D02*
X101170757Y-55187607D01*
X101408152Y-55925000D02*
X100920758Y-55437606D01*
X103450000Y-55925000D02*
X101408152Y-55925000D01*
X117190000Y-51910000D02*
X117200000Y-51900000D01*
X115700000Y-51910000D02*
X117190000Y-51910000D01*
X119587500Y-44263827D02*
X119587500Y-43687500D01*
X119587500Y-43687500D02*
X119100000Y-43200000D01*
X105850000Y-41600000D02*
X107200000Y-41600000D01*
X103453000Y-47012500D02*
X103453000Y-47836714D01*
X103779322Y-48163036D02*
X104029321Y-48413035D01*
X103453000Y-47836714D02*
X103779322Y-48163036D01*
X117248669Y-47399996D02*
X117000000Y-47399996D01*
X117862500Y-48013827D02*
X117248669Y-47399996D01*
X104137465Y-48413035D02*
X104029321Y-48413035D01*
X105586500Y-46964000D02*
X104137465Y-48413035D01*
X124239340Y-51700000D02*
X124299972Y-51700000D01*
X124000000Y-51460660D02*
X124239340Y-51700000D01*
X124000000Y-50400000D02*
X124000000Y-51460660D01*
D26*
G04 #@! TO.N,/mode_select*
X112750000Y-42627817D02*
X112750000Y-41850000D01*
X112750000Y-46150000D02*
X112750000Y-42627817D01*
X110300000Y-46830000D02*
X112070000Y-46830000D01*
X112070000Y-46830000D02*
X112750000Y-46150000D01*
G04 #@! TO.N,Net-(D1-Pad1)*
X109350000Y-56575000D02*
X110897208Y-56575000D01*
D27*
X111900010Y-55588886D02*
X111900010Y-55500000D01*
D26*
X109350000Y-56575000D02*
X107825000Y-56575000D01*
X103450000Y-58525000D02*
X105874990Y-58525000D01*
X105874990Y-58525000D02*
X106099990Y-58300000D01*
D27*
X110949951Y-56575000D02*
X110950000Y-56574951D01*
X110897208Y-56575000D02*
X110949951Y-56575000D01*
D26*
X111199999Y-56324952D02*
X110950000Y-56574951D01*
X111900010Y-55624941D02*
X111199999Y-56324952D01*
X111900010Y-55588886D02*
X111900010Y-55624941D01*
D27*
X107825000Y-56575000D02*
X107825000Y-56575013D01*
X107825000Y-56575013D02*
X107850000Y-56600013D01*
G04 #@! TO.N,/switch*
X115660000Y-50600000D02*
X115700000Y-50640000D01*
D26*
X115660000Y-50600000D02*
X114325009Y-50600000D01*
G04 #@! TO.N,Net-(D1-Pad2)*
X109350000Y-57225000D02*
X110776812Y-57225000D01*
X109350000Y-57225000D02*
X107652992Y-57225000D01*
X105702992Y-55275000D02*
X104350000Y-55275000D01*
X107652992Y-57225000D02*
X105702992Y-55275000D01*
X104350000Y-55275000D02*
X103450000Y-55275000D01*
D27*
X110949964Y-57225000D02*
X110950000Y-57224964D01*
D26*
X110776812Y-57225000D02*
X110949964Y-57225000D01*
D27*
G04 #@! TO.N,Net-(D4-Pad2)*
X121350000Y-44426327D02*
X121512500Y-44263827D01*
D26*
X121512500Y-44838827D02*
X121512500Y-44263827D01*
X122200000Y-45526327D02*
X121512500Y-44838827D01*
X122200000Y-47200000D02*
X122200000Y-45526327D01*
X121350000Y-47500000D02*
X121900000Y-47500000D01*
X121900000Y-47500000D02*
X122200000Y-47200000D01*
G04 #@! TO.N,/PGPExt_Signal_Processing/LEDb*
X120400000Y-49600000D02*
X120400000Y-53100000D01*
X115700000Y-49370000D02*
X120170000Y-49370000D01*
X120170000Y-49370000D02*
X120400000Y-49600000D01*
G04 #@! TO.N,/PGPExt_Signal_Processing/LEDg*
X115700000Y-48100000D02*
X114350002Y-48100000D01*
D27*
X114325009Y-48124993D02*
X114325009Y-48150002D01*
X114350002Y-48100000D02*
X114325009Y-48124993D01*
D26*
G04 #@! TO.N,/PGPExt_Signal_Processing/LEDr*
X118012500Y-44263827D02*
X118012500Y-46013827D01*
X115700000Y-46800000D02*
X115700000Y-46830000D01*
X116700000Y-46800000D02*
X115700000Y-46800000D01*
X118012500Y-46013827D02*
X117486173Y-46013827D01*
X117486173Y-46013827D02*
X116700000Y-46800000D01*
D25*
G04 #@! TO.N,VDD*
X103550000Y-57875000D02*
X104775000Y-57875000D01*
X104775000Y-57875000D02*
X104800000Y-57900000D01*
X107337500Y-52700000D02*
X107337500Y-53662500D01*
X107337500Y-53662500D02*
X106400000Y-54600000D01*
X108847500Y-51910000D02*
X110300000Y-51910000D01*
X107337500Y-50400000D02*
X108847500Y-51910000D01*
X107925000Y-52700000D02*
X107337500Y-52700000D01*
X108500000Y-52700000D02*
X107925000Y-52700000D01*
X109350000Y-54625000D02*
X109350000Y-53550000D01*
X109350000Y-53550000D02*
X108500000Y-52700000D01*
X108200000Y-48953553D02*
X108200000Y-48600000D01*
X108200000Y-49537500D02*
X108200000Y-48953553D01*
X107337500Y-50400000D02*
X108200000Y-49537500D01*
X122400000Y-57900000D02*
X123150000Y-58650000D01*
X123150000Y-59096447D02*
X123150000Y-59450000D01*
X123150000Y-58650000D02*
X123150000Y-59096447D01*
D26*
G04 #@! TO.N,Net-(C1-Pad1)*
X103453000Y-45137500D02*
X103453000Y-44047000D01*
D27*
X103453000Y-44047000D02*
X103500000Y-44000000D01*
D26*
G04 #@! TO.N,/PGPExt_Signal_Processing/LEDr_i*
X123850000Y-59096445D02*
X123850000Y-59449998D01*
X124000000Y-45176327D02*
X124000000Y-48100000D01*
X124000000Y-48100000D02*
X122500000Y-49600000D01*
X123087500Y-44263827D02*
X124000000Y-45176327D01*
X122500000Y-49600000D02*
X122500000Y-51600000D01*
X122500000Y-51600000D02*
X123850000Y-52950000D01*
X123850000Y-52950000D02*
X123850000Y-59096445D01*
D25*
G04 #@! TO.N,+BATT*
X102100000Y-50500000D02*
X102900000Y-51300000D01*
X101600000Y-50500000D02*
X102100000Y-50500000D01*
X105586500Y-44386498D02*
X105449999Y-44249997D01*
X105449999Y-44249997D02*
X105200000Y-43999998D01*
X105586500Y-45186000D02*
X105586500Y-44386498D01*
D26*
G04 #@! TO.N,Net-(JP1-Pad1)*
X104550000Y-41600000D02*
X103950000Y-41600000D01*
X101700000Y-43850000D02*
X101700000Y-48046447D01*
X101700000Y-48046447D02*
X101700000Y-48400000D01*
X103950000Y-41600000D02*
X101700000Y-43850000D01*
G04 #@! TO.N,/motor_auto*
X104350000Y-59175000D02*
X103450000Y-59175000D01*
X112470000Y-49370000D02*
X113000000Y-49900000D01*
X110300000Y-49370000D02*
X112470000Y-49370000D01*
X113000000Y-49900000D02*
X113000000Y-58600000D01*
X113000000Y-58600000D02*
X111800000Y-59800000D01*
X111800000Y-59800000D02*
X104975000Y-59800000D01*
X104975000Y-59800000D02*
X104350000Y-59175000D01*
G04 #@! TO.N,/motor_manual*
X111940000Y-50640000D02*
X110300000Y-50640000D01*
X112500000Y-51200000D02*
X111940000Y-50640000D01*
X112500000Y-58200000D02*
X112500000Y-51200000D01*
X109350000Y-59175000D02*
X111525000Y-59175000D01*
X111525000Y-59175000D02*
X112500000Y-58200000D01*
D27*
G04 #@! TO.N,Net-(C7-Pad1)*
X119587500Y-47863827D02*
X119737500Y-48013827D01*
D26*
X119587500Y-46013827D02*
X119587500Y-47863827D01*
X122800000Y-47500000D02*
X123250000Y-47500000D01*
X119737500Y-48013827D02*
X122286173Y-48013827D01*
X122286173Y-48013827D02*
X122800000Y-47500000D01*
G04 #@! TO.N,/PGPExt_Signal_Processing/battvolt*
X107161500Y-46964000D02*
X107161500Y-45186000D01*
D27*
X110140000Y-45400000D02*
X110300000Y-45560000D01*
X107161500Y-45186000D02*
X107375500Y-45400000D01*
D26*
X107375500Y-45400000D02*
X110140000Y-45400000D01*
D27*
G04 #@! TO.N,Net-(R10-Pad2)*
X115690000Y-44300000D02*
X115700000Y-44290000D01*
D26*
X114400000Y-44300000D02*
X115690000Y-44300000D01*
X119400000Y-57900000D02*
X119400000Y-55500000D01*
X119149999Y-55249999D02*
X118900000Y-55000000D01*
X119400000Y-55500000D02*
X119149999Y-55249999D01*
D27*
G04 #@! TO.N,Net-(U5-Pad3)*
X109350000Y-55925000D02*
X107875000Y-55925000D01*
X107875000Y-55925000D02*
X107850000Y-55950000D01*
D26*
G04 #@! TO.N,Net-(U5-Pad6)*
X106849320Y-57178912D02*
X106599321Y-56928913D01*
X107545408Y-57875000D02*
X106849320Y-57178912D01*
X109350000Y-57875000D02*
X107545408Y-57875000D01*
G04 #@! TO.N,Net-(U7-Pad4)*
X115400000Y-58900000D02*
X114953553Y-58900000D01*
X114953553Y-58900000D02*
X114600000Y-58900000D01*
X116400000Y-57900000D02*
X115400000Y-58900000D01*
X110300000Y-48100000D02*
X112200000Y-48100000D01*
X112200000Y-48100000D02*
X112250001Y-48150001D01*
X112250001Y-48150001D02*
X112500000Y-48400000D01*
D27*
G04 #@! TO.N,Net-(U7-Pad9)*
X115660000Y-45600000D02*
X115700000Y-45560000D01*
X120900000Y-55900000D02*
X121750000Y-55050000D01*
X121750000Y-55050000D02*
X121996447Y-55050000D01*
X121996447Y-55050000D02*
X122350000Y-55050000D01*
D26*
X115660000Y-45600000D02*
X114300006Y-45600000D01*
D27*
G04 #@! TO.N,Net-(R14-Pad2)*
X110310000Y-44300000D02*
X110300000Y-44290000D01*
D26*
X111700000Y-44300000D02*
X110310000Y-44300000D01*
X113749999Y-55250001D02*
X113500000Y-55500000D01*
X114300000Y-54700000D02*
X113749999Y-55250001D01*
X117900000Y-55900000D02*
X116700000Y-54700000D01*
X116700000Y-54700000D02*
X114300000Y-54700000D01*
G04 #@! TD*
M02*
