G04 #@! TF.GenerationSoftware,KiCad,Pcbnew,(5.0.0)*
G04 #@! TF.CreationDate,2020-05-01T19:32:20+02:00*
G04 #@! TF.ProjectId,PGPExT_v1-1,5047504578545F76312D312E6B696361,1.1*
G04 #@! TF.SameCoordinates,Original*
G04 #@! TF.FileFunction,Copper,L2,Inr,Signal*
G04 #@! TF.FilePolarity,Positive*
%FSLAX46Y46*%
G04 Gerber Fmt 4.6, Leading zero omitted, Abs format (unit mm)*
G04 Created by KiCad (PCBNEW (5.0.0)) date 05/01/20 19:32:20*
%MOMM*%
%LPD*%
G01*
G04 APERTURE LIST*
%ADD10C,0.100000*%
%ADD11C,0.150000*%
%ADD12C,0.300000*%
%ADD13C,0.400000*%
G04 #@! TA.AperFunction,NonConductor*
%ADD14C,0.800000*%
G04 #@! TD*
G04 #@! TA.AperFunction,ViaPad*
%ADD15C,1.100000*%
G04 #@! TD*
G04 #@! TA.AperFunction,ViaPad*
%ADD16C,0.500000*%
G04 #@! TD*
G04 #@! TA.AperFunction,Conductor*
%ADD17C,0.254000*%
G04 #@! TD*
G04 APERTURE END LIST*
D10*
D11*
X177002200Y-166007200D02*
X177002200Y-198007200D01*
X285002200Y-198007200D01*
X285002200Y-166007200D01*
X177002200Y-166007200D01*
D10*
D11*
X10000000Y-10000000D02*
X10000000Y-200007200D01*
X287002200Y-200007200D01*
X287002200Y-10000000D01*
X10000000Y-10000000D01*
D10*
D11*
X12000000Y-12000000D02*
X12000000Y-198007200D01*
X285002200Y-198007200D01*
X285002200Y-12000000D01*
X12000000Y-12000000D01*
D10*
D11*
X60000000Y-12000000D02*
X60000000Y-10000000D01*
D10*
D11*
X110000000Y-12000000D02*
X110000000Y-10000000D01*
D10*
D11*
X160000000Y-12000000D02*
X160000000Y-10000000D01*
D10*
D11*
X210000000Y-12000000D02*
X210000000Y-10000000D01*
D10*
D11*
X260000000Y-12000000D02*
X260000000Y-10000000D01*
D10*
D11*
X36065476Y-11588095D02*
X35322619Y-11588095D01*
X35694047Y-11588095D02*
X35694047Y-10288095D01*
X35570238Y-10473809D01*
X35446428Y-10597619D01*
X35322619Y-10659523D01*
D10*
D11*
X85322619Y-10411904D02*
X85384523Y-10350000D01*
X85508333Y-10288095D01*
X85817857Y-10288095D01*
X85941666Y-10350000D01*
X86003571Y-10411904D01*
X86065476Y-10535714D01*
X86065476Y-10659523D01*
X86003571Y-10845238D01*
X85260714Y-11588095D01*
X86065476Y-11588095D01*
D10*
D11*
X135260714Y-10288095D02*
X136065476Y-10288095D01*
X135632142Y-10783333D01*
X135817857Y-10783333D01*
X135941666Y-10845238D01*
X136003571Y-10907142D01*
X136065476Y-11030952D01*
X136065476Y-11340476D01*
X136003571Y-11464285D01*
X135941666Y-11526190D01*
X135817857Y-11588095D01*
X135446428Y-11588095D01*
X135322619Y-11526190D01*
X135260714Y-11464285D01*
D10*
D11*
X185941666Y-10721428D02*
X185941666Y-11588095D01*
X185632142Y-10226190D02*
X185322619Y-11154761D01*
X186127380Y-11154761D01*
D10*
D11*
X236003571Y-10288095D02*
X235384523Y-10288095D01*
X235322619Y-10907142D01*
X235384523Y-10845238D01*
X235508333Y-10783333D01*
X235817857Y-10783333D01*
X235941666Y-10845238D01*
X236003571Y-10907142D01*
X236065476Y-11030952D01*
X236065476Y-11340476D01*
X236003571Y-11464285D01*
X235941666Y-11526190D01*
X235817857Y-11588095D01*
X235508333Y-11588095D01*
X235384523Y-11526190D01*
X235322619Y-11464285D01*
D10*
D11*
X285941666Y-10288095D02*
X285694047Y-10288095D01*
X285570238Y-10350000D01*
X285508333Y-10411904D01*
X285384523Y-10597619D01*
X285322619Y-10845238D01*
X285322619Y-11340476D01*
X285384523Y-11464285D01*
X285446428Y-11526190D01*
X285570238Y-11588095D01*
X285817857Y-11588095D01*
X285941666Y-11526190D01*
X286003571Y-11464285D01*
X286065476Y-11340476D01*
X286065476Y-11030952D01*
X286003571Y-10907142D01*
X285941666Y-10845238D01*
X285817857Y-10783333D01*
X285570238Y-10783333D01*
X285446428Y-10845238D01*
X285384523Y-10907142D01*
X285322619Y-11030952D01*
D10*
D11*
X60000000Y-198007200D02*
X60000000Y-200007200D01*
D10*
D11*
X110000000Y-198007200D02*
X110000000Y-200007200D01*
D10*
D11*
X160000000Y-198007200D02*
X160000000Y-200007200D01*
D10*
D11*
X210000000Y-198007200D02*
X210000000Y-200007200D01*
D10*
D11*
X260000000Y-198007200D02*
X260000000Y-200007200D01*
D10*
D11*
X36065476Y-199595295D02*
X35322619Y-199595295D01*
X35694047Y-199595295D02*
X35694047Y-198295295D01*
X35570238Y-198481009D01*
X35446428Y-198604819D01*
X35322619Y-198666723D01*
D10*
D11*
X85322619Y-198419104D02*
X85384523Y-198357200D01*
X85508333Y-198295295D01*
X85817857Y-198295295D01*
X85941666Y-198357200D01*
X86003571Y-198419104D01*
X86065476Y-198542914D01*
X86065476Y-198666723D01*
X86003571Y-198852438D01*
X85260714Y-199595295D01*
X86065476Y-199595295D01*
D10*
D11*
X135260714Y-198295295D02*
X136065476Y-198295295D01*
X135632142Y-198790533D01*
X135817857Y-198790533D01*
X135941666Y-198852438D01*
X136003571Y-198914342D01*
X136065476Y-199038152D01*
X136065476Y-199347676D01*
X136003571Y-199471485D01*
X135941666Y-199533390D01*
X135817857Y-199595295D01*
X135446428Y-199595295D01*
X135322619Y-199533390D01*
X135260714Y-199471485D01*
D10*
D11*
X185941666Y-198728628D02*
X185941666Y-199595295D01*
X185632142Y-198233390D02*
X185322619Y-199161961D01*
X186127380Y-199161961D01*
D10*
D11*
X236003571Y-198295295D02*
X235384523Y-198295295D01*
X235322619Y-198914342D01*
X235384523Y-198852438D01*
X235508333Y-198790533D01*
X235817857Y-198790533D01*
X235941666Y-198852438D01*
X236003571Y-198914342D01*
X236065476Y-199038152D01*
X236065476Y-199347676D01*
X236003571Y-199471485D01*
X235941666Y-199533390D01*
X235817857Y-199595295D01*
X235508333Y-199595295D01*
X235384523Y-199533390D01*
X235322619Y-199471485D01*
D10*
D11*
X285941666Y-198295295D02*
X285694047Y-198295295D01*
X285570238Y-198357200D01*
X285508333Y-198419104D01*
X285384523Y-198604819D01*
X285322619Y-198852438D01*
X285322619Y-199347676D01*
X285384523Y-199471485D01*
X285446428Y-199533390D01*
X285570238Y-199595295D01*
X285817857Y-199595295D01*
X285941666Y-199533390D01*
X286003571Y-199471485D01*
X286065476Y-199347676D01*
X286065476Y-199038152D01*
X286003571Y-198914342D01*
X285941666Y-198852438D01*
X285817857Y-198790533D01*
X285570238Y-198790533D01*
X285446428Y-198852438D01*
X285384523Y-198914342D01*
X285322619Y-199038152D01*
D10*
D11*
X10000000Y-60000000D02*
X12000000Y-60000000D01*
D10*
D11*
X10000000Y-110000000D02*
X12000000Y-110000000D01*
D10*
D11*
X10000000Y-160000000D02*
X12000000Y-160000000D01*
D10*
D11*
X10690476Y-35216666D02*
X11309523Y-35216666D01*
X10566666Y-35588095D02*
X11000000Y-34288095D01*
X11433333Y-35588095D01*
D10*
D11*
X11092857Y-84907142D02*
X11278571Y-84969047D01*
X11340476Y-85030952D01*
X11402380Y-85154761D01*
X11402380Y-85340476D01*
X11340476Y-85464285D01*
X11278571Y-85526190D01*
X11154761Y-85588095D01*
X10659523Y-85588095D01*
X10659523Y-84288095D01*
X11092857Y-84288095D01*
X11216666Y-84350000D01*
X11278571Y-84411904D01*
X11340476Y-84535714D01*
X11340476Y-84659523D01*
X11278571Y-84783333D01*
X11216666Y-84845238D01*
X11092857Y-84907142D01*
X10659523Y-84907142D01*
D10*
D11*
X11402380Y-135464285D02*
X11340476Y-135526190D01*
X11154761Y-135588095D01*
X11030952Y-135588095D01*
X10845238Y-135526190D01*
X10721428Y-135402380D01*
X10659523Y-135278571D01*
X10597619Y-135030952D01*
X10597619Y-134845238D01*
X10659523Y-134597619D01*
X10721428Y-134473809D01*
X10845238Y-134350000D01*
X11030952Y-134288095D01*
X11154761Y-134288095D01*
X11340476Y-134350000D01*
X11402380Y-134411904D01*
D10*
D11*
X10659523Y-185588095D02*
X10659523Y-184288095D01*
X10969047Y-184288095D01*
X11154761Y-184350000D01*
X11278571Y-184473809D01*
X11340476Y-184597619D01*
X11402380Y-184845238D01*
X11402380Y-185030952D01*
X11340476Y-185278571D01*
X11278571Y-185402380D01*
X11154761Y-185526190D01*
X10969047Y-185588095D01*
X10659523Y-185588095D01*
D10*
D11*
X287002200Y-60000000D02*
X285002200Y-60000000D01*
D10*
D11*
X287002200Y-110000000D02*
X285002200Y-110000000D01*
D10*
D11*
X287002200Y-160000000D02*
X285002200Y-160000000D01*
D10*
D11*
X285692676Y-35216666D02*
X286311723Y-35216666D01*
X285568866Y-35588095D02*
X286002200Y-34288095D01*
X286435533Y-35588095D01*
D10*
D11*
X286095057Y-84907142D02*
X286280771Y-84969047D01*
X286342676Y-85030952D01*
X286404580Y-85154761D01*
X286404580Y-85340476D01*
X286342676Y-85464285D01*
X286280771Y-85526190D01*
X286156961Y-85588095D01*
X285661723Y-85588095D01*
X285661723Y-84288095D01*
X286095057Y-84288095D01*
X286218866Y-84350000D01*
X286280771Y-84411904D01*
X286342676Y-84535714D01*
X286342676Y-84659523D01*
X286280771Y-84783333D01*
X286218866Y-84845238D01*
X286095057Y-84907142D01*
X285661723Y-84907142D01*
D10*
D11*
X286404580Y-135464285D02*
X286342676Y-135526190D01*
X286156961Y-135588095D01*
X286033152Y-135588095D01*
X285847438Y-135526190D01*
X285723628Y-135402380D01*
X285661723Y-135278571D01*
X285599819Y-135030952D01*
X285599819Y-134845238D01*
X285661723Y-134597619D01*
X285723628Y-134473809D01*
X285847438Y-134350000D01*
X286033152Y-134288095D01*
X286156961Y-134288095D01*
X286342676Y-134350000D01*
X286404580Y-134411904D01*
D10*
D11*
X285661723Y-185588095D02*
X285661723Y-184288095D01*
X285971247Y-184288095D01*
X286156961Y-184350000D01*
X286280771Y-184473809D01*
X286342676Y-184597619D01*
X286404580Y-184845238D01*
X286404580Y-185030952D01*
X286342676Y-185278571D01*
X286280771Y-185402380D01*
X286156961Y-185526190D01*
X285971247Y-185588095D01*
X285661723Y-185588095D01*
D10*
D11*
X200434342Y-193785771D02*
X200434342Y-192285771D01*
X200791485Y-192285771D01*
X201005771Y-192357200D01*
X201148628Y-192500057D01*
X201220057Y-192642914D01*
X201291485Y-192928628D01*
X201291485Y-193142914D01*
X201220057Y-193428628D01*
X201148628Y-193571485D01*
X201005771Y-193714342D01*
X200791485Y-193785771D01*
X200434342Y-193785771D01*
X202577200Y-193785771D02*
X202577200Y-193000057D01*
X202505771Y-192857200D01*
X202362914Y-192785771D01*
X202077200Y-192785771D01*
X201934342Y-192857200D01*
X202577200Y-193714342D02*
X202434342Y-193785771D01*
X202077200Y-193785771D01*
X201934342Y-193714342D01*
X201862914Y-193571485D01*
X201862914Y-193428628D01*
X201934342Y-193285771D01*
X202077200Y-193214342D01*
X202434342Y-193214342D01*
X202577200Y-193142914D01*
X203077200Y-192785771D02*
X203648628Y-192785771D01*
X203291485Y-192285771D02*
X203291485Y-193571485D01*
X203362914Y-193714342D01*
X203505771Y-193785771D01*
X203648628Y-193785771D01*
X204720057Y-193714342D02*
X204577200Y-193785771D01*
X204291485Y-193785771D01*
X204148628Y-193714342D01*
X204077200Y-193571485D01*
X204077200Y-193000057D01*
X204148628Y-192857200D01*
X204291485Y-192785771D01*
X204577200Y-192785771D01*
X204720057Y-192857200D01*
X204791485Y-193000057D01*
X204791485Y-193142914D01*
X204077200Y-193285771D01*
X205434342Y-193642914D02*
X205505771Y-193714342D01*
X205434342Y-193785771D01*
X205362914Y-193714342D01*
X205434342Y-193642914D01*
X205434342Y-193785771D01*
X205434342Y-192857200D02*
X205505771Y-192928628D01*
X205434342Y-193000057D01*
X205362914Y-192928628D01*
X205434342Y-192857200D01*
X205434342Y-193000057D01*
X207220057Y-192428628D02*
X207291485Y-192357200D01*
X207434342Y-192285771D01*
X207791485Y-192285771D01*
X207934342Y-192357200D01*
X208005771Y-192428628D01*
X208077200Y-192571485D01*
X208077200Y-192714342D01*
X208005771Y-192928628D01*
X207148628Y-193785771D01*
X208077200Y-193785771D01*
X209005771Y-192285771D02*
X209148628Y-192285771D01*
X209291485Y-192357200D01*
X209362914Y-192428628D01*
X209434342Y-192571485D01*
X209505771Y-192857200D01*
X209505771Y-193214342D01*
X209434342Y-193500057D01*
X209362914Y-193642914D01*
X209291485Y-193714342D01*
X209148628Y-193785771D01*
X209005771Y-193785771D01*
X208862914Y-193714342D01*
X208791485Y-193642914D01*
X208720057Y-193500057D01*
X208648628Y-193214342D01*
X208648628Y-192857200D01*
X208720057Y-192571485D01*
X208791485Y-192428628D01*
X208862914Y-192357200D01*
X209005771Y-192285771D01*
X210934342Y-193785771D02*
X210077200Y-193785771D01*
X210505771Y-193785771D02*
X210505771Y-192285771D01*
X210362914Y-192500057D01*
X210220057Y-192642914D01*
X210077200Y-192714342D01*
X211648628Y-193785771D02*
X211934342Y-193785771D01*
X212077200Y-193714342D01*
X212148628Y-193642914D01*
X212291485Y-193428628D01*
X212362914Y-193142914D01*
X212362914Y-192571485D01*
X212291485Y-192428628D01*
X212220057Y-192357200D01*
X212077200Y-192285771D01*
X211791485Y-192285771D01*
X211648628Y-192357200D01*
X211577200Y-192428628D01*
X211505771Y-192571485D01*
X211505771Y-192928628D01*
X211577200Y-193071485D01*
X211648628Y-193142914D01*
X211791485Y-193214342D01*
X212077200Y-193214342D01*
X212220057Y-193142914D01*
X212291485Y-193071485D01*
X212362914Y-192928628D01*
X213005771Y-193214342D02*
X214148628Y-193214342D01*
X215148628Y-192285771D02*
X215291485Y-192285771D01*
X215434342Y-192357200D01*
X215505771Y-192428628D01*
X215577200Y-192571485D01*
X215648628Y-192857200D01*
X215648628Y-193214342D01*
X215577200Y-193500057D01*
X215505771Y-193642914D01*
X215434342Y-193714342D01*
X215291485Y-193785771D01*
X215148628Y-193785771D01*
X215005771Y-193714342D01*
X214934342Y-193642914D01*
X214862914Y-193500057D01*
X214791485Y-193214342D01*
X214791485Y-192857200D01*
X214862914Y-192571485D01*
X214934342Y-192428628D01*
X215005771Y-192357200D01*
X215148628Y-192285771D01*
X216362914Y-193785771D02*
X216648628Y-193785771D01*
X216791485Y-193714342D01*
X216862914Y-193642914D01*
X217005771Y-193428628D01*
X217077200Y-193142914D01*
X217077200Y-192571485D01*
X217005771Y-192428628D01*
X216934342Y-192357200D01*
X216791485Y-192285771D01*
X216505771Y-192285771D01*
X216362914Y-192357200D01*
X216291485Y-192428628D01*
X216220057Y-192571485D01*
X216220057Y-192928628D01*
X216291485Y-193071485D01*
X216362914Y-193142914D01*
X216505771Y-193214342D01*
X216791485Y-193214342D01*
X216934342Y-193142914D01*
X217005771Y-193071485D01*
X217077200Y-192928628D01*
X217720057Y-193214342D02*
X218862914Y-193214342D01*
X220362914Y-193785771D02*
X219505771Y-193785771D01*
X219934342Y-193785771D02*
X219934342Y-192285771D01*
X219791485Y-192500057D01*
X219648628Y-192642914D01*
X219505771Y-192714342D01*
X221791485Y-193785771D02*
X220934342Y-193785771D01*
X221362914Y-193785771D02*
X221362914Y-192285771D01*
X221220057Y-192500057D01*
X221077200Y-192642914D01*
X220934342Y-192714342D01*
D10*
D11*
X177002200Y-194507200D02*
X285002200Y-194507200D01*
D10*
D11*
X178434342Y-196585771D02*
X178434342Y-195085771D01*
X179291485Y-196585771D02*
X178648628Y-195728628D01*
X179291485Y-195085771D02*
X178434342Y-195942914D01*
X179934342Y-196585771D02*
X179934342Y-195585771D01*
X179934342Y-195085771D02*
X179862914Y-195157200D01*
X179934342Y-195228628D01*
X180005771Y-195157200D01*
X179934342Y-195085771D01*
X179934342Y-195228628D01*
X181505771Y-196442914D02*
X181434342Y-196514342D01*
X181220057Y-196585771D01*
X181077200Y-196585771D01*
X180862914Y-196514342D01*
X180720057Y-196371485D01*
X180648628Y-196228628D01*
X180577200Y-195942914D01*
X180577200Y-195728628D01*
X180648628Y-195442914D01*
X180720057Y-195300057D01*
X180862914Y-195157200D01*
X181077200Y-195085771D01*
X181220057Y-195085771D01*
X181434342Y-195157200D01*
X181505771Y-195228628D01*
X182791485Y-196585771D02*
X182791485Y-195800057D01*
X182720057Y-195657200D01*
X182577200Y-195585771D01*
X182291485Y-195585771D01*
X182148628Y-195657200D01*
X182791485Y-196514342D02*
X182648628Y-196585771D01*
X182291485Y-196585771D01*
X182148628Y-196514342D01*
X182077200Y-196371485D01*
X182077200Y-196228628D01*
X182148628Y-196085771D01*
X182291485Y-196014342D01*
X182648628Y-196014342D01*
X182791485Y-195942914D01*
X184148628Y-196585771D02*
X184148628Y-195085771D01*
X184148628Y-196514342D02*
X184005771Y-196585771D01*
X183720057Y-196585771D01*
X183577200Y-196514342D01*
X183505771Y-196442914D01*
X183434342Y-196300057D01*
X183434342Y-195871485D01*
X183505771Y-195728628D01*
X183577200Y-195657200D01*
X183720057Y-195585771D01*
X184005771Y-195585771D01*
X184148628Y-195657200D01*
X186005771Y-195800057D02*
X186505771Y-195800057D01*
X186720057Y-196585771D02*
X186005771Y-196585771D01*
X186005771Y-195085771D01*
X186720057Y-195085771D01*
X187362914Y-196442914D02*
X187434342Y-196514342D01*
X187362914Y-196585771D01*
X187291485Y-196514342D01*
X187362914Y-196442914D01*
X187362914Y-196585771D01*
X188077200Y-196585771D02*
X188077200Y-195085771D01*
X188434342Y-195085771D01*
X188648628Y-195157200D01*
X188791485Y-195300057D01*
X188862914Y-195442914D01*
X188934342Y-195728628D01*
X188934342Y-195942914D01*
X188862914Y-196228628D01*
X188791485Y-196371485D01*
X188648628Y-196514342D01*
X188434342Y-196585771D01*
X188077200Y-196585771D01*
X189577200Y-196442914D02*
X189648628Y-196514342D01*
X189577200Y-196585771D01*
X189505771Y-196514342D01*
X189577200Y-196442914D01*
X189577200Y-196585771D01*
X190220057Y-196157200D02*
X190934342Y-196157200D01*
X190077200Y-196585771D02*
X190577200Y-195085771D01*
X191077200Y-196585771D01*
X191577200Y-196442914D02*
X191648628Y-196514342D01*
X191577200Y-196585771D01*
X191505771Y-196514342D01*
X191577200Y-196442914D01*
X191577200Y-196585771D01*
X194577200Y-196585771D02*
X194577200Y-195085771D01*
X194720057Y-196014342D02*
X195148628Y-196585771D01*
X195148628Y-195585771D02*
X194577200Y-196157200D01*
X195791485Y-196585771D02*
X195791485Y-195585771D01*
X195791485Y-195085771D02*
X195720057Y-195157200D01*
X195791485Y-195228628D01*
X195862914Y-195157200D01*
X195791485Y-195085771D01*
X195791485Y-195228628D01*
X197148628Y-196514342D02*
X197005771Y-196585771D01*
X196720057Y-196585771D01*
X196577200Y-196514342D01*
X196505771Y-196442914D01*
X196434342Y-196300057D01*
X196434342Y-195871485D01*
X196505771Y-195728628D01*
X196577200Y-195657200D01*
X196720057Y-195585771D01*
X197005771Y-195585771D01*
X197148628Y-195657200D01*
X198434342Y-196585771D02*
X198434342Y-195800057D01*
X198362914Y-195657200D01*
X198220057Y-195585771D01*
X197934342Y-195585771D01*
X197791485Y-195657200D01*
X198434342Y-196514342D02*
X198291485Y-196585771D01*
X197934342Y-196585771D01*
X197791485Y-196514342D01*
X197720057Y-196371485D01*
X197720057Y-196228628D01*
X197791485Y-196085771D01*
X197934342Y-196014342D01*
X198291485Y-196014342D01*
X198434342Y-195942914D01*
X199791485Y-196585771D02*
X199791485Y-195085771D01*
X199791485Y-196514342D02*
X199648628Y-196585771D01*
X199362914Y-196585771D01*
X199220057Y-196514342D01*
X199148628Y-196442914D01*
X199077200Y-196300057D01*
X199077200Y-195871485D01*
X199148628Y-195728628D01*
X199220057Y-195657200D01*
X199362914Y-195585771D01*
X199648628Y-195585771D01*
X199791485Y-195657200D01*
X202077200Y-197157200D02*
X202005771Y-197085771D01*
X201862914Y-196871485D01*
X201791485Y-196728628D01*
X201720057Y-196514342D01*
X201648628Y-196157200D01*
X201648628Y-195871485D01*
X201720057Y-195514342D01*
X201791485Y-195300057D01*
X201862914Y-195157200D01*
X202005771Y-194942914D01*
X202077200Y-194871485D01*
X203362914Y-195085771D02*
X202648628Y-195085771D01*
X202577200Y-195800057D01*
X202648628Y-195728628D01*
X202791485Y-195657200D01*
X203148628Y-195657200D01*
X203291485Y-195728628D01*
X203362914Y-195800057D01*
X203434342Y-195942914D01*
X203434342Y-196300057D01*
X203362914Y-196442914D01*
X203291485Y-196514342D01*
X203148628Y-196585771D01*
X202791485Y-196585771D01*
X202648628Y-196514342D01*
X202577200Y-196442914D01*
X204077200Y-196442914D02*
X204148628Y-196514342D01*
X204077200Y-196585771D01*
X204005771Y-196514342D01*
X204077200Y-196442914D01*
X204077200Y-196585771D01*
X205077200Y-195085771D02*
X205220057Y-195085771D01*
X205362914Y-195157200D01*
X205434342Y-195228628D01*
X205505771Y-195371485D01*
X205577200Y-195657200D01*
X205577200Y-196014342D01*
X205505771Y-196300057D01*
X205434342Y-196442914D01*
X205362914Y-196514342D01*
X205220057Y-196585771D01*
X205077200Y-196585771D01*
X204934342Y-196514342D01*
X204862914Y-196442914D01*
X204791485Y-196300057D01*
X204720057Y-196014342D01*
X204720057Y-195657200D01*
X204791485Y-195371485D01*
X204862914Y-195228628D01*
X204934342Y-195157200D01*
X205077200Y-195085771D01*
X206220057Y-196442914D02*
X206291485Y-196514342D01*
X206220057Y-196585771D01*
X206148628Y-196514342D01*
X206220057Y-196442914D01*
X206220057Y-196585771D01*
X207220057Y-195085771D02*
X207362914Y-195085771D01*
X207505771Y-195157200D01*
X207577200Y-195228628D01*
X207648628Y-195371485D01*
X207720057Y-195657200D01*
X207720057Y-196014342D01*
X207648628Y-196300057D01*
X207577200Y-196442914D01*
X207505771Y-196514342D01*
X207362914Y-196585771D01*
X207220057Y-196585771D01*
X207077200Y-196514342D01*
X207005771Y-196442914D01*
X206934342Y-196300057D01*
X206862914Y-196014342D01*
X206862914Y-195657200D01*
X206934342Y-195371485D01*
X207005771Y-195228628D01*
X207077200Y-195157200D01*
X207220057Y-195085771D01*
X208220057Y-197157200D02*
X208291485Y-197085771D01*
X208434342Y-196871485D01*
X208505771Y-196728628D01*
X208577200Y-196514342D01*
X208648628Y-196157200D01*
X208648628Y-195871485D01*
X208577200Y-195514342D01*
X208505771Y-195300057D01*
X208434342Y-195157200D01*
X208291485Y-194942914D01*
X208220057Y-194871485D01*
D10*
D11*
X177002200Y-191507200D02*
X285002200Y-191507200D01*
D10*
D12*
X264411485Y-193785771D02*
X263911485Y-193071485D01*
X263554342Y-193785771D02*
X263554342Y-192285771D01*
X264125771Y-192285771D01*
X264268628Y-192357200D01*
X264340057Y-192428628D01*
X264411485Y-192571485D01*
X264411485Y-192785771D01*
X264340057Y-192928628D01*
X264268628Y-193000057D01*
X264125771Y-193071485D01*
X263554342Y-193071485D01*
X265625771Y-193714342D02*
X265482914Y-193785771D01*
X265197200Y-193785771D01*
X265054342Y-193714342D01*
X264982914Y-193571485D01*
X264982914Y-193000057D01*
X265054342Y-192857200D01*
X265197200Y-192785771D01*
X265482914Y-192785771D01*
X265625771Y-192857200D01*
X265697200Y-193000057D01*
X265697200Y-193142914D01*
X264982914Y-193285771D01*
X266197200Y-192785771D02*
X266554342Y-193785771D01*
X266911485Y-192785771D01*
X267482914Y-193642914D02*
X267554342Y-193714342D01*
X267482914Y-193785771D01*
X267411485Y-193714342D01*
X267482914Y-193642914D01*
X267482914Y-193785771D01*
X267482914Y-192857200D02*
X267554342Y-192928628D01*
X267482914Y-193000057D01*
X267411485Y-192928628D01*
X267482914Y-192857200D01*
X267482914Y-193000057D01*
X270125771Y-193785771D02*
X269268628Y-193785771D01*
X269697200Y-193785771D02*
X269697200Y-192285771D01*
X269554342Y-192500057D01*
X269411485Y-192642914D01*
X269268628Y-192714342D01*
X270768628Y-193642914D02*
X270840057Y-193714342D01*
X270768628Y-193785771D01*
X270697200Y-193714342D01*
X270768628Y-193642914D01*
X270768628Y-193785771D01*
X272268628Y-193785771D02*
X271411485Y-193785771D01*
X271840057Y-193785771D02*
X271840057Y-192285771D01*
X271697200Y-192500057D01*
X271554342Y-192642914D01*
X271411485Y-192714342D01*
D10*
D11*
X178362914Y-193714342D02*
X178577200Y-193785771D01*
X178934342Y-193785771D01*
X179077200Y-193714342D01*
X179148628Y-193642914D01*
X179220057Y-193500057D01*
X179220057Y-193357200D01*
X179148628Y-193214342D01*
X179077200Y-193142914D01*
X178934342Y-193071485D01*
X178648628Y-193000057D01*
X178505771Y-192928628D01*
X178434342Y-192857200D01*
X178362914Y-192714342D01*
X178362914Y-192571485D01*
X178434342Y-192428628D01*
X178505771Y-192357200D01*
X178648628Y-192285771D01*
X179005771Y-192285771D01*
X179220057Y-192357200D01*
X179862914Y-193785771D02*
X179862914Y-192785771D01*
X179862914Y-192285771D02*
X179791485Y-192357200D01*
X179862914Y-192428628D01*
X179934342Y-192357200D01*
X179862914Y-192285771D01*
X179862914Y-192428628D01*
X180434342Y-192785771D02*
X181220057Y-192785771D01*
X180434342Y-193785771D01*
X181220057Y-193785771D01*
X182362914Y-193714342D02*
X182220057Y-193785771D01*
X181934342Y-193785771D01*
X181791485Y-193714342D01*
X181720057Y-193571485D01*
X181720057Y-193000057D01*
X181791485Y-192857200D01*
X181934342Y-192785771D01*
X182220057Y-192785771D01*
X182362914Y-192857200D01*
X182434342Y-193000057D01*
X182434342Y-193142914D01*
X181720057Y-193285771D01*
X183077200Y-193642914D02*
X183148628Y-193714342D01*
X183077200Y-193785771D01*
X183005771Y-193714342D01*
X183077200Y-193642914D01*
X183077200Y-193785771D01*
X183077200Y-192857200D02*
X183148628Y-192928628D01*
X183077200Y-193000057D01*
X183005771Y-192928628D01*
X183077200Y-192857200D01*
X183077200Y-193000057D01*
X184862914Y-193357200D02*
X185577200Y-193357200D01*
X184720057Y-193785771D02*
X185220057Y-192285771D01*
X185720057Y-193785771D01*
X186862914Y-192785771D02*
X186862914Y-193785771D01*
X186505771Y-192214342D02*
X186148628Y-193285771D01*
X187077200Y-193285771D01*
D10*
D11*
X263434342Y-196585771D02*
X263434342Y-195085771D01*
X264791485Y-196585771D02*
X264791485Y-195085771D01*
X264791485Y-196514342D02*
X264648628Y-196585771D01*
X264362914Y-196585771D01*
X264220057Y-196514342D01*
X264148628Y-196442914D01*
X264077200Y-196300057D01*
X264077200Y-195871485D01*
X264148628Y-195728628D01*
X264220057Y-195657200D01*
X264362914Y-195585771D01*
X264648628Y-195585771D01*
X264791485Y-195657200D01*
X265505771Y-196442914D02*
X265577200Y-196514342D01*
X265505771Y-196585771D01*
X265434342Y-196514342D01*
X265505771Y-196442914D01*
X265505771Y-196585771D01*
X265505771Y-195657200D02*
X265577200Y-195728628D01*
X265505771Y-195800057D01*
X265434342Y-195728628D01*
X265505771Y-195657200D01*
X265505771Y-195800057D01*
X268148628Y-196585771D02*
X267291485Y-196585771D01*
X267720057Y-196585771D02*
X267720057Y-195085771D01*
X267577200Y-195300057D01*
X267434342Y-195442914D01*
X267291485Y-195514342D01*
X269862914Y-195014342D02*
X268577200Y-196942914D01*
X271148628Y-196585771D02*
X270291485Y-196585771D01*
X270720057Y-196585771D02*
X270720057Y-195085771D01*
X270577200Y-195300057D01*
X270434342Y-195442914D01*
X270291485Y-195514342D01*
D10*
D11*
X177002200Y-187507200D02*
X285002200Y-187507200D01*
D10*
D13*
X178714580Y-188211961D02*
X179857438Y-188211961D01*
X179036009Y-190211961D02*
X179286009Y-188211961D01*
X180274104Y-190211961D02*
X180440771Y-188878628D01*
X180524104Y-188211961D02*
X180416961Y-188307200D01*
X180500295Y-188402438D01*
X180607438Y-188307200D01*
X180524104Y-188211961D01*
X180500295Y-188402438D01*
X181107438Y-188878628D02*
X181869342Y-188878628D01*
X181476485Y-188211961D02*
X181262200Y-189926247D01*
X181333628Y-190116723D01*
X181512200Y-190211961D01*
X181702676Y-190211961D01*
X182655057Y-190211961D02*
X182476485Y-190116723D01*
X182405057Y-189926247D01*
X182619342Y-188211961D01*
X184190771Y-190116723D02*
X183988390Y-190211961D01*
X183607438Y-190211961D01*
X183428866Y-190116723D01*
X183357438Y-189926247D01*
X183452676Y-189164342D01*
X183571723Y-188973866D01*
X183774104Y-188878628D01*
X184155057Y-188878628D01*
X184333628Y-188973866D01*
X184405057Y-189164342D01*
X184381247Y-189354819D01*
X183405057Y-189545295D01*
X185155057Y-190021485D02*
X185238390Y-190116723D01*
X185131247Y-190211961D01*
X185047914Y-190116723D01*
X185155057Y-190021485D01*
X185131247Y-190211961D01*
X185286009Y-188973866D02*
X185369342Y-189069104D01*
X185262200Y-189164342D01*
X185178866Y-189069104D01*
X185286009Y-188973866D01*
X185262200Y-189164342D01*
X187607438Y-190211961D02*
X187857438Y-188211961D01*
X188619342Y-188211961D01*
X188797914Y-188307200D01*
X188881247Y-188402438D01*
X188952676Y-188592914D01*
X188916961Y-188878628D01*
X188797914Y-189069104D01*
X188690771Y-189164342D01*
X188488390Y-189259580D01*
X187726485Y-189259580D01*
X189893152Y-190211961D02*
X189714580Y-190116723D01*
X189631247Y-190021485D01*
X189559819Y-189831009D01*
X189631247Y-189259580D01*
X189750295Y-189069104D01*
X189857438Y-188973866D01*
X190059819Y-188878628D01*
X190345533Y-188878628D01*
X190524104Y-188973866D01*
X190607438Y-189069104D01*
X190678866Y-189259580D01*
X190607438Y-189831009D01*
X190488390Y-190021485D01*
X190381247Y-190116723D01*
X190178866Y-190211961D01*
X189893152Y-190211961D01*
X192702676Y-188307200D02*
X192524104Y-188211961D01*
X192238390Y-188211961D01*
X191940771Y-188307200D01*
X191726485Y-188497676D01*
X191607438Y-188688152D01*
X191464580Y-189069104D01*
X191428866Y-189354819D01*
X191476485Y-189735771D01*
X191547914Y-189926247D01*
X191714580Y-190116723D01*
X191988390Y-190211961D01*
X192178866Y-190211961D01*
X192476485Y-190116723D01*
X192583628Y-190021485D01*
X192666961Y-189354819D01*
X192286009Y-189354819D01*
X193702676Y-190211961D02*
X193524104Y-190116723D01*
X193440771Y-190021485D01*
X193369342Y-189831009D01*
X193440771Y-189259580D01*
X193559819Y-189069104D01*
X193666961Y-188973866D01*
X193869342Y-188878628D01*
X194155057Y-188878628D01*
X194333628Y-188973866D01*
X194416961Y-189069104D01*
X194488390Y-189259580D01*
X194416961Y-189831009D01*
X194297914Y-190021485D01*
X194190771Y-190116723D01*
X193988390Y-190211961D01*
X193702676Y-190211961D01*
X195321723Y-189450057D02*
X196845533Y-189450057D01*
X195988390Y-190211961D02*
X196178866Y-188688152D01*
X197833628Y-189164342D02*
X198500295Y-189164342D01*
X198655057Y-190211961D02*
X197702676Y-190211961D01*
X197952676Y-188211961D01*
X198905057Y-188211961D01*
X199321723Y-190211961D02*
X200536009Y-188878628D01*
X199488390Y-188878628D02*
X200369342Y-190211961D01*
X201012200Y-188878628D02*
X201774104Y-188878628D01*
X201381247Y-188211961D02*
X201166961Y-189926247D01*
X201238390Y-190116723D01*
X201416961Y-190211961D01*
X201607438Y-190211961D01*
X203047914Y-190116723D02*
X202845533Y-190211961D01*
X202464580Y-190211961D01*
X202286009Y-190116723D01*
X202214580Y-189926247D01*
X202309819Y-189164342D01*
X202428866Y-188973866D01*
X202631247Y-188878628D01*
X203012200Y-188878628D01*
X203190771Y-188973866D01*
X203262200Y-189164342D01*
X203238390Y-189354819D01*
X202262200Y-189545295D01*
X204155057Y-188878628D02*
X203988390Y-190211961D01*
X204131247Y-189069104D02*
X204238390Y-188973866D01*
X204440771Y-188878628D01*
X204726485Y-188878628D01*
X204905057Y-188973866D01*
X204976485Y-189164342D01*
X204845533Y-190211961D01*
X206655057Y-190211961D02*
X206905057Y-188211961D01*
X206666961Y-190116723D02*
X206464580Y-190211961D01*
X206083628Y-190211961D01*
X205905057Y-190116723D01*
X205821723Y-190021485D01*
X205750295Y-189831009D01*
X205821723Y-189259580D01*
X205940771Y-189069104D01*
X206047914Y-188973866D01*
X206250295Y-188878628D01*
X206631247Y-188878628D01*
X206809819Y-188973866D01*
X208381247Y-190116723D02*
X208178866Y-190211961D01*
X207797914Y-190211961D01*
X207619342Y-190116723D01*
X207547914Y-189926247D01*
X207643152Y-189164342D01*
X207762200Y-188973866D01*
X207964580Y-188878628D01*
X208345533Y-188878628D01*
X208524104Y-188973866D01*
X208595533Y-189164342D01*
X208571723Y-189354819D01*
X207595533Y-189545295D01*
X209321723Y-190211961D02*
X209488390Y-188878628D01*
X209440771Y-189259580D02*
X209559819Y-189069104D01*
X209666961Y-188973866D01*
X209869342Y-188878628D01*
X210059819Y-188878628D01*
D10*
D11*
X178934342Y-185600057D02*
X178434342Y-185600057D01*
X178434342Y-186385771D02*
X178434342Y-184885771D01*
X179148628Y-184885771D01*
X179720057Y-186385771D02*
X179720057Y-185385771D01*
X179720057Y-184885771D02*
X179648628Y-184957200D01*
X179720057Y-185028628D01*
X179791485Y-184957200D01*
X179720057Y-184885771D01*
X179720057Y-185028628D01*
X180648628Y-186385771D02*
X180505771Y-186314342D01*
X180434342Y-186171485D01*
X180434342Y-184885771D01*
X181791485Y-186314342D02*
X181648628Y-186385771D01*
X181362914Y-186385771D01*
X181220057Y-186314342D01*
X181148628Y-186171485D01*
X181148628Y-185600057D01*
X181220057Y-185457200D01*
X181362914Y-185385771D01*
X181648628Y-185385771D01*
X181791485Y-185457200D01*
X181862914Y-185600057D01*
X181862914Y-185742914D01*
X181148628Y-185885771D01*
X182505771Y-186242914D02*
X182577200Y-186314342D01*
X182505771Y-186385771D01*
X182434342Y-186314342D01*
X182505771Y-186242914D01*
X182505771Y-186385771D01*
X182505771Y-185457200D02*
X182577200Y-185528628D01*
X182505771Y-185600057D01*
X182434342Y-185528628D01*
X182505771Y-185457200D01*
X182505771Y-185600057D01*
X184362914Y-186385771D02*
X184362914Y-184885771D01*
X184934342Y-184885771D01*
X185077200Y-184957200D01*
X185148628Y-185028628D01*
X185220057Y-185171485D01*
X185220057Y-185385771D01*
X185148628Y-185528628D01*
X185077200Y-185600057D01*
X184934342Y-185671485D01*
X184362914Y-185671485D01*
X186648628Y-184957200D02*
X186505771Y-184885771D01*
X186291485Y-184885771D01*
X186077200Y-184957200D01*
X185934342Y-185100057D01*
X185862914Y-185242914D01*
X185791485Y-185528628D01*
X185791485Y-185742914D01*
X185862914Y-186028628D01*
X185934342Y-186171485D01*
X186077200Y-186314342D01*
X186291485Y-186385771D01*
X186434342Y-186385771D01*
X186648628Y-186314342D01*
X186720057Y-186242914D01*
X186720057Y-185742914D01*
X186434342Y-185742914D01*
X187362914Y-186385771D02*
X187362914Y-184885771D01*
X187934342Y-184885771D01*
X188077200Y-184957200D01*
X188148628Y-185028628D01*
X188220057Y-185171485D01*
X188220057Y-185385771D01*
X188148628Y-185528628D01*
X188077200Y-185600057D01*
X187934342Y-185671485D01*
X187362914Y-185671485D01*
X188862914Y-185600057D02*
X189362914Y-185600057D01*
X189577200Y-186385771D02*
X188862914Y-186385771D01*
X188862914Y-184885771D01*
X189577200Y-184885771D01*
X190077200Y-186385771D02*
X190862914Y-185385771D01*
X190077200Y-185385771D02*
X190862914Y-186385771D01*
X191220057Y-184885771D02*
X192077200Y-184885771D01*
X191648628Y-186385771D02*
X191648628Y-184885771D01*
X192220057Y-186528628D02*
X193362914Y-186528628D01*
X193577200Y-185385771D02*
X193934342Y-186385771D01*
X194291485Y-185385771D01*
X195648628Y-186385771D02*
X194791485Y-186385771D01*
X195220057Y-186385771D02*
X195220057Y-184885771D01*
X195077200Y-185100057D01*
X194934342Y-185242914D01*
X194791485Y-185314342D01*
X196291485Y-185814342D02*
X197434342Y-185814342D01*
X198934342Y-186385771D02*
X198077200Y-186385771D01*
X198505771Y-186385771D02*
X198505771Y-184885771D01*
X198362914Y-185100057D01*
X198220057Y-185242914D01*
X198077200Y-185314342D01*
X199577200Y-186242914D02*
X199648628Y-186314342D01*
X199577200Y-186385771D01*
X199505771Y-186314342D01*
X199577200Y-186242914D01*
X199577200Y-186385771D01*
X200291485Y-186385771D02*
X200291485Y-184885771D01*
X200434342Y-185814342D02*
X200862914Y-186385771D01*
X200862914Y-185385771D02*
X200291485Y-185957200D01*
X201505771Y-186385771D02*
X201505771Y-185385771D01*
X201505771Y-184885771D02*
X201434342Y-184957200D01*
X201505771Y-185028628D01*
X201577200Y-184957200D01*
X201505771Y-184885771D01*
X201505771Y-185028628D01*
X202862914Y-186314342D02*
X202720057Y-186385771D01*
X202434342Y-186385771D01*
X202291485Y-186314342D01*
X202220057Y-186242914D01*
X202148628Y-186100057D01*
X202148628Y-185671485D01*
X202220057Y-185528628D01*
X202291485Y-185457200D01*
X202434342Y-185385771D01*
X202720057Y-185385771D01*
X202862914Y-185457200D01*
X204148628Y-186385771D02*
X204148628Y-185600057D01*
X204077200Y-185457200D01*
X203934342Y-185385771D01*
X203648628Y-185385771D01*
X203505771Y-185457200D01*
X204148628Y-186314342D02*
X204005771Y-186385771D01*
X203648628Y-186385771D01*
X203505771Y-186314342D01*
X203434342Y-186171485D01*
X203434342Y-186028628D01*
X203505771Y-185885771D01*
X203648628Y-185814342D01*
X204005771Y-185814342D01*
X204148628Y-185742914D01*
X205505771Y-186385771D02*
X205505771Y-184885771D01*
X205505771Y-186314342D02*
X205362914Y-186385771D01*
X205077200Y-186385771D01*
X204934342Y-186314342D01*
X204862914Y-186242914D01*
X204791485Y-186100057D01*
X204791485Y-185671485D01*
X204862914Y-185528628D01*
X204934342Y-185457200D01*
X205077200Y-185385771D01*
X205362914Y-185385771D01*
X205505771Y-185457200D01*
X205862914Y-186528628D02*
X207005771Y-186528628D01*
X207362914Y-185385771D02*
X207362914Y-186885771D01*
X207362914Y-185457200D02*
X207505771Y-185385771D01*
X207791485Y-185385771D01*
X207934342Y-185457200D01*
X208005771Y-185528628D01*
X208077200Y-185671485D01*
X208077200Y-186100057D01*
X208005771Y-186242914D01*
X207934342Y-186314342D01*
X207791485Y-186385771D01*
X207505771Y-186385771D01*
X207362914Y-186314342D01*
X209362914Y-186314342D02*
X209220057Y-186385771D01*
X208934342Y-186385771D01*
X208791485Y-186314342D01*
X208720057Y-186242914D01*
X208648628Y-186100057D01*
X208648628Y-185671485D01*
X208720057Y-185528628D01*
X208791485Y-185457200D01*
X208934342Y-185385771D01*
X209220057Y-185385771D01*
X209362914Y-185457200D01*
X210005771Y-186385771D02*
X210005771Y-184885771D01*
X210005771Y-185457200D02*
X210148628Y-185385771D01*
X210434342Y-185385771D01*
X210577200Y-185457200D01*
X210648628Y-185528628D01*
X210720057Y-185671485D01*
X210720057Y-186100057D01*
X210648628Y-186242914D01*
X210577200Y-186314342D01*
X210434342Y-186385771D01*
X210148628Y-186385771D01*
X210005771Y-186314342D01*
D10*
D11*
X177002200Y-181507200D02*
X285002200Y-181507200D01*
D10*
D11*
X178362914Y-183614342D02*
X178577200Y-183685771D01*
X178934342Y-183685771D01*
X179077200Y-183614342D01*
X179148628Y-183542914D01*
X179220057Y-183400057D01*
X179220057Y-183257200D01*
X179148628Y-183114342D01*
X179077200Y-183042914D01*
X178934342Y-182971485D01*
X178648628Y-182900057D01*
X178505771Y-182828628D01*
X178434342Y-182757200D01*
X178362914Y-182614342D01*
X178362914Y-182471485D01*
X178434342Y-182328628D01*
X178505771Y-182257200D01*
X178648628Y-182185771D01*
X179005771Y-182185771D01*
X179220057Y-182257200D01*
X179862914Y-183685771D02*
X179862914Y-182185771D01*
X180505771Y-183685771D02*
X180505771Y-182900057D01*
X180434342Y-182757200D01*
X180291485Y-182685771D01*
X180077200Y-182685771D01*
X179934342Y-182757200D01*
X179862914Y-182828628D01*
X181791485Y-183614342D02*
X181648628Y-183685771D01*
X181362914Y-183685771D01*
X181220057Y-183614342D01*
X181148628Y-183471485D01*
X181148628Y-182900057D01*
X181220057Y-182757200D01*
X181362914Y-182685771D01*
X181648628Y-182685771D01*
X181791485Y-182757200D01*
X181862914Y-182900057D01*
X181862914Y-183042914D01*
X181148628Y-183185771D01*
X183077200Y-183614342D02*
X182934342Y-183685771D01*
X182648628Y-183685771D01*
X182505771Y-183614342D01*
X182434342Y-183471485D01*
X182434342Y-182900057D01*
X182505771Y-182757200D01*
X182648628Y-182685771D01*
X182934342Y-182685771D01*
X183077200Y-182757200D01*
X183148628Y-182900057D01*
X183148628Y-183042914D01*
X182434342Y-183185771D01*
X183577200Y-182685771D02*
X184148628Y-182685771D01*
X183791485Y-182185771D02*
X183791485Y-183471485D01*
X183862914Y-183614342D01*
X184005771Y-183685771D01*
X184148628Y-183685771D01*
X184648628Y-183542914D02*
X184720057Y-183614342D01*
X184648628Y-183685771D01*
X184577200Y-183614342D01*
X184648628Y-183542914D01*
X184648628Y-183685771D01*
X184648628Y-182757200D02*
X184720057Y-182828628D01*
X184648628Y-182900057D01*
X184577200Y-182828628D01*
X184648628Y-182757200D01*
X184648628Y-182900057D01*
D10*
D12*
X178411485Y-179185771D02*
X178768628Y-180685771D01*
X179054342Y-179614342D01*
X179340057Y-180685771D01*
X179697200Y-179185771D01*
X180268628Y-180685771D02*
X180268628Y-179185771D01*
X180911485Y-180685771D02*
X180911485Y-179900057D01*
X180840057Y-179757200D01*
X180697200Y-179685771D01*
X180482914Y-179685771D01*
X180340057Y-179757200D01*
X180268628Y-179828628D01*
X181840057Y-180685771D02*
X181697200Y-180614342D01*
X181625771Y-180542914D01*
X181554342Y-180400057D01*
X181554342Y-179971485D01*
X181625771Y-179828628D01*
X181697200Y-179757200D01*
X181840057Y-179685771D01*
X182054342Y-179685771D01*
X182197200Y-179757200D01*
X182268628Y-179828628D01*
X182340057Y-179971485D01*
X182340057Y-180400057D01*
X182268628Y-180542914D01*
X182197200Y-180614342D01*
X182054342Y-180685771D01*
X181840057Y-180685771D01*
X182768628Y-179185771D02*
X183625771Y-179185771D01*
X183197200Y-180685771D02*
X183197200Y-179185771D01*
X184125771Y-180685771D02*
X184125771Y-179185771D01*
X184768628Y-180685771D02*
X184768628Y-179900057D01*
X184697200Y-179757200D01*
X184554342Y-179685771D01*
X184340057Y-179685771D01*
X184197200Y-179757200D01*
X184125771Y-179828628D01*
X186054342Y-180614342D02*
X185911485Y-180685771D01*
X185625771Y-180685771D01*
X185482914Y-180614342D01*
X185411485Y-180471485D01*
X185411485Y-179900057D01*
X185482914Y-179757200D01*
X185625771Y-179685771D01*
X185911485Y-179685771D01*
X186054342Y-179757200D01*
X186125771Y-179900057D01*
X186125771Y-180042914D01*
X185411485Y-180185771D01*
X186768628Y-180685771D02*
X186768628Y-179185771D01*
X186768628Y-179900057D02*
X187625771Y-179900057D01*
X187625771Y-180685771D02*
X187625771Y-179185771D01*
X188911485Y-180614342D02*
X188768628Y-180685771D01*
X188482914Y-180685771D01*
X188340057Y-180614342D01*
X188268628Y-180471485D01*
X188268628Y-179900057D01*
X188340057Y-179757200D01*
X188482914Y-179685771D01*
X188768628Y-179685771D01*
X188911485Y-179757200D01*
X188982914Y-179900057D01*
X188982914Y-180042914D01*
X188268628Y-180185771D01*
X190268628Y-180614342D02*
X190125771Y-180685771D01*
X189840057Y-180685771D01*
X189697200Y-180614342D01*
X189625771Y-180542914D01*
X189554342Y-180400057D01*
X189554342Y-179971485D01*
X189625771Y-179828628D01*
X189697200Y-179757200D01*
X189840057Y-179685771D01*
X190125771Y-179685771D01*
X190268628Y-179757200D01*
X190911485Y-180685771D02*
X190911485Y-179185771D01*
X191054342Y-180114342D02*
X191482914Y-180685771D01*
X191482914Y-179685771D02*
X190911485Y-180257200D01*
D10*
D11*
X197002200Y-191507200D02*
X197002200Y-194507200D01*
D10*
D11*
X261002200Y-191507200D02*
X261002200Y-198007200D01*
D14*
X122000000Y-64400000D02*
X122000000Y-61900000D01*
X103500000Y-64400000D02*
X103500000Y-61900000D01*
X122000000Y-64400000D02*
X125500000Y-64400000D01*
X103500000Y-61900000D02*
X122000000Y-61900000D01*
X103989634Y-39250000D02*
X121500000Y-39250000D01*
X125500269Y-48509479D02*
G75*
G03X121500000Y-39250000I-12750269J-14521D01*
G01*
X103989634Y-39250000D02*
G75*
G03X100000000Y-48513827I8760366J-9263827D01*
G01*
X125500000Y-64400000D02*
X125500000Y-48513827D01*
X100000000Y-64400000D02*
X100000000Y-48513827D01*
X100000000Y-64400000D02*
X103500000Y-64400000D01*
D15*
G04 #@! TO.N,GND*
G04 #@! TO.C,SW1*
X114750000Y-41850000D03*
G04 #@! TO.N,/mode_select*
X112750000Y-41850000D03*
G04 #@! TO.N,N/C*
X110750000Y-41850000D03*
G04 #@! TD*
D16*
G04 #@! TO.N,GND*
X114578978Y-57594664D03*
X104980002Y-51500000D03*
X100920758Y-55437606D03*
X117200000Y-51900000D03*
X119100000Y-43200000D03*
X123200000Y-43200000D03*
X118000000Y-54000000D03*
X116700000Y-60800000D03*
X108200000Y-44400000D03*
X107200000Y-41600000D03*
X110077203Y-60425010D03*
X104300000Y-44000000D03*
X104029321Y-48413035D03*
X117000000Y-47399996D03*
X124299972Y-51700000D03*
X105000000Y-49300000D03*
X102550000Y-62050000D03*
X122949984Y-62050000D03*
G04 #@! TO.N,Net-(D1-Pad1)*
X111900010Y-55500000D03*
X106099990Y-58300000D03*
X107850000Y-56600013D03*
G04 #@! TO.N,/switch*
X114325009Y-50600000D03*
G04 #@! TO.N,Net-(D1-Pad2)*
X110950000Y-57224964D03*
G04 #@! TO.N,/PGPExt_Signal_Processing/LEDb*
X120400000Y-53100000D03*
G04 #@! TO.N,/PGPExt_Signal_Processing/LEDg*
X114325009Y-48150002D03*
G04 #@! TO.N,VDD*
X113600000Y-57200000D03*
X104800000Y-57900000D03*
X106400000Y-54600000D03*
X111700000Y-45300000D03*
X108597037Y-60425010D03*
X108200000Y-48600000D03*
X123150000Y-59450000D03*
G04 #@! TO.N,VDDA*
X100850034Y-52700000D03*
X105000000Y-48400000D03*
G04 #@! TO.N,Net-(C1-Pad1)*
X103500000Y-44000000D03*
G04 #@! TO.N,/PGPExt_Signal_Processing/LEDr_i*
X123850000Y-59449998D03*
G04 #@! TO.N,+BATT*
X102900000Y-51300000D03*
X102700000Y-44000000D03*
X105200000Y-43999998D03*
X108692096Y-48075012D03*
G04 #@! TO.N,Net-(JP1-Pad1)*
X101700000Y-48400000D03*
G04 #@! TO.N,Net-(R10-Pad2)*
X114400000Y-44300000D03*
X118900000Y-55000000D03*
G04 #@! TO.N,Net-(U5-Pad3)*
X107850000Y-55950000D03*
G04 #@! TO.N,Net-(U5-Pad6)*
X106599321Y-56928913D03*
G04 #@! TO.N,Net-(U7-Pad4)*
X114600000Y-58900000D03*
X112500000Y-48400000D03*
G04 #@! TO.N,Net-(U7-Pad9)*
X122350000Y-55050000D03*
X114300006Y-45600000D03*
G04 #@! TO.N,Net-(R14-Pad2)*
X111700000Y-44300000D03*
X113500000Y-55500000D03*
G04 #@! TD*
D17*
G04 #@! TO.N,+BATT*
G36*
X102968455Y-43644833D02*
X102873000Y-43875282D01*
X102873000Y-44124718D01*
X102968455Y-44355167D01*
X103144833Y-44531545D01*
X103375282Y-44627000D01*
X103624718Y-44627000D01*
X103855167Y-44531545D01*
X103900000Y-44486712D01*
X103944833Y-44531545D01*
X104175282Y-44627000D01*
X104424718Y-44627000D01*
X104655167Y-44531545D01*
X104831545Y-44355167D01*
X104864634Y-44275282D01*
X107573000Y-44275282D01*
X107573000Y-44524718D01*
X107668455Y-44755167D01*
X107844833Y-44931545D01*
X108075282Y-45027000D01*
X108324718Y-45027000D01*
X108555167Y-44931545D01*
X108731545Y-44755167D01*
X108827000Y-44524718D01*
X108827000Y-44275282D01*
X108731545Y-44044833D01*
X108555167Y-43868455D01*
X108324718Y-43773000D01*
X108075282Y-43773000D01*
X107844833Y-43868455D01*
X107668455Y-44044833D01*
X107573000Y-44275282D01*
X104864634Y-44275282D01*
X104927000Y-44124718D01*
X104927000Y-43875282D01*
X104831545Y-43644833D01*
X104813712Y-43627000D01*
X108873000Y-43627000D01*
X108873000Y-48173000D01*
X108659712Y-48173000D01*
X108555167Y-48068455D01*
X108324718Y-47973000D01*
X108075282Y-47973000D01*
X107844833Y-48068455D01*
X107740288Y-48173000D01*
X107627000Y-48173000D01*
X107627000Y-47800000D01*
X107617333Y-47751399D01*
X107589803Y-47710197D01*
X107548601Y-47682667D01*
X107500000Y-47673000D01*
X104500000Y-47673000D01*
X104451399Y-47682667D01*
X104410197Y-47710197D01*
X104382667Y-47751399D01*
X104373000Y-47800000D01*
X104373000Y-47876732D01*
X104154039Y-47786035D01*
X103904603Y-47786035D01*
X103674154Y-47881490D01*
X103497776Y-48057868D01*
X103402321Y-48288317D01*
X103402321Y-48537753D01*
X103497776Y-48768202D01*
X103674154Y-48944580D01*
X103904603Y-49040035D01*
X104154039Y-49040035D01*
X104373000Y-48949338D01*
X104373000Y-51327003D01*
X104353002Y-51375282D01*
X104353002Y-51624718D01*
X104373000Y-51672997D01*
X104373000Y-51873000D01*
X100777000Y-51873000D01*
X100777000Y-48535522D01*
X100791549Y-48275282D01*
X101073000Y-48275282D01*
X101073000Y-48524718D01*
X101168455Y-48755167D01*
X101344833Y-48931545D01*
X101575282Y-49027000D01*
X101824718Y-49027000D01*
X102055167Y-48931545D01*
X102231545Y-48755167D01*
X102327000Y-48524718D01*
X102327000Y-48275282D01*
X102231545Y-48044833D01*
X102055167Y-47868455D01*
X101824718Y-47773000D01*
X101575282Y-47773000D01*
X101344833Y-47868455D01*
X101168455Y-48044833D01*
X101073000Y-48275282D01*
X100791549Y-48275282D01*
X100852822Y-47179350D01*
X101075721Y-45861492D01*
X101444126Y-44576707D01*
X101835568Y-43627000D01*
X102986288Y-43627000D01*
X102968455Y-43644833D01*
X102968455Y-43644833D01*
G37*
X102968455Y-43644833D02*
X102873000Y-43875282D01*
X102873000Y-44124718D01*
X102968455Y-44355167D01*
X103144833Y-44531545D01*
X103375282Y-44627000D01*
X103624718Y-44627000D01*
X103855167Y-44531545D01*
X103900000Y-44486712D01*
X103944833Y-44531545D01*
X104175282Y-44627000D01*
X104424718Y-44627000D01*
X104655167Y-44531545D01*
X104831545Y-44355167D01*
X104864634Y-44275282D01*
X107573000Y-44275282D01*
X107573000Y-44524718D01*
X107668455Y-44755167D01*
X107844833Y-44931545D01*
X108075282Y-45027000D01*
X108324718Y-45027000D01*
X108555167Y-44931545D01*
X108731545Y-44755167D01*
X108827000Y-44524718D01*
X108827000Y-44275282D01*
X108731545Y-44044833D01*
X108555167Y-43868455D01*
X108324718Y-43773000D01*
X108075282Y-43773000D01*
X107844833Y-43868455D01*
X107668455Y-44044833D01*
X107573000Y-44275282D01*
X104864634Y-44275282D01*
X104927000Y-44124718D01*
X104927000Y-43875282D01*
X104831545Y-43644833D01*
X104813712Y-43627000D01*
X108873000Y-43627000D01*
X108873000Y-48173000D01*
X108659712Y-48173000D01*
X108555167Y-48068455D01*
X108324718Y-47973000D01*
X108075282Y-47973000D01*
X107844833Y-48068455D01*
X107740288Y-48173000D01*
X107627000Y-48173000D01*
X107627000Y-47800000D01*
X107617333Y-47751399D01*
X107589803Y-47710197D01*
X107548601Y-47682667D01*
X107500000Y-47673000D01*
X104500000Y-47673000D01*
X104451399Y-47682667D01*
X104410197Y-47710197D01*
X104382667Y-47751399D01*
X104373000Y-47800000D01*
X104373000Y-47876732D01*
X104154039Y-47786035D01*
X103904603Y-47786035D01*
X103674154Y-47881490D01*
X103497776Y-48057868D01*
X103402321Y-48288317D01*
X103402321Y-48537753D01*
X103497776Y-48768202D01*
X103674154Y-48944580D01*
X103904603Y-49040035D01*
X104154039Y-49040035D01*
X104373000Y-48949338D01*
X104373000Y-51327003D01*
X104353002Y-51375282D01*
X104353002Y-51624718D01*
X104373000Y-51672997D01*
X104373000Y-51873000D01*
X100777000Y-51873000D01*
X100777000Y-48535522D01*
X100791549Y-48275282D01*
X101073000Y-48275282D01*
X101073000Y-48524718D01*
X101168455Y-48755167D01*
X101344833Y-48931545D01*
X101575282Y-49027000D01*
X101824718Y-49027000D01*
X102055167Y-48931545D01*
X102231545Y-48755167D01*
X102327000Y-48524718D01*
X102327000Y-48275282D01*
X102231545Y-48044833D01*
X102055167Y-47868455D01*
X101824718Y-47773000D01*
X101575282Y-47773000D01*
X101344833Y-47868455D01*
X101168455Y-48044833D01*
X101073000Y-48275282D01*
X100791549Y-48275282D01*
X100852822Y-47179350D01*
X101075721Y-45861492D01*
X101444126Y-44576707D01*
X101835568Y-43627000D01*
X102986288Y-43627000D01*
X102968455Y-43644833D01*
G04 #@! TO.N,VDD*
G36*
X121885407Y-40786129D02*
X122691007Y-41852666D01*
X123118119Y-42573000D01*
X123075282Y-42573000D01*
X122844833Y-42668455D01*
X122668455Y-42844833D01*
X122573000Y-43075282D01*
X122573000Y-43324718D01*
X122668455Y-43555167D01*
X122844833Y-43731545D01*
X123075282Y-43827000D01*
X123324718Y-43827000D01*
X123555167Y-43731545D01*
X123655970Y-43630742D01*
X123921991Y-44220869D01*
X124332033Y-45493022D01*
X124597711Y-46802937D01*
X124717101Y-48149890D01*
X124723001Y-48500129D01*
X124723001Y-51236317D01*
X124655139Y-51168455D01*
X124424690Y-51073000D01*
X124175254Y-51073000D01*
X123944805Y-51168455D01*
X123768427Y-51344833D01*
X123672972Y-51575282D01*
X123672972Y-51824718D01*
X123768427Y-52055167D01*
X123944805Y-52231545D01*
X124175254Y-52327000D01*
X124424690Y-52327000D01*
X124655139Y-52231545D01*
X124723001Y-52163683D01*
X124723000Y-63623000D01*
X122777000Y-63623000D01*
X122777000Y-62657008D01*
X122825266Y-62677000D01*
X123074702Y-62677000D01*
X123305151Y-62581545D01*
X123481529Y-62405167D01*
X123576984Y-62174718D01*
X123576984Y-61925282D01*
X123481529Y-61694833D01*
X123305151Y-61518455D01*
X123074702Y-61423000D01*
X122825266Y-61423000D01*
X122661182Y-61490966D01*
X122560186Y-61339814D01*
X122303170Y-61168082D01*
X122000000Y-61107778D01*
X121923474Y-61123000D01*
X117244869Y-61123000D01*
X117327000Y-60924718D01*
X117327000Y-60675282D01*
X117231545Y-60444833D01*
X117055167Y-60268455D01*
X116824718Y-60173000D01*
X116575282Y-60173000D01*
X116344833Y-60268455D01*
X116168455Y-60444833D01*
X116073000Y-60675282D01*
X116073000Y-60924718D01*
X116155131Y-61123000D01*
X103576526Y-61123000D01*
X103500000Y-61107778D01*
X103423474Y-61123000D01*
X103196830Y-61168082D01*
X102939814Y-61339814D01*
X102838815Y-61490971D01*
X102674718Y-61423000D01*
X102425282Y-61423000D01*
X102194833Y-61518455D01*
X102018455Y-61694833D01*
X101923000Y-61925282D01*
X101923000Y-62174718D01*
X102018455Y-62405167D01*
X102194833Y-62581545D01*
X102425282Y-62677000D01*
X102674718Y-62677000D01*
X102723001Y-62657001D01*
X102723000Y-63623000D01*
X100777000Y-63623000D01*
X100777000Y-60300292D01*
X109450203Y-60300292D01*
X109450203Y-60549728D01*
X109545658Y-60780177D01*
X109722036Y-60956555D01*
X109952485Y-61052010D01*
X110201921Y-61052010D01*
X110432370Y-60956555D01*
X110608748Y-60780177D01*
X110704203Y-60549728D01*
X110704203Y-60300292D01*
X110608748Y-60069843D01*
X110432370Y-59893465D01*
X110201921Y-59798010D01*
X109952485Y-59798010D01*
X109722036Y-59893465D01*
X109545658Y-60069843D01*
X109450203Y-60300292D01*
X100777000Y-60300292D01*
X100777000Y-58175282D01*
X105472990Y-58175282D01*
X105472990Y-58424718D01*
X105568445Y-58655167D01*
X105744823Y-58831545D01*
X105975272Y-58927000D01*
X106224708Y-58927000D01*
X106455157Y-58831545D01*
X106511420Y-58775282D01*
X113973000Y-58775282D01*
X113973000Y-59024718D01*
X114068455Y-59255167D01*
X114244833Y-59431545D01*
X114475282Y-59527000D01*
X114724718Y-59527000D01*
X114955167Y-59431545D01*
X115061432Y-59325280D01*
X123223000Y-59325280D01*
X123223000Y-59574716D01*
X123318455Y-59805165D01*
X123494833Y-59981543D01*
X123725282Y-60076998D01*
X123974718Y-60076998D01*
X124205167Y-59981543D01*
X124381545Y-59805165D01*
X124477000Y-59574716D01*
X124477000Y-59325280D01*
X124381545Y-59094831D01*
X124205167Y-58918453D01*
X123974718Y-58822998D01*
X123725282Y-58822998D01*
X123494833Y-58918453D01*
X123318455Y-59094831D01*
X123223000Y-59325280D01*
X115061432Y-59325280D01*
X115131545Y-59255167D01*
X115227000Y-59024718D01*
X115227000Y-58775282D01*
X115131545Y-58544833D01*
X114955167Y-58368455D01*
X114724718Y-58273000D01*
X114475282Y-58273000D01*
X114244833Y-58368455D01*
X114068455Y-58544833D01*
X113973000Y-58775282D01*
X106511420Y-58775282D01*
X106631535Y-58655167D01*
X106726990Y-58424718D01*
X106726990Y-58175282D01*
X106631535Y-57944833D01*
X106455157Y-57768455D01*
X106224708Y-57673000D01*
X105975272Y-57673000D01*
X105744823Y-57768455D01*
X105568445Y-57944833D01*
X105472990Y-58175282D01*
X100777000Y-58175282D01*
X100777000Y-56804195D01*
X105972321Y-56804195D01*
X105972321Y-57053631D01*
X106067776Y-57284080D01*
X106244154Y-57460458D01*
X106474603Y-57555913D01*
X106724039Y-57555913D01*
X106954488Y-57460458D01*
X107130866Y-57284080D01*
X107226321Y-57053631D01*
X107226321Y-56804195D01*
X107130866Y-56573746D01*
X106954488Y-56397368D01*
X106724039Y-56301913D01*
X106474603Y-56301913D01*
X106244154Y-56397368D01*
X106067776Y-56573746D01*
X105972321Y-56804195D01*
X100777000Y-56804195D01*
X100777000Y-56056719D01*
X100796040Y-56064606D01*
X101045476Y-56064606D01*
X101275925Y-55969151D01*
X101419794Y-55825282D01*
X107223000Y-55825282D01*
X107223000Y-56074718D01*
X107305962Y-56275007D01*
X107223000Y-56475295D01*
X107223000Y-56724731D01*
X107318455Y-56955180D01*
X107494833Y-57131558D01*
X107725282Y-57227013D01*
X107974718Y-57227013D01*
X108205167Y-57131558D01*
X108236479Y-57100246D01*
X110323000Y-57100246D01*
X110323000Y-57349682D01*
X110418455Y-57580131D01*
X110594833Y-57756509D01*
X110825282Y-57851964D01*
X111074718Y-57851964D01*
X111305167Y-57756509D01*
X111481545Y-57580131D01*
X111527185Y-57469946D01*
X113951978Y-57469946D01*
X113951978Y-57719382D01*
X114047433Y-57949831D01*
X114223811Y-58126209D01*
X114454260Y-58221664D01*
X114703696Y-58221664D01*
X114934145Y-58126209D01*
X115110523Y-57949831D01*
X115205978Y-57719382D01*
X115205978Y-57469946D01*
X115110523Y-57239497D01*
X114934145Y-57063119D01*
X114703696Y-56967664D01*
X114454260Y-56967664D01*
X114223811Y-57063119D01*
X114047433Y-57239497D01*
X113951978Y-57469946D01*
X111527185Y-57469946D01*
X111577000Y-57349682D01*
X111577000Y-57100246D01*
X111481545Y-56869797D01*
X111305167Y-56693419D01*
X111074718Y-56597964D01*
X110825282Y-56597964D01*
X110594833Y-56693419D01*
X110418455Y-56869797D01*
X110323000Y-57100246D01*
X108236479Y-57100246D01*
X108381545Y-56955180D01*
X108477000Y-56724731D01*
X108477000Y-56475295D01*
X108394038Y-56275007D01*
X108477000Y-56074718D01*
X108477000Y-55825282D01*
X108381545Y-55594833D01*
X108205167Y-55418455D01*
X108100939Y-55375282D01*
X111273010Y-55375282D01*
X111273010Y-55624718D01*
X111368465Y-55855167D01*
X111544843Y-56031545D01*
X111775292Y-56127000D01*
X112024728Y-56127000D01*
X112255177Y-56031545D01*
X112431555Y-55855167D01*
X112527010Y-55624718D01*
X112527010Y-55375282D01*
X112873000Y-55375282D01*
X112873000Y-55624718D01*
X112968455Y-55855167D01*
X113144833Y-56031545D01*
X113375282Y-56127000D01*
X113624718Y-56127000D01*
X113855167Y-56031545D01*
X114031545Y-55855167D01*
X114127000Y-55624718D01*
X114127000Y-55375282D01*
X114031545Y-55144833D01*
X113855167Y-54968455D01*
X113630228Y-54875282D01*
X118273000Y-54875282D01*
X118273000Y-55124718D01*
X118368455Y-55355167D01*
X118544833Y-55531545D01*
X118775282Y-55627000D01*
X119024718Y-55627000D01*
X119255167Y-55531545D01*
X119431545Y-55355167D01*
X119527000Y-55124718D01*
X119527000Y-54925282D01*
X121723000Y-54925282D01*
X121723000Y-55174718D01*
X121818455Y-55405167D01*
X121994833Y-55581545D01*
X122225282Y-55677000D01*
X122474718Y-55677000D01*
X122705167Y-55581545D01*
X122881545Y-55405167D01*
X122977000Y-55174718D01*
X122977000Y-54925282D01*
X122881545Y-54694833D01*
X122705167Y-54518455D01*
X122474718Y-54423000D01*
X122225282Y-54423000D01*
X121994833Y-54518455D01*
X121818455Y-54694833D01*
X121723000Y-54925282D01*
X119527000Y-54925282D01*
X119527000Y-54875282D01*
X119431545Y-54644833D01*
X119255167Y-54468455D01*
X119024718Y-54373000D01*
X118775282Y-54373000D01*
X118544833Y-54468455D01*
X118368455Y-54644833D01*
X118273000Y-54875282D01*
X113630228Y-54875282D01*
X113624718Y-54873000D01*
X113375282Y-54873000D01*
X113144833Y-54968455D01*
X112968455Y-55144833D01*
X112873000Y-55375282D01*
X112527010Y-55375282D01*
X112431555Y-55144833D01*
X112255177Y-54968455D01*
X112024728Y-54873000D01*
X111775292Y-54873000D01*
X111544843Y-54968455D01*
X111368465Y-55144833D01*
X111273010Y-55375282D01*
X108100939Y-55375282D01*
X107974718Y-55323000D01*
X107725282Y-55323000D01*
X107494833Y-55418455D01*
X107318455Y-55594833D01*
X107223000Y-55825282D01*
X101419794Y-55825282D01*
X101452303Y-55792773D01*
X101547758Y-55562324D01*
X101547758Y-55312888D01*
X101452303Y-55082439D01*
X101275925Y-54906061D01*
X101045476Y-54810606D01*
X100796040Y-54810606D01*
X100777000Y-54818493D01*
X100777000Y-54327000D01*
X107800000Y-54327000D01*
X107848601Y-54317333D01*
X107889803Y-54289803D01*
X107917333Y-54248601D01*
X107927000Y-54200000D01*
X107927000Y-53875282D01*
X117373000Y-53875282D01*
X117373000Y-54124718D01*
X117468455Y-54355167D01*
X117644833Y-54531545D01*
X117875282Y-54627000D01*
X118124718Y-54627000D01*
X118355167Y-54531545D01*
X118531545Y-54355167D01*
X118627000Y-54124718D01*
X118627000Y-53875282D01*
X118531545Y-53644833D01*
X118355167Y-53468455D01*
X118124718Y-53373000D01*
X117875282Y-53373000D01*
X117644833Y-53468455D01*
X117468455Y-53644833D01*
X117373000Y-53875282D01*
X107927000Y-53875282D01*
X107927000Y-52975282D01*
X119773000Y-52975282D01*
X119773000Y-53224718D01*
X119868455Y-53455167D01*
X120044833Y-53631545D01*
X120275282Y-53727000D01*
X120524718Y-53727000D01*
X120755167Y-53631545D01*
X120931545Y-53455167D01*
X121027000Y-53224718D01*
X121027000Y-52975282D01*
X120931545Y-52744833D01*
X120755167Y-52568455D01*
X120524718Y-52473000D01*
X120275282Y-52473000D01*
X120044833Y-52568455D01*
X119868455Y-52744833D01*
X119773000Y-52975282D01*
X107927000Y-52975282D01*
X107927000Y-51775282D01*
X116573000Y-51775282D01*
X116573000Y-52024718D01*
X116668455Y-52255167D01*
X116844833Y-52431545D01*
X117075282Y-52527000D01*
X117324718Y-52527000D01*
X117555167Y-52431545D01*
X117731545Y-52255167D01*
X117827000Y-52024718D01*
X117827000Y-51775282D01*
X117731545Y-51544833D01*
X117555167Y-51368455D01*
X117324718Y-51273000D01*
X117075282Y-51273000D01*
X116844833Y-51368455D01*
X116668455Y-51544833D01*
X116573000Y-51775282D01*
X107927000Y-51775282D01*
X107927000Y-50475282D01*
X113698009Y-50475282D01*
X113698009Y-50724718D01*
X113793464Y-50955167D01*
X113969842Y-51131545D01*
X114200291Y-51227000D01*
X114449727Y-51227000D01*
X114680176Y-51131545D01*
X114856554Y-50955167D01*
X114952009Y-50724718D01*
X114952009Y-50475282D01*
X114856554Y-50244833D01*
X114680176Y-50068455D01*
X114449727Y-49973000D01*
X114200291Y-49973000D01*
X113969842Y-50068455D01*
X113793464Y-50244833D01*
X113698009Y-50475282D01*
X107927000Y-50475282D01*
X107927000Y-48727000D01*
X109400000Y-48727000D01*
X109448601Y-48717333D01*
X109489803Y-48689803D01*
X109517333Y-48648601D01*
X109527000Y-48600000D01*
X109527000Y-48275282D01*
X111873000Y-48275282D01*
X111873000Y-48524718D01*
X111968455Y-48755167D01*
X112144833Y-48931545D01*
X112375282Y-49027000D01*
X112624718Y-49027000D01*
X112855167Y-48931545D01*
X113031545Y-48755167D01*
X113127000Y-48524718D01*
X113127000Y-48275282D01*
X113031545Y-48044833D01*
X113011996Y-48025284D01*
X113698009Y-48025284D01*
X113698009Y-48274720D01*
X113793464Y-48505169D01*
X113969842Y-48681547D01*
X114200291Y-48777002D01*
X114449727Y-48777002D01*
X114680176Y-48681547D01*
X114856554Y-48505169D01*
X114952009Y-48274720D01*
X114952009Y-48025284D01*
X114856554Y-47794835D01*
X114680176Y-47618457D01*
X114449727Y-47523002D01*
X114200291Y-47523002D01*
X113969842Y-47618457D01*
X113793464Y-47794835D01*
X113698009Y-48025284D01*
X113011996Y-48025284D01*
X112855167Y-47868455D01*
X112624718Y-47773000D01*
X112375282Y-47773000D01*
X112144833Y-47868455D01*
X111968455Y-48044833D01*
X111873000Y-48275282D01*
X109527000Y-48275282D01*
X109527000Y-47275278D01*
X116373000Y-47275278D01*
X116373000Y-47524714D01*
X116468455Y-47755163D01*
X116644833Y-47931541D01*
X116875282Y-48026996D01*
X117124718Y-48026996D01*
X117355167Y-47931541D01*
X117531545Y-47755163D01*
X117627000Y-47524714D01*
X117627000Y-47275278D01*
X117531545Y-47044829D01*
X117355167Y-46868451D01*
X117124718Y-46772996D01*
X116875282Y-46772996D01*
X116644833Y-46868451D01*
X116468455Y-47044829D01*
X116373000Y-47275278D01*
X109527000Y-47275278D01*
X109527000Y-45475282D01*
X113673006Y-45475282D01*
X113673006Y-45724718D01*
X113768461Y-45955167D01*
X113944839Y-46131545D01*
X114175288Y-46227000D01*
X114424724Y-46227000D01*
X114655173Y-46131545D01*
X114831551Y-45955167D01*
X114927006Y-45724718D01*
X114927006Y-45475282D01*
X114831551Y-45244833D01*
X114655173Y-45068455D01*
X114424724Y-44973000D01*
X114175288Y-44973000D01*
X113944839Y-45068455D01*
X113768461Y-45244833D01*
X113673006Y-45475282D01*
X109527000Y-45475282D01*
X109527000Y-44175282D01*
X111073000Y-44175282D01*
X111073000Y-44424718D01*
X111168455Y-44655167D01*
X111344833Y-44831545D01*
X111575282Y-44927000D01*
X111824718Y-44927000D01*
X112055167Y-44831545D01*
X112231545Y-44655167D01*
X112327000Y-44424718D01*
X112327000Y-44175282D01*
X113773000Y-44175282D01*
X113773000Y-44424718D01*
X113868455Y-44655167D01*
X114044833Y-44831545D01*
X114275282Y-44927000D01*
X114524718Y-44927000D01*
X114755167Y-44831545D01*
X114931545Y-44655167D01*
X115027000Y-44424718D01*
X115027000Y-44175282D01*
X114931545Y-43944833D01*
X114755167Y-43768455D01*
X114524718Y-43673000D01*
X114275282Y-43673000D01*
X114044833Y-43768455D01*
X113868455Y-43944833D01*
X113773000Y-44175282D01*
X112327000Y-44175282D01*
X112231545Y-43944833D01*
X112055167Y-43768455D01*
X111824718Y-43673000D01*
X111575282Y-43673000D01*
X111344833Y-43768455D01*
X111168455Y-43944833D01*
X111073000Y-44175282D01*
X109527000Y-44175282D01*
X109527000Y-43075282D01*
X118473000Y-43075282D01*
X118473000Y-43324718D01*
X118568455Y-43555167D01*
X118744833Y-43731545D01*
X118975282Y-43827000D01*
X119224718Y-43827000D01*
X119455167Y-43731545D01*
X119631545Y-43555167D01*
X119727000Y-43324718D01*
X119727000Y-43075282D01*
X119631545Y-42844833D01*
X119455167Y-42668455D01*
X119224718Y-42573000D01*
X118975282Y-42573000D01*
X118744833Y-42668455D01*
X118568455Y-42844833D01*
X118473000Y-43075282D01*
X109527000Y-43075282D01*
X109527000Y-41665608D01*
X109823000Y-41665608D01*
X109823000Y-42034392D01*
X109964127Y-42375103D01*
X110224897Y-42635873D01*
X110565608Y-42777000D01*
X110934392Y-42777000D01*
X111275103Y-42635873D01*
X111535873Y-42375103D01*
X111677000Y-42034392D01*
X111677000Y-41665608D01*
X111823000Y-41665608D01*
X111823000Y-42034392D01*
X111964127Y-42375103D01*
X112224897Y-42635873D01*
X112565608Y-42777000D01*
X112934392Y-42777000D01*
X113275103Y-42635873D01*
X113535873Y-42375103D01*
X113677000Y-42034392D01*
X113677000Y-41665608D01*
X113823000Y-41665608D01*
X113823000Y-42034392D01*
X113964127Y-42375103D01*
X114224897Y-42635873D01*
X114565608Y-42777000D01*
X114934392Y-42777000D01*
X115275103Y-42635873D01*
X115535873Y-42375103D01*
X115677000Y-42034392D01*
X115677000Y-41665608D01*
X115535873Y-41324897D01*
X115275103Y-41064127D01*
X114934392Y-40923000D01*
X114565608Y-40923000D01*
X114224897Y-41064127D01*
X113964127Y-41324897D01*
X113823000Y-41665608D01*
X113677000Y-41665608D01*
X113535873Y-41324897D01*
X113275103Y-41064127D01*
X112934392Y-40923000D01*
X112565608Y-40923000D01*
X112224897Y-41064127D01*
X111964127Y-41324897D01*
X111823000Y-41665608D01*
X111677000Y-41665608D01*
X111535873Y-41324897D01*
X111275103Y-41064127D01*
X110934392Y-40923000D01*
X110565608Y-40923000D01*
X110224897Y-41064127D01*
X109964127Y-41324897D01*
X109823000Y-41665608D01*
X109527000Y-41665608D01*
X109527000Y-40027000D01*
X121165895Y-40027000D01*
X121885407Y-40786129D01*
X121885407Y-40786129D01*
G37*
X121885407Y-40786129D02*
X122691007Y-41852666D01*
X123118119Y-42573000D01*
X123075282Y-42573000D01*
X122844833Y-42668455D01*
X122668455Y-42844833D01*
X122573000Y-43075282D01*
X122573000Y-43324718D01*
X122668455Y-43555167D01*
X122844833Y-43731545D01*
X123075282Y-43827000D01*
X123324718Y-43827000D01*
X123555167Y-43731545D01*
X123655970Y-43630742D01*
X123921991Y-44220869D01*
X124332033Y-45493022D01*
X124597711Y-46802937D01*
X124717101Y-48149890D01*
X124723001Y-48500129D01*
X124723001Y-51236317D01*
X124655139Y-51168455D01*
X124424690Y-51073000D01*
X124175254Y-51073000D01*
X123944805Y-51168455D01*
X123768427Y-51344833D01*
X123672972Y-51575282D01*
X123672972Y-51824718D01*
X123768427Y-52055167D01*
X123944805Y-52231545D01*
X124175254Y-52327000D01*
X124424690Y-52327000D01*
X124655139Y-52231545D01*
X124723001Y-52163683D01*
X124723000Y-63623000D01*
X122777000Y-63623000D01*
X122777000Y-62657008D01*
X122825266Y-62677000D01*
X123074702Y-62677000D01*
X123305151Y-62581545D01*
X123481529Y-62405167D01*
X123576984Y-62174718D01*
X123576984Y-61925282D01*
X123481529Y-61694833D01*
X123305151Y-61518455D01*
X123074702Y-61423000D01*
X122825266Y-61423000D01*
X122661182Y-61490966D01*
X122560186Y-61339814D01*
X122303170Y-61168082D01*
X122000000Y-61107778D01*
X121923474Y-61123000D01*
X117244869Y-61123000D01*
X117327000Y-60924718D01*
X117327000Y-60675282D01*
X117231545Y-60444833D01*
X117055167Y-60268455D01*
X116824718Y-60173000D01*
X116575282Y-60173000D01*
X116344833Y-60268455D01*
X116168455Y-60444833D01*
X116073000Y-60675282D01*
X116073000Y-60924718D01*
X116155131Y-61123000D01*
X103576526Y-61123000D01*
X103500000Y-61107778D01*
X103423474Y-61123000D01*
X103196830Y-61168082D01*
X102939814Y-61339814D01*
X102838815Y-61490971D01*
X102674718Y-61423000D01*
X102425282Y-61423000D01*
X102194833Y-61518455D01*
X102018455Y-61694833D01*
X101923000Y-61925282D01*
X101923000Y-62174718D01*
X102018455Y-62405167D01*
X102194833Y-62581545D01*
X102425282Y-62677000D01*
X102674718Y-62677000D01*
X102723001Y-62657001D01*
X102723000Y-63623000D01*
X100777000Y-63623000D01*
X100777000Y-60300292D01*
X109450203Y-60300292D01*
X109450203Y-60549728D01*
X109545658Y-60780177D01*
X109722036Y-60956555D01*
X109952485Y-61052010D01*
X110201921Y-61052010D01*
X110432370Y-60956555D01*
X110608748Y-60780177D01*
X110704203Y-60549728D01*
X110704203Y-60300292D01*
X110608748Y-60069843D01*
X110432370Y-59893465D01*
X110201921Y-59798010D01*
X109952485Y-59798010D01*
X109722036Y-59893465D01*
X109545658Y-60069843D01*
X109450203Y-60300292D01*
X100777000Y-60300292D01*
X100777000Y-58175282D01*
X105472990Y-58175282D01*
X105472990Y-58424718D01*
X105568445Y-58655167D01*
X105744823Y-58831545D01*
X105975272Y-58927000D01*
X106224708Y-58927000D01*
X106455157Y-58831545D01*
X106511420Y-58775282D01*
X113973000Y-58775282D01*
X113973000Y-59024718D01*
X114068455Y-59255167D01*
X114244833Y-59431545D01*
X114475282Y-59527000D01*
X114724718Y-59527000D01*
X114955167Y-59431545D01*
X115061432Y-59325280D01*
X123223000Y-59325280D01*
X123223000Y-59574716D01*
X123318455Y-59805165D01*
X123494833Y-59981543D01*
X123725282Y-60076998D01*
X123974718Y-60076998D01*
X124205167Y-59981543D01*
X124381545Y-59805165D01*
X124477000Y-59574716D01*
X124477000Y-59325280D01*
X124381545Y-59094831D01*
X124205167Y-58918453D01*
X123974718Y-58822998D01*
X123725282Y-58822998D01*
X123494833Y-58918453D01*
X123318455Y-59094831D01*
X123223000Y-59325280D01*
X115061432Y-59325280D01*
X115131545Y-59255167D01*
X115227000Y-59024718D01*
X115227000Y-58775282D01*
X115131545Y-58544833D01*
X114955167Y-58368455D01*
X114724718Y-58273000D01*
X114475282Y-58273000D01*
X114244833Y-58368455D01*
X114068455Y-58544833D01*
X113973000Y-58775282D01*
X106511420Y-58775282D01*
X106631535Y-58655167D01*
X106726990Y-58424718D01*
X106726990Y-58175282D01*
X106631535Y-57944833D01*
X106455157Y-57768455D01*
X106224708Y-57673000D01*
X105975272Y-57673000D01*
X105744823Y-57768455D01*
X105568445Y-57944833D01*
X105472990Y-58175282D01*
X100777000Y-58175282D01*
X100777000Y-56804195D01*
X105972321Y-56804195D01*
X105972321Y-57053631D01*
X106067776Y-57284080D01*
X106244154Y-57460458D01*
X106474603Y-57555913D01*
X106724039Y-57555913D01*
X106954488Y-57460458D01*
X107130866Y-57284080D01*
X107226321Y-57053631D01*
X107226321Y-56804195D01*
X107130866Y-56573746D01*
X106954488Y-56397368D01*
X106724039Y-56301913D01*
X106474603Y-56301913D01*
X106244154Y-56397368D01*
X106067776Y-56573746D01*
X105972321Y-56804195D01*
X100777000Y-56804195D01*
X100777000Y-56056719D01*
X100796040Y-56064606D01*
X101045476Y-56064606D01*
X101275925Y-55969151D01*
X101419794Y-55825282D01*
X107223000Y-55825282D01*
X107223000Y-56074718D01*
X107305962Y-56275007D01*
X107223000Y-56475295D01*
X107223000Y-56724731D01*
X107318455Y-56955180D01*
X107494833Y-57131558D01*
X107725282Y-57227013D01*
X107974718Y-57227013D01*
X108205167Y-57131558D01*
X108236479Y-57100246D01*
X110323000Y-57100246D01*
X110323000Y-57349682D01*
X110418455Y-57580131D01*
X110594833Y-57756509D01*
X110825282Y-57851964D01*
X111074718Y-57851964D01*
X111305167Y-57756509D01*
X111481545Y-57580131D01*
X111527185Y-57469946D01*
X113951978Y-57469946D01*
X113951978Y-57719382D01*
X114047433Y-57949831D01*
X114223811Y-58126209D01*
X114454260Y-58221664D01*
X114703696Y-58221664D01*
X114934145Y-58126209D01*
X115110523Y-57949831D01*
X115205978Y-57719382D01*
X115205978Y-57469946D01*
X115110523Y-57239497D01*
X114934145Y-57063119D01*
X114703696Y-56967664D01*
X114454260Y-56967664D01*
X114223811Y-57063119D01*
X114047433Y-57239497D01*
X113951978Y-57469946D01*
X111527185Y-57469946D01*
X111577000Y-57349682D01*
X111577000Y-57100246D01*
X111481545Y-56869797D01*
X111305167Y-56693419D01*
X111074718Y-56597964D01*
X110825282Y-56597964D01*
X110594833Y-56693419D01*
X110418455Y-56869797D01*
X110323000Y-57100246D01*
X108236479Y-57100246D01*
X108381545Y-56955180D01*
X108477000Y-56724731D01*
X108477000Y-56475295D01*
X108394038Y-56275007D01*
X108477000Y-56074718D01*
X108477000Y-55825282D01*
X108381545Y-55594833D01*
X108205167Y-55418455D01*
X108100939Y-55375282D01*
X111273010Y-55375282D01*
X111273010Y-55624718D01*
X111368465Y-55855167D01*
X111544843Y-56031545D01*
X111775292Y-56127000D01*
X112024728Y-56127000D01*
X112255177Y-56031545D01*
X112431555Y-55855167D01*
X112527010Y-55624718D01*
X112527010Y-55375282D01*
X112873000Y-55375282D01*
X112873000Y-55624718D01*
X112968455Y-55855167D01*
X113144833Y-56031545D01*
X113375282Y-56127000D01*
X113624718Y-56127000D01*
X113855167Y-56031545D01*
X114031545Y-55855167D01*
X114127000Y-55624718D01*
X114127000Y-55375282D01*
X114031545Y-55144833D01*
X113855167Y-54968455D01*
X113630228Y-54875282D01*
X118273000Y-54875282D01*
X118273000Y-55124718D01*
X118368455Y-55355167D01*
X118544833Y-55531545D01*
X118775282Y-55627000D01*
X119024718Y-55627000D01*
X119255167Y-55531545D01*
X119431545Y-55355167D01*
X119527000Y-55124718D01*
X119527000Y-54925282D01*
X121723000Y-54925282D01*
X121723000Y-55174718D01*
X121818455Y-55405167D01*
X121994833Y-55581545D01*
X122225282Y-55677000D01*
X122474718Y-55677000D01*
X122705167Y-55581545D01*
X122881545Y-55405167D01*
X122977000Y-55174718D01*
X122977000Y-54925282D01*
X122881545Y-54694833D01*
X122705167Y-54518455D01*
X122474718Y-54423000D01*
X122225282Y-54423000D01*
X121994833Y-54518455D01*
X121818455Y-54694833D01*
X121723000Y-54925282D01*
X119527000Y-54925282D01*
X119527000Y-54875282D01*
X119431545Y-54644833D01*
X119255167Y-54468455D01*
X119024718Y-54373000D01*
X118775282Y-54373000D01*
X118544833Y-54468455D01*
X118368455Y-54644833D01*
X118273000Y-54875282D01*
X113630228Y-54875282D01*
X113624718Y-54873000D01*
X113375282Y-54873000D01*
X113144833Y-54968455D01*
X112968455Y-55144833D01*
X112873000Y-55375282D01*
X112527010Y-55375282D01*
X112431555Y-55144833D01*
X112255177Y-54968455D01*
X112024728Y-54873000D01*
X111775292Y-54873000D01*
X111544843Y-54968455D01*
X111368465Y-55144833D01*
X111273010Y-55375282D01*
X108100939Y-55375282D01*
X107974718Y-55323000D01*
X107725282Y-55323000D01*
X107494833Y-55418455D01*
X107318455Y-55594833D01*
X107223000Y-55825282D01*
X101419794Y-55825282D01*
X101452303Y-55792773D01*
X101547758Y-55562324D01*
X101547758Y-55312888D01*
X101452303Y-55082439D01*
X101275925Y-54906061D01*
X101045476Y-54810606D01*
X100796040Y-54810606D01*
X100777000Y-54818493D01*
X100777000Y-54327000D01*
X107800000Y-54327000D01*
X107848601Y-54317333D01*
X107889803Y-54289803D01*
X107917333Y-54248601D01*
X107927000Y-54200000D01*
X107927000Y-53875282D01*
X117373000Y-53875282D01*
X117373000Y-54124718D01*
X117468455Y-54355167D01*
X117644833Y-54531545D01*
X117875282Y-54627000D01*
X118124718Y-54627000D01*
X118355167Y-54531545D01*
X118531545Y-54355167D01*
X118627000Y-54124718D01*
X118627000Y-53875282D01*
X118531545Y-53644833D01*
X118355167Y-53468455D01*
X118124718Y-53373000D01*
X117875282Y-53373000D01*
X117644833Y-53468455D01*
X117468455Y-53644833D01*
X117373000Y-53875282D01*
X107927000Y-53875282D01*
X107927000Y-52975282D01*
X119773000Y-52975282D01*
X119773000Y-53224718D01*
X119868455Y-53455167D01*
X120044833Y-53631545D01*
X120275282Y-53727000D01*
X120524718Y-53727000D01*
X120755167Y-53631545D01*
X120931545Y-53455167D01*
X121027000Y-53224718D01*
X121027000Y-52975282D01*
X120931545Y-52744833D01*
X120755167Y-52568455D01*
X120524718Y-52473000D01*
X120275282Y-52473000D01*
X120044833Y-52568455D01*
X119868455Y-52744833D01*
X119773000Y-52975282D01*
X107927000Y-52975282D01*
X107927000Y-51775282D01*
X116573000Y-51775282D01*
X116573000Y-52024718D01*
X116668455Y-52255167D01*
X116844833Y-52431545D01*
X117075282Y-52527000D01*
X117324718Y-52527000D01*
X117555167Y-52431545D01*
X117731545Y-52255167D01*
X117827000Y-52024718D01*
X117827000Y-51775282D01*
X117731545Y-51544833D01*
X117555167Y-51368455D01*
X117324718Y-51273000D01*
X117075282Y-51273000D01*
X116844833Y-51368455D01*
X116668455Y-51544833D01*
X116573000Y-51775282D01*
X107927000Y-51775282D01*
X107927000Y-50475282D01*
X113698009Y-50475282D01*
X113698009Y-50724718D01*
X113793464Y-50955167D01*
X113969842Y-51131545D01*
X114200291Y-51227000D01*
X114449727Y-51227000D01*
X114680176Y-51131545D01*
X114856554Y-50955167D01*
X114952009Y-50724718D01*
X114952009Y-50475282D01*
X114856554Y-50244833D01*
X114680176Y-50068455D01*
X114449727Y-49973000D01*
X114200291Y-49973000D01*
X113969842Y-50068455D01*
X113793464Y-50244833D01*
X113698009Y-50475282D01*
X107927000Y-50475282D01*
X107927000Y-48727000D01*
X109400000Y-48727000D01*
X109448601Y-48717333D01*
X109489803Y-48689803D01*
X109517333Y-48648601D01*
X109527000Y-48600000D01*
X109527000Y-48275282D01*
X111873000Y-48275282D01*
X111873000Y-48524718D01*
X111968455Y-48755167D01*
X112144833Y-48931545D01*
X112375282Y-49027000D01*
X112624718Y-49027000D01*
X112855167Y-48931545D01*
X113031545Y-48755167D01*
X113127000Y-48524718D01*
X113127000Y-48275282D01*
X113031545Y-48044833D01*
X113011996Y-48025284D01*
X113698009Y-48025284D01*
X113698009Y-48274720D01*
X113793464Y-48505169D01*
X113969842Y-48681547D01*
X114200291Y-48777002D01*
X114449727Y-48777002D01*
X114680176Y-48681547D01*
X114856554Y-48505169D01*
X114952009Y-48274720D01*
X114952009Y-48025284D01*
X114856554Y-47794835D01*
X114680176Y-47618457D01*
X114449727Y-47523002D01*
X114200291Y-47523002D01*
X113969842Y-47618457D01*
X113793464Y-47794835D01*
X113698009Y-48025284D01*
X113011996Y-48025284D01*
X112855167Y-47868455D01*
X112624718Y-47773000D01*
X112375282Y-47773000D01*
X112144833Y-47868455D01*
X111968455Y-48044833D01*
X111873000Y-48275282D01*
X109527000Y-48275282D01*
X109527000Y-47275278D01*
X116373000Y-47275278D01*
X116373000Y-47524714D01*
X116468455Y-47755163D01*
X116644833Y-47931541D01*
X116875282Y-48026996D01*
X117124718Y-48026996D01*
X117355167Y-47931541D01*
X117531545Y-47755163D01*
X117627000Y-47524714D01*
X117627000Y-47275278D01*
X117531545Y-47044829D01*
X117355167Y-46868451D01*
X117124718Y-46772996D01*
X116875282Y-46772996D01*
X116644833Y-46868451D01*
X116468455Y-47044829D01*
X116373000Y-47275278D01*
X109527000Y-47275278D01*
X109527000Y-45475282D01*
X113673006Y-45475282D01*
X113673006Y-45724718D01*
X113768461Y-45955167D01*
X113944839Y-46131545D01*
X114175288Y-46227000D01*
X114424724Y-46227000D01*
X114655173Y-46131545D01*
X114831551Y-45955167D01*
X114927006Y-45724718D01*
X114927006Y-45475282D01*
X114831551Y-45244833D01*
X114655173Y-45068455D01*
X114424724Y-44973000D01*
X114175288Y-44973000D01*
X113944839Y-45068455D01*
X113768461Y-45244833D01*
X113673006Y-45475282D01*
X109527000Y-45475282D01*
X109527000Y-44175282D01*
X111073000Y-44175282D01*
X111073000Y-44424718D01*
X111168455Y-44655167D01*
X111344833Y-44831545D01*
X111575282Y-44927000D01*
X111824718Y-44927000D01*
X112055167Y-44831545D01*
X112231545Y-44655167D01*
X112327000Y-44424718D01*
X112327000Y-44175282D01*
X113773000Y-44175282D01*
X113773000Y-44424718D01*
X113868455Y-44655167D01*
X114044833Y-44831545D01*
X114275282Y-44927000D01*
X114524718Y-44927000D01*
X114755167Y-44831545D01*
X114931545Y-44655167D01*
X115027000Y-44424718D01*
X115027000Y-44175282D01*
X114931545Y-43944833D01*
X114755167Y-43768455D01*
X114524718Y-43673000D01*
X114275282Y-43673000D01*
X114044833Y-43768455D01*
X113868455Y-43944833D01*
X113773000Y-44175282D01*
X112327000Y-44175282D01*
X112231545Y-43944833D01*
X112055167Y-43768455D01*
X111824718Y-43673000D01*
X111575282Y-43673000D01*
X111344833Y-43768455D01*
X111168455Y-43944833D01*
X111073000Y-44175282D01*
X109527000Y-44175282D01*
X109527000Y-43075282D01*
X118473000Y-43075282D01*
X118473000Y-43324718D01*
X118568455Y-43555167D01*
X118744833Y-43731545D01*
X118975282Y-43827000D01*
X119224718Y-43827000D01*
X119455167Y-43731545D01*
X119631545Y-43555167D01*
X119727000Y-43324718D01*
X119727000Y-43075282D01*
X119631545Y-42844833D01*
X119455167Y-42668455D01*
X119224718Y-42573000D01*
X118975282Y-42573000D01*
X118744833Y-42668455D01*
X118568455Y-42844833D01*
X118473000Y-43075282D01*
X109527000Y-43075282D01*
X109527000Y-41665608D01*
X109823000Y-41665608D01*
X109823000Y-42034392D01*
X109964127Y-42375103D01*
X110224897Y-42635873D01*
X110565608Y-42777000D01*
X110934392Y-42777000D01*
X111275103Y-42635873D01*
X111535873Y-42375103D01*
X111677000Y-42034392D01*
X111677000Y-41665608D01*
X111823000Y-41665608D01*
X111823000Y-42034392D01*
X111964127Y-42375103D01*
X112224897Y-42635873D01*
X112565608Y-42777000D01*
X112934392Y-42777000D01*
X113275103Y-42635873D01*
X113535873Y-42375103D01*
X113677000Y-42034392D01*
X113677000Y-41665608D01*
X113823000Y-41665608D01*
X113823000Y-42034392D01*
X113964127Y-42375103D01*
X114224897Y-42635873D01*
X114565608Y-42777000D01*
X114934392Y-42777000D01*
X115275103Y-42635873D01*
X115535873Y-42375103D01*
X115677000Y-42034392D01*
X115677000Y-41665608D01*
X115535873Y-41324897D01*
X115275103Y-41064127D01*
X114934392Y-40923000D01*
X114565608Y-40923000D01*
X114224897Y-41064127D01*
X113964127Y-41324897D01*
X113823000Y-41665608D01*
X113677000Y-41665608D01*
X113535873Y-41324897D01*
X113275103Y-41064127D01*
X112934392Y-40923000D01*
X112565608Y-40923000D01*
X112224897Y-41064127D01*
X111964127Y-41324897D01*
X111823000Y-41665608D01*
X111677000Y-41665608D01*
X111535873Y-41324897D01*
X111275103Y-41064127D01*
X110934392Y-40923000D01*
X110565608Y-40923000D01*
X110224897Y-41064127D01*
X109964127Y-41324897D01*
X109823000Y-41665608D01*
X109527000Y-41665608D01*
X109527000Y-40027000D01*
X121165895Y-40027000D01*
X121885407Y-40786129D01*
G04 #@! TO.N,VDDA*
G36*
X106773000Y-53673000D02*
X100777000Y-53673000D01*
X100777000Y-52527000D01*
X105000000Y-52527000D01*
X105048601Y-52517333D01*
X105089803Y-52489803D01*
X105117333Y-52448601D01*
X105127000Y-52400000D01*
X105127000Y-52117771D01*
X105335169Y-52031545D01*
X105511547Y-51855167D01*
X105607002Y-51624718D01*
X105607002Y-51375282D01*
X105511547Y-51144833D01*
X105335169Y-50968455D01*
X105127000Y-50882229D01*
X105127000Y-49926055D01*
X105355167Y-49831545D01*
X105531545Y-49655167D01*
X105627000Y-49424718D01*
X105627000Y-49175282D01*
X105531545Y-48944833D01*
X105355167Y-48768455D01*
X105127000Y-48673945D01*
X105127000Y-48327000D01*
X106773000Y-48327000D01*
X106773000Y-53673000D01*
X106773000Y-53673000D01*
G37*
X106773000Y-53673000D02*
X100777000Y-53673000D01*
X100777000Y-52527000D01*
X105000000Y-52527000D01*
X105048601Y-52517333D01*
X105089803Y-52489803D01*
X105117333Y-52448601D01*
X105127000Y-52400000D01*
X105127000Y-52117771D01*
X105335169Y-52031545D01*
X105511547Y-51855167D01*
X105607002Y-51624718D01*
X105607002Y-51375282D01*
X105511547Y-51144833D01*
X105335169Y-50968455D01*
X105127000Y-50882229D01*
X105127000Y-49926055D01*
X105355167Y-49831545D01*
X105531545Y-49655167D01*
X105627000Y-49424718D01*
X105627000Y-49175282D01*
X105531545Y-48944833D01*
X105355167Y-48768455D01*
X105127000Y-48673945D01*
X105127000Y-48327000D01*
X106773000Y-48327000D01*
X106773000Y-53673000D01*
G04 #@! TD*
M02*
